<svg xmlns="http://www.w3.org/2000/svg" xmlns:xlink="http://www.w3.org/1999/xlink" viewBox="0 0 307.87 849.42"><defs><style>.cls-1{isolation:isolate;}.cls-2{fill:url(#New_Gradient_Swatch_copy_25);}.cls-3{fill:url(#New_Gradient_Swatch_copy_25-2);}.cls-4{fill:url(#New_Gradient_Swatch_copy_26);}.cls-5{fill:url(#New_Gradient_Swatch_copy_26-2);}.cls-6{fill:url(#New_Gradient_Swatch_copy_26-3);}.cls-7{fill:url(#New_Gradient_Swatch_copy_26-4);}.cls-8{fill:url(#New_Gradient_Swatch_copy_26-5);}.cls-9{fill:url(#New_Gradient_Swatch_copy_26-6);}.cls-10{fill:url(#New_Gradient_Swatch_copy_26-7);}.cls-11{fill:url(#New_Gradient_Swatch_copy_26-8);}.cls-12{fill:url(#New_Gradient_Swatch_copy_26-9);}.cls-13{fill:url(#New_Gradient_Swatch_copy_26-10);}.cls-14{fill:url(#New_Gradient_Swatch_copy_26-11);}.cls-15{fill:url(#New_Gradient_Swatch_copy_26-12);}.cls-16{fill:url(#New_Gradient_Swatch_copy_26-13);}.cls-17{fill:url(#New_Gradient_Swatch_copy_26-14);}.cls-18{fill:url(#New_Gradient_Swatch_copy_26-15);}.cls-19{fill:url(#New_Gradient_Swatch_copy_26-16);}.cls-20{fill:url(#New_Gradient_Swatch_copy_26-17);}.cls-21{fill:url(#New_Gradient_Swatch_copy_26-18);}.cls-22{fill:url(#New_Gradient_Swatch_copy_26-19);}.cls-23{fill:url(#New_Gradient_Swatch_copy_26-20);}.cls-24{fill:url(#New_Gradient_Swatch_copy_26-21);}.cls-25{fill:url(#New_Gradient_Swatch_copy_26-22);}.cls-26{fill:url(#New_Gradient_Swatch_copy_26-23);}.cls-27{fill:url(#New_Gradient_Swatch_copy_26-24);}.cls-28{fill:url(#New_Gradient_Swatch_copy_26-25);}.cls-29{fill:url(#New_Gradient_Swatch_copy_26-26);}.cls-30{fill:url(#New_Gradient_Swatch_copy_26-27);}.cls-31{fill:url(#New_Gradient_Swatch_copy_26-28);}.cls-32{fill:url(#New_Gradient_Swatch_copy_26-29);}.cls-33{fill:url(#New_Gradient_Swatch_copy_26-30);}.cls-34{fill:url(#New_Gradient_Swatch_copy_26-31);}.cls-35{fill:url(#New_Gradient_Swatch_copy_26-32);}.cls-36{fill:url(#New_Gradient_Swatch_copy_26-33);}.cls-37{fill:url(#New_Gradient_Swatch_copy_26-34);}.cls-38{fill:url(#New_Gradient_Swatch_copy_26-35);}.cls-39{fill:url(#New_Gradient_Swatch_copy_26-36);}.cls-40{fill:url(#New_Gradient_Swatch_copy_26-37);}.cls-41{fill:url(#New_Gradient_Swatch_copy_26-38);}.cls-42{fill:url(#New_Gradient_Swatch_copy_26-39);}.cls-43{fill:url(#New_Gradient_Swatch_copy_26-40);}.cls-44{fill:url(#New_Gradient_Swatch_copy_25-3);}.cls-45{mix-blend-mode:color-dodge;fill:url(#linear-gradient);}.cls-46{fill:url(#New_Gradient_Swatch_copy_25-4);}.cls-47{fill:url(#New_Gradient_Swatch_copy_25-5);}.cls-48{fill:url(#New_Gradient_Swatch_copy_13);}.cls-49{fill:url(#New_Gradient_Swatch_copy_13-2);}.cls-50{fill:url(#New_Gradient_Swatch_copy_25-6);}.cls-51{fill:url(#New_Gradient_Swatch_copy_25-7);}.cls-52{fill:url(#New_Gradient_Swatch_copy_25-8);}.cls-53{fill:url(#linear-gradient-2);}.cls-54{fill:url(#linear-gradient-3);}.cls-55{fill:url(#New_Gradient_Swatch_copy_25-9);}.cls-56{fill:url(#New_Gradient_Swatch_copy_25-10);}.cls-57{fill:url(#New_Gradient_Swatch_copy_25-11);}.cls-58{fill:url(#New_Gradient_Swatch_copy_25-12);}.cls-59{fill:url(#linear-gradient-4);}.cls-60{fill:url(#linear-gradient-5);}.cls-61{fill:url(#linear-gradient-6);}</style><linearGradient id="New_Gradient_Swatch_copy_25" x1="179.11" y1="484.62" x2="853.14" y2="282.79" gradientUnits="userSpaceOnUse"><stop offset="0" stop-color="#25054d"/><stop offset="1" stop-color="#45108a"/></linearGradient><linearGradient id="New_Gradient_Swatch_copy_25-2" x1="-355.76" y1="566.22" x2="527.86" y2="368.14" xlink:href="#New_Gradient_Swatch_copy_25"/><linearGradient id="New_Gradient_Swatch_copy_26" x1="75.85" y1="624.79" x2="75.85" y2="172.79" gradientUnits="userSpaceOnUse"><stop offset="0.03" stop-color="#7c1dc9"/><stop offset="0.21" stop-color="#6e41d2"/><stop offset="0.62" stop-color="#4c9be8"/><stop offset="1" stop-color="#2af6ff"/></linearGradient><linearGradient id="New_Gradient_Swatch_copy_26-2" x1="75.85" y1="634.14" x2="75.85" y2="182.14" xlink:href="#New_Gradient_Swatch_copy_26"/><linearGradient id="New_Gradient_Swatch_copy_26-3" x1="75.85" y1="643.49" x2="75.85" y2="191.48" xlink:href="#New_Gradient_Swatch_copy_26"/><linearGradient id="New_Gradient_Swatch_copy_26-4" x1="75.85" y1="652.84" x2="75.85" y2="200.83" xlink:href="#New_Gradient_Swatch_copy_26"/><linearGradient id="New_Gradient_Swatch_copy_26-5" x1="75.85" y1="662.19" x2="75.85" y2="210.18" xlink:href="#New_Gradient_Swatch_copy_26"/><linearGradient id="New_Gradient_Swatch_copy_26-6" x1="75.85" y1="671.54" x2="75.85" y2="219.53" xlink:href="#New_Gradient_Swatch_copy_26"/><linearGradient id="New_Gradient_Swatch_copy_26-7" x1="75.85" y1="680.89" x2="75.85" y2="228.88" xlink:href="#New_Gradient_Swatch_copy_26"/><linearGradient id="New_Gradient_Swatch_copy_26-8" x1="75.85" y1="690.24" x2="75.85" y2="238.23" xlink:href="#New_Gradient_Swatch_copy_26"/><linearGradient id="New_Gradient_Swatch_copy_26-9" x1="75.85" y1="699.59" x2="75.85" y2="247.58" xlink:href="#New_Gradient_Swatch_copy_26"/><linearGradient id="New_Gradient_Swatch_copy_26-10" x1="75.85" y1="708.94" x2="75.85" y2="256.93" xlink:href="#New_Gradient_Swatch_copy_26"/><linearGradient id="New_Gradient_Swatch_copy_26-11" x1="75.85" y1="718.29" x2="75.85" y2="266.28" xlink:href="#New_Gradient_Swatch_copy_26"/><linearGradient id="New_Gradient_Swatch_copy_26-12" x1="75.85" y1="727.64" x2="75.85" y2="275.63" xlink:href="#New_Gradient_Swatch_copy_26"/><linearGradient id="New_Gradient_Swatch_copy_26-13" x1="75.85" y1="736.99" x2="75.85" y2="284.98" xlink:href="#New_Gradient_Swatch_copy_26"/><linearGradient id="New_Gradient_Swatch_copy_26-14" x1="75.85" y1="746.34" x2="75.85" y2="294.33" xlink:href="#New_Gradient_Swatch_copy_26"/><linearGradient id="New_Gradient_Swatch_copy_26-15" x1="75.85" y1="755.69" x2="75.85" y2="303.68" xlink:href="#New_Gradient_Swatch_copy_26"/><linearGradient id="New_Gradient_Swatch_copy_26-16" x1="75.85" y1="765.04" x2="75.85" y2="313.03" xlink:href="#New_Gradient_Swatch_copy_26"/><linearGradient id="New_Gradient_Swatch_copy_26-17" x1="75.85" y1="774.39" x2="75.85" y2="322.38" xlink:href="#New_Gradient_Swatch_copy_26"/><linearGradient id="New_Gradient_Swatch_copy_26-18" x1="75.85" y1="783.74" x2="75.85" y2="331.73" xlink:href="#New_Gradient_Swatch_copy_26"/><linearGradient id="New_Gradient_Swatch_copy_26-19" x1="75.85" y1="793.09" x2="75.85" y2="341.08" xlink:href="#New_Gradient_Swatch_copy_26"/><linearGradient id="New_Gradient_Swatch_copy_26-20" x1="75.85" y1="802.44" x2="75.85" y2="350.43" xlink:href="#New_Gradient_Swatch_copy_26"/><linearGradient id="New_Gradient_Swatch_copy_26-21" x1="137.58" y1="581.65" x2="269.56" y2="-12.28" xlink:href="#New_Gradient_Swatch_copy_26"/><linearGradient id="New_Gradient_Swatch_copy_26-22" x1="142.46" y1="592.08" x2="274.44" y2="-1.84" xlink:href="#New_Gradient_Swatch_copy_26"/><linearGradient id="New_Gradient_Swatch_copy_26-23" x1="147.35" y1="602.52" x2="279.33" y2="8.59" xlink:href="#New_Gradient_Swatch_copy_26"/><linearGradient id="New_Gradient_Swatch_copy_26-24" x1="152.23" y1="612.95" x2="284.21" y2="19.03" xlink:href="#New_Gradient_Swatch_copy_26"/><linearGradient id="New_Gradient_Swatch_copy_26-25" x1="157.12" y1="623.39" x2="289.1" y2="29.46" xlink:href="#New_Gradient_Swatch_copy_26"/><linearGradient id="New_Gradient_Swatch_copy_26-26" x1="162" y1="633.83" x2="293.98" y2="39.9" xlink:href="#New_Gradient_Swatch_copy_26"/><linearGradient id="New_Gradient_Swatch_copy_26-27" x1="166.89" y1="644.26" x2="298.87" y2="50.34" xlink:href="#New_Gradient_Swatch_copy_26"/><linearGradient id="New_Gradient_Swatch_copy_26-28" x1="171.77" y1="654.7" x2="303.75" y2="60.77" xlink:href="#New_Gradient_Swatch_copy_26"/><linearGradient id="New_Gradient_Swatch_copy_26-29" x1="176.66" y1="665.13" x2="308.64" y2="71.21" xlink:href="#New_Gradient_Swatch_copy_26"/><linearGradient id="New_Gradient_Swatch_copy_26-30" x1="181.54" y1="675.57" x2="313.52" y2="81.64" xlink:href="#New_Gradient_Swatch_copy_26"/><linearGradient id="New_Gradient_Swatch_copy_26-31" x1="186.42" y1="686" x2="318.41" y2="92.08" xlink:href="#New_Gradient_Swatch_copy_26"/><linearGradient id="New_Gradient_Swatch_copy_26-32" x1="191.31" y1="696.44" x2="323.29" y2="102.51" xlink:href="#New_Gradient_Swatch_copy_26"/><linearGradient id="New_Gradient_Swatch_copy_26-33" x1="196.19" y1="706.87" x2="328.18" y2="112.95" xlink:href="#New_Gradient_Swatch_copy_26"/><linearGradient id="New_Gradient_Swatch_copy_26-34" x1="201.08" y1="717.31" x2="333.06" y2="123.38" xlink:href="#New_Gradient_Swatch_copy_26"/><linearGradient id="New_Gradient_Swatch_copy_26-35" x1="205.96" y1="727.74" x2="337.95" y2="133.82" xlink:href="#New_Gradient_Swatch_copy_26"/><linearGradient id="New_Gradient_Swatch_copy_26-36" x1="210.85" y1="738.18" x2="342.83" y2="144.25" xlink:href="#New_Gradient_Swatch_copy_26"/><linearGradient id="New_Gradient_Swatch_copy_26-37" x1="215.73" y1="748.61" x2="347.72" y2="154.69" xlink:href="#New_Gradient_Swatch_copy_26"/><linearGradient id="New_Gradient_Swatch_copy_26-38" x1="220.62" y1="759.05" x2="352.6" y2="165.12" xlink:href="#New_Gradient_Swatch_copy_26"/><linearGradient id="New_Gradient_Swatch_copy_26-39" x1="225.5" y1="769.48" x2="357.49" y2="175.56" xlink:href="#New_Gradient_Swatch_copy_26"/><linearGradient id="New_Gradient_Swatch_copy_26-40" x1="230.39" y1="779.92" x2="362.37" y2="185.99" xlink:href="#New_Gradient_Swatch_copy_26"/><linearGradient id="New_Gradient_Swatch_copy_25-3" x1="314.32" y1="-216.47" x2="141.79" y2="112.34" xlink:href="#New_Gradient_Swatch_copy_25"/><linearGradient id="linear-gradient" x1="244.17" y1="495.82" x2="-6.48" y2="456.24" gradientUnits="userSpaceOnUse"><stop offset="0" stop-color="#972a74"/><stop offset="0.04" stop-color="#8a266a"/><stop offset="0.19" stop-color="#601b4a"/><stop offset="0.35" stop-color="#3d112f"/><stop offset="0.51" stop-color="#230a1b"/><stop offset="0.67" stop-color="#0f040c"/><stop offset="0.83" stop-color="#040103"/><stop offset="1"/></linearGradient><linearGradient id="New_Gradient_Swatch_copy_25-4" x1="187.15" y1="115.44" x2="406.02" y2="49.9" xlink:href="#New_Gradient_Swatch_copy_25"/><linearGradient id="New_Gradient_Swatch_copy_25-5" x1="-35.75" y1="141.6" x2="247.94" y2="78.01" xlink:href="#New_Gradient_Swatch_copy_25"/><linearGradient id="New_Gradient_Swatch_copy_13" x1="187.68" y1="108.67" x2="399.58" y2="45.22" gradientUnits="userSpaceOnUse"><stop offset="0.04" stop-color="#6b24d6"/><stop offset="0.29" stop-color="#7733dc"/><stop offset="0.79" stop-color="#975ced"/><stop offset="1" stop-color="#a56ef4"/></linearGradient><linearGradient id="New_Gradient_Swatch_copy_13-2" x1="-31.23" y1="133.98" x2="243.22" y2="72.46" xlink:href="#New_Gradient_Swatch_copy_13"/><linearGradient id="New_Gradient_Swatch_copy_25-6" x1="258.77" y1="-127.63" x2="145.8" y2="87.68" xlink:href="#New_Gradient_Swatch_copy_25"/><linearGradient id="New_Gradient_Swatch_copy_25-7" x1="169.35" y1="74" x2="289.87" y2="37.91" xlink:href="#New_Gradient_Swatch_copy_25"/><linearGradient id="New_Gradient_Swatch_copy_25-8" x1="52.05" y1="88.44" x2="208.63" y2="53.34" xlink:href="#New_Gradient_Swatch_copy_25"/><linearGradient id="linear-gradient-2" x1="170.15" y1="67.78" x2="280.17" y2="34.84" gradientUnits="userSpaceOnUse"><stop offset="0" stop-color="#7467d3"/><stop offset="1" stop-color="#a56ef4"/></linearGradient><linearGradient id="linear-gradient-3" x1="58.86" y1="80.94" x2="201.52" y2="48.96" xlink:href="#linear-gradient-2"/><linearGradient id="New_Gradient_Swatch_copy_25-9" x1="205.72" y1="-58.15" x2="149.81" y2="48.41" xlink:href="#New_Gradient_Swatch_copy_25"/><linearGradient id="New_Gradient_Swatch_copy_25-10" x1="84.22" y1="720.64" x2="268.31" y2="665.52" xlink:href="#New_Gradient_Swatch_copy_25"/><linearGradient id="New_Gradient_Swatch_copy_25-11" x1="-133.16" y1="742.98" x2="233.65" y2="660.76" xlink:href="#New_Gradient_Swatch_copy_25"/><linearGradient id="New_Gradient_Swatch_copy_25-12" x1="92.9" y1="516.15" x2="58.46" y2="581.78" xlink:href="#New_Gradient_Swatch_copy_25"/><linearGradient id="linear-gradient-4" x1="7.3" y1="588.38" x2="51.82" y2="875.3" gradientUnits="userSpaceOnUse"><stop offset="0.15" stop-color="#7c1dc9"/><stop offset="0.39" stop-color="#9e41b9"/><stop offset="0.92" stop-color="#f29c92"/><stop offset="1" stop-color="#ffa98c"/></linearGradient><linearGradient id="linear-gradient-5" x1="22.24" y1="591.04" x2="79.63" y2="887.6" xlink:href="#linear-gradient-4"/><linearGradient id="linear-gradient-6" x1="36.49" y1="594.32" x2="107.4" y2="899.39" xlink:href="#linear-gradient-4"/></defs><g class="cls-1"><g id="Layer_2" data-name="Layer 2"><g id="_Layer_" data-name="&lt;Layer&gt;"><polygon class="cls-2" points="152.81 178.29 152.81 849.42 307.87 760.27 307.87 89.13 152.81 178.29"/><polygon class="cls-3" points="152.9 178.29 152.9 849.42 0 760.29 0 89.25 152.9 178.29"/><path class="cls-4" d="M122.79,178.15v17.21l14.9,9.16V187.29Zm-27.2,1.54,14.91,9.16V171.62l-14.91-9.14ZM14,132.67l14.9,9.16V124.6L14,115.46ZM41.2,148.34l14.91,9.16V140.28L41.2,131.13ZM68.4,164l14.9,9.16V156L68.4,146.8Z"/><path class="cls-5" d="M122.79,210.57v17.21l14.9,9.16V219.71Zm-27.2,1.53,14.91,9.16V204l-14.91-9.15ZM14,165.08l14.9,9.16V157L14,147.87ZM41.2,180.76l14.91,9.16V172.69L41.2,163.55Zm27.2,15.67,14.9,9.16V188.37l-14.9-9.15Z"/><path class="cls-6" d="M122.79,243v17.21l14.9,9.16V252.13Zm-27.2,1.54,14.91,9.16V236.46l-14.91-9.15ZM14,197.5l14.9,9.16V189.44L14,180.29ZM41.2,213.17l14.91,9.16V205.11L41.2,196Zm27.2,15.68L83.3,238V220.78l-14.9-9.14Z"/><path class="cls-7" d="M122.79,275.4v17.21l14.9,9.16V284.55Zm-27.2,1.54,14.91,9.16V268.87l-14.91-9.14ZM14,229.92l14.9,9.16V221.85L14,212.71ZM41.2,245.59l14.91,9.16V237.53L41.2,228.38Zm27.2,15.67,14.9,9.16V253.2l-14.9-9.15Z"/><path class="cls-8" d="M122.79,307.82V325l14.9,9.16V317Zm-27.2,1.53,14.91,9.16V301.29l-14.91-9.15ZM14,262.34l14.9,9.16V254.27L14,245.13ZM41.2,278l14.91,9.16V269.94L41.2,260.8Zm27.2,15.67,14.9,9.16V285.62l-14.9-9.15Z"/><path class="cls-9" d="M122.79,340.24v17.2l14.9,9.16V349.38Zm-27.2,1.53,14.91,9.16V333.71l-14.91-9.15ZM14,294.75l14.9,9.16V286.69L14,277.54ZM41.2,310.43l14.91,9.16V302.36L41.2,293.22ZM68.4,326.1l14.9,9.16V318l-14.9-9.14Z"/><path class="cls-10" d="M122.79,372.65v17.21l14.9,9.16V381.8Zm-27.2,1.54,14.91,9.16V366.12L95.59,357ZM14,327.17l14.9,9.16V319.11L14,310ZM41.2,342.84,56.11,352V334.78L41.2,325.63Zm27.2,15.68,14.9,9.16V350.45l-14.9-9.14Z"/><path class="cls-11" d="M122.79,405.07v17.21l14.9,9.16V414.21Zm-27.2,1.54,14.91,9.16V398.54L95.59,389.4ZM14,359.59l14.9,9.16V351.52L14,342.38ZM41.2,375.26l14.91,9.16V367.2L41.2,358.05Zm27.2,15.67,14.9,9.16V382.87l-14.9-9.15Z"/><path class="cls-12" d="M122.79,437.49V454.7l14.9,9.16V446.63ZM95.59,439l14.91,9.16V431l-14.91-9.15ZM14,392l14.9,9.16V383.94L14,374.79ZM41.2,407.68l14.91,9.16V399.61L41.2,390.47Zm27.2,15.67,14.9,9.16V415.29l-14.9-9.15Z"/><path class="cls-13" d="M122.79,469.9v17.21l14.9,9.16V479.05Zm-27.2,1.54,14.91,9.16V463.38l-14.91-9.15ZM14,424.42l14.9,9.16V416.36L14,407.21ZM41.2,440.09l14.91,9.16V432L41.2,422.88Zm27.2,15.68,14.9,9.16V447.7l-14.9-9.14Z"/><path class="cls-14" d="M122.79,502.32v17.21l14.9,9.16V511.47Zm-27.2,1.54L110.5,513V495.79l-14.91-9.14ZM14,456.84,28.91,466V448.77L14,439.63ZM41.2,472.51l14.91,9.16V464.45L41.2,455.3Zm27.2,15.67,14.9,9.16V480.12L68.4,471Z"/><path class="cls-15" d="M122.79,534.74V552l14.9,9.16V543.88Zm-27.2,1.53,14.91,9.16V528.21l-14.91-9.15ZM14,489.26l14.9,9.16V481.19L14,472.05ZM41.2,504.93l14.91,9.16V496.86L41.2,487.72ZM68.4,520.6l14.9,9.16V512.54l-14.9-9.15Z"/><path class="cls-16" d="M122.79,567.16v17.2l14.9,9.16V576.3Zm-27.2,1.53,14.91,9.16V560.63l-14.91-9.15ZM14,521.67l14.9,9.16V513.61L14,504.46ZM41.2,537.35l14.91,9.16V529.28L41.2,520.14ZM68.4,553l14.9,9.16V545l-14.9-9.14Z"/><path class="cls-17" d="M122.79,599.57v17.21l14.9,9.16V608.72Zm-27.2,1.54,14.91,9.16V593L95.59,583.9ZM14,554.09l14.9,9.16V546L14,536.88ZM41.2,569.76l14.91,9.16V561.7L41.2,552.55Zm27.2,15.68,14.9,9.16V577.37l-14.9-9.14Z"/><path class="cls-18" d="M122.79,632V649.2l14.9,9.16V641.13Zm-27.2,1.54,14.91,9.16V625.46l-14.91-9.14ZM14,586.51l14.9,9.16V578.44L14,569.3ZM41.2,602.18l14.91,9.16V594.12L41.2,585Zm27.2,15.67L83.3,627V609.79l-14.9-9.15Z"/><path class="cls-19" d="M122.79,664.41v17.21l14.9,9.16V673.55Zm-27.2,1.53,14.91,9.16V657.88l-14.91-9.15ZM14,618.92l14.9,9.16V610.86L14,601.71ZM41.2,634.6l14.91,9.16V626.53L41.2,617.39Zm27.2,15.67,14.9,9.16V642.21l-14.9-9.15Z"/><path class="cls-20" d="M122.79,696.82V714l14.9,9.16V706Zm-27.2,1.54,14.91,9.16V690.3l-14.91-9.15ZM14,651.34l14.9,9.16V643.28L14,634.13ZM41.2,667l14.91,9.16V659L41.2,649.8Zm27.2,15.68,14.9,9.16V674.62l-14.9-9.14Z"/><path class="cls-21" d="M122.79,729.24v17.21l14.9,9.16V738.39Zm-27.2,1.54,14.91,9.16V722.71l-14.91-9.14ZM14,683.76l14.9,9.16V675.69L14,666.55ZM41.2,699.43l14.91,9.16V691.37L41.2,682.22ZM68.4,715.1l14.9,9.16V707l-14.9-9.15Z"/><path class="cls-22" d="M122.79,761.66v17.21l14.9,9.16V770.8Zm-27.2,1.53,14.91,9.16V755.13L95.59,746ZM14,716.18l14.9,9.16V708.11L14,699ZM41.2,731.85,56.11,741V723.78L41.2,714.64Zm27.2,15.67,14.9,9.16V739.46l-14.9-9.15Z"/><path class="cls-23" d="M122.79,794.08v17.2l14.9,9.16V803.22Zm-27.2,1.53,14.91,9.16V787.55L95.59,778.4ZM14,748.59l14.9,9.16V740.53L14,731.38ZM41.2,764.27l14.91,9.16V756.2L41.2,747.06Zm27.2,15.67,14.9,9.16V771.87l-14.9-9.14Z"/><path class="cls-24" d="M293.12,115.46l-14.9,9.14v17.23l14.9-9.16Zm-27.19,15.67L251,140.28V157.5l14.91-9.16Zm-27.2,15.67L223.83,156v17.22l14.9-9.16Zm-69.29,40.49v17.23l14.9-9.16V178.15Zm42.1-24.81-14.91,9.14v17.23l14.91-9.16Z"/><path class="cls-25" d="M293.12,147.87,278.22,157v17.22l14.9-9.16Zm-27.19,15.68L251,172.69v17.23l14.91-9.16Zm-27.2,15.67-14.9,9.15v17.22l14.9-9.16Zm-69.29,40.49v17.23l14.9-9.16V210.57Zm42.1-24.82L196.63,204v17.22l14.91-9.16Z"/><path class="cls-26" d="M293.12,180.29l-14.9,9.15v17.22l14.9-9.16ZM265.93,196,251,205.11v17.22l14.91-9.16Zm-27.2,15.68-14.9,9.14V238l14.9-9.16Zm-69.29,40.49v17.22l14.9-9.16V243Zm42.1-24.82-14.91,9.15v17.22l14.91-9.16Z"/><path class="cls-27" d="M293.12,212.71l-14.9,9.14v17.23l14.9-9.16Zm-27.19,15.67L251,237.53v17.22l14.91-9.16Zm-27.2,15.67-14.9,9.15v17.22l14.9-9.16Zm-69.29,40.5v17.22l14.9-9.16V275.4Zm42.1-24.82-14.91,9.14V286.1l14.91-9.16Z"/><path class="cls-28" d="M293.12,245.13l-14.9,9.14V271.5l14.9-9.16ZM265.93,260.8,251,269.94v17.23L265.93,278Zm-27.2,15.67-14.9,9.15v17.22l14.9-9.16ZM169.44,317v17.23l14.9-9.16V307.82Zm42.1-24.82-14.91,9.15v17.22l14.91-9.16Z"/><path class="cls-29" d="M293.12,277.54l-14.9,9.15v17.22l14.9-9.16Zm-27.19,15.68L251,302.36v17.23l14.91-9.16Zm-27.2,15.67L223.83,318v17.23l14.9-9.16Zm-69.29,40.49V366.6l14.9-9.16v-17.2Zm42.1-24.82-14.91,9.15v17.22l14.91-9.16Z"/><path class="cls-30" d="M293.12,310l-14.9,9.15v17.22l14.9-9.16Zm-27.19,15.67L251,334.78V352l14.91-9.16Zm-27.2,15.68-14.9,9.14v17.23l14.9-9.16ZM169.44,381.8V399l14.9-9.16V372.65ZM211.54,357l-14.91,9.14v17.23l14.91-9.16Z"/><path class="cls-31" d="M293.12,342.38l-14.9,9.14v17.23l14.9-9.16Zm-27.19,15.67L251,367.2v17.22l14.91-9.16Zm-27.2,15.67-14.9,9.15v17.22l14.9-9.16Zm-69.29,40.49v17.23l14.9-9.16V405.07Zm42.1-24.81-14.91,9.14v17.23l14.91-9.16Z"/><path class="cls-32" d="M293.12,374.79l-14.9,9.15v17.22l14.9-9.16Zm-27.19,15.68L251,399.61v17.23l14.91-9.16Zm-27.2,15.67-14.9,9.15v17.22l14.9-9.16Zm-69.29,40.49v17.23l14.9-9.16V437.49Zm42.1-24.82L196.63,431v17.22L211.54,439Z"/><path class="cls-33" d="M293.12,407.21l-14.9,9.15v17.22l14.9-9.16Zm-27.19,15.67L251,432v17.22l14.91-9.16Zm-27.2,15.68-14.9,9.14v17.23l14.9-9.16Zm-69.29,40.49v17.22l14.9-9.16V469.9Zm42.1-24.82-14.91,9.15V480.6l14.91-9.16Z"/><path class="cls-34" d="M293.12,439.63l-14.9,9.14V466l14.9-9.16ZM265.93,455.3,251,464.45v17.22l14.91-9.16ZM238.73,471l-14.9,9.15v17.22l14.9-9.16Zm-69.29,40.5v17.22l14.9-9.16V502.32Zm42.1-24.82-14.91,9.14V513l14.91-9.16Z"/><path class="cls-35" d="M293.12,472.05l-14.9,9.14v17.23l14.9-9.16Zm-27.19,15.67L251,496.86v17.23l14.91-9.16Zm-27.2,15.67-14.9,9.15v17.22l14.9-9.16Zm-69.29,40.49v17.23l14.9-9.16V534.74Zm42.1-24.82-14.91,9.15v17.22l14.91-9.16Z"/><path class="cls-36" d="M293.12,504.46l-14.9,9.15v17.22l14.9-9.16Zm-27.19,15.68L251,529.28v17.23l14.91-9.16Zm-27.2,15.67L223.83,545v17.23l14.9-9.16ZM169.44,576.3v17.22l14.9-9.16v-17.2Zm42.1-24.82-14.91,9.15v17.22l14.91-9.16Z"/><path class="cls-37" d="M293.12,536.88,278.22,546v17.22l14.9-9.16Zm-27.19,15.67L251,561.7v17.22l14.91-9.16Zm-27.2,15.68-14.9,9.14V594.6l14.9-9.16Zm-69.29,40.49v17.22l14.9-9.16V599.57Zm42.1-24.82L196.63,593v17.23l14.91-9.16Z"/><path class="cls-38" d="M293.12,569.3l-14.9,9.14v17.23l14.9-9.16ZM265.93,585,251,594.12v17.22l14.91-9.16Zm-27.2,15.67-14.9,9.15V627l14.9-9.16Zm-69.29,40.49v17.23l14.9-9.16V632Zm42.1-24.81-14.91,9.14v17.23l14.91-9.16Z"/><path class="cls-39" d="M293.12,601.71l-14.9,9.15v17.22l14.9-9.16Zm-27.19,15.68L251,626.53v17.23l14.91-9.16Zm-27.2,15.67-14.9,9.15v17.22l14.9-9.16Zm-69.29,40.49v17.23l14.9-9.16V664.41Zm42.1-24.82-14.91,9.15V675.1l14.91-9.16Z"/><path class="cls-40" d="M293.12,634.13l-14.9,9.15V660.5l14.9-9.16ZM265.93,649.8,251,659v17.22L265.93,667Zm-27.2,15.68-14.9,9.14v17.23l14.9-9.16ZM169.44,706v17.22l14.9-9.16V696.82Zm42.1-24.82-14.91,9.15v17.22l14.91-9.16Z"/><path class="cls-41" d="M293.12,666.55l-14.9,9.14v17.23l14.9-9.16Zm-27.19,15.67L251,691.37v17.22l14.91-9.16Zm-27.2,15.67L223.83,707v17.22l14.9-9.16Zm-69.29,40.5v17.22l14.9-9.16V729.24Zm42.1-24.82-14.91,9.14v17.23l14.91-9.16Z"/><path class="cls-42" d="M293.12,699l-14.9,9.14v17.23l14.9-9.16Zm-27.19,15.67L251,723.78V741l14.91-9.16Zm-27.2,15.67-14.9,9.15v17.22l14.9-9.16ZM169.44,770.8V788l14.9-9.16V761.66ZM211.54,746l-14.91,9.15v17.22l14.91-9.16Z"/><path class="cls-43" d="M293.12,731.38l-14.9,9.15v17.22l14.9-9.16Zm-27.19,15.68L251,756.2v17.23l14.91-9.16Zm-27.2,15.67-14.9,9.14V789.1l14.9-9.16Zm-69.29,40.49v17.22l14.9-9.16v-17.2Zm42.1-24.82-14.91,9.15v17.22l14.91-9.16Z"/><polygon class="cls-44" points="0 89.25 152.9 178.29 307.87 89.13 154.81 0 0 89.25"/><polygon class="cls-45" points="152.9 178.29 152.9 849.42 0 760.29 0 89.25 152.9 178.29"/><polygon class="cls-46" points="153.01 130.86 153.01 148.43 254.55 90.05 254.55 72.48 153.01 130.86"/><polygon class="cls-47" points="153.07 130.86 153.07 148.43 52.95 90.06 52.95 72.56 153.07 130.86"/><polygon class="cls-48" points="153.01 130.86 153.01 135.22 254.55 76.84 254.55 72.48 153.01 130.86"/><polygon class="cls-49" points="153.07 130.86 153.07 135.22 52.95 76.85 52.95 72.56 153.07 130.86"/><polygon class="cls-50" points="52.95 72.56 153.07 130.86 254.55 72.48 154.32 14.12 52.95 72.56"/><polygon class="cls-51" points="153.39 69.78 153.39 101.62 203.63 72.73 203.63 40.88 153.39 69.78"/><polygon class="cls-52" points="153.41 69.78 153.41 101.62 103.87 72.74 103.87 40.92 153.41 69.78"/><polygon class="cls-53" points="153.39 73.76 153.39 85.69 203.63 56.8 203.63 44.87 153.39 73.76"/><polygon class="cls-54" points="153.41 73.76 153.41 85.69 103.87 56.81 103.87 44.91 153.41 73.76"/><polygon class="cls-55" points="103.87 40.92 153.41 69.78 203.63 40.88 154.03 12 103.87 40.92"/><polygon class="cls-56" points="83.56 842.05 112.87 825.93 112.87 590.85 83.56 606.97 83.56 842.05"/><polygon class="cls-57" points="8.91 798.5 83.6 842.05 83.6 606.97 8.91 563.48 8.91 798.5"/><polygon class="cls-58" points="8.91 563.48 83.6 606.97 112.87 590.85 38.09 547.3 8.91 563.48"/><polygon class="cls-59" points="29.7 597.36 19.75 591.57 19.75 804.01 29.7 809.81 29.7 597.36"/><polygon class="cls-60" points="50.84 609.8 40.89 604.01 40.89 816.45 50.84 822.25 50.84 609.8"/><polygon class="cls-61" points="71.97 622.24 62.03 616.45 62.03 828.89 71.97 834.69 71.97 622.24"/></g></g></g></svg>