<svg xmlns="http://www.w3.org/2000/svg" xmlns:xlink="http://www.w3.org/1999/xlink" viewBox="0 0 466.94 701.45"><defs><style>.cls-1{fill:url(#New_Gradient_Swatch_copy_25);}.cls-2{fill:url(#linear-gradient);}.cls-3{fill:url(#linear-gradient-2);}.cls-4{fill:url(#linear-gradient-3);}.cls-5{fill:url(#linear-gradient-4);}.cls-6{fill:url(#linear-gradient-5);}.cls-7{fill:url(#linear-gradient-6);}.cls-8{fill:url(#linear-gradient-7);}.cls-9{fill:url(#linear-gradient-8);}.cls-10{fill:url(#linear-gradient-9);}.cls-11{fill:url(#linear-gradient-10);}.cls-12{fill:url(#linear-gradient-11);}.cls-13{fill:url(#linear-gradient-12);}.cls-14{fill:url(#linear-gradient-13);}.cls-15{fill:url(#linear-gradient-14);}.cls-16{fill:url(#New_Gradient_Swatch_copy_25-2);}.cls-17{fill:url(#linear-gradient-15);}.cls-18{fill:url(#linear-gradient-16);}.cls-19{fill:url(#linear-gradient-17);}.cls-20{fill:url(#linear-gradient-18);}.cls-21{fill:url(#linear-gradient-19);}.cls-22{fill:url(#linear-gradient-20);}.cls-23{fill:url(#linear-gradient-21);}.cls-24{fill:url(#New_Gradient_Swatch_copy_25-3);}.cls-25{fill:url(#linear-gradient-22);}.cls-26{fill:url(#linear-gradient-23);}.cls-27{fill:url(#New_Gradient_Swatch_copy_25-4);}.cls-28{fill:url(#linear-gradient-24);}.cls-29{fill:url(#linear-gradient-25);}.cls-30{fill:url(#linear-gradient-26);}.cls-31{fill:url(#New_Gradient_Swatch_copy_25-5);}.cls-32{fill:url(#New_Gradient_Swatch_copy_25-6);}.cls-33{fill:url(#linear-gradient-27);}.cls-34{fill:url(#linear-gradient-28);}.cls-35{fill:url(#New_Gradient_Swatch_copy_25-7);}.cls-36{fill:#006581;}.cls-37{fill:url(#linear-gradient-29);}.cls-38{fill:url(#linear-gradient-30);}.cls-39{fill:url(#linear-gradient-31);}.cls-40{fill:url(#linear-gradient-32);}</style><linearGradient id="New_Gradient_Swatch_copy_25" x1="14.4" y1="1733.5" x2="1091.88" y2="181.67" gradientTransform="matrix(0.87, -0.5, 0, 1.15, -133.79, -603.59)" gradientUnits="userSpaceOnUse"><stop offset="0" stop-color="#25054d"/><stop offset="1" stop-color="#45108a"/></linearGradient><linearGradient id="linear-gradient" x1="159.36" y1="401.86" x2="170.34" y2="401.86" gradientUnits="userSpaceOnUse"><stop offset="0" stop-color="#00e5ff"/><stop offset="1" stop-color="#c0f"/></linearGradient><linearGradient id="linear-gradient-2" x1="181.33" y1="389.17" x2="192.31" y2="389.17" xlink:href="#linear-gradient"/><linearGradient id="linear-gradient-3" x1="203.3" y1="376.49" x2="214.28" y2="376.49" xlink:href="#linear-gradient"/><linearGradient id="linear-gradient-4" x1="225.27" y1="363.81" x2="236.25" y2="363.81" xlink:href="#linear-gradient"/><linearGradient id="linear-gradient-5" x1="247.24" y1="351.12" x2="258.22" y2="351.12" xlink:href="#linear-gradient"/><linearGradient id="linear-gradient-6" x1="269.21" y1="338.44" x2="280.19" y2="338.44" xlink:href="#linear-gradient"/><linearGradient id="linear-gradient-7" x1="291.18" y1="325.75" x2="302.16" y2="325.75" xlink:href="#linear-gradient"/><linearGradient id="linear-gradient-8" x1="313.15" y1="313.07" x2="324.13" y2="313.07" xlink:href="#linear-gradient"/><linearGradient id="linear-gradient-9" x1="335.12" y1="300.38" x2="346.1" y2="300.38" xlink:href="#linear-gradient"/><linearGradient id="linear-gradient-10" x1="357.09" y1="287.7" x2="368.07" y2="287.7" xlink:href="#linear-gradient"/><linearGradient id="linear-gradient-11" x1="379.06" y1="275.01" x2="390.04" y2="275.01" xlink:href="#linear-gradient"/><linearGradient id="linear-gradient-12" x1="401.03" y1="262.33" x2="412.01" y2="262.33" xlink:href="#linear-gradient"/><linearGradient id="linear-gradient-13" x1="423" y1="249.64" x2="433.98" y2="249.64" xlink:href="#linear-gradient"/><linearGradient id="linear-gradient-14" x1="444.97" y1="236.96" x2="455.95" y2="236.96" xlink:href="#linear-gradient"/><linearGradient id="New_Gradient_Swatch_copy_25-2" x1="-2656.93" y1="-51.19" x2="-1908.77" y2="-1128.71" gradientTransform="matrix(-0.87, -0.5, 0, 1.15, -2130.09, -659.48)" xlink:href="#New_Gradient_Swatch_copy_25"/><linearGradient id="linear-gradient-15" x1="0" y1="291.34" x2="148.37" y2="291.34" xlink:href="#linear-gradient"/><linearGradient id="linear-gradient-16" x1="0" y1="329.94" x2="148.37" y2="329.94" xlink:href="#linear-gradient"/><linearGradient id="linear-gradient-17" x1="0" y1="368.54" x2="148.37" y2="368.54" xlink:href="#linear-gradient"/><linearGradient id="linear-gradient-18" x1="0" y1="407.14" x2="148.37" y2="407.14" xlink:href="#linear-gradient"/><linearGradient id="linear-gradient-19" x1="0" y1="445.75" x2="148.37" y2="445.75" xlink:href="#linear-gradient"/><linearGradient id="linear-gradient-20" x1="148.37" y1="441.87" x2="466.94" y2="441.87" xlink:href="#linear-gradient"/><linearGradient id="linear-gradient-21" x1="0" y1="491" x2="148.37" y2="491" xlink:href="#linear-gradient"/><linearGradient id="New_Gradient_Swatch_copy_25-3" x1="843.85" y1="784.61" x2="391.26" y2="1381.12" gradientTransform="matrix(0.87, -0.5, 0, 1.15, -138.06, -617.22)" xlink:href="#New_Gradient_Swatch_copy_25"/><linearGradient id="linear-gradient-22" x1="161.73" y1="585.84" x2="303.8" y2="585.84" xlink:href="#linear-gradient"/><linearGradient id="linear-gradient-23" x1="312.04" y1="499.05" x2="454.11" y2="499.05" xlink:href="#linear-gradient"/><linearGradient id="New_Gradient_Swatch_copy_25-4" x1="-2636.62" y1="103.47" x2="-2024.61" y2="-777.98" gradientTransform="matrix(-0.87, -0.5, 0, 1.15, -2130.09, -659.48)" xlink:href="#New_Gradient_Swatch_copy_25"/><linearGradient id="linear-gradient-24" x1="13.36" y1="591.73" x2="135.01" y2="591.73" xlink:href="#linear-gradient"/><linearGradient id="linear-gradient-25" x1="148.37" y1="196.95" x2="466.94" y2="196.95" xlink:href="#linear-gradient"/><linearGradient id="linear-gradient-26" x1="0" y1="246.08" x2="148.37" y2="246.08" xlink:href="#linear-gradient"/><linearGradient id="New_Gradient_Swatch_copy_25-5" x1="508.39" y1="-38.62" x2="-151.13" y2="394.57" gradientTransform="matrix(1, 0, 0, 1, 0, 0)" xlink:href="#New_Gradient_Swatch_copy_25"/><linearGradient id="New_Gradient_Swatch_copy_25-6" x1="28.94" y1="141.7" x2="438" y2="141.7" gradientTransform="matrix(1, 0, 0, 1, 0, 0)" xlink:href="#New_Gradient_Swatch_copy_25"/><linearGradient id="linear-gradient-27" x1="28.94" y1="98.33" x2="318.57" y2="98.33" xlink:href="#linear-gradient"/><linearGradient id="linear-gradient-28" x1="19.3" y1="219.2" x2="148.37" y2="219.2" xlink:href="#linear-gradient"/><linearGradient id="New_Gradient_Swatch_copy_25-7" x1="318.57" y1="49.2" x2="438" y2="49.2" gradientTransform="matrix(1, 0, 0, 1, 0, 0)" xlink:href="#New_Gradient_Swatch_copy_25"/><linearGradient id="linear-gradient-29" x1="148.37" y1="160.92" x2="447.64" y2="160.92" xlink:href="#linear-gradient"/><linearGradient id="linear-gradient-30" x1="19.3" y1="210.05" x2="148.37" y2="210.05" xlink:href="#linear-gradient"/><linearGradient id="linear-gradient-31" x1="19.3" y1="86.39" x2="318.57" y2="86.39" xlink:href="#linear-gradient"/><linearGradient id="linear-gradient-32" x1="318.57" y1="37.26" x2="447.64" y2="37.26" xlink:href="#linear-gradient"/></defs><g id="Layer_2" data-name="Layer 2"><g id="_Layer_" data-name="&lt;Layer&gt;"><polygon class="cls-1" points="466.94 337.74 148.37 521.67 148.37 301.08 466.94 117.15 466.94 337.74"/><polygon class="cls-2" points="170.34 508.99 159.36 515.33 159.36 294.73 170.34 288.39 170.34 508.99"/><polygon class="cls-3" points="192.31 496.3 181.33 502.64 181.33 282.05 192.31 275.71 192.31 496.3"/><polygon class="cls-4" points="214.28 483.62 203.3 489.96 203.3 269.36 214.28 263.02 214.28 483.62"/><polygon class="cls-5" points="236.25 470.93 225.27 477.27 225.27 256.68 236.25 250.34 236.25 470.93"/><polygon class="cls-6" points="258.22 458.25 247.24 464.59 247.24 244 258.22 237.65 258.22 458.25"/><polygon class="cls-7" points="280.19 445.56 269.21 451.9 269.21 231.31 280.19 224.97 280.19 445.56"/><polygon class="cls-8" points="302.16 432.88 291.18 439.22 291.18 218.63 302.16 212.28 302.16 432.88"/><polygon class="cls-9" points="324.13 420.19 313.15 426.54 313.15 205.94 324.13 199.6 324.13 420.19"/><polygon class="cls-10" points="346.1 407.51 335.12 413.85 335.12 193.26 346.1 186.91 346.1 407.51"/><polygon class="cls-11" points="368.07 394.82 357.09 401.17 357.09 180.57 368.07 174.23 368.07 394.82"/><polygon class="cls-12" points="390.04 382.14 379.06 388.48 379.06 167.89 390.04 161.55 390.04 382.14"/><polygon class="cls-13" points="412.01 369.45 401.03 375.8 401.03 155.2 412.01 148.86 412.01 369.45"/><polygon class="cls-14" points="433.98 356.77 423 363.11 423 142.52 433.98 136.18 433.98 356.77"/><polygon class="cls-15" points="455.95 344.09 444.97 350.43 444.97 129.84 455.95 123.49 455.95 344.09"/><polygon class="cls-16" points="148.37 521.67 0 436.01 0 215.41 148.37 301.08 148.37 521.67"/><polygon class="cls-17" points="0 249.71 148.37 335.37 148.37 332.97 0 247.31 0 249.71"/><polygon class="cls-18" points="0 288.31 148.37 373.97 148.37 371.57 0 285.91 0 288.31"/><polygon class="cls-19" points="0 326.91 148.37 412.57 148.37 410.17 0 324.51 0 326.91"/><polygon class="cls-20" points="0 365.51 148.37 451.17 148.37 448.78 0 363.11 0 365.51"/><polygon class="cls-21" points="0 404.11 148.37 489.77 148.37 487.38 0 401.72 0 404.11"/><polygon class="cls-22" points="466.94 362.07 148.37 546 148.37 521.67 466.94 337.74 466.94 362.07"/><polygon class="cls-23" points="148.37 546 0 460.33 0 436.01 148.37 521.67 148.37 546"/><polygon class="cls-24" points="466.94 517.83 148.9 701.45 148.9 545.69 466.94 362.07 466.94 517.83"/><polygon class="cls-25" points="303.8 594.67 161.73 676.69 161.73 577 303.8 494.98 303.8 594.67"/><polygon class="cls-26" points="454.11 507.89 312.04 589.91 312.04 490.22 454.11 408.2 454.11 507.89"/><polygon class="cls-27" points="148.37 701.45 0 615.79 0 460.33 148.37 546 148.37 701.45"/><polygon class="cls-28" points="13.36 506.77 13.36 606.46 135.01 676.69 135.01 577 13.36 506.77"/><polygon class="cls-29" points="466.94 117.15 148.37 301.08 148.37 276.75 466.94 92.83 466.94 117.15"/><polygon class="cls-30" points="148.37 301.08 0 215.41 0 191.09 148.37 276.75 148.37 301.08"/><polygon class="cls-31" points="0 191.09 318.57 7.16 466.94 92.83 148.37 276.75 0 191.09"/><polygon class="cls-32" points="318.57 23.87 438 92.82 148.9 259.53 28.94 191.09 318.57 23.87"/><polygon class="cls-33" points="28.94 172.78 28.94 191.09 318.57 23.87 318.57 5.57 28.94 172.78"/><polygon class="cls-34" points="19.3 172.78 19.3 191.09 148.37 265.61 148.37 247.31 19.3 172.78"/><polygon class="cls-35" points="318.57 5.57 318.57 23.87 438 92.82 438 74.52 318.57 5.57"/><polygon class="cls-36" points="148.37 247.31 148.37 265.61 447.64 92.83 447.64 74.52 148.37 247.31"/><polygon class="cls-37" points="148.37 247.31 148.37 241.74 438 74.52 447.64 74.52 148.37 247.31"/><polygon class="cls-38" points="148.37 247.31 148.37 241.74 28.94 172.78 19.3 172.78 148.37 247.31"/><polygon class="cls-39" points="19.3 172.78 28.94 172.78 318.57 5.57 318.57 0 19.3 172.78"/><polygon class="cls-40" points="318.57 0 318.57 5.57 438 74.52 447.64 74.52 318.57 0"/></g></g></svg>