<svg xmlns="http://www.w3.org/2000/svg" xmlns:xlink="http://www.w3.org/1999/xlink" viewBox="0 0 336.26 562.65"><defs><style>.cls-1{fill:url(#New_Gradient_Swatch_copy_25);}.cls-2{fill:url(#New_Gradient_Swatch_copy_25-2);}.cls-3{fill:url(#New_Gradient_Swatch_copy_25-3);}.cls-4{fill:url(#New_Gradient_Swatch_copy_25-4);}.cls-5{fill:url(#New_Gradient_Swatch_copy_25-5);}.cls-6{fill:url(#New_Gradient_Swatch_copy_25-6);}.cls-7{fill:url(#New_Gradient_Swatch_copy_25-7);}.cls-8{fill:url(#linear-gradient);}.cls-9{fill:url(#linear-gradient-2);}.cls-10{fill:url(#linear-gradient-3);}.cls-11{fill:url(#linear-gradient-4);}.cls-12{fill:url(#linear-gradient-5);}.cls-13{fill:url(#linear-gradient-6);}.cls-14{fill:url(#linear-gradient-7);}.cls-15{fill:url(#linear-gradient-8);}.cls-16{fill:url(#linear-gradient-9);}.cls-17{fill:url(#linear-gradient-10);}.cls-18{fill:url(#linear-gradient-11);}.cls-19{fill:url(#linear-gradient-12);}.cls-20{fill:url(#linear-gradient-13);}.cls-21{fill:url(#linear-gradient-14);}.cls-22{fill:url(#New_Gradient_Swatch_copy_26);}.cls-23{fill:url(#New_Gradient_Swatch_copy_26-2);}.cls-24{fill:url(#New_Gradient_Swatch_copy_26-3);}.cls-25{fill:url(#New_Gradient_Swatch_copy_26-4);}.cls-26{fill:url(#New_Gradient_Swatch_copy_26-5);}.cls-27{fill:url(#New_Gradient_Swatch_copy_26-6);}.cls-28{fill:url(#New_Gradient_Swatch_copy_26-7);}.cls-29{fill:url(#New_Gradient_Swatch_copy_26-8);}.cls-30{fill:url(#New_Gradient_Swatch_copy_26-9);}.cls-31{fill:url(#New_Gradient_Swatch_copy_26-10);}.cls-32{fill:url(#New_Gradient_Swatch_copy_26-11);}.cls-33{fill:url(#New_Gradient_Swatch_copy_26-12);}.cls-34{fill:url(#New_Gradient_Swatch_copy_26-13);}.cls-35{fill:url(#New_Gradient_Swatch_copy_26-14);}</style><linearGradient id="New_Gradient_Swatch_copy_25" x1="386.11" y1="454.33" x2="688.95" y2="363.65" gradientTransform="matrix(-1, 0, 0, 1, 460.61, 0)" gradientUnits="userSpaceOnUse"><stop offset="0" stop-color="#25054d"/><stop offset="1" stop-color="#45108a"/></linearGradient><linearGradient id="New_Gradient_Swatch_copy_25-2" x1="490.34" y1="150.4" x2="378.75" y2="363.08" xlink:href="#New_Gradient_Swatch_copy_25"/><linearGradient id="New_Gradient_Swatch_copy_25-3" x1="344.49" y1="292.2" x2="609.19" y2="212.94" xlink:href="#New_Gradient_Swatch_copy_25"/><linearGradient id="New_Gradient_Swatch_copy_25-4" x1="445.88" y1="25.71" x2="334.33" y2="238.31" xlink:href="#New_Gradient_Swatch_copy_25"/><linearGradient id="New_Gradient_Swatch_copy_25-5" x1="300.31" y1="167.19" x2="565.01" y2="87.93" xlink:href="#New_Gradient_Swatch_copy_25"/><linearGradient id="New_Gradient_Swatch_copy_25-6" x1="-148.67" y1="398.12" x2="604.93" y2="229.18" xlink:href="#New_Gradient_Swatch_copy_25"/><linearGradient id="New_Gradient_Swatch_copy_25-7" x1="355.06" y1="-132.77" x2="240.36" y2="85.82" xlink:href="#New_Gradient_Swatch_copy_25"/><linearGradient id="linear-gradient" x1="352.56" y1="520.67" x2="499.48" y2="0.8" gradientTransform="matrix(-1, 0, 0, 1, 460.61, 0)" gradientUnits="userSpaceOnUse"><stop offset="0" stop-color="#6628b3"/><stop offset="0.49" stop-color="#7c1dc9"/><stop offset="0.64" stop-color="#9e41b9"/><stop offset="0.95" stop-color="#f29c92"/><stop offset="1" stop-color="#ffa98c"/></linearGradient><linearGradient id="linear-gradient-2" x1="358.48" y1="522.34" x2="505.4" y2="2.47" xlink:href="#linear-gradient"/><linearGradient id="linear-gradient-3" x1="364.41" y1="524.01" x2="511.33" y2="4.15" xlink:href="#linear-gradient"/><linearGradient id="linear-gradient-4" x1="370.33" y1="525.69" x2="517.25" y2="5.82" xlink:href="#linear-gradient"/><linearGradient id="linear-gradient-5" x1="376.26" y1="527.36" x2="523.17" y2="7.5" xlink:href="#linear-gradient"/><linearGradient id="linear-gradient-6" x1="382.18" y1="529.04" x2="529.1" y2="9.17" xlink:href="#linear-gradient"/><linearGradient id="linear-gradient-7" x1="278.1" y1="499.62" x2="425.02" y2="-20.24" xlink:href="#linear-gradient"/><linearGradient id="linear-gradient-8" x1="283.6" y1="501.18" x2="430.52" y2="-18.69" xlink:href="#linear-gradient"/><linearGradient id="linear-gradient-9" x1="289.09" y1="502.73" x2="436.01" y2="-17.14" xlink:href="#linear-gradient"/><linearGradient id="linear-gradient-10" x1="294.59" y1="504.28" x2="441.51" y2="-15.58" xlink:href="#linear-gradient"/><linearGradient id="linear-gradient-11" x1="204.67" y1="478.87" x2="351.59" y2="-40.99" xlink:href="#linear-gradient"/><linearGradient id="linear-gradient-12" x1="210.17" y1="480.43" x2="357.09" y2="-39.44" xlink:href="#linear-gradient"/><linearGradient id="linear-gradient-13" x1="215.66" y1="481.98" x2="362.58" y2="-37.89" xlink:href="#linear-gradient"/><linearGradient id="linear-gradient-14" x1="221.16" y1="483.53" x2="368.08" y2="-36.34" xlink:href="#linear-gradient"/><linearGradient id="New_Gradient_Swatch_copy_26" x1="330.42" y1="504.11" x2="159.64" y2="36.98" gradientTransform="matrix(-1, 0, 0, 1, 460.61, 0)" gradientUnits="userSpaceOnUse"><stop offset="0.03" stop-color="#7c1dc9"/><stop offset="0.21" stop-color="#6e41d2"/><stop offset="0.62" stop-color="#4c9be8"/><stop offset="1" stop-color="#2af6ff"/></linearGradient><linearGradient id="New_Gradient_Swatch_copy_26-2" x1="322.85" y1="504.39" x2="152.07" y2="37.26" xlink:href="#New_Gradient_Swatch_copy_26"/><linearGradient id="New_Gradient_Swatch_copy_26-3" x1="315.27" y1="504.67" x2="144.49" y2="37.54" xlink:href="#New_Gradient_Swatch_copy_26"/><linearGradient id="New_Gradient_Swatch_copy_26-4" x1="307.7" y1="504.95" x2="136.92" y2="37.82" xlink:href="#New_Gradient_Swatch_copy_26"/><linearGradient id="New_Gradient_Swatch_copy_26-5" x1="297.96" y1="515.98" x2="127.18" y2="48.85" xlink:href="#New_Gradient_Swatch_copy_26"/><linearGradient id="New_Gradient_Swatch_copy_26-6" x1="290.39" y1="516.26" x2="119.61" y2="49.13" xlink:href="#New_Gradient_Swatch_copy_26"/><linearGradient id="New_Gradient_Swatch_copy_26-7" x1="282.81" y1="516.53" x2="112.03" y2="49.41" xlink:href="#New_Gradient_Swatch_copy_26"/><linearGradient id="New_Gradient_Swatch_copy_26-8" x1="275.23" y1="516.81" x2="104.46" y2="49.69" xlink:href="#New_Gradient_Swatch_copy_26"/><linearGradient id="New_Gradient_Swatch_copy_26-9" x1="265.65" y1="527.79" x2="94.88" y2="60.66" xlink:href="#New_Gradient_Swatch_copy_26"/><linearGradient id="New_Gradient_Swatch_copy_26-10" x1="261.11" y1="537.99" x2="90.33" y2="70.87" xlink:href="#New_Gradient_Swatch_copy_26"/><linearGradient id="New_Gradient_Swatch_copy_26-11" x1="256.56" y1="548.2" x2="85.79" y2="81.07" xlink:href="#New_Gradient_Swatch_copy_26"/><linearGradient id="New_Gradient_Swatch_copy_26-12" x1="252.02" y1="558.4" x2="81.24" y2="91.28" xlink:href="#New_Gradient_Swatch_copy_26"/><linearGradient id="New_Gradient_Swatch_copy_26-13" x1="247.47" y1="568.61" x2="76.7" y2="101.48" xlink:href="#New_Gradient_Swatch_copy_26"/><linearGradient id="New_Gradient_Swatch_copy_26-14" x1="242.93" y1="578.81" x2="72.15" y2="111.68" xlink:href="#New_Gradient_Swatch_copy_26"/></defs><g id="Layer_2" data-name="Layer 2"><g id="_Layer_" data-name="&lt;Layer&gt;"><polygon class="cls-1" points="102.96 562.65 0 503.96 0 332.23 102.96 390.92 102.96 562.65"/><polygon class="cls-2" points="148.54 364.99 102.91 390.92 0 332.23 44.2 305.76 148.54 364.99"/><polygon class="cls-3" points="147.48 365.22 44.52 306.54 44.52 207.13 147.48 265.82 147.48 365.22"/><polygon class="cls-4" points="192.51 239.9 147.4 266.1 44.52 207.13 88.85 180.9 192.51 239.9"/><polygon class="cls-5" points="191.66 240.21 88.7 181.52 88.7 82.12 191.66 140.81 191.66 240.21"/><polygon class="cls-6" points="147.43 365.12 147.43 265.82 191.62 240.21 191.62 140.8 335.64 58.74 336.26 225.35 336.26 428.02 102.91 562.65 102.91 390.92 147.43 365.12"/><polygon class="cls-7" points="335.64 58.74 191.62 140.81 88.7 82.11 232.81 0 335.64 58.74"/><polygon class="cls-8" points="119.69 396.48 102.89 406.14 17.54 356.74 17.54 365.82 102.89 415.21 119.69 405.55 119.69 396.48"/><polygon class="cls-9" points="119.69 419.11 102.89 428.77 17.54 379.38 17.54 388.46 102.89 437.85 119.69 428.19 119.69 419.11"/><polygon class="cls-10" points="119.69 441.75 102.89 451.41 17.54 402.02 17.54 411.09 102.89 460.49 119.69 450.82 119.69 441.75"/><polygon class="cls-11" points="119.69 464.38 102.89 474.05 17.54 424.65 17.54 433.73 102.89 483.12 119.69 473.46 119.69 464.38"/><polygon class="cls-12" points="119.69 487.02 102.89 496.68 17.54 447.29 17.54 456.37 102.89 505.76 119.69 496.1 119.69 487.02"/><polygon class="cls-13" points="119.69 509.66 102.89 519.32 17.54 469.93 17.54 479 102.89 528.39 119.69 518.73 119.69 509.66"/><polygon class="cls-14" points="164.55 270.7 147.75 280.36 62.4 230.97 62.4 240.05 147.75 289.44 164.55 279.78 164.55 270.7"/><polygon class="cls-15" points="164.55 291.7 147.75 301.36 62.4 251.97 62.4 261.05 147.75 310.44 164.55 300.78 164.55 291.7"/><polygon class="cls-16" points="164.55 312.7 147.75 322.36 62.4 272.97 62.4 282.04 147.75 331.44 164.55 321.77 164.55 312.7"/><polygon class="cls-17" points="164.55 333.7 147.75 343.36 62.4 293.96 62.4 303.04 147.75 352.43 164.55 342.77 164.55 333.7"/><polygon class="cls-18" points="208.4 145.27 191.6 154.93 106.25 105.54 106.25 114.61 191.6 164.01 208.4 154.34 208.4 145.27"/><polygon class="cls-19" points="208.4 166.26 191.6 175.93 106.25 126.53 106.25 135.61 191.6 185 208.4 175.34 208.4 166.26"/><polygon class="cls-20" points="208.4 187.26 191.6 196.93 106.25 147.53 106.25 156.61 191.6 206 208.4 196.34 208.4 187.26"/><polygon class="cls-21" points="208.4 208.26 191.6 217.92 106.25 168.53 106.25 177.61 191.6 227 208.4 217.34 208.4 208.26"/><polygon class="cls-22" points="320.54 82.47 225.31 135.79 225.31 144.87 320.54 91.55 320.54 82.47"/><polygon class="cls-23" points="320.54 103.47 225.31 156.79 225.31 165.87 320.54 112.55 320.54 103.47"/><polygon class="cls-24" points="320.54 124.47 225.31 177.79 225.31 186.87 320.54 133.54 320.54 124.47"/><polygon class="cls-25" points="320.54 145.47 225.31 198.79 225.31 207.86 320.54 154.54 320.54 145.47"/><polygon class="cls-26" points="320.54 183.13 225.31 236.45 225.31 245.53 320.54 192.21 320.54 183.13"/><polygon class="cls-27" points="320.54 204.13 225.31 257.45 225.31 266.52 320.54 213.2 320.54 204.13"/><polygon class="cls-28" points="320.54 225.13 225.31 278.44 225.31 287.52 320.54 234.2 320.54 225.13"/><polygon class="cls-29" points="320.54 246.12 225.31 299.44 225.31 308.52 320.54 255.2 320.54 246.12"/><polygon class="cls-30" points="320.54 283.31 225.31 336.63 225.31 345.7 320.54 292.38 320.54 283.31"/><polygon class="cls-31" points="320.54 305.94 225.31 359.26 225.31 368.34 320.54 315.02 320.54 305.94"/><polygon class="cls-32" points="320.54 328.58 225.31 381.9 225.31 390.98 320.54 337.66 320.54 328.58"/><polygon class="cls-33" points="320.54 351.22 225.31 404.54 225.31 413.62 320.54 360.29 320.54 351.22"/><polygon class="cls-34" points="320.54 373.85 225.31 427.17 225.31 436.25 320.54 382.93 320.54 373.85"/><polygon class="cls-35" points="320.54 396.49 225.31 449.81 225.31 458.89 320.54 405.57 320.54 396.49"/></g></g></svg>