<svg xmlns="http://www.w3.org/2000/svg" xmlns:xlink="http://www.w3.org/1999/xlink" viewBox="0 0 554.08 1034.29"><defs><style>.cls-1{isolation:isolate;}.cls-2{fill:url(#New_Gradient_Swatch_copy_25);}.cls-3{fill:url(#New_Gradient_Swatch_copy_25-2);}.cls-4{fill:url(#New_Gradient_Swatch_copy_25-4);}.cls-39,.cls-5{mix-blend-mode:color-dodge;}.cls-5{fill:url(#linear-gradient);}.cls-6{fill:url(#New_Gradient_Swatch_copy_25-5);}.cls-7{fill:url(#New_Gradient_Swatch_copy_25-6);}.cls-8{fill:url(#New_Gradient_Swatch_copy_13);}.cls-9{fill:url(#New_Gradient_Swatch_copy_13-2);}.cls-10{fill:url(#New_Gradient_Swatch_copy_25-7);}.cls-11{fill:url(#New_Gradient_Swatch_copy_25-8);}.cls-12{fill:url(#New_Gradient_Swatch_copy_25-9);}.cls-13{fill:url(#New_Gradient_Swatch_copy_13-3);}.cls-14{fill:url(#New_Gradient_Swatch_copy_13-4);}.cls-15{fill:url(#New_Gradient_Swatch_copy_25-10);}.cls-16{fill:url(#New_Gradient_Swatch_copy_25-11);}.cls-17{fill:url(#New_Gradient_Swatch_copy_25-12);}.cls-18{fill:url(#New_Gradient_Swatch_copy_13-5);}.cls-19{fill:url(#New_Gradient_Swatch_copy_13-6);}.cls-20{fill:url(#New_Gradient_Swatch_copy_25-13);}.cls-21{fill:url(#New_Gradient_Swatch_copy_25-14);}.cls-22{fill:url(#New_Gradient_Swatch_copy_25-15);}.cls-23{fill:url(#New_Gradient_Swatch_copy_25-16);}.cls-24{fill:url(#New_Gradient_Swatch_copy_25-17);}.cls-25{fill:url(#linear-gradient-2);}.cls-26{fill:url(#linear-gradient-3);}.cls-27{fill:url(#linear-gradient-4);}.cls-28{fill:url(#linear-gradient-5);}.cls-29{fill:url(#linear-gradient-6);}.cls-30{fill:url(#linear-gradient-7);}.cls-31{fill:url(#New_Gradient_Swatch_copy_25-18);}.cls-32{fill:url(#New_Gradient_Swatch_copy_25-19);}.cls-33{fill:#ffe4a7;}.cls-34{fill:#2af6ff;}.cls-35{fill:#4b61b8;}.cls-36{fill:url(#New_Gradient_Swatch_copy_25-20);}.cls-37{fill:url(#New_Gradient_Swatch_copy_25-21);}.cls-38{fill:url(#New_Gradient_Swatch_copy_25-23);}.cls-39{fill:url(#linear-gradient-8);}.cls-40{fill:url(#New_Gradient_Swatch_copy_25-24);}.cls-41{fill:url(#New_Gradient_Swatch_copy_25-25);}.cls-42{fill:url(#New_Gradient_Swatch_copy_13-7);}.cls-43{fill:url(#New_Gradient_Swatch_copy_13-8);}.cls-44{fill:url(#New_Gradient_Swatch_copy_25-26);}.cls-45{fill:url(#New_Gradient_Swatch_copy_25-27);}.cls-46{fill:url(#New_Gradient_Swatch_copy_25-28);}.cls-47{fill:url(#New_Gradient_Swatch_copy_13-9);}.cls-48{fill:url(#New_Gradient_Swatch_copy_13-10);}.cls-49{fill:url(#New_Gradient_Swatch_copy_25-29);}.cls-50{fill:url(#New_Gradient_Swatch_copy_25-30);}.cls-51{fill:url(#New_Gradient_Swatch_copy_25-31);}.cls-52{fill:url(#New_Gradient_Swatch_copy_13-11);}.cls-53{fill:url(#New_Gradient_Swatch_copy_13-12);}.cls-54{fill:url(#New_Gradient_Swatch_copy_25-32);}.cls-55{fill:url(#New_Gradient_Swatch_copy_25-33);}.cls-56{fill:url(#New_Gradient_Swatch_copy_25-34);}.cls-57{fill:url(#New_Gradient_Swatch_copy_25-35);}.cls-58{fill:url(#linear-gradient-9);}.cls-59{fill:url(#linear-gradient-10);}.cls-60{fill:url(#linear-gradient-11);}.cls-61{fill:url(#New_Gradient_Swatch_copy_25-36);}.cls-62{fill:url(#New_Gradient_Swatch_copy_25-37);}</style><linearGradient id="New_Gradient_Swatch_copy_25" x1="2565.65" y1="527.85" x2="3215.35" y2="333.31" gradientTransform="matrix(-1, 0, 0, 1, 2688.42, 0)" gradientUnits="userSpaceOnUse"><stop offset="0" stop-color="#25054d"/><stop offset="1" stop-color="#45108a"/></linearGradient><linearGradient id="New_Gradient_Swatch_copy_25-2" x1="2052.66" y1="606.53" x2="2904.56" y2="415.56" xlink:href="#New_Gradient_Swatch_copy_25"/><linearGradient id="New_Gradient_Swatch_copy_25-4" x1="2694.53" y1="-147.12" x2="2531.2" y2="164.14" xlink:href="#New_Gradient_Swatch_copy_25"/><linearGradient id="linear-gradient" x1="2636.62" y1="514.26" x2="2319.89" y2="512.11" gradientTransform="matrix(-1, 0, 0, 1, 2688.42, 0)" gradientUnits="userSpaceOnUse"><stop offset="0" stop-color="#972a74"/><stop offset="0.04" stop-color="#8a266a"/><stop offset="0.19" stop-color="#601b4a"/><stop offset="0.35" stop-color="#3d112f"/><stop offset="0.51" stop-color="#230a1b"/><stop offset="0.67" stop-color="#0f040c"/><stop offset="0.83" stop-color="#040103"/><stop offset="1"/></linearGradient><linearGradient id="New_Gradient_Swatch_copy_25-5" x1="2579.4" y1="164.44" x2="2831.51" y2="88.95" xlink:href="#New_Gradient_Swatch_copy_25"/><linearGradient id="New_Gradient_Swatch_copy_25-6" x1="2326.11" y1="194.6" x2="2653.11" y2="121.3" xlink:href="#New_Gradient_Swatch_copy_25"/><linearGradient id="New_Gradient_Swatch_copy_13" x1="2580.63" y1="148.71" x2="2816.54" y2="78.07" gradientTransform="matrix(-1, 0, 0, 1, 2688.42, 0)" gradientUnits="userSpaceOnUse"><stop offset="0.04" stop-color="#6b24d6"/><stop offset="0.29" stop-color="#7733dc"/><stop offset="0.79" stop-color="#975ced"/><stop offset="1" stop-color="#a56ef4"/></linearGradient><linearGradient id="New_Gradient_Swatch_copy_13-2" x1="2336.62" y1="176.88" x2="2642.13" y2="108.39" xlink:href="#New_Gradient_Swatch_copy_13"/><linearGradient id="New_Gradient_Swatch_copy_25-7" x1="2659.95" y1="-114.46" x2="2533.82" y2="125.92" xlink:href="#New_Gradient_Swatch_copy_25"/><linearGradient id="New_Gradient_Swatch_copy_25-8" x1="2568.15" y1="120.31" x2="2750.22" y2="65.8" xlink:href="#New_Gradient_Swatch_copy_25"/><linearGradient id="New_Gradient_Swatch_copy_25-9" x1="2387.29" y1="142.11" x2="2623.58" y2="89.14" xlink:href="#New_Gradient_Swatch_copy_25"/><linearGradient id="New_Gradient_Swatch_copy_13-3" x1="2569.34" y1="105.05" x2="2735.69" y2="55.24" xlink:href="#New_Gradient_Swatch_copy_13"/><linearGradient id="New_Gradient_Swatch_copy_13-4" x1="2397.48" y1="124.92" x2="2612.93" y2="76.62" xlink:href="#New_Gradient_Swatch_copy_13"/><linearGradient id="New_Gradient_Swatch_copy_25-10" x1="2625.16" y1="-80.46" x2="2536.46" y2="88.6" xlink:href="#New_Gradient_Swatch_copy_25"/><linearGradient id="New_Gradient_Swatch_copy_25-11" x1="2558.12" y1="76.43" x2="2678.29" y2="40.44" xlink:href="#New_Gradient_Swatch_copy_25"/><linearGradient id="New_Gradient_Swatch_copy_25-12" x1="2441.44" y1="90.83" x2="2597.56" y2="55.83" xlink:href="#New_Gradient_Swatch_copy_25"/><linearGradient id="New_Gradient_Swatch_copy_13-5" x1="2559.29" y1="61.44" x2="2664.03" y2="30.08" xlink:href="#New_Gradient_Swatch_copy_13"/><linearGradient id="New_Gradient_Swatch_copy_13-6" x1="2451.44" y1="73.95" x2="2587.11" y2="43.54" xlink:href="#New_Gradient_Swatch_copy_13"/><linearGradient id="New_Gradient_Swatch_copy_25-13" x1="2594.24" y1="-55.24" x2="2538.8" y2="50.43" xlink:href="#New_Gradient_Swatch_copy_25"/><linearGradient id="New_Gradient_Swatch_copy_25-14" x1="2430.95" y1="762.04" x2="2788.46" y2="654.99" xlink:href="#New_Gradient_Swatch_copy_25"/><linearGradient id="New_Gradient_Swatch_copy_25-15" x1="2228.08" y1="524.93" x2="2772.74" y2="585.08" xlink:href="#New_Gradient_Swatch_copy_25"/><linearGradient id="New_Gradient_Swatch_copy_25-16" x1="2603.88" y1="562.79" x2="3075.55" y2="421.55" xlink:href="#New_Gradient_Swatch_copy_25"/><linearGradient id="New_Gradient_Swatch_copy_25-17" x1="3024.98" y1="177.93" x2="2992.46" y2="239.89" gradientTransform="translate(-2932.24)" xlink:href="#New_Gradient_Swatch_copy_25"/><linearGradient id="linear-gradient-2" x1="2630.19" y1="598.54" x2="2925.2" y2="117.21" gradientTransform="matrix(-1, 0, 0, 1, 2688.42, 0)" gradientUnits="userSpaceOnUse"><stop offset="0" stop-color="#5915a1"/><stop offset="0.97" stop-color="#3844a3"/><stop offset="1" stop-color="#3746a3"/></linearGradient><linearGradient id="linear-gradient-3" x1="2625.91" y1="584.49" x2="2920.92" y2="103.16" xlink:href="#linear-gradient-2"/><linearGradient id="linear-gradient-4" x1="2621.62" y1="570.44" x2="2916.63" y2="89.11" xlink:href="#linear-gradient-2"/><linearGradient id="linear-gradient-5" x1="2469.21" y1="781.47" x2="2589.35" y2="585.46" xlink:href="#linear-gradient-2"/><linearGradient id="linear-gradient-6" x1="2455.51" y1="782.79" x2="2575.64" y2="586.78" xlink:href="#linear-gradient-2"/><linearGradient id="linear-gradient-7" x1="2441.8" y1="784.11" x2="2561.94" y2="588.1" xlink:href="#linear-gradient-2"/><linearGradient id="New_Gradient_Swatch_copy_25-18" x1="2541.44" y1="26.26" x2="2574.76" y2="16.29" xlink:href="#New_Gradient_Swatch_copy_25"/><linearGradient id="New_Gradient_Swatch_copy_25-19" x1="2496.99" y1="36.16" x2="2576.44" y2="18.35" xlink:href="#New_Gradient_Swatch_copy_25"/><linearGradient id="New_Gradient_Swatch_copy_25-20" x1="2303.2" y1="680.59" x2="2950.3" y2="486.82" xlink:href="#New_Gradient_Swatch_copy_25"/><linearGradient id="New_Gradient_Swatch_copy_25-21" x1="1791.7" y1="758.95" x2="2640.15" y2="568.75" xlink:href="#New_Gradient_Swatch_copy_25"/><linearGradient id="New_Gradient_Swatch_copy_25-23" x1="2431.88" y1="8.13" x2="2268.56" y2="319.39" xlink:href="#New_Gradient_Swatch_copy_25"/><linearGradient id="linear-gradient-8" x1="2373.94" y1="667.05" x2="2057.27" y2="664.9" xlink:href="#linear-gradient"/><linearGradient id="New_Gradient_Swatch_copy_25-24" x1="2316.75" y1="319.69" x2="2568.86" y2="244.2" xlink:href="#New_Gradient_Swatch_copy_25"/><linearGradient id="New_Gradient_Swatch_copy_25-25" x1="2063.47" y1="349.85" x2="2390.46" y2="276.55" xlink:href="#New_Gradient_Swatch_copy_25"/><linearGradient id="New_Gradient_Swatch_copy_13-7" x1="2317.98" y1="303.96" x2="2553.89" y2="233.32" xlink:href="#New_Gradient_Swatch_copy_13"/><linearGradient id="New_Gradient_Swatch_copy_13-8" x1="2073.98" y1="332.13" x2="2379.49" y2="263.65" xlink:href="#New_Gradient_Swatch_copy_13"/><linearGradient id="New_Gradient_Swatch_copy_25-26" x1="2397.31" y1="40.79" x2="2271.17" y2="281.18" xlink:href="#New_Gradient_Swatch_copy_25"/><linearGradient id="New_Gradient_Swatch_copy_25-27" x1="2305.5" y1="275.57" x2="2487.57" y2="221.05" xlink:href="#New_Gradient_Swatch_copy_25"/><linearGradient id="New_Gradient_Swatch_copy_25-28" x1="2124.64" y1="297.36" x2="2360.93" y2="244.4" xlink:href="#New_Gradient_Swatch_copy_25"/><linearGradient id="New_Gradient_Swatch_copy_13-9" x1="2306.69" y1="260.31" x2="2473.04" y2="210.49" xlink:href="#New_Gradient_Swatch_copy_13"/><linearGradient id="New_Gradient_Swatch_copy_13-10" x1="2134.84" y1="280.17" x2="2350.28" y2="231.88" xlink:href="#New_Gradient_Swatch_copy_13"/><linearGradient id="New_Gradient_Swatch_copy_25-29" x1="2362.51" y1="74.8" x2="2273.81" y2="243.85" xlink:href="#New_Gradient_Swatch_copy_25"/><linearGradient id="New_Gradient_Swatch_copy_25-30" x1="2295.48" y1="231.68" x2="2415.64" y2="195.7" xlink:href="#New_Gradient_Swatch_copy_25"/><linearGradient id="New_Gradient_Swatch_copy_25-31" x1="2178.79" y1="246.08" x2="2334.91" y2="211.09" xlink:href="#New_Gradient_Swatch_copy_25"/><linearGradient id="New_Gradient_Swatch_copy_13-11" x1="2296.65" y1="216.7" x2="2401.38" y2="185.34" xlink:href="#New_Gradient_Swatch_copy_13"/><linearGradient id="New_Gradient_Swatch_copy_13-12" x1="2188.8" y1="229.21" x2="2324.46" y2="198.8" xlink:href="#New_Gradient_Swatch_copy_13"/><linearGradient id="New_Gradient_Swatch_copy_25-32" x1="2331.6" y1="100.01" x2="2276.15" y2="205.68" xlink:href="#New_Gradient_Swatch_copy_25"/><linearGradient id="New_Gradient_Swatch_copy_25-33" x1="1967.46" y1="677.94" x2="2509.07" y2="737.76" xlink:href="#New_Gradient_Swatch_copy_25"/><linearGradient id="New_Gradient_Swatch_copy_25-34" x1="2341.43" y1="715.52" x2="2810.5" y2="575.06" xlink:href="#New_Gradient_Swatch_copy_25"/><linearGradient id="New_Gradient_Swatch_copy_25-35" x1="3287.62" y1="333.18" x2="3255.11" y2="395.15" gradientTransform="translate(-2932.24)" xlink:href="#New_Gradient_Swatch_copy_25"/><linearGradient id="linear-gradient-9" x1="2367.8" y1="750.93" x2="2660.44" y2="273.46" xlink:href="#linear-gradient-2"/><linearGradient id="linear-gradient-10" x1="2363.38" y1="737.08" x2="2656.02" y2="259.62" xlink:href="#linear-gradient-2"/><linearGradient id="linear-gradient-11" x1="2358.97" y1="723.24" x2="2651.61" y2="245.78" xlink:href="#linear-gradient-2"/><linearGradient id="New_Gradient_Swatch_copy_25-36" x1="2278.79" y1="181.52" x2="2312.11" y2="171.54" xlink:href="#New_Gradient_Swatch_copy_25"/><linearGradient id="New_Gradient_Swatch_copy_25-37" x1="2234.34" y1="191.41" x2="2313.79" y2="173.6" xlink:href="#New_Gradient_Swatch_copy_25"/></defs><g class="cls-1"><g id="Layer_2" data-name="Layer 2"><g id="_Layer_" data-name="&lt;Layer&gt;"><polygon class="cls-2" points="146.78 883.97 0 799.58 0 142.17 146.78 226.57 146.78 883.97"/><polygon class="cls-3" points="291.44 799.58 146.7 883.97 146.7 226.57 291.44 142.28 291.44 799.58"/><polygon class="cls-3" points="291.44 799.58 146.7 883.97 146.7 226.57 291.44 142.28 291.44 799.58"/><polygon class="cls-4" points="291.44 142.28 146.7 226.57 0 142.17 144.89 57.79 291.44 142.28"/><polygon class="cls-5" points="291.44 799.58 146.7 883.97 146.7 226.57 291.44 142.28 291.44 799.58"/><polygon class="cls-6" points="146.54 208.45 33.18 143.27 33.18 108.96 146.54 174.13 146.54 208.45"/><polygon class="cls-7" points="258.26 143.27 146.48 208.45 146.48 174.13 258.26 109.04 258.26 143.27"/><polygon class="cls-8" points="146.54 177.72 33.18 112.55 33.18 108.96 146.54 174.13 146.54 177.72"/><polygon class="cls-9" points="258.26 112.55 146.48 177.72 146.48 174.13 258.26 109.04 258.26 112.55"/><polygon class="cls-10" points="258.26 109.04 146.48 174.13 33.18 108.95 145.08 43.79 258.26 109.04"/><polygon class="cls-11" points="146.3 155.68 66.58 109.84 66.58 76.66 146.3 122.5 146.3 155.68"/><polygon class="cls-12" points="224.86 109.84 146.25 155.68 146.25 122.5 224.86 76.72 224.86 109.84"/><polygon class="cls-13" points="146.3 125.86 66.58 80.03 66.58 76.66 146.3 122.5 146.3 125.86"/><polygon class="cls-14" points="224.86 80.03 146.25 125.86 146.25 122.5 224.86 76.72 224.86 80.03"/><polygon class="cls-15" points="224.86 76.72 146.25 122.5 66.58 76.66 145.27 30.84 224.86 76.72"/><polygon class="cls-16" points="146.08 104.42 96.25 75.77 96.25 42.97 146.08 71.62 146.08 104.42"/><polygon class="cls-17" points="195.19 75.77 146.05 104.42 146.05 71.62 195.19 43.01 195.19 75.77"/><polygon class="cls-18" points="146.08 75.15 96.25 46.5 96.25 42.97 146.08 71.62 146.08 75.15"/><polygon class="cls-19" points="195.19 46.5 146.05 75.15 146.05 71.62 195.19 43.01 195.19 46.5"/><polygon class="cls-20" points="195.19 43.01 146.05 71.62 96.25 42.97 145.44 14.32 195.19 43.01"/><polygon class="cls-21" points="280.73 924.42 179.86 866.27 179.86 583.39 280.73 641.54 280.73 924.42"/><polygon class="cls-22" points="83.91 881.49 111.58 866.27 111.58 248.46 83.91 263.68 83.91 881.49"/><polygon class="cls-23" points="13.43 840.37 83.95 881.49 83.95 263.68 13.43 222.61 13.43 840.37"/><polygon class="cls-24" points="13.43 222.61 83.95 263.68 111.58 248.46 40.98 207.34 13.43 222.61"/><polygon class="cls-25" points="31.76 249.96 22.26 244.43 22.26 845.26 31.76 850.79 31.76 249.96"/><polygon class="cls-26" points="51.93 261.83 42.44 256.3 42.44 857.13 51.93 862.67 51.93 261.83"/><polygon class="cls-27" points="72.11 273.71 62.61 268.18 62.61 869.01 72.11 874.54 72.11 273.71"/><polygon class="cls-28" points="211.24 644.52 201.75 639 201.75 876.94 211.24 882.47 211.24 644.52"/><polygon class="cls-29" points="231.41 656.4 221.92 650.87 221.92 888.81 231.41 894.35 231.41 656.4"/><polygon class="cls-30" points="251.59 668.27 242.1 662.74 242.1 900.68 251.59 906.22 251.59 668.27"/><polygon class="cls-31" points="145.99 0 145.99 51.94 129.85 42.66 145.99 0"/><polygon class="cls-32" points="145.98 0 145.98 51.94 161.9 42.66 145.98 0"/><polygon class="cls-33" points="178.57 256.13 170.44 260.82 170.44 251.5 178.57 246.81 178.57 256.13"/><polygon class="cls-34" points="193.83 247.32 185.71 252.01 185.71 242.68 193.83 237.99 193.83 247.32"/><polygon class="cls-34" points="209.1 238.5 200.97 243.19 200.97 233.87 209.1 229.18 209.1 238.5"/><polygon class="cls-35" points="224.37 229.69 216.24 234.38 216.24 225.06 224.37 220.36 224.37 229.69"/><polygon class="cls-35" points="239.63 220.88 231.5 225.57 231.5 216.24 239.63 211.55 239.63 220.88"/><polygon class="cls-35" points="254.9 212.06 246.77 216.75 246.77 207.43 254.9 202.74 254.9 212.06"/><polygon class="cls-35" points="270.16 203.25 262.04 207.94 262.04 198.61 270.16 193.92 270.16 203.25"/><polygon class="cls-35" points="178.57 275.87 170.44 280.56 170.44 271.24 178.57 266.54 178.57 275.87"/><polygon class="cls-34" points="193.83 267.05 185.71 271.75 185.71 262.42 193.83 257.73 193.83 267.05"/><polygon class="cls-35" points="209.1 258.24 200.97 262.93 200.97 253.61 209.1 248.92 209.1 258.24"/><polygon class="cls-35" points="224.37 249.43 216.24 254.12 216.24 244.79 224.37 240.1 224.37 249.43"/><polygon class="cls-34" points="239.63 240.61 231.5 245.31 231.5 235.98 239.63 231.29 239.63 240.61"/><polygon class="cls-34" points="254.9 231.8 246.77 236.49 246.77 227.17 254.9 222.47 254.9 231.8"/><polygon class="cls-35" points="270.16 222.99 262.04 227.68 262.04 218.35 270.16 213.66 270.16 222.99"/><polygon class="cls-35" points="178.57 295.61 170.44 300.3 170.44 290.97 178.57 286.28 178.57 295.61"/><polygon class="cls-34" points="193.83 286.79 185.71 291.49 185.71 282.16 193.83 277.47 193.83 286.79"/><polygon class="cls-35" points="209.1 277.98 200.97 282.67 200.97 273.35 209.1 268.65 209.1 277.98"/><polygon class="cls-33" points="224.37 269.17 216.24 273.86 216.24 264.53 224.37 259.84 224.37 269.17"/><polygon class="cls-35" points="239.63 260.35 231.5 265.04 231.5 255.72 239.63 251.03 239.63 260.35"/><polygon class="cls-34" points="254.9 251.54 246.77 256.23 246.77 246.9 254.9 242.21 254.9 251.54"/><polygon class="cls-35" points="270.16 242.72 262.04 247.42 262.04 238.09 270.16 233.4 270.16 242.72"/><polygon class="cls-34" points="178.57 315.35 170.44 320.04 170.44 310.71 178.57 306.02 178.57 315.35"/><polygon class="cls-35" points="193.83 306.53 185.71 311.22 185.71 301.9 193.83 297.21 193.83 306.53"/><polygon class="cls-35" points="209.1 297.72 200.97 302.41 200.97 293.08 209.1 288.39 209.1 297.72"/><polygon class="cls-34" points="224.37 288.9 216.24 293.6 216.24 284.27 224.37 279.58 224.37 288.9"/><polygon class="cls-35" points="239.63 280.09 231.5 284.78 231.5 275.46 239.63 270.76 239.63 280.09"/><polygon class="cls-35" points="254.9 271.27 246.77 275.97 246.77 266.64 254.9 261.95 254.9 271.27"/><polygon class="cls-35" points="270.16 262.46 262.04 267.15 262.04 257.83 270.16 253.14 270.16 262.46"/><polygon class="cls-35" points="178.57 335.08 170.44 339.77 170.44 330.45 178.57 325.76 178.57 335.08"/><polygon class="cls-34" points="193.83 326.27 185.71 330.96 185.71 321.63 193.83 316.94 193.83 326.27"/><polygon class="cls-34" points="209.1 317.45 200.97 322.15 200.97 312.82 209.1 308.13 209.1 317.45"/><polygon class="cls-35" points="224.37 308.64 216.24 313.33 216.24 304.01 224.37 299.32 224.37 308.64"/><polygon class="cls-35" points="239.63 299.83 231.5 304.52 231.5 295.19 239.63 290.5 239.63 299.83"/><polygon class="cls-33" points="254.9 291.01 246.77 295.71 246.77 286.38 254.9 281.69 254.9 291.01"/><polygon class="cls-34" points="270.16 282.2 262.04 286.89 262.04 277.57 270.16 272.87 270.16 282.2"/><polygon class="cls-35" points="178.57 354.82 170.44 359.51 170.44 350.19 178.57 345.5 178.57 354.82"/><polygon class="cls-35" points="193.83 346.01 185.71 350.7 185.71 341.37 193.83 336.68 193.83 346.01"/><polygon class="cls-35" points="209.1 337.19 200.97 341.88 200.97 332.56 209.1 327.87 209.1 337.19"/><polygon class="cls-34" points="224.37 328.38 216.24 333.07 216.24 323.75 224.37 319.05 224.37 328.38"/><polygon class="cls-35" points="239.63 319.57 231.5 324.26 231.5 314.93 239.63 310.24 239.63 319.57"/><polygon class="cls-34" points="254.9 310.75 246.77 315.44 246.77 306.12 254.9 301.43 254.9 310.75"/><polygon class="cls-35" points="270.16 301.94 262.04 306.63 262.04 297.31 270.16 292.61 270.16 301.94"/><polygon class="cls-35" points="178.57 374.56 170.44 379.25 170.44 369.93 178.57 365.23 178.57 374.56"/><polygon class="cls-33" points="193.83 365.75 185.71 370.44 185.71 361.11 193.83 356.42 193.83 365.75"/><polygon class="cls-34" points="209.1 356.93 200.97 361.62 200.97 352.3 209.1 347.61 209.1 356.93"/><polygon class="cls-35" points="224.37 348.12 216.24 352.81 216.24 343.48 224.37 338.79 224.37 348.12"/><polygon class="cls-35" points="239.63 339.3 231.5 344 231.5 334.67 239.63 329.98 239.63 339.3"/><polygon class="cls-35" points="254.9 330.49 246.77 335.18 246.77 325.86 254.9 321.17 254.9 330.49"/><polygon class="cls-35" points="270.16 321.68 262.04 326.37 262.04 317.04 270.16 312.35 270.16 321.68"/><polygon class="cls-34" points="178.57 394.3 170.44 398.99 170.44 389.66 178.57 384.97 178.57 394.3"/><polygon class="cls-34" points="193.83 385.48 185.71 390.18 185.71 380.85 193.83 376.16 193.83 385.48"/><polygon class="cls-35" points="209.1 376.67 200.97 381.36 200.97 372.04 209.1 367.35 209.1 376.67"/><polygon class="cls-35" points="224.37 367.86 216.24 372.55 216.24 363.22 224.37 358.53 224.37 367.86"/><polygon class="cls-34" points="239.63 359.04 231.5 363.73 231.5 354.41 239.63 349.72 239.63 359.04"/><polygon class="cls-35" points="254.9 350.23 246.77 354.92 246.77 345.6 254.9 340.9 254.9 350.23"/><polygon class="cls-34" points="270.16 341.41 262.04 346.11 262.04 336.78 270.16 332.09 270.16 341.41"/><polygon class="cls-34" points="178.57 414.04 170.44 418.73 170.44 409.4 178.57 404.71 178.57 414.04"/><polygon class="cls-35" points="193.83 405.22 185.71 409.91 185.71 400.59 193.83 395.9 193.83 405.22"/><polygon class="cls-35" points="209.1 396.41 200.97 401.1 200.97 391.77 209.1 387.08 209.1 396.41"/><polygon class="cls-35" points="224.37 387.59 216.24 392.29 216.24 382.96 224.37 378.27 224.37 387.59"/><polygon class="cls-34" points="239.63 378.78 231.5 383.47 231.5 374.15 239.63 369.45 239.63 378.78"/><polygon class="cls-35" points="254.9 369.97 246.77 374.66 246.77 365.33 254.9 360.64 254.9 369.97"/><polygon class="cls-35" points="270.16 361.15 262.04 365.85 262.04 356.52 270.16 351.83 270.16 361.15"/><polygon class="cls-35" points="178.57 433.77 170.44 438.47 170.44 429.14 178.57 424.45 178.57 433.77"/><polygon class="cls-35" points="193.83 424.96 185.71 429.65 185.71 420.33 193.83 415.63 193.83 424.96"/><polygon class="cls-34" points="209.1 416.15 200.97 420.84 200.97 411.51 209.1 406.82 209.1 416.15"/><polygon class="cls-34" points="224.37 407.33 216.24 412.02 216.24 402.7 224.37 398.01 224.37 407.33"/><polygon class="cls-33" points="239.63 398.52 231.5 403.21 231.5 393.88 239.63 389.19 239.63 398.52"/><polygon class="cls-34" points="254.9 389.7 246.77 394.4 246.77 385.07 254.9 380.38 254.9 389.7"/><polygon class="cls-35" points="270.16 380.89 262.04 385.58 262.04 376.26 270.16 371.56 270.16 380.89"/><polygon class="cls-34" points="178.57 453.51 170.44 458.2 170.44 448.88 178.57 444.19 178.57 453.51"/><polygon class="cls-35" points="193.83 444.7 185.71 449.39 185.71 440.06 193.83 435.37 193.83 444.7"/><polygon class="cls-35" points="209.1 435.88 200.97 440.58 200.97 431.25 209.1 426.56 209.1 435.88"/><polygon class="cls-35" points="224.37 427.07 216.24 431.76 216.24 422.44 224.37 417.75 224.37 427.07"/><polygon class="cls-35" points="239.63 418.26 231.5 422.95 231.5 413.62 239.63 408.93 239.63 418.26"/><polygon class="cls-35" points="254.9 409.44 246.77 414.13 246.77 404.81 254.9 400.12 254.9 409.44"/><polygon class="cls-35" points="270.16 400.63 262.04 405.32 262.04 396 270.16 391.3 270.16 400.63"/><polygon class="cls-34" points="178.57 473.25 170.44 477.94 170.44 468.62 178.57 463.93 178.57 473.25"/><polygon class="cls-34" points="193.83 464.44 185.71 469.13 185.71 459.8 193.83 455.11 193.83 464.44"/><polygon class="cls-35" points="209.1 455.62 200.97 460.31 200.97 450.99 209.1 446.3 209.1 455.62"/><polygon class="cls-34" points="224.37 446.81 216.24 451.5 216.24 442.18 224.37 437.48 224.37 446.81"/><polygon class="cls-34" points="239.63 438 231.5 442.69 231.5 433.36 239.63 428.67 239.63 438"/><polygon class="cls-35" points="254.9 429.18 246.77 433.87 246.77 424.55 254.9 419.86 254.9 429.18"/><polygon class="cls-34" points="270.16 420.37 262.04 425.06 262.04 415.73 270.16 411.04 270.16 420.37"/><polygon class="cls-35" points="178.57 492.99 170.44 497.68 170.44 488.36 178.57 483.66 178.57 492.99"/><polygon class="cls-35" points="193.83 484.17 185.71 488.87 185.71 479.54 193.83 474.85 193.83 484.17"/><polygon class="cls-34" points="209.1 475.36 200.97 480.05 200.97 470.73 209.1 466.04 209.1 475.36"/><polygon class="cls-35" points="224.37 466.55 216.24 471.24 216.24 461.91 224.37 457.22 224.37 466.55"/><polygon class="cls-35" points="239.63 457.73 231.5 462.43 231.5 453.1 239.63 448.41 239.63 457.73"/><polygon class="cls-35" points="254.9 448.92 246.77 453.61 246.77 444.29 254.9 439.59 254.9 448.92"/><polygon class="cls-35" points="270.16 440.11 262.04 444.8 262.04 435.47 270.16 430.78 270.16 440.11"/><polygon class="cls-35" points="178.57 512.73 170.44 517.42 170.44 508.09 178.57 503.4 178.57 512.73"/><polygon class="cls-33" points="193.83 503.91 185.71 508.61 185.71 499.28 193.83 494.59 193.83 503.91"/><polygon class="cls-35" points="209.1 495.1 200.97 499.79 200.97 490.47 209.1 485.77 209.1 495.1"/><polygon class="cls-35" points="224.37 486.29 216.24 490.98 216.24 481.65 224.37 476.96 224.37 486.29"/><polygon class="cls-34" points="239.63 477.47 231.5 482.16 231.5 472.84 239.63 468.15 239.63 477.47"/><polygon class="cls-34" points="254.9 468.66 246.77 473.35 246.77 464.02 254.9 459.33 254.9 468.66"/><polygon class="cls-35" points="270.16 459.84 262.04 464.54 262.04 455.21 270.16 450.52 270.16 459.84"/><polygon class="cls-34" points="178.57 532.46 170.44 537.16 170.44 527.83 178.57 523.14 178.57 532.46"/><polygon class="cls-35" points="193.83 523.65 185.71 528.34 185.71 519.02 193.83 514.33 193.83 523.65"/><polygon class="cls-35" points="209.1 514.84 200.97 519.53 200.97 510.2 209.1 505.51 209.1 514.84"/><polygon class="cls-34" points="224.37 506.02 216.24 510.71 216.24 501.39 224.37 496.7 224.37 506.02"/><polygon class="cls-35" points="239.63 497.21 231.5 501.9 231.5 492.58 239.63 487.88 239.63 497.21"/><polygon class="cls-35" points="254.9 488.39 246.77 493.09 246.77 483.76 254.9 479.07 254.9 488.39"/><polygon class="cls-35" points="270.16 479.58 262.04 484.27 262.04 474.95 270.16 470.26 270.16 479.58"/><polygon class="cls-35" points="178.57 552.2 170.44 556.89 170.44 547.57 178.57 542.88 178.57 552.2"/><polygon class="cls-34" points="193.83 543.39 185.71 548.08 185.71 538.76 193.83 534.06 193.83 543.39"/><polygon class="cls-35" points="209.1 534.58 200.97 539.27 200.97 529.94 209.1 525.25 209.1 534.58"/><polygon class="cls-34" points="224.37 525.76 216.24 530.45 216.24 521.13 224.37 516.44 224.37 525.76"/><polygon class="cls-34" points="239.63 516.95 231.5 521.64 231.5 512.31 239.63 507.62 239.63 516.95"/><polygon class="cls-35" points="254.9 508.13 246.77 512.83 246.77 503.5 254.9 498.81 254.9 508.13"/><polygon class="cls-34" points="270.16 499.32 262.04 504.01 262.04 494.69 270.16 489.99 270.16 499.32"/><polygon class="cls-36" points="409.43 1034.29 262.65 949.9 262.65 297.43 409.43 381.82 409.43 1034.29"/><polygon class="cls-37" points="554.08 949.9 409.35 1034.29 409.35 381.82 554.08 297.54 554.08 949.9"/><polygon class="cls-37" points="554.08 949.9 409.35 1034.29 409.35 381.82 554.08 297.54 554.08 949.9"/><polygon class="cls-38" points="554.09 297.54 409.35 381.82 262.65 297.43 407.54 213.05 554.09 297.54"/><polygon class="cls-39" points="554.08 949.9 409.35 1034.29 409.35 381.82 554.08 297.54 554.08 949.9"/><polygon class="cls-40" points="409.19 363.7 295.83 298.53 295.83 264.21 409.19 329.39 409.19 363.7"/><polygon class="cls-41" points="520.9 298.53 409.12 363.7 409.12 329.39 520.9 264.3 520.9 298.53"/><polygon class="cls-42" points="409.19 332.97 295.83 267.8 295.83 264.21 409.19 329.39 409.19 332.97"/><polygon class="cls-43" points="520.9 267.8 409.12 332.97 409.12 329.39 520.9 264.3 520.9 267.8"/><polygon class="cls-44" points="520.9 264.3 409.13 329.39 295.83 264.21 407.73 199.05 520.9 264.3"/><polygon class="cls-45" points="408.94 310.93 329.22 265.1 329.22 231.92 408.94 277.76 408.94 310.93"/><polygon class="cls-46" points="487.51 265.1 408.9 310.93 408.9 277.76 487.51 231.98 487.51 265.1"/><polygon class="cls-47" points="408.94 281.12 329.22 235.29 329.22 231.92 408.94 277.76 408.94 281.12"/><polygon class="cls-48" points="487.51 235.29 408.9 281.12 408.9 277.76 487.51 231.98 487.51 235.29"/><polygon class="cls-49" points="487.51 231.98 408.9 277.76 329.22 231.92 407.92 186.09 487.51 231.98"/><polygon class="cls-50" points="408.73 259.67 358.9 231.02 358.9 198.22 408.73 226.87 408.73 259.67"/><polygon class="cls-51" points="457.83 231.02 408.7 259.67 408.7 226.87 457.83 198.26 457.83 231.02"/><polygon class="cls-52" points="408.73 230.41 358.9 201.76 358.9 198.22 408.73 226.87 408.73 230.41"/><polygon class="cls-53" points="457.83 201.76 408.7 230.41 408.7 226.87 457.83 198.26 457.83 201.76"/><polygon class="cls-54" points="457.83 198.26 408.7 226.87 358.9 198.22 408.08 169.58 457.83 198.26"/><polygon class="cls-55" points="346.56 1031.82 374.23 1016.6 374.23 403.71 346.56 418.93 346.56 1031.82"/><polygon class="cls-56" points="276.08 990.7 346.6 1031.82 346.6 418.93 276.08 377.87 276.08 990.7"/><polygon class="cls-57" points="276.08 377.87 346.6 418.93 374.23 403.71 303.63 362.6 276.08 377.87"/><polygon class="cls-58" points="294.4 405.21 284.91 399.68 284.91 995.59 294.4 1001.12 294.4 405.21"/><polygon class="cls-59" points="314.58 417.09 305.08 411.56 305.08 1007.46 314.58 1013 314.58 417.09"/><polygon class="cls-60" points="334.75 428.96 325.26 423.43 325.26 1019.34 334.75 1024.87 334.75 428.96"/><polygon class="cls-61" points="408.64 155.25 408.64 207.19 392.5 197.91 408.64 155.25"/><polygon class="cls-62" points="408.63 155.25 408.63 207.19 424.55 197.91 408.63 155.25"/><polygon class="cls-33" points="441.77 411.37 433.64 416.06 433.64 406.74 441.77 402.04 441.77 411.37"/><polygon class="cls-34" points="457.04 402.56 448.91 407.25 448.91 397.92 457.04 393.23 457.04 402.56"/><polygon class="cls-34" points="472.3 393.74 464.18 398.43 464.18 389.11 472.3 384.42 472.3 393.74"/><polygon class="cls-35" points="487.57 384.93 479.44 389.62 479.44 380.29 487.57 375.6 487.57 384.93"/><polygon class="cls-35" points="502.83 376.11 494.71 380.81 494.71 371.48 502.83 366.79 502.83 376.11"/><polygon class="cls-35" points="518.1 367.3 509.97 371.99 509.97 362.67 518.1 357.97 518.1 367.3"/><polygon class="cls-35" points="533.37 358.49 525.24 363.18 525.24 353.85 533.37 349.16 533.37 358.49"/><polygon class="cls-35" points="441.77 431.11 433.64 435.8 433.64 426.47 441.77 421.78 441.77 431.11"/><polygon class="cls-34" points="457.04 422.29 448.91 426.98 448.91 417.66 457.04 412.97 457.04 422.29"/><polygon class="cls-35" points="472.3 413.48 464.18 418.17 464.18 408.85 472.3 404.15 472.3 413.48"/><polygon class="cls-35" points="487.57 404.67 479.44 409.36 479.44 400.03 487.57 395.34 487.57 404.67"/><polygon class="cls-34" points="502.83 395.85 494.71 400.54 494.71 391.22 502.83 386.53 502.83 395.85"/><polygon class="cls-34" points="518.1 387.04 509.97 391.73 509.97 382.4 518.1 377.71 518.1 387.04"/><polygon class="cls-35" points="533.37 378.22 525.24 382.92 525.24 373.59 533.37 368.9 533.37 378.22"/><polygon class="cls-35" points="441.77 450.85 433.64 455.54 433.64 446.21 441.77 441.52 441.77 450.85"/><polygon class="cls-34" points="457.04 442.03 448.91 446.72 448.91 437.4 457.04 432.7 457.04 442.03"/><polygon class="cls-35" points="472.3 433.22 464.18 437.91 464.18 428.58 472.3 423.89 472.3 433.22"/><polygon class="cls-33" points="487.57 424.4 479.44 429.1 479.44 419.77 487.57 415.08 487.57 424.4"/><polygon class="cls-35" points="502.83 415.59 494.71 420.28 494.71 410.96 502.83 406.26 502.83 415.59"/><polygon class="cls-34" points="518.1 406.78 509.97 411.47 509.97 402.14 518.1 397.45 518.1 406.78"/><polygon class="cls-35" points="533.37 397.96 525.24 402.65 525.24 393.33 533.37 388.64 533.37 397.96"/><polygon class="cls-34" points="441.77 470.58 433.64 475.27 433.64 465.95 441.77 461.26 441.77 470.58"/><polygon class="cls-35" points="457.04 461.77 448.91 466.46 448.91 457.14 457.04 452.44 457.04 461.77"/><polygon class="cls-35" points="472.3 452.95 464.18 457.65 464.18 448.32 472.3 443.63 472.3 452.95"/><polygon class="cls-34" points="487.57 444.14 479.44 448.83 479.44 439.51 487.57 434.82 487.57 444.14"/><polygon class="cls-35" points="502.83 435.33 494.71 440.02 494.71 430.69 502.83 426 502.83 435.33"/><polygon class="cls-35" points="518.1 426.51 509.97 431.2 509.97 421.88 518.1 417.19 518.1 426.51"/><polygon class="cls-35" points="533.37 417.7 525.24 422.39 525.24 413.07 533.37 408.38 533.37 417.7"/><polygon class="cls-35" points="441.77 490.32 433.64 495.01 433.64 485.69 441.77 481 441.77 490.32"/><polygon class="cls-34" points="457.04 481.51 448.91 486.2 448.91 476.87 457.04 472.18 457.04 481.51"/><polygon class="cls-34" points="472.3 472.69 464.18 477.38 464.18 468.06 472.3 463.37 472.3 472.69"/><polygon class="cls-35" points="487.57 463.88 479.44 468.57 479.44 459.25 487.57 454.55 487.57 463.88"/><polygon class="cls-35" points="502.83 455.07 494.71 459.76 494.71 450.43 502.83 445.74 502.83 455.07"/><polygon class="cls-33" points="518.1 446.25 509.97 450.94 509.97 441.62 518.1 436.93 518.1 446.25"/><polygon class="cls-34" points="533.37 437.44 525.24 442.13 525.24 432.8 533.37 428.11 533.37 437.44"/><polygon class="cls-35" points="441.77 510.06 433.64 514.75 433.64 505.43 441.77 500.73 441.77 510.06"/><polygon class="cls-35" points="457.04 501.25 448.91 505.94 448.91 496.61 457.04 491.92 457.04 501.25"/><polygon class="cls-35" points="472.3 492.43 464.18 497.12 464.18 487.8 472.3 483.11 472.3 492.43"/><polygon class="cls-34" points="487.57 483.62 479.44 488.31 479.44 478.98 487.57 474.29 487.57 483.62"/><polygon class="cls-35" points="502.83 474.8 494.71 479.5 494.71 470.17 502.83 465.48 502.83 474.8"/><polygon class="cls-34" points="518.1 465.99 509.97 470.68 509.97 461.36 518.1 456.67 518.1 465.99"/><polygon class="cls-35" points="533.37 457.18 525.24 461.87 525.24 452.54 533.37 447.85 533.37 457.18"/><polygon class="cls-35" points="441.77 529.8 433.64 534.49 433.64 525.16 441.77 520.47 441.77 529.8"/><polygon class="cls-33" points="457.04 520.98 448.91 525.68 448.91 516.35 457.04 511.66 457.04 520.98"/><polygon class="cls-34" points="472.3 512.17 464.18 516.86 464.18 507.54 472.3 502.84 472.3 512.17"/><polygon class="cls-35" points="487.57 503.36 479.44 508.05 479.44 498.72 487.57 494.03 487.57 503.36"/><polygon class="cls-35" points="502.83 494.54 494.71 499.23 494.71 489.91 502.83 485.22 502.83 494.54"/><polygon class="cls-35" points="518.1 485.73 509.97 490.42 509.97 481.09 518.1 476.4 518.1 485.73"/><polygon class="cls-35" points="533.37 476.91 525.24 481.61 525.24 472.28 533.37 467.59 533.37 476.91"/><polygon class="cls-34" points="441.77 549.53 433.64 554.23 433.64 544.9 441.77 540.21 441.77 549.53"/><polygon class="cls-34" points="457.04 540.72 448.91 545.41 448.91 536.09 457.04 531.4 457.04 540.72"/><polygon class="cls-35" points="472.3 531.91 464.18 536.6 464.18 527.27 472.3 522.58 472.3 531.91"/><polygon class="cls-35" points="487.57 523.09 479.44 527.79 479.44 518.46 487.57 513.77 487.57 523.09"/><polygon class="cls-34" points="502.83 514.28 494.71 518.97 494.71 509.65 502.83 504.95 502.83 514.28"/><polygon class="cls-35" points="518.1 505.47 509.97 510.16 509.97 500.83 518.1 496.14 518.1 505.47"/><polygon class="cls-34" points="533.37 496.65 525.24 501.34 525.24 492.02 533.37 487.33 533.37 496.65"/><polygon class="cls-34" points="441.77 569.27 433.64 573.97 433.64 564.64 441.77 559.95 441.77 569.27"/><polygon class="cls-35" points="457.04 560.46 448.91 565.15 448.91 555.83 457.04 551.13 457.04 560.46"/><polygon class="cls-35" points="472.3 551.65 464.18 556.34 464.18 547.01 472.3 542.32 472.3 551.65"/><polygon class="cls-35" points="487.57 542.83 479.44 547.52 479.44 538.2 487.57 533.51 487.57 542.83"/><polygon class="cls-34" points="502.83 534.02 494.71 538.71 494.71 529.38 502.83 524.69 502.83 534.02"/><polygon class="cls-35" points="518.1 525.2 509.97 529.9 509.97 520.57 518.1 515.88 518.1 525.2"/><polygon class="cls-35" points="533.37 516.39 525.24 521.08 525.24 511.76 533.37 507.06 533.37 516.39"/><polygon class="cls-35" points="441.77 589.01 433.64 593.7 433.64 584.38 441.77 579.69 441.77 589.01"/><polygon class="cls-35" points="457.04 580.2 448.91 584.89 448.91 575.57 457.04 570.87 457.04 580.2"/><polygon class="cls-34" points="472.3 571.38 464.18 576.08 464.18 566.75 472.3 562.06 472.3 571.38"/><polygon class="cls-34" points="487.57 562.57 479.44 567.26 479.44 557.94 487.57 553.25 487.57 562.57"/><polygon class="cls-33" points="502.83 553.76 494.71 558.45 494.71 549.12 502.83 544.43 502.83 553.76"/><polygon class="cls-34" points="518.1 544.94 509.97 549.63 509.97 540.31 518.1 535.62 518.1 544.94"/><polygon class="cls-35" points="533.37 536.13 525.24 540.82 525.24 531.5 533.37 526.8 533.37 536.13"/><polygon class="cls-34" points="441.77 608.75 433.64 613.44 433.64 604.12 441.77 599.42 441.77 608.75"/><polygon class="cls-35" points="457.04 599.94 448.91 604.63 448.91 595.3 457.04 590.61 457.04 599.94"/><polygon class="cls-35" points="472.3 591.12 464.18 595.81 464.18 586.49 472.3 581.8 472.3 591.12"/><polygon class="cls-35" points="487.57 582.31 479.44 587 479.44 577.67 487.57 572.98 487.57 582.31"/><polygon class="cls-35" points="502.83 573.5 494.71 578.19 494.71 568.86 502.83 564.17 502.83 573.5"/><polygon class="cls-35" points="518.1 564.68 509.97 569.37 509.97 560.05 518.1 555.36 518.1 564.68"/><polygon class="cls-35" points="533.37 555.87 525.24 560.56 525.24 551.23 533.37 546.54 533.37 555.87"/><polygon class="cls-34" points="441.77 628.49 433.64 633.18 433.64 623.86 441.77 619.16 441.77 628.49"/><polygon class="cls-34" points="457.04 619.67 448.91 624.37 448.91 615.04 457.04 610.35 457.04 619.67"/><polygon class="cls-35" points="472.3 610.86 464.18 615.55 464.18 606.23 472.3 601.53 472.3 610.86"/><polygon class="cls-34" points="487.57 602.05 479.44 606.74 479.44 597.41 487.57 592.72 487.57 602.05"/><polygon class="cls-34" points="502.83 593.23 494.71 597.92 494.71 588.6 502.83 583.91 502.83 593.23"/><polygon class="cls-35" points="518.1 584.42 509.97 589.11 509.97 579.79 518.1 575.09 518.1 584.42"/><polygon class="cls-34" points="533.37 575.61 525.24 580.3 525.24 570.97 533.37 566.28 533.37 575.61"/><polygon class="cls-35" points="441.77 648.23 433.64 652.92 433.64 643.59 441.77 638.9 441.77 648.23"/><polygon class="cls-35" points="457.04 639.41 448.91 644.11 448.91 634.78 457.04 630.09 457.04 639.41"/><polygon class="cls-34" points="472.3 630.6 464.18 635.29 464.18 625.97 472.3 621.27 472.3 630.6"/><polygon class="cls-35" points="487.57 621.78 479.44 626.48 479.44 617.15 487.57 612.46 487.57 621.78"/><polygon class="cls-35" points="502.83 612.97 494.71 617.66 494.71 608.34 502.83 603.65 502.83 612.97"/><polygon class="cls-35" points="518.1 604.16 509.97 608.85 509.97 599.52 518.1 594.83 518.1 604.16"/><polygon class="cls-35" points="533.37 595.34 525.24 600.03 525.24 590.71 533.37 586.02 533.37 595.34"/><polygon class="cls-35" points="441.77 667.97 433.64 672.66 433.64 663.33 441.77 658.64 441.77 667.97"/><polygon class="cls-33" points="457.04 659.15 448.91 663.84 448.91 654.52 457.04 649.83 457.04 659.15"/><polygon class="cls-35" points="472.3 650.34 464.18 655.03 464.18 645.7 472.3 641.01 472.3 650.34"/><polygon class="cls-35" points="487.57 641.52 479.44 646.22 479.44 636.89 487.57 632.2 487.57 641.52"/><polygon class="cls-34" points="502.83 632.71 494.71 637.4 494.71 628.08 502.83 623.38 502.83 632.71"/><polygon class="cls-34" points="518.1 623.89 509.97 628.59 509.97 619.26 518.1 614.57 518.1 623.89"/><polygon class="cls-35" points="533.37 615.08 525.24 619.77 525.24 610.45 533.37 605.76 533.37 615.08"/><polygon class="cls-34" points="441.77 687.7 433.64 692.39 433.64 683.07 441.77 678.38 441.77 687.7"/><polygon class="cls-35" points="457.04 678.89 448.91 683.58 448.91 674.26 457.04 669.56 457.04 678.89"/><polygon class="cls-35" points="472.3 670.08 464.18 674.77 464.18 665.44 472.3 660.75 472.3 670.08"/><polygon class="cls-34" points="487.57 661.26 479.44 665.95 479.44 656.63 487.57 651.94 487.57 661.26"/><polygon class="cls-35" points="502.83 652.45 494.71 657.14 494.71 647.81 502.83 643.12 502.83 652.45"/><polygon class="cls-35" points="518.1 643.63 509.97 648.33 509.97 639 518.1 634.31 518.1 643.63"/><polygon class="cls-35" points="533.37 634.82 525.24 639.51 525.24 630.19 533.37 625.49 533.37 634.82"/><polygon class="cls-35" points="441.77 707.44 433.64 712.13 433.64 702.81 441.77 698.12 441.77 707.44"/><polygon class="cls-34" points="457.04 698.63 448.91 703.32 448.91 693.99 457.04 689.3 457.04 698.63"/><polygon class="cls-35" points="472.3 689.81 464.18 694.5 464.18 685.18 472.3 680.49 472.3 689.81"/><polygon class="cls-34" points="487.57 681 479.44 685.69 479.44 676.37 487.57 671.67 487.57 681"/><polygon class="cls-34" points="502.83 672.19 494.71 676.88 494.71 667.55 502.83 662.86 502.83 672.19"/><polygon class="cls-35" points="518.1 663.37 509.97 668.06 509.97 658.74 518.1 654.05 518.1 663.37"/><polygon class="cls-34" points="533.37 654.56 525.24 659.25 525.24 649.92 533.37 645.23 533.37 654.56"/><polygon class="cls-35" points="441.77 727.18 433.64 731.87 433.64 722.55 441.77 717.85 441.77 727.18"/><polygon class="cls-35" points="457.04 718.37 448.91 723.06 448.91 713.73 457.04 709.04 457.04 718.37"/><polygon class="cls-35" points="472.3 709.55 464.18 714.24 464.18 704.92 472.3 700.23 472.3 709.55"/><polygon class="cls-35" points="487.57 700.74 479.44 705.43 479.44 696.1 487.57 691.41 487.57 700.74"/><polygon class="cls-34" points="502.83 691.92 494.71 696.62 494.71 687.29 502.83 682.6 502.83 691.92"/><polygon class="cls-34" points="518.1 683.11 509.97 687.8 509.97 678.48 518.1 673.78 518.1 683.11"/><polygon class="cls-35" points="533.37 674.3 525.24 678.99 525.24 669.66 533.37 664.97 533.37 674.3"/><polygon class="cls-34" points="441.77 746.92 433.64 751.61 433.64 742.28 441.77 737.59 441.77 746.92"/><polygon class="cls-34" points="457.04 738.1 448.91 742.79 448.91 733.47 457.04 728.78 457.04 738.1"/><polygon class="cls-35" points="472.3 729.29 464.18 733.98 464.18 724.66 472.3 719.96 472.3 729.29"/><polygon class="cls-34" points="487.57 720.48 479.44 725.17 479.44 715.84 487.57 711.15 487.57 720.48"/><polygon class="cls-35" points="502.83 711.66 494.71 716.35 494.71 707.03 502.83 702.34 502.83 711.66"/><polygon class="cls-35" points="518.1 702.85 509.97 707.54 509.97 698.22 518.1 693.52 518.1 702.85"/><polygon class="cls-35" points="533.37 694.03 525.24 698.73 525.24 689.4 533.37 684.71 533.37 694.03"/><polygon class="cls-35" points="441.77 766.65 433.64 771.35 433.64 762.02 441.77 757.33 441.77 766.65"/><polygon class="cls-35" points="457.04 757.84 448.91 762.53 448.91 753.21 457.04 748.52 457.04 757.84"/><polygon class="cls-35" points="472.3 749.03 464.18 753.72 464.18 744.39 472.3 739.7 472.3 749.03"/><polygon class="cls-35" points="487.57 740.21 479.44 744.91 479.44 735.58 487.57 730.89 487.57 740.21"/><polygon class="cls-35" points="502.83 731.4 494.71 736.09 494.71 726.77 502.83 722.08 502.83 731.4"/><polygon class="cls-35" points="518.1 722.59 509.97 727.28 509.97 717.95 518.1 713.26 518.1 722.59"/><polygon class="cls-34" points="533.37 713.77 525.24 718.46 525.24 709.14 533.37 704.45 533.37 713.77"/><polygon class="cls-35" points="441.77 786.39 433.64 791.09 433.64 781.76 441.77 777.07 441.77 786.39"/><polygon class="cls-34" points="457.04 777.58 448.91 782.27 448.91 772.95 457.04 768.25 457.04 777.58"/><polygon class="cls-35" points="472.3 768.77 464.18 773.46 464.18 764.13 472.3 759.44 472.3 768.77"/><polygon class="cls-35" points="487.57 759.95 479.44 764.64 479.44 755.32 487.57 750.63 487.57 759.95"/><polygon class="cls-34" points="502.83 751.14 494.71 755.83 494.71 746.5 502.83 741.81 502.83 751.14"/><polygon class="cls-35" points="518.1 742.33 509.97 747.02 509.97 737.69 518.1 733 518.1 742.33"/><polygon class="cls-35" points="533.37 733.51 525.24 738.2 525.24 728.88 533.37 724.18 533.37 733.51"/><polygon class="cls-35" points="441.77 806.13 433.64 810.82 433.64 801.5 441.77 796.81 441.77 806.13"/><polygon class="cls-34" points="457.04 797.32 448.91 802.01 448.91 792.68 457.04 787.99 457.04 797.32"/><polygon class="cls-35" points="472.3 788.5 464.18 793.2 464.18 783.87 472.3 779.18 472.3 788.5"/><polygon class="cls-34" points="487.57 779.69 479.44 784.38 479.44 775.06 487.57 770.37 487.57 779.69"/><polygon class="cls-35" points="502.83 770.88 494.71 775.57 494.71 766.24 502.83 761.55 502.83 770.88"/><polygon class="cls-35" points="518.1 762.06 509.97 766.75 509.97 757.43 518.1 752.74 518.1 762.06"/><polygon class="cls-35" points="533.37 753.25 525.24 757.94 525.24 748.62 533.37 743.92 533.37 753.25"/><polygon class="cls-35" points="441.77 825.87 433.64 830.56 433.64 821.24 441.77 816.54 441.77 825.87"/><polygon class="cls-35" points="457.04 817.06 448.91 821.75 448.91 812.42 457.04 807.73 457.04 817.06"/><polygon class="cls-35" points="472.3 808.24 464.18 812.93 464.18 803.61 472.3 798.92 472.3 808.24"/><polygon class="cls-35" points="487.57 799.43 479.44 804.12 479.44 794.79 487.57 790.1 487.57 799.43"/><polygon class="cls-35" points="502.83 790.62 494.71 795.31 494.71 785.98 502.83 781.29 502.83 790.62"/><polygon class="cls-35" points="518.1 781.8 509.97 786.49 509.97 777.17 518.1 772.48 518.1 781.8"/><polygon class="cls-34" points="533.37 772.99 525.24 777.68 525.24 768.35 533.37 763.66 533.37 772.99"/><polygon class="cls-35" points="441.77 845.61 433.64 850.3 433.64 840.98 441.77 836.28 441.77 845.61"/><polygon class="cls-35" points="457.04 836.79 448.91 841.49 448.91 832.16 457.04 827.47 457.04 836.79"/><polygon class="cls-35" points="472.3 827.98 464.18 832.67 464.18 823.35 472.3 818.65 472.3 827.98"/><polygon class="cls-35" points="487.57 819.17 479.44 823.86 479.44 814.53 487.57 809.84 487.57 819.17"/><polygon class="cls-34" points="502.83 810.35 494.71 815.04 494.71 805.72 502.83 801.03 502.83 810.35"/><polygon class="cls-35" points="518.1 801.54 509.97 806.23 509.97 796.91 518.1 792.21 518.1 801.54"/><polygon class="cls-35" points="533.37 792.73 525.24 797.42 525.24 788.09 533.37 783.4 533.37 792.73"/><polygon class="cls-35" points="441.77 865.35 433.64 870.04 433.64 860.71 441.77 856.02 441.77 865.35"/><polygon class="cls-35" points="457.04 856.53 448.91 861.23 448.91 851.9 457.04 847.21 457.04 856.53"/><polygon class="cls-34" points="472.3 847.72 464.18 852.41 464.18 843.09 472.3 838.39 472.3 847.72"/><polygon class="cls-35" points="487.57 838.9 479.44 843.6 479.44 834.27 487.57 829.58 487.57 838.9"/><polygon class="cls-35" points="502.83 830.09 494.71 834.78 494.71 825.46 502.83 820.77 502.83 830.09"/><polygon class="cls-35" points="518.1 821.28 509.97 825.97 509.97 816.64 518.1 811.95 518.1 821.28"/><polygon class="cls-35" points="533.37 812.46 525.24 817.15 525.24 807.83 533.37 803.14 533.37 812.46"/><polygon class="cls-35" points="441.77 885.09 433.64 889.78 433.64 880.45 441.77 875.76 441.77 885.09"/><polygon class="cls-35" points="457.04 876.27 448.91 880.96 448.91 871.64 457.04 866.95 457.04 876.27"/><polygon class="cls-35" points="472.3 867.46 464.18 872.15 464.18 862.82 472.3 858.13 472.3 867.46"/><polygon class="cls-35" points="487.57 858.64 479.44 863.34 479.44 854.01 487.57 849.32 487.57 858.64"/><polygon class="cls-35" points="502.83 849.83 494.71 854.52 494.71 845.2 502.83 840.5 502.83 849.83"/><polygon class="cls-35" points="518.1 841.01 509.97 845.71 509.97 836.38 518.1 831.69 518.1 841.01"/><polygon class="cls-35" points="533.37 832.2 525.24 836.89 525.24 827.57 533.37 822.88 533.37 832.2"/><polygon class="cls-35" points="441.77 904.82 433.64 909.51 433.64 900.19 441.77 895.5 441.77 904.82"/><polygon class="cls-34" points="457.04 896.01 448.91 900.7 448.91 891.38 457.04 886.68 457.04 896.01"/><polygon class="cls-35" points="472.3 887.2 464.18 891.89 464.18 882.56 472.3 877.87 472.3 887.2"/><polygon class="cls-35" points="487.57 878.38 479.44 883.07 479.44 873.75 487.57 869.06 487.57 878.38"/><polygon class="cls-35" points="502.83 869.57 494.71 874.26 494.71 864.93 502.83 860.24 502.83 869.57"/><polygon class="cls-35" points="518.1 860.75 509.97 865.45 509.97 856.12 518.1 851.43 518.1 860.75"/><polygon class="cls-35" points="533.37 851.94 525.24 856.63 525.24 847.31 533.37 842.61 533.37 851.94"/><polygon class="cls-35" points="441.77 924.56 433.64 929.25 433.64 919.93 441.77 915.24 441.77 924.56"/><polygon class="cls-35" points="457.04 915.75 448.91 920.44 448.91 911.11 457.04 906.42 457.04 915.75"/><polygon class="cls-35" points="472.3 906.93 464.18 911.63 464.18 902.3 472.3 897.61 472.3 906.93"/><polygon class="cls-35" points="487.57 898.12 479.44 902.81 479.44 893.49 487.57 888.79 487.57 898.12"/><polygon class="cls-35" points="502.83 889.31 494.71 894 494.71 884.67 502.83 879.98 502.83 889.31"/><polygon class="cls-35" points="518.1 880.49 509.97 885.18 509.97 875.86 518.1 871.17 518.1 880.49"/><polygon class="cls-35" points="533.37 871.68 525.24 876.37 525.24 867.04 533.37 862.35 533.37 871.68"/><polygon class="cls-35" points="441.77 944.3 433.64 948.99 433.64 939.67 441.77 934.97 441.77 944.3"/><polygon class="cls-35" points="457.04 935.49 448.91 940.18 448.91 930.85 457.04 926.16 457.04 935.49"/><polygon class="cls-35" points="472.3 926.67 464.18 931.36 464.18 922.04 472.3 917.35 472.3 926.67"/><polygon class="cls-35" points="487.57 917.86 479.44 922.55 479.44 913.22 487.57 908.53 487.57 917.86"/><polygon class="cls-35" points="502.83 909.04 494.71 913.74 494.71 904.41 502.83 899.72 502.83 909.04"/><polygon class="cls-35" points="518.1 900.23 509.97 904.92 509.97 895.6 518.1 890.9 518.1 900.23"/><polygon class="cls-35" points="533.37 891.42 525.24 896.11 525.24 886.78 533.37 882.09 533.37 891.42"/><polygon class="cls-35" points="441.77 964.04 433.64 968.73 433.64 959.4 441.77 954.71 441.77 964.04"/><polygon class="cls-35" points="457.04 955.22 448.91 959.91 448.91 950.59 457.04 945.9 457.04 955.22"/><polygon class="cls-35" points="472.3 946.41 464.18 951.1 464.18 941.78 472.3 937.08 472.3 946.41"/><polygon class="cls-35" points="487.57 937.6 479.44 942.29 479.44 932.96 487.57 928.27 487.57 937.6"/><polygon class="cls-35" points="502.83 928.78 494.71 933.47 494.71 924.15 502.83 919.46 502.83 928.78"/><polygon class="cls-35" points="518.1 919.97 509.97 924.66 509.97 915.34 518.1 910.64 518.1 919.97"/><polygon class="cls-35" points="533.37 911.15 525.24 915.85 525.24 906.52 533.37 901.83 533.37 911.15"/><polygon class="cls-35" points="441.77 983.77 433.64 988.47 433.64 979.14 441.77 974.45 441.77 983.77"/><polygon class="cls-35" points="457.04 974.96 448.91 979.65 448.91 970.33 457.04 965.64 457.04 974.96"/><polygon class="cls-35" points="472.3 966.15 464.18 970.84 464.18 961.51 472.3 956.82 472.3 966.15"/><polygon class="cls-35" points="487.57 957.33 479.44 962.03 479.44 952.7 487.57 948.01 487.57 957.33"/><polygon class="cls-35" points="502.83 948.52 494.71 953.21 494.71 943.89 502.83 939.2 502.83 948.52"/><polygon class="cls-35" points="518.1 939.71 509.97 944.4 509.97 935.07 518.1 930.38 518.1 939.71"/><polygon class="cls-35" points="533.37 930.89 525.24 935.58 525.24 926.26 533.37 921.57 533.37 930.89"/></g></g></g></svg>