<svg xmlns="http://www.w3.org/2000/svg" xmlns:xlink="http://www.w3.org/1999/xlink" viewBox="0 0 452.86 1068.89"><defs><style>.Graphic-Style-2{fill:url(#New_Gradient_Swatch_copy_25);}.Graphic-Style-3{fill:url(#New_Gradient_Swatch_copy_25-2);}.cls-1{fill:url(#linear-gradient);}.cls-2{fill:url(#linear-gradient-2);}.cls-3{fill:url(#linear-gradient-3);}.cls-4{fill:url(#linear-gradient-4);}.cls-5{fill:url(#New_Gradient_Swatch_copy_25-10);}.cls-6{fill:url(#linear-gradient-5);}.cls-7{fill:url(#linear-gradient-6);}.cls-8{fill:url(#New_Gradient_Swatch_copy_26);}.cls-9{fill:url(#New_Gradient_Swatch_copy_26-2);}.cls-10{fill:url(#New_Gradient_Swatch_copy_26-3);}.cls-11{fill:url(#New_Gradient_Swatch_copy_26-4);}.cls-12{fill:url(#New_Gradient_Swatch_copy_26-5);}.cls-13{fill:url(#New_Gradient_Swatch_copy_26-6);}.cls-14{fill:url(#New_Gradient_Swatch_copy_25-14);}.cls-15{fill:url(#New_Gradient_Swatch_copy_25-15);}</style><linearGradient id="New_Gradient_Swatch_copy_25" x1="274.3" y1="664.22" x2="1123.19" y2="410.04" gradientUnits="userSpaceOnUse"><stop offset="0" stop-color="#25054d"/><stop offset="1" stop-color="#45108a"/></linearGradient><linearGradient id="New_Gradient_Swatch_copy_25-2" x1="-430.86" y1="766.78" x2="679.91" y2="517.79" xlink:href="#New_Gradient_Swatch_copy_25"/><linearGradient id="linear-gradient" x1="462.35" y1="-228.61" x2="208.56" y2="255.05" gradientUnits="userSpaceOnUse"><stop offset="0.74" stop-color="#45108a"/><stop offset="1" stop-color="#3746a3"/></linearGradient><linearGradient id="linear-gradient-2" x1="408.63" y1="-177.86" x2="212.63" y2="195.67" xlink:href="#linear-gradient"/><linearGradient id="linear-gradient-3" x1="354.57" y1="-125.02" x2="216.73" y2="137.67" xlink:href="#linear-gradient"/><linearGradient id="linear-gradient-4" x1="306.52" y1="-85.84" x2="220.37" y2="78.36" xlink:href="#linear-gradient"/><linearGradient id="New_Gradient_Swatch_copy_25-10" x1="118.92" y1="735.43" x2="552.7" y2="605.54" xlink:href="#New_Gradient_Swatch_copy_25"/><linearGradient id="linear-gradient-5" x1="144.1" y1="276.48" x2="93.57" y2="372.77" xlink:href="#linear-gradient"/><linearGradient id="linear-gradient-6" x1="2808.89" y1="276.48" x2="2758.36" y2="372.77" gradientTransform="matrix(-1, 0, 0, 1, 3117.66, 0)" xlink:href="#linear-gradient"/><linearGradient id="New_Gradient_Swatch_copy_26" x1="389.79" y1="720.85" x2="697.47" y2="395.99" gradientUnits="userSpaceOnUse"><stop offset="0.03" stop-color="#7c1dc9"/><stop offset="0.21" stop-color="#6e41d2"/><stop offset="0.62" stop-color="#4c9be8"/><stop offset="1" stop-color="#2af6ff"/></linearGradient><linearGradient id="New_Gradient_Swatch_copy_26-2" x1="382.48" y1="713.93" x2="690.16" y2="389.07" xlink:href="#New_Gradient_Swatch_copy_26"/><linearGradient id="New_Gradient_Swatch_copy_26-3" x1="375.17" y1="707" x2="682.85" y2="382.14" xlink:href="#New_Gradient_Swatch_copy_26"/><linearGradient id="New_Gradient_Swatch_copy_26-4" x1="3019.44" y1="973.91" x2="2705.52" y2="321.07" gradientTransform="matrix(-1, 0, 0, 1, 2929.12, 0)" xlink:href="#New_Gradient_Swatch_copy_26"/><linearGradient id="New_Gradient_Swatch_copy_26-5" x1="3002.9" y1="1023.16" x2="2688.98" y2="370.32" gradientTransform="matrix(-1, 0, 0, 1, 2929.12, 0)" xlink:href="#New_Gradient_Swatch_copy_26"/><linearGradient id="New_Gradient_Swatch_copy_26-6" x1="2986.36" y1="1072.4" x2="2672.43" y2="419.56" gradientTransform="matrix(-1, 0, 0, 1, 2929.12, 0)" xlink:href="#New_Gradient_Swatch_copy_26"/><linearGradient id="New_Gradient_Swatch_copy_25-14" x1="224.47" y1="40.81" x2="276.25" y2="25.31" xlink:href="#New_Gradient_Swatch_copy_25"/><linearGradient id="New_Gradient_Swatch_copy_25-15" x1="155.39" y1="56.18" x2="278.85" y2="28.51" xlink:href="#New_Gradient_Swatch_copy_25"/></defs><g id="Layer_2" data-name="Layer 2"><g id="_Layer_" data-name="&lt;Layer&gt;"><polygon class="Graphic-Style-2" points="224.78 1068.89 452.86 937.76 452.86 220.92 224.78 352.06 224.78 1068.89"/><polygon class="Graphic-Style-3" points="0 937.76 224.91 1068.89 224.91 352.06 0 221.09 0 937.76"/><polygon class="Graphic-Style-3" points="0 937.76 224.91 1068.89 224.91 352.06 0 221.09 0 937.76"/><polygon class="cls-1" points="0 221.09 224.9 352.06 452.86 220.92 227.72 89.81 0 221.09"/><polygon class="Graphic-Style-2" points="225.16 323.9 401.3 222.63 401.3 169.31 225.16 270.59 225.16 323.9"/><polygon class="Graphic-Style-3" points="51.56 222.63 225.25 323.9 225.25 270.59 51.56 169.44 51.56 222.63"/><polygon class="cls-2" points="51.56 169.44 225.25 270.59 401.3 169.31 227.42 68.05 51.56 169.44"/><polygon class="Graphic-Style-2" points="225.53 241.91 349.41 170.69 349.41 119.13 225.53 190.35 225.53 241.91"/><polygon class="Graphic-Style-3" points="103.45 170.69 225.6 241.91 225.6 190.35 103.45 119.22 103.45 170.69"/><polygon class="cls-3" points="103.45 119.22 225.6 190.35 349.41 119.13 227.13 47.92 103.45 119.22"/><polygon class="Graphic-Style-2" points="225.87 162.25 303.3 117.73 303.3 66.77 225.87 111.29 225.87 162.25"/><polygon class="Graphic-Style-3" points="149.56 117.73 225.91 162.25 225.91 111.29 149.56 66.83 149.56 117.73"/><polygon class="cls-4" points="149.56 66.83 225.91 111.29 303.3 66.77 226.87 22.26 149.56 66.83"/><polygon class="cls-5" points="130.39 1065.05 173.38 1041.4 173.38 386.07 130.39 409.73 130.39 1065.05"/><polygon class="Graphic-Style-3" points="20.87 1001.15 130.45 1065.05 130.45 409.73 20.87 345.91 20.87 1001.15"/><polygon class="cls-6" points="20.87 345.91 130.45 409.73 173.38 386.07 63.68 322.19 20.87 345.91"/><polygon class="Graphic-Style-3" points="322.47 1065.05 279.48 1041.4 279.48 386.07 322.47 409.73 322.47 1065.05"/><polygon class="Graphic-Style-2" points="431.99 1001.15 322.41 1065.05 322.41 409.73 431.99 345.91 431.99 1001.15"/><polygon class="cls-7" points="431.99 345.91 322.41 409.73 279.48 386.07 389.18 322.19 431.99 345.91"/><polygon class="cls-8" points="403.51 388.41 418.27 379.82 418.27 1008.75 403.51 1017.35 403.51 388.41"/><polygon class="cls-9" points="372.17 406.86 386.92 398.27 386.92 1027.2 372.17 1035.8 372.17 406.86"/><polygon class="cls-10" points="340.82 425.31 355.57 416.72 355.57 1045.65 340.82 1054.25 340.82 425.31"/><polygon class="cls-11" points="49.45 388.41 34.7 379.82 34.7 1008.75 49.45 1017.35 49.45 388.41"/><polygon class="cls-12" points="80.8 406.86 66.05 398.27 66.05 1027.2 80.8 1035.8 80.8 406.86"/><polygon class="cls-13" points="112.15 425.31 97.4 416.72 97.4 1045.65 112.15 1054.25 112.15 425.31"/><polygon class="cls-14" points="226 0 226 80.71 251.09 66.28 226 0"/><polygon class="cls-15" points="226.02 0 226.02 80.71 201.29 66.29 226.02 0"/></g></g></svg>