<svg xmlns="http://www.w3.org/2000/svg" xmlns:xlink="http://www.w3.org/1999/xlink" viewBox="0 0 438.97 1179.81"><defs><style>.cls-1{fill:url(#New_Gradient_Swatch_copy_25);}.cls-2{fill:url(#New_Gradient_Swatch_copy_25-2);}.cls-3{fill:url(#linear-gradient);}.cls-4{fill:url(#New_Gradient_Swatch_copy_25-3);}.cls-5{fill:url(#linear-gradient-2);}.cls-6{fill:url(#New_Gradient_Swatch_copy_25-4);}.cls-7{fill:url(#linear-gradient-3);}.cls-8{fill:url(#New_Gradient_Swatch_copy_25-5);}.cls-9{fill:url(#linear-gradient-4);}.cls-10{fill:url(#New_Gradient_Swatch_copy_25-6);}.cls-11{fill:url(#linear-gradient-5);}.cls-12{fill:url(#New_Gradient_Swatch_copy_25-7);}.cls-13{fill:url(#linear-gradient-6);}.cls-14{fill:url(#New_Gradient_Swatch_copy_25-8);}.cls-15{fill:url(#linear-gradient-7);}.cls-16{fill:url(#New_Gradient_Swatch_copy_25-9);}.cls-17{fill:url(#linear-gradient-8);}.cls-18{fill:url(#New_Gradient_Swatch_copy_25-10);}.cls-19{fill:url(#linear-gradient-9);}.cls-20{fill:url(#New_Gradient_Swatch_copy_25-11);}.cls-21{fill:url(#linear-gradient-10);}.cls-22{fill:url(#New_Gradient_Swatch_copy_25-12);}.cls-23{fill:url(#linear-gradient-11);}.cls-24{fill:url(#New_Gradient_Swatch_copy_25-13);}.cls-25{fill:url(#New_Gradient_Swatch_copy_25-14);}.cls-26{fill:url(#New_Gradient_Swatch_copy_25-15);}.cls-27{fill:url(#New_Gradient_Swatch_copy_25-16);}.cls-28{fill:#000305;}.cls-29{fill:url(#New_Gradient_Swatch_copy_25-17);}.cls-30{fill:url(#New_Gradient_Swatch_copy_25-18);}.cls-31{fill:url(#New_Gradient_Swatch_copy_25-19);}.cls-32{fill:url(#New_Gradient_Swatch_copy_25-20);}.cls-33{fill:url(#New_Gradient_Swatch_copy_25-21);}.cls-34{fill:url(#New_Gradient_Swatch_copy_25-22);}.cls-35,.cls-36,.cls-37{fill:none;stroke-miterlimit:10;stroke-width:0.44px;}.cls-35{stroke:#ca5475;}.cls-36{stroke:#ff6e82;}.cls-37{stroke:#ff8384;}.cls-38{fill:url(#linear-gradient-12);}.cls-39{fill:#ff8384;}.cls-40{fill:url(#New_Gradient_Swatch_copy_25-23);}.cls-41{fill:url(#New_Gradient_Swatch_copy_25-24);}.cls-42{fill:url(#New_Gradient_Swatch_copy_25-25);}.cls-43{fill:url(#New_Gradient_Swatch_copy_25-26);}.cls-44{fill:url(#New_Gradient_Swatch_copy_25-27);}.cls-45{fill:url(#New_Gradient_Swatch_copy_25-28);}.cls-46{fill:url(#linear-gradient-13);}</style><linearGradient id="New_Gradient_Swatch_copy_25" x1="2715.96" y1="1772.71" x2="3226.25" y2="97.09" gradientTransform="matrix(-1, 0, 0, 1, 3156.85, 0)" gradientUnits="userSpaceOnUse"><stop offset="0" stop-color="#25054d"/><stop offset="1" stop-color="#45108a"/></linearGradient><linearGradient id="New_Gradient_Swatch_copy_25-2" x1="2752.28" y1="1126.35" x2="3035.74" y2="873.37" xlink:href="#New_Gradient_Swatch_copy_25"/><linearGradient id="linear-gradient" x1="2802.24" y1="1047.03" x2="3073.59" y2="1047.03" gradientTransform="matrix(-1, 0, 0, 1, 3156.85, 0)" gradientUnits="userSpaceOnUse"><stop offset="0" stop-color="#00e5ff"/><stop offset="1" stop-color="#c0f"/></linearGradient><linearGradient id="New_Gradient_Swatch_copy_25-3" x1="2755.53" y1="1033.44" x2="3034.03" y2="784.89" xlink:href="#New_Gradient_Swatch_copy_25"/><linearGradient id="linear-gradient-2" x1="2804.15" y1="954.61" x2="3071.67" y2="954.61" xlink:href="#linear-gradient"/><linearGradient id="New_Gradient_Swatch_copy_25-4" x1="2758.67" y1="943.1" x2="3032.37" y2="698.82" xlink:href="#New_Gradient_Swatch_copy_25"/><linearGradient id="linear-gradient-3" x1="2806.02" y1="864.76" x2="3069.81" y2="864.76" xlink:href="#linear-gradient"/><linearGradient id="New_Gradient_Swatch_copy_25-5" x1="2761.7" y1="855.23" x2="3030.78" y2="615.08" xlink:href="#New_Gradient_Swatch_copy_25"/><linearGradient id="linear-gradient-4" x1="2807.83" y1="777.38" x2="3068" y2="777.38" xlink:href="#linear-gradient"/><linearGradient id="New_Gradient_Swatch_copy_25-6" x1="2764.62" y1="769.73" x2="3029.24" y2="533.57" xlink:href="#New_Gradient_Swatch_copy_25"/><linearGradient id="linear-gradient-5" x1="2809.59" y1="692.38" x2="3066.24" y2="692.38" xlink:href="#linear-gradient"/><linearGradient id="New_Gradient_Swatch_copy_25-7" x1="2767.45" y1="686.51" x2="3027.75" y2="454.21" xlink:href="#New_Gradient_Swatch_copy_25"/><linearGradient id="linear-gradient-6" x1="2811.3" y1="609.64" x2="3064.52" y2="609.64" xlink:href="#linear-gradient"/><linearGradient id="New_Gradient_Swatch_copy_25-8" x1="2770.19" y1="605.48" x2="3026.3" y2="376.9" xlink:href="#New_Gradient_Swatch_copy_25"/><linearGradient id="linear-gradient-7" x1="2812.97" y1="529.09" x2="3062.85" y2="529.09" xlink:href="#linear-gradient"/><linearGradient id="New_Gradient_Swatch_copy_25-9" x1="2772.83" y1="526.55" x2="3024.91" y2="301.58" xlink:href="#New_Gradient_Swatch_copy_25"/><linearGradient id="linear-gradient-8" x1="2814.6" y1="450.64" x2="3061.23" y2="450.64" xlink:href="#linear-gradient"/><linearGradient id="New_Gradient_Swatch_copy_25-10" x1="2775.4" y1="449.64" x2="3023.56" y2="228.16" xlink:href="#New_Gradient_Swatch_copy_25"/><linearGradient id="linear-gradient-9" x1="2816.18" y1="374.2" x2="3059.65" y2="374.2" xlink:href="#linear-gradient"/><linearGradient id="New_Gradient_Swatch_copy_25-11" x1="2777.88" y1="374.67" x2="3022.25" y2="156.57" xlink:href="#New_Gradient_Swatch_copy_25"/><linearGradient id="linear-gradient-10" x1="2817.72" y1="299.7" x2="3106.44" y2="299.7" xlink:href="#linear-gradient"/><linearGradient id="New_Gradient_Swatch_copy_25-12" x1="2883.71" y1="209.27" x2="3124.41" y2="-5.55" xlink:href="#New_Gradient_Swatch_copy_25"/><linearGradient id="linear-gradient-11" x1="2819.23" y1="227.07" x2="3056.6" y2="227.07" xlink:href="#linear-gradient"/><linearGradient id="New_Gradient_Swatch_copy_25-13" x1="2362.3" y1="1104.41" x2="3114.53" y2="433.06" xlink:href="#New_Gradient_Swatch_copy_25"/><linearGradient id="New_Gradient_Swatch_copy_25-14" x1="2730.86" y1="792.97" x2="3316.16" y2="-436.5" xlink:href="#New_Gradient_Swatch_copy_25"/><linearGradient id="New_Gradient_Swatch_copy_25-15" x1="2503.45" y1="1846.09" x2="3079.49" y2="-45.43" xlink:href="#New_Gradient_Swatch_copy_25"/><linearGradient id="New_Gradient_Swatch_copy_25-16" x1="2768.89" y1="268.64" x2="2953.99" y2="104.43" xlink:href="#New_Gradient_Swatch_copy_25"/><linearGradient id="New_Gradient_Swatch_copy_25-17" x1="3782.06" y1="2838.63" x2="3793.61" y2="2810.45" gradientTransform="matrix(-0.87, -0.5, 0, 1.15, 3476.95, -1234.6)" xlink:href="#New_Gradient_Swatch_copy_25"/><linearGradient id="New_Gradient_Swatch_copy_25-18" x1="2957.63" y1="143.77" x2="2904.07" y2="84.76" xlink:href="#New_Gradient_Swatch_copy_25"/><linearGradient id="New_Gradient_Swatch_copy_25-19" x1="3782.06" y1="2826.89" x2="3793.62" y2="2798.71" gradientTransform="matrix(-0.87, -0.5, 0, 1.15, 3476.95, -1234.6)" xlink:href="#New_Gradient_Swatch_copy_25"/><linearGradient id="New_Gradient_Swatch_copy_25-20" x1="2957.63" y1="130.21" x2="2904.07" y2="71.2" xlink:href="#New_Gradient_Swatch_copy_25"/><linearGradient id="New_Gradient_Swatch_copy_25-21" x1="3782.06" y1="2815.15" x2="3793.62" y2="2786.97" gradientTransform="matrix(-0.87, -0.5, 0, 1.15, 3476.95, -1234.6)" xlink:href="#New_Gradient_Swatch_copy_25"/><linearGradient id="New_Gradient_Swatch_copy_25-22" x1="2957.63" y1="116.65" x2="2904.07" y2="57.64" xlink:href="#New_Gradient_Swatch_copy_25"/><linearGradient id="linear-gradient-12" x1="2944.02" y1="43.92" x2="2958.02" y2="43.92" xlink:href="#linear-gradient"/><linearGradient id="New_Gradient_Swatch_copy_25-23" x1="3727.66" y1="2838.55" x2="3739.22" y2="2810.38" gradientTransform="matrix(-0.87, -0.5, 0, 1.15, 3476.95, -1234.6)" xlink:href="#New_Gradient_Swatch_copy_25"/><linearGradient id="New_Gradient_Swatch_copy_25-24" x1="2910.52" y1="170.88" x2="2856.96" y2="111.87" xlink:href="#New_Gradient_Swatch_copy_25"/><linearGradient id="New_Gradient_Swatch_copy_25-25" x1="3727.66" y1="2826.81" x2="3739.22" y2="2798.63" gradientTransform="matrix(-0.87, -0.5, 0, 1.15, 3476.95, -1234.6)" xlink:href="#New_Gradient_Swatch_copy_25"/><linearGradient id="New_Gradient_Swatch_copy_25-26" x1="2910.52" y1="157.32" x2="2856.96" y2="98.31" xlink:href="#New_Gradient_Swatch_copy_25"/><linearGradient id="New_Gradient_Swatch_copy_25-27" x1="3727.66" y1="2815.07" x2="3739.22" y2="2786.89" gradientTransform="matrix(-0.87, -0.5, 0, 1.15, 3476.95, -1234.6)" xlink:href="#New_Gradient_Swatch_copy_25"/><linearGradient id="New_Gradient_Swatch_copy_25-28" x1="2910.52" y1="143.77" x2="2856.96" y2="84.76" xlink:href="#New_Gradient_Swatch_copy_25"/><linearGradient id="linear-gradient-13" x1="2896.91" y1="71.04" x2="2910.91" y2="71.04" xlink:href="#linear-gradient"/></defs><g id="Layer_2" data-name="Layer 2"><g id="_Layer_" data-name="&lt;Layer&gt;"><polygon class="cls-1" points="124.79 101.37 113.13 94.7 0 958.37 83.26 1006.44 124.79 120.24 124.79 101.37"/><path class="cls-2" d="M85,959.41c-1,49.73,58.94,90.6,134,90.6s135-40.87,134-90.6c-1-49-61-88.13-133.95-88.13S86,910.44,85,959.41Z"/><path class="cls-3" d="M354.6,1041.7c1,51-59.68,92.94-135.66,92.94S82.22,1092.7,83.28,1041.7L85,959.41c-1,49.73,58.94,90.6,134,90.6s135-40.87,134-90.6Z"/><path class="cls-4" d="M86.85,869.45c-1,48.34,58.13,88.08,132.09,88.08S352,917.79,351,869.45c-1-47.62-60.12-85.71-132.08-85.71S87.84,821.83,86.85,869.45Z"/><path class="cls-5" d="M352.68,949.44c1,49.57-58.84,90.32-133.74,90.32S84.16,999,85.19,949.44l1.66-80c-1,48.34,58.13,88.08,132.09,88.08S352,917.79,351,869.45Z"/><path class="cls-6" d="M88.67,782c-1,47,57.34,85.66,130.27,85.66S350.18,829,349.21,782c-1-46.33-59.28-83.38-130.27-83.38S89.63,735.63,88.67,782Z"/><path class="cls-7" d="M350.82,859.76c1,48.19-58,87.8-131.88,87.8S86.05,908,87.05,859.76L88.67,782c-1,47,57.34,85.66,130.27,85.66S350.18,829,349.21,782Z"/><path class="cls-8" d="M90.43,696.84c-1,45.75,56.58,83.34,128.51,83.34s129.45-37.59,128.5-83.34c-.94-45.08-58.46-81.15-128.5-81.15S91.37,651.76,90.43,696.84Z"/><path class="cls-9" d="M349,772.53c1,46.88-57.26,85.4-130.07,85.4s-131-38.52-130.08-85.4l1.57-75.69c-1,45.75,56.58,83.34,128.51,83.34s129.45-37.59,128.5-83.34Z"/><path class="cls-10" d="M92.15,614c-.92,44.53,55.84,81.11,126.79,81.11S346.65,658.53,345.72,614c-.91-43.89-57.67-79-126.78-79S93.06,570.11,92.15,614Z"/><path class="cls-11" d="M347.25,687.67c.95,45.61-56.5,83.08-128.31,83.08S89.68,733.28,90.62,687.67L92.15,614c-.92,44.53,55.84,81.11,126.79,81.11S346.65,658.53,345.72,614Z"/><path class="cls-12" d="M93.82,533.35c-.89,43.35,55.11,79,125.12,79s126-35.61,125.11-79c-.89-42.75-56.9-77-125.11-77S94.71,490.6,93.82,533.35Z"/><path class="cls-13" d="M345.54,605.07c.92,44.4-55.76,80.87-126.6,80.87S91.42,649.47,92.34,605.07l1.48-71.72c-.89,43.35,55.11,79,125.12,79s126-35.61,125.11-79Z"/><path class="cls-14" d="M95.45,454.8c-.87,42.23,54.41,76.9,123.49,76.9S343.29,497,342.42,454.8c-.87-41.65-56.15-75-123.48-75S96.32,413.15,95.45,454.8Z"/><path class="cls-15" d="M343.87,524.65c.89,43.23-55,78.74-124.93,78.74S93.11,567.88,94,524.65l1.44-69.85c-.87,42.23,54.41,76.9,123.49,76.9S343.29,497,342.42,454.8Z"/><path class="cls-16" d="M97,378.26c-.85,41.15,53.72,74.93,121.9,74.93s122.74-33.78,121.89-74.93c-.84-40.58-55.41-73.06-121.89-73.06S97.88,337.68,97,378.26Z"/><path class="cls-17" d="M342.24,446.32c.88,42.11-54.32,76.69-123.3,76.69S94.76,488.43,95.63,446.32L97,378.26c-.85,41.15,53.72,74.93,121.9,74.93s122.74-33.78,121.89-74.93Z"/><path class="cls-18" d="M98.59,303.67c-.83,40.11,53,73,120.35,73s121.17-32.92,120.34-73c-.82-39.55-54.69-71.23-120.34-71.23S99.41,264.12,98.59,303.67Z"/><path class="cls-19" d="M340.66,370c.85,41-53.64,74.72-121.72,74.72S96.36,411,97.21,370l1.38-66.34c-.83,40.11,53,73,120.35,73s121.17-32.92,120.34-73Z"/><path class="cls-20" d="M100.1,231c-.81,39.1,52.39,71.19,118.84,71.19S338.58,270.06,337.77,231c-.8-38.58-54-69.47-118.83-69.47S100.9,192.38,100.1,231Z"/><path class="cls-21" d="M339.12,295.63c.83,40-53,72.82-120.18,72.82s-121-32.83-120.18-72.82L100.1,231c-.81,39.1,52.39,71.19,118.84,71.19S338.58,270.06,337.77,231Z"/><path class="cls-22" d="M101.57,160c-.79,38.14,51.75,69.43,117.37,69.43S337.09,198.18,336.3,160c-.78-37.63-53.32-67.77-117.36-67.77S102.35,122.41,101.57,160Z"/><path class="cls-23" d="M337.61,223.11c.81,39-52.32,71-118.67,71s-119.49-32-118.68-71L101.57,160c-.79,38.14,51.75,69.43,117.37,69.43S337.09,198.18,336.3,160Z"/><path class="cls-24" d="M289.3,215.23,285.18,1123s38.23-13.08,51.38-34.34L313.08,201.5S305.73,208.53,289.3,215.23Z"/><polygon class="cls-25" points="300.96 202.78 383.54 1179.81 438.98 1147.8 356.4 170.78 300.96 202.78"/><polygon class="cls-26" points="383.54 1179.81 285.18 1123.02 289.3 215.23 124.79 120.24 124.79 101.37 300.96 202.78 383.54 1179.81"/><polygon class="cls-27" points="356.4 170.78 300.96 202.78 113.13 94.7 168.56 62.7 356.4 170.78"/><polygon class="cls-28" points="182.4 111.16 205.95 124.76 229.36 111.25 205.8 97.65 182.4 111.16"/><polygon class="cls-29" points="182.4 121.98 205.95 135.58 205.95 124.76 182.4 111.16 182.4 121.98"/><polygon class="cls-30" points="229.51 121.98 205.95 135.58 205.95 124.76 229.51 111.16 229.51 121.98"/><polygon class="cls-28" points="182.4 97.61 205.95 111.21 229.36 97.69 205.8 84.09 182.4 97.61"/><polygon class="cls-31" points="182.4 108.42 205.95 122.02 205.95 111.21 182.4 97.61 182.4 108.42"/><polygon class="cls-32" points="229.51 108.42 205.95 122.02 205.95 111.21 229.51 97.61 229.51 108.42"/><polygon class="cls-28" points="182.4 84.05 205.95 97.65 229.36 84.13 205.8 70.53 182.4 84.05"/><polygon class="cls-33" points="182.4 94.87 205.95 108.47 205.95 97.65 182.4 84.05 182.4 94.87"/><polygon class="cls-34" points="229.51 94.87 205.95 108.47 205.95 97.65 229.51 84.05 229.51 94.87"/><path class="cls-35" d="M200.87,35.91c-2.73,1.58-2.72,4.14,0,5.72a11,11,0,0,0,9.9,0c2.72-1.58,2.71-4.14,0-5.72A11,11,0,0,0,200.87,35.91Z"/><path class="cls-36" d="M200.87,23.65c-2.73,1.57-2.72,4.13,0,5.71a10.9,10.9,0,0,0,9.9,0c2.72-1.57,2.71-4.13,0-5.71A10.93,10.93,0,0,0,200.87,23.65Z"/><path class="cls-37" d="M200.87,11.38c-2.73,1.58-2.72,4.14,0,5.72a11,11,0,0,0,9.9,0c2.72-1.58,2.71-4.13,0-5.72A11,11,0,0,0,200.87,11.38Z"/><path class="cls-38" d="M205.83,1.07l7,81.67a3.43,3.43,0,0,1-2,2.87,11,11,0,0,1-9.9,0,3.52,3.52,0,0,1-2.07-2.85Z"/><path class="cls-35" d="M200.87,35.91c-2.73,1.58-2.72,4.14,0,5.72a11,11,0,0,0,9.9,0c2.72-1.58,2.71-4.14,0-5.72"/><path class="cls-36" d="M200.87,23.65c-2.73,1.57-2.72,4.13,0,5.71a10.9,10.9,0,0,0,9.9,0c2.72-1.57,2.71-4.13,0-5.71"/><path class="cls-37" d="M200.87,11.38c-2.73,1.58-2.72,4.14,0,5.72a11,11,0,0,0,9.9,0c2.72-1.58,2.71-4.13,0-5.72"/><path class="cls-39" d="M204.37,1.5a1.5,1.5,0,1,0,1.5-1.5A1.51,1.51,0,0,0,204.37,1.5Z"/><polygon class="cls-28" points="229.51 138.28 253.06 151.88 276.47 138.36 252.91 124.76 229.51 138.28"/><polygon class="cls-40" points="229.51 149.1 253.06 162.7 253.06 151.88 229.51 138.28 229.51 149.1"/><polygon class="cls-41" points="276.62 149.1 253.06 162.7 253.06 151.88 276.62 138.28 276.62 149.1"/><polygon class="cls-28" points="229.51 124.72 253.06 138.32 276.47 124.81 252.91 111.21 229.51 124.72"/><polygon class="cls-42" points="229.51 135.54 253.06 149.14 253.06 138.32 229.51 124.72 229.51 135.54"/><polygon class="cls-43" points="276.62 135.54 253.06 149.14 253.06 138.32 276.62 124.72 276.62 135.54"/><polygon class="cls-28" points="229.51 111.16 253.06 124.76 276.47 111.25 252.91 97.65 229.51 111.16"/><polygon class="cls-44" points="229.51 121.98 253.06 135.58 253.06 124.76 229.51 111.16 229.51 121.98"/><polygon class="cls-45" points="276.62 121.98 253.06 135.58 253.06 124.76 276.62 111.16 276.62 121.98"/><path class="cls-35" d="M248,63c-2.73,1.57-2.71,4.13,0,5.71a10.9,10.9,0,0,0,9.9,0c2.72-1.57,2.71-4.13,0-5.71A10.9,10.9,0,0,0,248,63Z"/><path class="cls-36" d="M248,50.76c-2.73,1.58-2.71,4.14,0,5.72a11,11,0,0,0,9.9,0c2.72-1.58,2.71-4.14,0-5.72A11,11,0,0,0,248,50.76Z"/><path class="cls-37" d="M248,38.5c-2.73,1.57-2.71,4.13,0,5.72a10.93,10.93,0,0,0,9.9,0c2.72-1.57,2.71-4.13,0-5.71A10.93,10.93,0,0,0,248,38.5Z"/><path class="cls-46" d="M252.94,28.18l7,81.67a3.43,3.43,0,0,1-2,2.87,10.9,10.9,0,0,1-9.9,0,3.5,3.5,0,0,1-2.07-2.85Z"/><path class="cls-35" d="M248,63c-2.73,1.57-2.71,4.13,0,5.71a10.9,10.9,0,0,0,9.9,0c2.72-1.57,2.71-4.13,0-5.71"/><path class="cls-36" d="M248,50.76c-2.73,1.58-2.71,4.14,0,5.72a11,11,0,0,0,9.9,0c2.72-1.58,2.71-4.14,0-5.72"/><path class="cls-37" d="M248,38.5c-2.73,1.57-2.71,4.13,0,5.72a10.93,10.93,0,0,0,9.9,0c2.72-1.57,2.71-4.13,0-5.71"/><path class="cls-39" d="M251.48,28.62a1.5,1.5,0,1,0,1.5-1.51A1.5,1.5,0,0,0,251.48,28.62Z"/></g></g></svg>