<svg xmlns="http://www.w3.org/2000/svg" xmlns:xlink="http://www.w3.org/1999/xlink" viewBox="0 0 523.8 585.11"><defs><style>.cls-1{fill:url(#New_Gradient_Swatch_copy_25);}.cls-2{fill:url(#New_Gradient_Swatch_copy_25-2);}.cls-3{fill:url(#linear-gradient);}.cls-4{fill:url(#New_Gradient_Swatch_copy_26);}.cls-5{fill:url(#New_Gradient_Swatch_copy_26-2);}.cls-6{fill:url(#New_Gradient_Swatch_copy_26-3);}.cls-7{fill:url(#New_Gradient_Swatch_copy_26-4);}.cls-8{fill:url(#New_Gradient_Swatch_copy_26-5);}.cls-9{fill:url(#New_Gradient_Swatch_copy_26-6);}.cls-10{fill:url(#New_Gradient_Swatch_copy_26-7);}.cls-11{fill:url(#New_Gradient_Swatch_copy_26-8);}.cls-12{fill:url(#New_Gradient_Swatch_copy_26-9);}.cls-13{fill:url(#New_Gradient_Swatch_copy_26-10);}.cls-14{fill:url(#New_Gradient_Swatch_copy_26-11);}.cls-15{fill:url(#New_Gradient_Swatch_copy_26-12);}.cls-16{fill:url(#New_Gradient_Swatch_copy_26-13);}.cls-17{fill:url(#New_Gradient_Swatch_copy_26-14);}.cls-18{fill:url(#New_Gradient_Swatch_copy_26-15);}.cls-19{fill:url(#New_Gradient_Swatch_copy_26-16);}.cls-20{fill:url(#New_Gradient_Swatch_copy_26-17);}.cls-21{fill:url(#New_Gradient_Swatch_copy_26-18);}.cls-22{fill:url(#New_Gradient_Swatch_copy_26-19);}.cls-23{fill:url(#New_Gradient_Swatch_copy_26-20);}.cls-24{fill:url(#New_Gradient_Swatch_copy_26-21);}.cls-25{fill:url(#New_Gradient_Swatch_copy_26-22);}.cls-26{fill:url(#New_Gradient_Swatch_copy_26-23);}.cls-27{fill:url(#New_Gradient_Swatch_copy_26-24);}.cls-28{fill:url(#New_Gradient_Swatch_copy_26-25);}.cls-29{fill:url(#New_Gradient_Swatch_copy_26-26);}.cls-30{fill:url(#New_Gradient_Swatch_copy_26-27);}.cls-31{fill:url(#New_Gradient_Swatch_copy_26-28);}.cls-32{fill:url(#New_Gradient_Swatch_copy_26-29);}.cls-33{fill:url(#New_Gradient_Swatch_copy_26-30);}.cls-34{fill:url(#New_Gradient_Swatch_copy_26-31);}.cls-35{fill:url(#New_Gradient_Swatch_copy_26-32);}.cls-36{fill:url(#New_Gradient_Swatch_copy_26-33);}.cls-37{fill:url(#New_Gradient_Swatch_copy_26-34);}.cls-38{fill:url(#New_Gradient_Swatch_copy_26-35);}.cls-39{fill:url(#New_Gradient_Swatch_copy_25-3);}.cls-40{fill:url(#New_Gradient_Swatch_copy_25-4);}.cls-41{fill:url(#New_Gradient_Swatch_copy_25-5);}.cls-42{fill:url(#linear-gradient-2);}</style><linearGradient id="New_Gradient_Swatch_copy_25" x1="266.51" y1="357.1" x2="1188.54" y2="81.02" gradientUnits="userSpaceOnUse"><stop offset="0" stop-color="#25054d"/><stop offset="1" stop-color="#45108a"/></linearGradient><linearGradient id="New_Gradient_Swatch_copy_25-2" x1="-219.98" y1="466.48" x2="382.55" y2="331.41" xlink:href="#New_Gradient_Swatch_copy_25"/><linearGradient id="linear-gradient" x1="638.2" y1="-565.73" x2="233.4" y2="205.74" gradientUnits="userSpaceOnUse"><stop offset="0.74" stop-color="#45108a"/><stop offset="1" stop-color="#3746a3"/></linearGradient><linearGradient id="New_Gradient_Swatch_copy_26" x1="448.38" y1="283.67" x2="204.23" y2="145.89" gradientUnits="userSpaceOnUse"><stop offset="0.03" stop-color="#7c1dc9"/><stop offset="0.21" stop-color="#6e41d2"/><stop offset="0.62" stop-color="#4c9be8"/><stop offset="1" stop-color="#2af6ff"/></linearGradient><linearGradient id="New_Gradient_Swatch_copy_26-2" x1="445.79" y1="288.25" x2="201.65" y2="150.47" xlink:href="#New_Gradient_Swatch_copy_26"/><linearGradient id="New_Gradient_Swatch_copy_26-3" x1="443.21" y1="292.83" x2="199.06" y2="155.05" xlink:href="#New_Gradient_Swatch_copy_26"/><linearGradient id="New_Gradient_Swatch_copy_26-4" x1="440.63" y1="297.41" x2="196.48" y2="159.62" xlink:href="#New_Gradient_Swatch_copy_26"/><linearGradient id="New_Gradient_Swatch_copy_26-5" x1="438.04" y1="301.99" x2="193.9" y2="164.2" xlink:href="#New_Gradient_Swatch_copy_26"/><linearGradient id="New_Gradient_Swatch_copy_26-6" x1="435.46" y1="306.57" x2="191.31" y2="168.78" xlink:href="#New_Gradient_Swatch_copy_26"/><linearGradient id="New_Gradient_Swatch_copy_26-7" x1="432.87" y1="311.14" x2="188.73" y2="173.36" xlink:href="#New_Gradient_Swatch_copy_26"/><linearGradient id="New_Gradient_Swatch_copy_26-8" x1="430.29" y1="315.72" x2="186.15" y2="177.94" xlink:href="#New_Gradient_Swatch_copy_26"/><linearGradient id="New_Gradient_Swatch_copy_26-9" x1="427.71" y1="320.3" x2="183.56" y2="182.52" xlink:href="#New_Gradient_Swatch_copy_26"/><linearGradient id="New_Gradient_Swatch_copy_26-10" x1="425.12" y1="324.88" x2="180.98" y2="187.09" xlink:href="#New_Gradient_Swatch_copy_26"/><linearGradient id="New_Gradient_Swatch_copy_26-11" x1="422.54" y1="329.46" x2="178.4" y2="191.67" xlink:href="#New_Gradient_Swatch_copy_26"/><linearGradient id="New_Gradient_Swatch_copy_26-12" x1="419.96" y1="334.03" x2="175.81" y2="196.25" xlink:href="#New_Gradient_Swatch_copy_26"/><linearGradient id="New_Gradient_Swatch_copy_26-13" x1="417.37" y1="338.61" x2="173.23" y2="200.83" xlink:href="#New_Gradient_Swatch_copy_26"/><linearGradient id="New_Gradient_Swatch_copy_26-14" x1="414.79" y1="343.19" x2="170.64" y2="205.41" xlink:href="#New_Gradient_Swatch_copy_26"/><linearGradient id="New_Gradient_Swatch_copy_26-15" x1="412.2" y1="347.77" x2="168.06" y2="209.98" xlink:href="#New_Gradient_Swatch_copy_26"/><linearGradient id="New_Gradient_Swatch_copy_26-16" x1="409.62" y1="352.35" x2="165.48" y2="214.56" xlink:href="#New_Gradient_Swatch_copy_26"/><linearGradient id="New_Gradient_Swatch_copy_26-17" x1="407.04" y1="356.92" x2="162.89" y2="219.14" xlink:href="#New_Gradient_Swatch_copy_26"/><linearGradient id="New_Gradient_Swatch_copy_26-18" x1="404.45" y1="361.5" x2="160.31" y2="223.72" xlink:href="#New_Gradient_Swatch_copy_26"/><linearGradient id="New_Gradient_Swatch_copy_26-19" x1="401.87" y1="366.08" x2="157.73" y2="228.3" xlink:href="#New_Gradient_Swatch_copy_26"/><linearGradient id="New_Gradient_Swatch_copy_26-20" x1="399.29" y1="370.66" x2="155.14" y2="232.88" xlink:href="#New_Gradient_Swatch_copy_26"/><linearGradient id="New_Gradient_Swatch_copy_26-21" x1="396.7" y1="375.24" x2="152.56" y2="237.45" xlink:href="#New_Gradient_Swatch_copy_26"/><linearGradient id="New_Gradient_Swatch_copy_26-22" x1="394.12" y1="379.82" x2="149.97" y2="242.03" xlink:href="#New_Gradient_Swatch_copy_26"/><linearGradient id="New_Gradient_Swatch_copy_26-23" x1="391.53" y1="384.39" x2="147.39" y2="246.61" xlink:href="#New_Gradient_Swatch_copy_26"/><linearGradient id="New_Gradient_Swatch_copy_26-24" x1="388.95" y1="388.97" x2="144.81" y2="251.19" xlink:href="#New_Gradient_Swatch_copy_26"/><linearGradient id="New_Gradient_Swatch_copy_26-25" x1="386.37" y1="393.55" x2="142.22" y2="255.77" xlink:href="#New_Gradient_Swatch_copy_26"/><linearGradient id="New_Gradient_Swatch_copy_26-26" x1="383.78" y1="398.13" x2="139.64" y2="260.34" xlink:href="#New_Gradient_Swatch_copy_26"/><linearGradient id="New_Gradient_Swatch_copy_26-27" x1="381.2" y1="402.71" x2="137.06" y2="264.92" xlink:href="#New_Gradient_Swatch_copy_26"/><linearGradient id="New_Gradient_Swatch_copy_26-28" x1="378.62" y1="407.28" x2="134.47" y2="269.5" xlink:href="#New_Gradient_Swatch_copy_26"/><linearGradient id="New_Gradient_Swatch_copy_26-29" x1="376.03" y1="411.86" x2="131.89" y2="274.08" xlink:href="#New_Gradient_Swatch_copy_26"/><linearGradient id="New_Gradient_Swatch_copy_26-30" x1="373.45" y1="416.44" x2="129.31" y2="278.66" xlink:href="#New_Gradient_Swatch_copy_26"/><linearGradient id="New_Gradient_Swatch_copy_26-31" x1="370.87" y1="421.02" x2="126.72" y2="283.23" xlink:href="#New_Gradient_Swatch_copy_26"/><linearGradient id="New_Gradient_Swatch_copy_26-32" x1="368.28" y1="425.6" x2="124.14" y2="287.81" xlink:href="#New_Gradient_Swatch_copy_26"/><linearGradient id="New_Gradient_Swatch_copy_26-33" x1="365.7" y1="430.18" x2="121.55" y2="292.39" xlink:href="#New_Gradient_Swatch_copy_26"/><linearGradient id="New_Gradient_Swatch_copy_26-34" x1="363.11" y1="434.75" x2="118.97" y2="296.97" xlink:href="#New_Gradient_Swatch_copy_26"/><linearGradient id="New_Gradient_Swatch_copy_26-35" x1="360.53" y1="439.33" x2="116.39" y2="301.55" xlink:href="#New_Gradient_Swatch_copy_26"/><linearGradient id="New_Gradient_Swatch_copy_25-3" x1="8517.47" y1="7006.13" x2="8153" y2="7700.74" gradientTransform="translate(8441.67 7800.9) rotate(180)" xlink:href="#New_Gradient_Swatch_copy_25"/><linearGradient id="New_Gradient_Swatch_copy_25-4" x1="-80.35" y1="213.46" x2="561.67" y2="4.24" xlink:href="#New_Gradient_Swatch_copy_25"/><linearGradient id="New_Gradient_Swatch_copy_25-5" x1="413.49" y1="60.73" x2="487.41" y2="28.41" xlink:href="#New_Gradient_Swatch_copy_25"/><linearGradient id="linear-gradient-2" x1="-121" y1="429.84" x2="785.93" y2="-218.45" xlink:href="#linear-gradient"/></defs><g id="Layer_2" data-name="Layer 2"><g id="_Layer_" data-name="&lt;Layer&gt;"><polygon class="cls-1" points="149.38 585.11 523.8 369.49 523.8 87.13 149.38 302.76 149.38 585.11"/><polygon class="cls-2" points="0 497.96 149.46 585.11 149.46 302.76 0 215.72 0 497.96"/><polygon class="cls-3" points="0 215.72 149.46 302.76 523.8 87.13 374.17 0 0 215.72"/><polygon class="cls-4" points="119.86 307.62 148.47 324.06 523.8 106.3 523.8 116.59 148.47 334.36 119.86 317.91 119.86 307.62"/><polygon class="cls-5" points="119.86 313.65 148.47 330.1 523.8 112.33 523.8 122.63 148.47 340.39 119.86 323.95 119.86 313.65"/><polygon class="cls-6" points="119.86 319.69 148.47 336.14 523.8 118.37 523.8 128.66 148.47 346.43 119.86 329.98 119.86 319.69"/><polygon class="cls-7" points="119.86 325.72 148.47 342.17 523.8 124.41 523.8 134.7 148.47 352.47 119.86 336.02 119.86 325.72"/><polygon class="cls-8" points="119.86 331.76 148.47 348.21 523.8 130.44 523.8 140.74 148.47 358.5 119.86 342.05 119.86 331.76"/><polygon class="cls-9" points="119.86 337.8 148.47 354.25 523.8 136.48 523.8 146.77 148.47 364.54 119.86 348.09 119.86 337.8"/><polygon class="cls-10" points="119.86 343.83 148.47 360.28 523.8 142.52 523.8 152.81 148.47 370.58 119.86 354.13 119.86 343.83"/><polygon class="cls-11" points="119.86 349.87 148.47 366.32 523.8 148.55 523.8 158.85 148.47 376.61 119.86 360.16 119.86 349.87"/><polygon class="cls-12" points="119.86 355.9 148.47 372.36 523.8 154.59 523.8 164.88 148.47 382.65 119.86 366.2 119.86 355.9"/><polygon class="cls-13" points="119.86 361.94 148.47 378.39 523.8 160.63 523.8 170.92 148.47 388.69 119.86 372.24 119.86 361.94"/><polygon class="cls-14" points="119.86 367.98 148.47 384.43 523.8 166.66 523.8 176.96 148.47 394.72 119.86 378.27 119.86 367.98"/><polygon class="cls-15" points="119.86 374.01 148.47 390.46 523.8 172.7 523.8 182.99 148.47 400.76 119.86 384.31 119.86 374.01"/><polygon class="cls-16" points="119.86 380.05 148.47 396.5 523.8 178.73 523.8 189.03 148.47 406.79 119.86 390.35 119.86 380.05"/><polygon class="cls-17" points="119.86 386.09 148.47 402.54 523.8 184.77 523.8 195.06 148.47 412.83 119.86 396.38 119.86 386.09"/><polygon class="cls-18" points="119.86 392.12 148.47 408.57 523.8 190.81 523.8 201.1 148.47 418.87 119.86 402.42 119.86 392.12"/><polygon class="cls-19" points="119.86 398.16 148.47 414.61 523.8 196.84 523.8 207.14 148.47 424.9 119.86 408.45 119.86 398.16"/><polygon class="cls-20" points="119.86 404.2 148.47 420.64 523.8 202.88 523.8 213.17 148.47 430.94 119.86 414.49 119.86 404.2"/><polygon class="cls-21" points="119.86 410.23 148.47 426.68 523.8 208.91 523.8 219.21 148.47 436.98 119.86 420.53 119.86 410.23"/><polygon class="cls-22" points="119.86 416.27 148.47 432.72 523.8 214.95 523.8 225.25 148.47 443.01 119.86 426.56 119.86 416.27"/><polygon class="cls-23" points="119.86 422.31 148.47 438.75 523.8 220.99 523.8 231.28 148.47 449.05 119.86 432.6 119.86 422.31"/><polygon class="cls-24" points="119.86 428.34 148.47 444.79 523.8 227.02 523.8 237.32 148.47 455.08 119.86 438.63 119.86 428.34"/><polygon class="cls-25" points="119.86 434.38 148.47 450.83 523.8 233.06 523.8 243.35 148.47 461.12 119.86 444.67 119.86 434.38"/><polygon class="cls-26" points="119.86 440.41 148.47 456.86 523.8 239.1 523.8 249.39 148.47 467.16 119.86 450.71 119.86 440.41"/><polygon class="cls-27" points="119.86 446.45 148.47 462.9 523.8 245.13 523.8 255.43 148.47 473.19 119.86 456.74 119.86 446.45"/><polygon class="cls-28" points="119.86 452.49 148.47 468.94 523.8 251.17 523.8 261.46 148.47 479.23 119.86 462.78 119.86 452.49"/><polygon class="cls-29" points="119.86 458.52 148.47 474.97 523.8 257.2 523.8 267.5 148.47 485.26 119.86 468.82 119.86 458.52"/><polygon class="cls-30" points="119.86 464.56 148.47 481.01 523.8 263.24 523.8 273.54 148.47 491.3 119.86 474.85 119.86 464.56"/><polygon class="cls-31" points="119.86 470.6 148.47 487.04 523.8 269.28 523.8 279.57 148.47 497.34 119.86 480.89 119.86 470.6"/><polygon class="cls-32" points="119.86 476.63 148.47 493.08 523.8 275.31 523.8 285.61 148.47 503.37 119.86 486.93 119.86 476.63"/><polygon class="cls-33" points="119.86 482.67 148.47 499.12 523.8 281.35 523.8 291.64 148.47 509.41 119.86 492.96 119.86 482.67"/><polygon class="cls-34" points="119.86 488.7 148.47 505.15 523.8 287.39 523.8 297.68 148.47 515.45 119.86 499 119.86 488.7"/><polygon class="cls-35" points="119.86 494.74 148.47 511.19 523.8 293.42 523.8 303.72 148.47 521.48 119.86 505.03 119.86 494.74"/><polygon class="cls-36" points="119.86 500.78 148.47 517.23 523.8 299.46 523.8 309.75 148.47 527.52 119.86 511.07 119.86 500.78"/><polygon class="cls-37" points="119.86 506.81 148.47 523.26 523.8 305.5 523.8 315.79 148.47 533.56 119.86 517.11 119.86 506.81"/><polygon class="cls-38" points="119.86 512.85 148.47 529.3 523.8 311.53 523.8 321.83 148.47 539.59 119.86 523.14 119.86 512.85"/><polygon class="cls-39" points="490.12 85.7 373.97 17.9 35.91 212.42 152.14 280.26 490.12 85.7"/><polygon class="cls-40" points="374.01 31.49 374.01 17.93 373.97 17.9 35.91 212.42 47.65 219.25 374.01 31.49"/><polygon class="cls-41" points="373.97 31.49 478.39 92.46 490.12 85.7 373.97 17.9 373.97 31.49"/><polygon class="cls-42" points="48.17 218.96 151.65 279.38 477.86 91.73 374.3 31.26 48.17 218.96"/></g></g></svg>