<svg xmlns="http://www.w3.org/2000/svg" xmlns:xlink="http://www.w3.org/1999/xlink" viewBox="0 0 292.38 706.59"><defs><style>.cls-1{isolation:isolate;}.cls-2{fill:url(#New_Gradient_Swatch_copy_25);}.cls-3{fill:url(#New_Gradient_Swatch_copy_25-2);}.cls-4{fill:url(#New_Gradient_Swatch_copy_25-3);}.cls-5{fill:url(#New_Gradient_Swatch_copy_25-4);}.cls-6{fill:url(#New_Gradient_Swatch_copy_25-5);}.cls-7{fill:url(#New_Gradient_Swatch_copy_26);}.cls-8{fill:url(#New_Gradient_Swatch_copy_26-2);}.cls-9{fill:url(#New_Gradient_Swatch_copy_26-3);}.cls-10{fill:url(#New_Gradient_Swatch_copy_26-4);}.cls-11{fill:url(#New_Gradient_Swatch_copy_26-5);}.cls-12{fill:url(#New_Gradient_Swatch_copy_26-6);}.cls-13{fill:url(#New_Gradient_Swatch_copy_26-7);}.cls-14{fill:url(#New_Gradient_Swatch_copy_26-8);}.cls-15{fill:url(#New_Gradient_Swatch_copy_26-9);}.cls-16{fill:url(#New_Gradient_Swatch_copy_26-10);}.cls-17{fill:url(#New_Gradient_Swatch_copy_26-11);}.cls-18{fill:url(#New_Gradient_Swatch_copy_26-12);}.cls-19{fill:url(#New_Gradient_Swatch_copy_26-13);}.cls-20{fill:url(#New_Gradient_Swatch_copy_26-14);}.cls-21{fill:url(#New_Gradient_Swatch_copy_26-15);}.cls-22{fill:url(#New_Gradient_Swatch_copy_26-16);}.cls-23{fill:url(#New_Gradient_Swatch_copy_26-17);}.cls-24{fill:url(#New_Gradient_Swatch_copy_26-18);}.cls-25{fill:url(#New_Gradient_Swatch_copy_26-19);}.cls-26{fill:url(#New_Gradient_Swatch_copy_26-20);}.cls-27{fill:url(#New_Gradient_Swatch_copy_26-21);}.cls-28{fill:url(#New_Gradient_Swatch_copy_26-22);}.cls-29{fill:url(#New_Gradient_Swatch_copy_26-23);}.cls-30{fill:url(#New_Gradient_Swatch_copy_26-24);}.cls-31{fill:url(#New_Gradient_Swatch_copy_26-25);}.cls-32{fill:url(#New_Gradient_Swatch_copy_26-26);}.cls-33{fill:url(#New_Gradient_Swatch_copy_26-27);}.cls-34{fill:url(#New_Gradient_Swatch_copy_26-28);}.cls-35{fill:url(#New_Gradient_Swatch_copy_26-29);}.cls-36{fill:url(#New_Gradient_Swatch_copy_26-30);}.cls-37{fill:url(#New_Gradient_Swatch_copy_26-31);}.cls-38{fill:url(#New_Gradient_Swatch_copy_26-32);}.cls-39{fill:url(#New_Gradient_Swatch_copy_25-6);}.cls-40{mix-blend-mode:color-dodge;fill:url(#linear-gradient);}.cls-41{fill:url(#New_Gradient_Swatch_copy_25-7);}.cls-42{fill:url(#New_Gradient_Swatch_copy_25-8);}.cls-43{fill:url(#New_Gradient_Swatch_copy_25-9);}.cls-44{fill:url(#New_Gradient_Swatch_copy_25-10);}.cls-45{fill:url(#New_Gradient_Swatch_copy_25-11);}.cls-46{fill:url(#New_Gradient_Swatch_copy_13);}.cls-47{fill:url(#New_Gradient_Swatch_copy_13-2);}.cls-48{fill:url(#New_Gradient_Swatch_copy_25-12);}</style><linearGradient id="New_Gradient_Swatch_copy_25" x1="194.63" y1="658.75" x2="512.06" y2="563.7" gradientUnits="userSpaceOnUse"><stop offset="0" stop-color="#25054d"/><stop offset="1" stop-color="#45108a"/></linearGradient><linearGradient id="New_Gradient_Swatch_copy_25-2" x1="-128.64" y1="696.69" x2="282.79" y2="604.46" xlink:href="#New_Gradient_Swatch_copy_25"/><linearGradient id="New_Gradient_Swatch_copy_25-3" x1="298.51" y1="306.22" x2="134.66" y2="618.49" xlink:href="#New_Gradient_Swatch_copy_25"/><linearGradient id="New_Gradient_Swatch_copy_25-4" x1="168.02" y1="383.64" x2="706.89" y2="222.29" xlink:href="#New_Gradient_Swatch_copy_25"/><linearGradient id="New_Gradient_Swatch_copy_25-5" x1="-262.92" y1="448.86" x2="443.29" y2="290.55" xlink:href="#New_Gradient_Swatch_copy_25"/><linearGradient id="New_Gradient_Swatch_copy_26" x1="82.63" y1="503.02" x2="82.63" y2="136.28" gradientUnits="userSpaceOnUse"><stop offset="0.03" stop-color="#7c1dc9"/><stop offset="0.21" stop-color="#6e41d2"/><stop offset="0.62" stop-color="#4c9be8"/><stop offset="1" stop-color="#2af6ff"/></linearGradient><linearGradient id="New_Gradient_Swatch_copy_26-2" x1="82.63" y1="511.26" x2="82.63" y2="144.53" xlink:href="#New_Gradient_Swatch_copy_26"/><linearGradient id="New_Gradient_Swatch_copy_26-3" x1="82.63" y1="519.5" x2="82.63" y2="152.77" xlink:href="#New_Gradient_Swatch_copy_26"/><linearGradient id="New_Gradient_Swatch_copy_26-4" x1="82.63" y1="527.75" x2="82.63" y2="161.01" xlink:href="#New_Gradient_Swatch_copy_26"/><linearGradient id="New_Gradient_Swatch_copy_26-5" x1="82.63" y1="535.99" x2="82.63" y2="169.25" xlink:href="#New_Gradient_Swatch_copy_26"/><linearGradient id="New_Gradient_Swatch_copy_26-6" x1="82.63" y1="544.23" x2="82.63" y2="177.49" xlink:href="#New_Gradient_Swatch_copy_26"/><linearGradient id="New_Gradient_Swatch_copy_26-7" x1="82.63" y1="552.47" x2="82.63" y2="185.74" xlink:href="#New_Gradient_Swatch_copy_26"/><linearGradient id="New_Gradient_Swatch_copy_26-8" x1="82.63" y1="560.71" x2="82.63" y2="193.98" xlink:href="#New_Gradient_Swatch_copy_26"/><linearGradient id="New_Gradient_Swatch_copy_26-9" x1="82.63" y1="568.96" x2="82.63" y2="202.22" xlink:href="#New_Gradient_Swatch_copy_26"/><linearGradient id="New_Gradient_Swatch_copy_26-10" x1="82.63" y1="577.2" x2="82.63" y2="210.46" xlink:href="#New_Gradient_Swatch_copy_26"/><linearGradient id="New_Gradient_Swatch_copy_26-11" x1="82.63" y1="585.44" x2="82.63" y2="218.71" xlink:href="#New_Gradient_Swatch_copy_26"/><linearGradient id="New_Gradient_Swatch_copy_26-12" x1="82.63" y1="593.68" x2="82.63" y2="226.95" xlink:href="#New_Gradient_Swatch_copy_26"/><linearGradient id="New_Gradient_Swatch_copy_26-13" x1="82.63" y1="601.93" x2="82.63" y2="235.19" xlink:href="#New_Gradient_Swatch_copy_26"/><linearGradient id="New_Gradient_Swatch_copy_26-14" x1="82.63" y1="610.17" x2="82.63" y2="243.43" xlink:href="#New_Gradient_Swatch_copy_26"/><linearGradient id="New_Gradient_Swatch_copy_26-15" x1="82.63" y1="618.41" x2="82.63" y2="251.67" xlink:href="#New_Gradient_Swatch_copy_26"/><linearGradient id="New_Gradient_Swatch_copy_26-16" x1="82.63" y1="626.65" x2="82.63" y2="259.92" xlink:href="#New_Gradient_Swatch_copy_26"/><linearGradient id="New_Gradient_Swatch_copy_26-17" x1="-4881.97" y1="486.66" x2="-4881.97" y2="115.28" gradientTransform="matrix(-1, 0, 0, 1, -4672.03, 0)" xlink:href="#New_Gradient_Swatch_copy_26"/><linearGradient id="New_Gradient_Swatch_copy_26-18" x1="-4881.97" y1="494.91" x2="-4881.97" y2="123.52" gradientTransform="matrix(-1, 0, 0, 1, -4672.03, 0)" xlink:href="#New_Gradient_Swatch_copy_26"/><linearGradient id="New_Gradient_Swatch_copy_26-19" x1="-4881.97" y1="503.15" x2="-4881.97" y2="131.76" gradientTransform="matrix(-1, 0, 0, 1, -4672.03, 0)" xlink:href="#New_Gradient_Swatch_copy_26"/><linearGradient id="New_Gradient_Swatch_copy_26-20" x1="-4881.97" y1="511.39" x2="-4881.97" y2="140.01" gradientTransform="matrix(-1, 0, 0, 1, -4672.03, 0)" xlink:href="#New_Gradient_Swatch_copy_26"/><linearGradient id="New_Gradient_Swatch_copy_26-21" x1="-4881.97" y1="519.63" x2="-4881.97" y2="148.25" gradientTransform="matrix(-1, 0, 0, 1, -4672.03, 0)" xlink:href="#New_Gradient_Swatch_copy_26"/><linearGradient id="New_Gradient_Swatch_copy_26-22" x1="-4881.97" y1="527.87" x2="-4881.97" y2="156.49" gradientTransform="matrix(-1, 0, 0, 1, -4672.03, 0)" xlink:href="#New_Gradient_Swatch_copy_26"/><linearGradient id="New_Gradient_Swatch_copy_26-23" x1="-4881.97" y1="536.12" x2="-4881.97" y2="164.73" gradientTransform="matrix(-1, 0, 0, 1, -4672.03, 0)" xlink:href="#New_Gradient_Swatch_copy_26"/><linearGradient id="New_Gradient_Swatch_copy_26-24" x1="-4881.97" y1="544.36" x2="-4881.97" y2="172.97" gradientTransform="matrix(-1, 0, 0, 1, -4672.03, 0)" xlink:href="#New_Gradient_Swatch_copy_26"/><linearGradient id="New_Gradient_Swatch_copy_26-25" x1="-4881.97" y1="552.6" x2="-4881.97" y2="181.22" gradientTransform="matrix(-1, 0, 0, 1, -4672.03, 0)" xlink:href="#New_Gradient_Swatch_copy_26"/><linearGradient id="New_Gradient_Swatch_copy_26-26" x1="-4881.97" y1="560.84" x2="-4881.97" y2="189.46" gradientTransform="matrix(-1, 0, 0, 1, -4672.03, 0)" xlink:href="#New_Gradient_Swatch_copy_26"/><linearGradient id="New_Gradient_Swatch_copy_26-27" x1="-4881.97" y1="569.09" x2="-4881.97" y2="197.7" gradientTransform="matrix(-1, 0, 0, 1, -4672.03, 0)" xlink:href="#New_Gradient_Swatch_copy_26"/><linearGradient id="New_Gradient_Swatch_copy_26-28" x1="-4881.97" y1="577.33" x2="-4881.97" y2="205.94" gradientTransform="matrix(-1, 0, 0, 1, -4672.03, 0)" xlink:href="#New_Gradient_Swatch_copy_26"/><linearGradient id="New_Gradient_Swatch_copy_26-29" x1="-4881.97" y1="585.57" x2="-4881.97" y2="214.19" gradientTransform="matrix(-1, 0, 0, 1, -4672.03, 0)" xlink:href="#New_Gradient_Swatch_copy_26"/><linearGradient id="New_Gradient_Swatch_copy_26-30" x1="-4881.97" y1="593.81" x2="-4881.97" y2="222.43" gradientTransform="matrix(-1, 0, 0, 1, -4672.03, 0)" xlink:href="#New_Gradient_Swatch_copy_26"/><linearGradient id="New_Gradient_Swatch_copy_26-31" x1="-4881.97" y1="602.05" x2="-4881.97" y2="230.67" gradientTransform="matrix(-1, 0, 0, 1, -4672.03, 0)" xlink:href="#New_Gradient_Swatch_copy_26"/><linearGradient id="New_Gradient_Swatch_copy_26-32" x1="-4881.97" y1="610.3" x2="-4881.97" y2="238.91" gradientTransform="matrix(-1, 0, 0, 1, -4672.03, 0)" xlink:href="#New_Gradient_Swatch_copy_26"/><linearGradient id="New_Gradient_Swatch_copy_25-6" x1="278" y1="-177.9" x2="136.21" y2="92.32" xlink:href="#New_Gradient_Swatch_copy_25"/><linearGradient id="linear-gradient" x1="-1687.41" y1="372.14" x2="-1877.18" y2="369.98" gradientTransform="matrix(-1, 0, 0, 1, -1542.79, 0)" gradientUnits="userSpaceOnUse"><stop offset="0" stop-color="#972a74"/><stop offset="0.04" stop-color="#8a266a"/><stop offset="0.19" stop-color="#601b4a"/><stop offset="0.35" stop-color="#3d112f"/><stop offset="0.51" stop-color="#230a1b"/><stop offset="0.67" stop-color="#0f040c"/><stop offset="0.83" stop-color="#040103"/><stop offset="1"/></linearGradient><linearGradient id="New_Gradient_Swatch_copy_25-7" x1="3670.93" y1="8092.46" x2="3570.55" y2="8283.77" gradientTransform="translate(3723.81 8343.29) rotate(180)" xlink:href="#New_Gradient_Swatch_copy_25"/><linearGradient id="New_Gradient_Swatch_copy_25-8" x1="26.97" y1="77.46" x2="198.25" y2="21.64" xlink:href="#New_Gradient_Swatch_copy_25"/><linearGradient id="New_Gradient_Swatch_copy_25-9" x1="175.88" y1="54.71" x2="234.25" y2="29.19" xlink:href="#New_Gradient_Swatch_copy_25"/><linearGradient id="New_Gradient_Swatch_copy_25-10" x1="156.82" y1="83.9" x2="238.95" y2="59.31" xlink:href="#New_Gradient_Swatch_copy_25"/><linearGradient id="New_Gradient_Swatch_copy_25-11" x1="76.89" y1="93.74" x2="183.59" y2="69.82" xlink:href="#New_Gradient_Swatch_copy_25"/><linearGradient id="New_Gradient_Swatch_copy_13" x1="157.36" y1="76.95" x2="232.34" y2="54.5" gradientUnits="userSpaceOnUse"><stop offset="0.04" stop-color="#6b24d6"/><stop offset="0.29" stop-color="#7733dc"/><stop offset="0.79" stop-color="#975ced"/><stop offset="1" stop-color="#a56ef4"/></linearGradient><linearGradient id="New_Gradient_Swatch_copy_13-2" x1="81.53" y1="85.92" x2="178.74" y2="64.13" xlink:href="#New_Gradient_Swatch_copy_13"/><linearGradient id="New_Gradient_Swatch_copy_25-12" x1="181.61" y1="-6.15" x2="143.51" y2="66.46" xlink:href="#New_Gradient_Swatch_copy_25"/></defs><g class="cls-1"><g id="Layer_2" data-name="Layer 2"><g id="_Layer_" data-name="&lt;Layer&gt;"><polygon class="cls-2" points="145.12 681.12 145.12 706.59 292.38 621.92 292.38 596.45 145.12 681.12"/><polygon class="cls-3" points="145.21 681.12 145.21 706.59 0 621.95 0 596.56 145.21 681.12"/><polygon class="cls-4" points="0 596.56 145.21 681.12 292.38 596.45 147.02 511.8 0 596.56"/><polygon class="cls-5" points="145.27 146.52 145.27 669.5 272.69 596.23 272.69 73.25 145.27 146.52"/><polygon class="cls-6" points="145.34 146.52 145.34 669.5 19.69 596.25 19.69 73.35 145.34 146.52"/><polygon class="cls-7" points="134.43 153.73 30.83 93.4 30.83 107.88 134.43 168.21 134.43 153.73"/><polygon class="cls-8" points="134.43 185.48 30.83 125.15 30.83 139.63 134.43 199.96 134.43 185.48"/><polygon class="cls-9" points="134.43 217.22 30.83 156.89 30.83 171.38 134.43 231.71 134.43 217.22"/><polygon class="cls-10" points="134.43 248.97 30.83 188.64 30.83 203.12 134.43 263.45 134.43 248.97"/><polygon class="cls-11" points="134.43 280.72 30.83 220.39 30.83 234.87 134.43 295.2 134.43 280.72"/><polygon class="cls-12" points="134.43 312.47 30.83 252.13 30.83 266.62 134.43 326.95 134.43 312.47"/><polygon class="cls-13" points="134.43 344.21 30.83 283.88 30.83 298.36 134.43 358.69 134.43 344.21"/><polygon class="cls-14" points="134.43 375.96 30.83 315.63 30.83 330.11 134.43 390.44 134.43 375.96"/><polygon class="cls-15" points="134.43 407.71 30.83 347.38 30.83 361.86 134.43 422.19 134.43 407.71"/><polygon class="cls-16" points="134.43 439.45 30.83 379.12 30.83 393.61 134.43 453.94 134.43 439.45"/><polygon class="cls-17" points="134.43 471.2 30.83 410.87 30.83 425.35 134.43 485.68 134.43 471.2"/><polygon class="cls-18" points="134.43 502.95 30.83 442.62 30.83 457.1 134.43 517.43 134.43 502.95"/><polygon class="cls-19" points="134.43 534.7 30.83 474.37 30.83 488.85 134.43 549.18 134.43 534.7"/><polygon class="cls-20" points="134.43 566.44 30.83 506.11 30.83 520.59 134.43 580.92 134.43 566.44"/><polygon class="cls-21" points="134.43 598.19 30.83 537.86 30.83 552.34 134.43 612.67 134.43 598.19"/><polygon class="cls-22" points="134.43 629.94 30.83 569.61 30.83 584.09 134.43 644.42 134.43 629.94"/><polygon class="cls-23" points="158.15 153.73 261.75 93.4 261.75 107.88 158.15 168.21 158.15 153.73"/><polygon class="cls-24" points="158.15 185.48 261.75 125.15 261.75 139.63 158.15 199.96 158.15 185.48"/><polygon class="cls-25" points="158.15 217.22 261.75 156.89 261.75 171.38 158.15 231.71 158.15 217.22"/><polygon class="cls-26" points="158.15 248.97 261.75 188.64 261.75 203.12 158.15 263.45 158.15 248.97"/><polygon class="cls-27" points="158.15 280.72 261.75 220.39 261.75 234.87 158.15 295.2 158.15 280.72"/><polygon class="cls-28" points="158.15 312.47 261.75 252.13 261.75 266.62 158.15 326.95 158.15 312.47"/><polygon class="cls-29" points="158.15 344.21 261.75 283.88 261.75 298.36 158.15 358.69 158.15 344.21"/><polygon class="cls-30" points="158.15 375.96 261.75 315.63 261.75 330.11 158.15 390.44 158.15 375.96"/><polygon class="cls-31" points="158.15 407.71 261.75 347.38 261.75 361.86 158.15 422.19 158.15 407.71"/><polygon class="cls-32" points="158.15 439.45 261.75 379.12 261.75 393.61 158.15 453.94 158.15 439.45"/><polygon class="cls-33" points="158.15 471.2 261.75 410.87 261.75 425.35 158.15 485.68 158.15 471.2"/><polygon class="cls-34" points="158.15 502.95 261.75 442.62 261.75 457.1 158.15 517.43 158.15 502.95"/><polygon class="cls-35" points="158.15 534.7 261.75 474.37 261.75 488.85 158.15 549.18 158.15 534.7"/><polygon class="cls-36" points="158.15 566.44 261.75 506.11 261.75 520.59 158.15 580.92 158.15 566.44"/><polygon class="cls-37" points="158.15 598.19 261.75 537.86 261.75 552.34 158.15 612.67 158.15 598.19"/><polygon class="cls-38" points="158.15 629.94 261.75 569.61 261.75 584.09 158.15 644.42 158.15 629.94"/><polygon class="cls-39" points="19.69 73.35 145.34 146.52 272.69 73.25 146.91 0 19.69 73.35"/><polygon class="cls-40" points="144.76 146.52 144.76 669.5 270.41 596.25 270.41 73.35 144.76 146.52"/><polygon class="cls-41" points="235.75 72.96 146.79 21.16 56.63 73.03 145.68 124.89 235.75 72.96"/><polygon class="cls-42" points="146.84 36.47 146.84 21.19 146.79 21.16 56.63 73.03 69.86 80.73 146.84 36.47"/><polygon class="cls-43" points="146.79 36.47 222.54 80.58 235.75 72.96 146.79 21.16 146.79 36.47"/><polygon class="cls-44" points="145.94 81.02 145.94 102.72 180.18 83.04 180.18 61.34 145.94 81.02"/><polygon class="cls-45" points="145.96 81.02 145.96 102.72 112.2 83.04 112.2 61.36 145.96 81.02"/><polygon class="cls-46" points="145.94 81.02 145.94 89.15 180.18 69.47 180.18 61.34 145.94 81.02"/><polygon class="cls-47" points="145.96 81.02 145.96 89.15 112.2 69.47 112.2 61.36 145.96 81.02"/><polygon class="cls-48" points="112.2 61.36 145.96 81.02 180.18 61.34 146.38 41.65 112.2 61.36"/></g></g></g></svg>