<svg xmlns="http://www.w3.org/2000/svg" xmlns:xlink="http://www.w3.org/1999/xlink" viewBox="0 0 296.96 335.74"><defs><style>.cls-1{isolation:isolate;}.cls-2{fill:url(#New_Gradient_Swatch_copy_25);}.cls-3{fill:url(#New_Gradient_Swatch_copy_25-2);}.cls-4{fill:url(#New_Gradient_Swatch_copy_25-3);}.cls-5{fill:url(#New_Gradient_Swatch_copy_25-4);}.cls-6{fill:url(#New_Gradient_Swatch_copy_25-5);}.cls-7{fill:url(#linear-gradient);}.cls-8{fill:url(#linear-gradient-2);}.cls-9{fill:url(#linear-gradient-3);}.cls-10{fill:url(#New_Gradient_Swatch_copy_25-6);}.cls-11{fill:url(#New_Gradient_Swatch_copy_25-7);}.cls-12{fill:url(#New_Gradient_Swatch_copy_25-8);}.cls-13{fill:url(#New_Gradient_Swatch_copy_25-9);}.cls-14{fill:url(#New_Gradient_Swatch_copy_25-10);}.cls-15{fill:url(#linear-gradient-4);}.cls-16{fill:url(#linear-gradient-5);}.cls-17{fill:url(#linear-gradient-6);}.cls-18{fill:url(#New_Gradient_Swatch_copy_25-11);}.cls-19{fill:url(#New_Gradient_Swatch_copy_25-12);}.cls-20{fill:url(#New_Gradient_Swatch_copy_25-13);}.cls-21{fill:url(#New_Gradient_Swatch_copy_25-14);}.cls-22{fill:url(#New_Gradient_Swatch_copy_25-15);}.cls-23{fill:url(#linear-gradient-7);}.cls-24{fill:url(#linear-gradient-8);}.cls-25{fill:url(#linear-gradient-9);}.cls-26{fill:url(#New_Gradient_Swatch_copy_25-16);}.cls-27{fill:url(#New_Gradient_Swatch_copy_25-17);}.cls-28{fill:url(#New_Gradient_Swatch_copy_25-18);}.cls-29{fill:url(#New_Gradient_Swatch_copy_25-19);}.cls-30{fill:url(#New_Gradient_Swatch_copy_25-20);}.cls-31{fill:url(#linear-gradient-10);}.cls-32{fill:url(#linear-gradient-11);}.cls-33{fill:url(#linear-gradient-12);}.cls-34{fill:url(#linear-gradient-13);}.cls-35{fill:url(#New_Gradient_Swatch_copy_25-21);}.cls-36{fill:url(#New_Gradient_Swatch_copy_25-22);}.cls-37{fill:url(#linear-gradient-14);}.cls-38{fill:url(#New_Gradient_Swatch_copy_25-23);}.cls-39{fill:url(#New_Gradient_Swatch_copy_25-24);}.cls-40{fill:url(#linear-gradient-15);}.cls-41{fill:url(#New_Gradient_Swatch_copy_25-25);}.cls-42{fill:url(#New_Gradient_Swatch_copy_25-26);}</style><linearGradient id="New_Gradient_Swatch_copy_25" x1="8.84" y1="191.62" x2="288.76" y2="191.62" gradientUnits="userSpaceOnUse"><stop offset="0" stop-color="#25054d"/><stop offset="1" stop-color="#45108a"/></linearGradient><linearGradient id="New_Gradient_Swatch_copy_25-2" x1="211.65" y1="281.63" x2="288.76" y2="281.63" xlink:href="#New_Gradient_Swatch_copy_25"/><linearGradient id="New_Gradient_Swatch_copy_25-3" x1="8.2" y1="245.74" x2="212.29" y2="245.74" xlink:href="#New_Gradient_Swatch_copy_25"/><linearGradient id="New_Gradient_Swatch_copy_25-4" x1="84.98" y1="168.4" x2="289.61" y2="168.4" xlink:href="#New_Gradient_Swatch_copy_25"/><linearGradient id="New_Gradient_Swatch_copy_25-5" x1="7.34" y1="132.51" x2="84.99" y2="132.51" xlink:href="#New_Gradient_Swatch_copy_25"/><linearGradient id="linear-gradient" x1="0.02" y1="188" x2="296.96" y2="188" gradientUnits="userSpaceOnUse"><stop offset="0" stop-color="#00e5ff"/><stop offset="1" stop-color="#c0f"/></linearGradient><linearGradient id="linear-gradient-2" x1="211.98" y1="251.54" x2="296.96" y2="251.54" xlink:href="#linear-gradient"/><linearGradient id="linear-gradient-3" x1="0" y1="215.65" x2="212" y2="215.65" xlink:href="#linear-gradient"/><linearGradient id="New_Gradient_Swatch_copy_25-6" x1="8.84" y1="157.38" x2="288.76" y2="157.38" xlink:href="#New_Gradient_Swatch_copy_25"/><linearGradient id="New_Gradient_Swatch_copy_25-7" x1="211.65" y1="225.7" x2="288.76" y2="225.7" xlink:href="#New_Gradient_Swatch_copy_25"/><linearGradient id="New_Gradient_Swatch_copy_25-8" x1="8.2" y1="189.81" x2="212.29" y2="189.81" xlink:href="#New_Gradient_Swatch_copy_25"/><linearGradient id="New_Gradient_Swatch_copy_25-9" x1="84.98" y1="134.16" x2="289.61" y2="134.16" xlink:href="#New_Gradient_Swatch_copy_25"/><linearGradient id="New_Gradient_Swatch_copy_25-10" x1="7.34" y1="98.26" x2="84.99" y2="98.26" xlink:href="#New_Gradient_Swatch_copy_25"/><linearGradient id="linear-gradient-4" x1="0.02" y1="153.75" x2="296.96" y2="153.75" xlink:href="#linear-gradient"/><linearGradient id="linear-gradient-5" x1="211.98" y1="217.29" x2="296.96" y2="217.29" xlink:href="#linear-gradient"/><linearGradient id="linear-gradient-6" x1="0" y1="181.4" x2="212" y2="181.4" xlink:href="#linear-gradient"/><linearGradient id="New_Gradient_Swatch_copy_25-11" x1="8.84" y1="123.13" x2="288.76" y2="123.13" xlink:href="#New_Gradient_Swatch_copy_25"/><linearGradient id="New_Gradient_Swatch_copy_25-12" x1="211.65" y1="191.45" x2="288.76" y2="191.45" xlink:href="#New_Gradient_Swatch_copy_25"/><linearGradient id="New_Gradient_Swatch_copy_25-13" x1="8.2" y1="155.56" x2="212.29" y2="155.56" xlink:href="#New_Gradient_Swatch_copy_25"/><linearGradient id="New_Gradient_Swatch_copy_25-14" x1="84.98" y1="99.92" x2="289.61" y2="99.92" xlink:href="#New_Gradient_Swatch_copy_25"/><linearGradient id="New_Gradient_Swatch_copy_25-15" x1="7.34" y1="64.02" x2="84.99" y2="64.02" xlink:href="#New_Gradient_Swatch_copy_25"/><linearGradient id="linear-gradient-7" x1="0.02" y1="119.51" x2="296.96" y2="119.51" xlink:href="#linear-gradient"/><linearGradient id="linear-gradient-8" x1="211.98" y1="183.05" x2="296.96" y2="183.05" xlink:href="#linear-gradient"/><linearGradient id="linear-gradient-9" x1="0" y1="147.16" x2="212" y2="147.16" xlink:href="#linear-gradient"/><linearGradient id="New_Gradient_Swatch_copy_25-16" x1="8.84" y1="88.89" x2="288.76" y2="88.89" xlink:href="#New_Gradient_Swatch_copy_25"/><linearGradient id="New_Gradient_Swatch_copy_25-17" x1="211.65" y1="157.21" x2="288.76" y2="157.21" xlink:href="#New_Gradient_Swatch_copy_25"/><linearGradient id="New_Gradient_Swatch_copy_25-18" x1="8.2" y1="121.32" x2="212.29" y2="121.32" xlink:href="#New_Gradient_Swatch_copy_25"/><linearGradient id="New_Gradient_Swatch_copy_25-19" x1="84.98" y1="65.67" x2="289.61" y2="65.67" xlink:href="#New_Gradient_Swatch_copy_25"/><linearGradient id="New_Gradient_Swatch_copy_25-20" x1="7.34" y1="29.78" x2="84.99" y2="29.78" xlink:href="#New_Gradient_Swatch_copy_25"/><linearGradient id="linear-gradient-10" x1="0.02" y1="85.26" x2="296.96" y2="85.26" xlink:href="#linear-gradient"/><linearGradient id="linear-gradient-11" x1="211.98" y1="148.81" x2="296.96" y2="148.81" xlink:href="#linear-gradient"/><linearGradient id="linear-gradient-12" x1="0" y1="112.91" x2="212" y2="112.91" xlink:href="#linear-gradient"/><linearGradient id="linear-gradient-13" x1="168.92" y1="60.94" x2="198.31" y2="60.94" xlink:href="#linear-gradient"/><linearGradient id="New_Gradient_Swatch_copy_25-21" x1="183.54" y1="94.43" x2="198.31" y2="94.43" xlink:href="#New_Gradient_Swatch_copy_25"/><linearGradient id="New_Gradient_Swatch_copy_25-22" x1="168.79" y1="94.43" x2="183.66" y2="94.43" xlink:href="#New_Gradient_Swatch_copy_25"/><linearGradient id="linear-gradient-14" x1="201.09" y1="77.03" x2="230.48" y2="77.03" xlink:href="#linear-gradient"/><linearGradient id="New_Gradient_Swatch_copy_25-23" x1="215.71" y1="110.51" x2="230.48" y2="110.51" xlink:href="#New_Gradient_Swatch_copy_25"/><linearGradient id="New_Gradient_Swatch_copy_25-24" x1="200.96" y1="110.51" x2="215.83" y2="110.51" xlink:href="#New_Gradient_Swatch_copy_25"/><linearGradient id="linear-gradient-15" x1="61.88" y1="49.21" x2="107.92" y2="49.21" xlink:href="#linear-gradient"/><linearGradient id="New_Gradient_Swatch_copy_25-25" x1="84.78" y1="60.25" x2="107.92" y2="60.25" xlink:href="#New_Gradient_Swatch_copy_25"/><linearGradient id="New_Gradient_Swatch_copy_25-26" x1="61.69" y1="60.25" x2="84.98" y2="60.25" xlink:href="#New_Gradient_Swatch_copy_25"/></defs><g id="Layer_2" data-name="Layer 2"><g id="_Layer_" data-name="&lt;Layer&gt;"><g class="cls-1"><polygon class="cls-2" points="288.76 227.51 212.29 271.95 8.84 155.73 85.31 111.29 288.76 227.51"/><polygon class="cls-3" points="288.76 227.51 288.12 291.31 211.65 335.75 212.29 271.95 288.76 227.51"/><polygon class="cls-4" points="212.29 271.95 211.65 335.75 8.2 219.52 8.84 155.73 212.29 271.95"/></g><g class="cls-1"><polygon class="cls-5" points="289.61 223.89 289.6 229.82 84.98 112.92 84.99 106.99 289.61 223.89"/><polygon class="cls-6" points="84.99 106.99 84.98 112.92 7.34 158.03 7.36 152.1 84.99 106.99"/><path class="cls-7" d="M85,102.73,297,223.89l-85,49.37L0,152.11ZM212,269l77.63-45.12L85,107,7.36,152.1,212,269"/><polygon class="cls-8" points="296.96 223.89 296.94 229.82 211.98 279.19 212 273.26 296.96 223.89"/><polygon class="cls-9" points="212 273.26 211.98 279.19 0 158.03 0.02 152.11 212 273.26"/></g><g class="cls-1"><polygon class="cls-10" points="288.76 193.27 212.29 237.71 8.84 121.48 85.31 77.04 288.76 193.27"/><polygon class="cls-11" points="288.76 193.27 288.12 213.69 211.65 258.13 212.29 237.71 288.76 193.27"/><polygon class="cls-12" points="212.29 237.71 211.65 258.13 8.2 141.9 8.84 121.48 212.29 237.71"/></g><g class="cls-1"><polygon class="cls-13" points="289.61 189.65 289.6 195.58 84.98 78.67 84.99 72.74 289.61 189.65"/><polygon class="cls-14" points="84.99 72.74 84.98 78.67 7.34 123.78 7.36 117.86 84.99 72.74"/><path class="cls-15" d="M85,68.49,297,189.64,212,239,0,117.86ZM212,234.76l77.63-45.11L85,72.74,7.36,117.86,212,234.76"/><polygon class="cls-16" points="296.96 189.64 296.94 195.57 211.98 244.94 212 239.02 296.96 189.64"/><polygon class="cls-17" points="212 239.02 211.98 244.94 0 123.79 0.02 117.86 212 239.02"/></g><g class="cls-1"><polygon class="cls-18" points="288.76 159.03 212.29 203.47 8.84 87.24 85.31 42.8 288.76 159.03"/><polygon class="cls-19" points="288.76 159.03 288.12 179.44 211.65 223.88 212.29 203.47 288.76 159.03"/><polygon class="cls-20" points="212.29 203.47 211.65 223.88 8.2 107.66 8.84 87.24 212.29 203.47"/></g><g class="cls-1"><polygon class="cls-21" points="289.61 155.4 289.6 161.33 84.98 44.43 84.99 38.5 289.61 155.4"/><polygon class="cls-22" points="84.99 38.5 84.98 44.43 7.34 89.54 7.36 83.61 84.99 38.5"/><path class="cls-23" d="M85,34.24,297,155.4l-85,49.37L0,83.62ZM212,200.52l77.63-45.12L85,38.5,7.36,83.61,212,200.52"/><polygon class="cls-24" points="296.96 155.4 296.94 161.33 211.98 210.7 212 204.77 296.96 155.4"/><polygon class="cls-25" points="212 204.77 211.98 210.7 0 89.55 0.02 83.62 212 204.77"/></g><g class="cls-1"><polygon class="cls-26" points="288.76 124.78 212.29 169.22 8.84 52.99 85.31 8.55 288.76 124.78"/><polygon class="cls-27" points="288.76 124.78 288.12 145.2 211.65 189.64 212.29 169.22 288.76 124.78"/><polygon class="cls-28" points="212.29 169.22 211.65 189.64 8.2 73.41 8.84 52.99 212.29 169.22"/></g><g class="cls-1"><polygon class="cls-29" points="289.61 121.16 289.6 127.09 84.98 10.18 84.99 4.25 289.61 121.16"/><polygon class="cls-30" points="84.99 4.25 84.98 10.18 7.34 55.3 7.36 49.37 84.99 4.25"/><path class="cls-31" d="M85,0,297,121.16l-85,49.37L0,49.37ZM212,166.27l77.63-45.11L85,4.25,7.36,49.37,212,166.27"/><polygon class="cls-32" points="296.96 121.16 296.94 127.08 211.98 176.46 212 170.53 296.96 121.16"/><polygon class="cls-33" points="212 170.53 211.98 176.46 0 55.3 0.02 49.37 212 170.53"/></g><g class="cls-1"><polygon class="cls-34" points="198.31 60.94 183.66 69.46 168.92 60.94 183.57 52.43 198.31 60.94"/><polygon class="cls-35" points="198.31 60.94 198.19 119.4 183.54 127.92 183.66 69.46 198.31 60.94"/><polygon class="cls-36" points="183.66 69.46 183.54 127.92 168.79 119.4 168.92 60.94 183.66 69.46"/></g><g class="cls-1"><polygon class="cls-37" points="230.48 77.03 215.83 85.54 201.09 77.03 215.74 68.51 230.48 77.03"/><polygon class="cls-38" points="230.48 77.03 230.36 135.49 215.71 144 215.83 85.54 230.48 77.03"/><polygon class="cls-39" points="215.83 85.54 215.71 144 200.96 135.49 201.09 77.03 215.83 85.54"/></g><g class="cls-1"><polygon class="cls-40" points="107.92 49.2 84.97 62.54 61.88 49.21 84.83 35.87 107.92 49.2"/><polygon class="cls-41" points="107.92 49.2 107.73 57.95 84.78 71.29 84.97 62.54 107.92 49.2"/><polygon class="cls-42" points="84.97 62.54 84.78 71.29 61.69 57.95 61.88 49.21 84.97 62.54"/></g></g></g></svg>