<svg xmlns="http://www.w3.org/2000/svg" xmlns:xlink="http://www.w3.org/1999/xlink" viewBox="0 0 407.16 1220.86"><defs><style>.cls-1{fill:url(#New_Gradient_Swatch_copy_25);}.cls-2{fill:url(#linear-gradient);}.cls-3{fill:url(#linear-gradient-2);}.cls-4{fill:url(#linear-gradient-3);}.cls-5{fill:url(#linear-gradient-4);}.cls-6{fill:url(#linear-gradient-5);}.cls-7{fill:url(#linear-gradient-6);}.cls-8{fill:url(#linear-gradient-7);}.cls-9{fill:url(#linear-gradient-8);}.cls-10{fill:url(#linear-gradient-9);}.cls-11{fill:url(#linear-gradient-10);}.cls-12{fill:url(#linear-gradient-11);}.cls-13{fill:url(#linear-gradient-12);}.cls-14{fill:url(#linear-gradient-13);}.cls-15{fill:url(#linear-gradient-14);}.cls-16{fill:url(#linear-gradient-15);}.cls-17{fill:url(#linear-gradient-16);}.cls-18{fill:url(#linear-gradient-17);}.cls-19{fill:url(#linear-gradient-18);}.cls-20{fill:url(#linear-gradient-19);}.cls-21{fill:url(#linear-gradient-20);}.cls-22{fill:url(#linear-gradient-21);}.cls-23{fill:url(#linear-gradient-22);}.cls-24{fill:url(#linear-gradient-23);}.cls-25{fill:url(#linear-gradient-24);}.cls-26{fill:url(#linear-gradient-25);}.cls-27{fill:url(#linear-gradient-26);}.cls-28{fill:url(#linear-gradient-27);}.cls-29{fill:url(#linear-gradient-28);}.cls-30{fill:url(#linear-gradient-29);}.cls-31{fill:url(#linear-gradient-30);}.cls-32{fill:url(#linear-gradient-31);}.cls-33{fill:url(#linear-gradient-32);}.cls-34{fill:url(#linear-gradient-33);}.cls-35{fill:url(#linear-gradient-34);}.cls-36{fill:url(#linear-gradient-35);}.cls-37{fill:url(#linear-gradient-36);}.cls-38{fill:url(#linear-gradient-37);}.cls-39{fill:url(#linear-gradient-38);}.cls-40{fill:url(#linear-gradient-39);}.cls-41{fill:url(#linear-gradient-40);}.cls-42{fill:url(#linear-gradient-41);}.cls-43{fill:url(#linear-gradient-42);}.cls-44{fill:url(#linear-gradient-43);}.cls-45{fill:url(#linear-gradient-44);}.cls-46{fill:url(#linear-gradient-45);}.cls-47{fill:url(#linear-gradient-46);}.cls-48{fill:url(#linear-gradient-47);}.cls-49{fill:url(#linear-gradient-48);}.cls-50{fill:url(#linear-gradient-49);}.cls-51{fill:url(#linear-gradient-50);}.cls-52{fill:url(#linear-gradient-51);}.cls-53{fill:url(#linear-gradient-52);}.cls-54{fill:url(#linear-gradient-53);}.cls-55{fill:url(#linear-gradient-54);}.cls-56{fill:url(#linear-gradient-55);}.cls-57{fill:url(#linear-gradient-56);}.cls-58{fill:url(#linear-gradient-57);}.cls-59{fill:url(#linear-gradient-58);}.cls-60{fill:url(#linear-gradient-59);}.cls-61{fill:url(#linear-gradient-60);}.cls-62{fill:url(#linear-gradient-61);}.cls-63{fill:url(#linear-gradient-62);}.cls-64{fill:url(#linear-gradient-63);}.cls-65{fill:url(#linear-gradient-64);}.cls-66{fill:url(#linear-gradient-65);}.cls-67{fill:url(#linear-gradient-66);}.cls-68{fill:url(#linear-gradient-67);}.cls-69{fill:url(#linear-gradient-68);}.cls-70{fill:url(#linear-gradient-69);}.cls-71{fill:url(#linear-gradient-70);}.cls-72{fill:url(#linear-gradient-71);}.cls-73{fill:url(#linear-gradient-72);}.cls-74{fill:url(#linear-gradient-73);}.cls-75{fill:url(#linear-gradient-74);}.cls-76{fill:url(#linear-gradient-75);}.cls-77{fill:url(#linear-gradient-76);}.cls-78{fill:url(#linear-gradient-77);}.cls-79{fill:url(#linear-gradient-78);}.cls-80{fill:url(#linear-gradient-79);}.cls-81{fill:url(#linear-gradient-80);}.cls-82{fill:url(#New_Gradient_Swatch_copy_25-2);}.cls-83{fill:url(#linear-gradient-81);}.cls-84{fill:url(#linear-gradient-82);}.cls-85{fill:url(#linear-gradient-83);}.cls-86{fill:url(#linear-gradient-84);}.cls-87{fill:#ff8384;}.cls-88{fill:url(#linear-gradient-85);}.cls-89{fill:url(#linear-gradient-86);}.cls-90{fill:url(#linear-gradient-87);}.cls-91{fill:url(#linear-gradient-88);}.cls-92{fill:url(#linear-gradient-89);}.cls-93{fill:url(#linear-gradient-90);}.cls-94{fill:url(#linear-gradient-91);}.cls-95{fill:url(#linear-gradient-92);}.cls-96{fill:url(#linear-gradient-93);}.cls-97{fill:url(#linear-gradient-94);}.cls-98{fill:url(#linear-gradient-95);}.cls-99{fill:url(#linear-gradient-96);}.cls-100{fill:url(#linear-gradient-97);}.cls-101{fill:url(#linear-gradient-98);}.cls-102{fill:url(#linear-gradient-99);}.cls-103{fill:url(#linear-gradient-100);}.cls-104{fill:url(#linear-gradient-101);}.cls-105{fill:url(#linear-gradient-102);}.cls-106{fill:url(#linear-gradient-103);}.cls-107{fill:url(#linear-gradient-104);}.cls-108{fill:url(#linear-gradient-105);}.cls-109{fill:url(#linear-gradient-106);}.cls-110{fill:url(#linear-gradient-107);}.cls-111{fill:url(#linear-gradient-108);}.cls-112{fill:url(#linear-gradient-109);}.cls-113{fill:url(#linear-gradient-110);}.cls-114{fill:url(#linear-gradient-111);}.cls-115{fill:url(#linear-gradient-112);}.cls-116{fill:url(#linear-gradient-113);}.cls-117{fill:url(#linear-gradient-114);}.cls-118{fill:url(#linear-gradient-115);}.cls-119{fill:url(#linear-gradient-116);}.cls-120{fill:url(#linear-gradient-117);}.cls-121{fill:url(#linear-gradient-118);}.cls-122{fill:url(#linear-gradient-119);}.cls-123{fill:url(#linear-gradient-120);}.cls-124{fill:url(#linear-gradient-121);}.cls-125{fill:url(#linear-gradient-122);}.cls-126{fill:url(#linear-gradient-123);}.cls-127{fill:url(#linear-gradient-124);}.cls-128{fill:url(#linear-gradient-125);}.cls-129{fill:url(#linear-gradient-126);}.cls-130{fill:url(#linear-gradient-127);}.cls-131{fill:url(#linear-gradient-128);}.cls-132{fill:url(#linear-gradient-129);}.cls-133{fill:url(#linear-gradient-130);}.cls-134{fill:url(#linear-gradient-131);}.cls-135{fill:url(#linear-gradient-132);}.cls-136{fill:url(#linear-gradient-133);}.cls-137{fill:url(#linear-gradient-134);}.cls-138{fill:url(#linear-gradient-135);}.cls-139{fill:url(#linear-gradient-136);}.cls-140{fill:url(#linear-gradient-137);}.cls-141{fill:url(#linear-gradient-138);}.cls-142{fill:url(#linear-gradient-139);}.cls-143{fill:url(#linear-gradient-140);}.cls-144{fill:url(#linear-gradient-141);}.cls-145{fill:url(#linear-gradient-142);}.cls-146{fill:url(#linear-gradient-143);}.cls-147{fill:url(#linear-gradient-144);}.cls-148{fill:url(#linear-gradient-145);}.cls-149{fill:url(#linear-gradient-146);}.cls-150{fill:url(#linear-gradient-147);}.cls-151{fill:url(#linear-gradient-148);}.cls-152{fill:url(#linear-gradient-149);}.cls-153{fill:url(#linear-gradient-150);}.cls-154{fill:url(#linear-gradient-151);}.cls-155{fill:url(#linear-gradient-152);}.cls-156{fill:url(#linear-gradient-153);}.cls-157{fill:url(#linear-gradient-154);}.cls-158{fill:url(#linear-gradient-155);}.cls-159{fill:#000d16;}.cls-160{fill:url(#linear-gradient-156);}.cls-161{fill:url(#New_Gradient_Swatch_copy_25-3);}.cls-162{fill:url(#New_Gradient_Swatch_copy_25-4);}.cls-163{fill:url(#New_Gradient_Swatch_copy_25-5);}.cls-164{fill:url(#New_Gradient_Swatch_copy_25-6);}.cls-165{fill:url(#New_Gradient_Swatch_copy_25-7);}.cls-166{fill:url(#New_Gradient_Swatch_copy_25-8);}.cls-167{fill:url(#New_Gradient_Swatch_copy_25-9);}.cls-168{fill:url(#linear-gradient-157);}.cls-169{fill:#006581;}.cls-170{fill:url(#New_Gradient_Swatch_copy_25-10);}.cls-171{fill:url(#linear-gradient-158);}.cls-172{fill:url(#linear-gradient-159);}</style><linearGradient id="New_Gradient_Swatch_copy_25" x1="-233.32" y1="813.73" x2="495.23" y2="-557.06" gradientTransform="matrix(0.87, -0.5, 0, 1.15, 181.95, 748.89)" gradientUnits="userSpaceOnUse"><stop offset="0" stop-color="#25054d"/><stop offset="1" stop-color="#45108a"/></linearGradient><linearGradient id="linear-gradient" x1="232.91" y1="533.29" x2="256.3" y2="533.29" gradientUnits="userSpaceOnUse"><stop offset="0" stop-color="#00e5ff"/><stop offset="1" stop-color="#c0f"/></linearGradient><linearGradient id="linear-gradient-2" x1="263.29" y1="515.75" x2="286.69" y2="515.75" xlink:href="#linear-gradient"/><linearGradient id="linear-gradient-3" x1="324.05" y1="480.67" x2="347.45" y2="480.67" xlink:href="#linear-gradient"/><linearGradient id="linear-gradient-4" x1="354.43" y1="463.13" x2="377.83" y2="463.13" xlink:href="#linear-gradient"/><linearGradient id="linear-gradient-5" x1="232.91" y1="565.07" x2="256.3" y2="565.07" xlink:href="#linear-gradient"/><linearGradient id="linear-gradient-6" x1="263.29" y1="547.53" x2="286.69" y2="547.53" xlink:href="#linear-gradient"/><linearGradient id="linear-gradient-7" x1="324.05" y1="512.45" x2="347.45" y2="512.45" xlink:href="#linear-gradient"/><linearGradient id="linear-gradient-8" x1="354.43" y1="494.91" x2="377.83" y2="494.91" xlink:href="#linear-gradient"/><linearGradient id="linear-gradient-9" x1="232.91" y1="596.86" x2="256.3" y2="596.86" xlink:href="#linear-gradient"/><linearGradient id="linear-gradient-10" x1="263.29" y1="579.32" x2="286.69" y2="579.32" xlink:href="#linear-gradient"/><linearGradient id="linear-gradient-11" x1="324.05" y1="544.23" x2="347.45" y2="544.23" xlink:href="#linear-gradient"/><linearGradient id="linear-gradient-12" x1="354.43" y1="526.69" x2="377.83" y2="526.69" xlink:href="#linear-gradient"/><linearGradient id="linear-gradient-13" x1="232.91" y1="628.64" x2="256.3" y2="628.64" xlink:href="#linear-gradient"/><linearGradient id="linear-gradient-14" x1="263.29" y1="611.1" x2="286.69" y2="611.1" xlink:href="#linear-gradient"/><linearGradient id="linear-gradient-15" x1="324.05" y1="576.01" x2="347.45" y2="576.01" xlink:href="#linear-gradient"/><linearGradient id="linear-gradient-16" x1="354.43" y1="558.47" x2="377.83" y2="558.47" xlink:href="#linear-gradient"/><linearGradient id="linear-gradient-17" x1="232.91" y1="660.42" x2="256.3" y2="660.42" xlink:href="#linear-gradient"/><linearGradient id="linear-gradient-18" x1="263.29" y1="642.88" x2="286.69" y2="642.88" xlink:href="#linear-gradient"/><linearGradient id="linear-gradient-19" x1="324.05" y1="607.8" x2="347.45" y2="607.8" xlink:href="#linear-gradient"/><linearGradient id="linear-gradient-20" x1="354.43" y1="590.26" x2="377.83" y2="590.26" xlink:href="#linear-gradient"/><linearGradient id="linear-gradient-21" x1="232.91" y1="692.2" x2="256.3" y2="692.2" xlink:href="#linear-gradient"/><linearGradient id="linear-gradient-22" x1="263.29" y1="674.66" x2="286.69" y2="674.66" xlink:href="#linear-gradient"/><linearGradient id="linear-gradient-23" x1="324.05" y1="639.58" x2="347.45" y2="639.58" xlink:href="#linear-gradient"/><linearGradient id="linear-gradient-24" x1="354.43" y1="622.04" x2="377.83" y2="622.04" xlink:href="#linear-gradient"/><linearGradient id="linear-gradient-25" x1="232.91" y1="723.98" x2="256.3" y2="723.98" xlink:href="#linear-gradient"/><linearGradient id="linear-gradient-26" x1="263.29" y1="706.44" x2="286.69" y2="706.44" xlink:href="#linear-gradient"/><linearGradient id="linear-gradient-27" x1="324.05" y1="671.36" x2="347.45" y2="671.36" xlink:href="#linear-gradient"/><linearGradient id="linear-gradient-28" x1="354.43" y1="653.82" x2="377.83" y2="653.82" xlink:href="#linear-gradient"/><linearGradient id="linear-gradient-29" x1="232.91" y1="755.77" x2="256.3" y2="755.77" xlink:href="#linear-gradient"/><linearGradient id="linear-gradient-30" x1="263.29" y1="738.22" x2="286.69" y2="738.22" xlink:href="#linear-gradient"/><linearGradient id="linear-gradient-31" x1="324.05" y1="703.14" x2="347.45" y2="703.14" xlink:href="#linear-gradient"/><linearGradient id="linear-gradient-32" x1="354.43" y1="685.6" x2="377.83" y2="685.6" xlink:href="#linear-gradient"/><linearGradient id="linear-gradient-33" x1="232.91" y1="787.55" x2="256.3" y2="787.55" xlink:href="#linear-gradient"/><linearGradient id="linear-gradient-34" x1="263.29" y1="770.01" x2="286.69" y2="770.01" xlink:href="#linear-gradient"/><linearGradient id="linear-gradient-35" x1="324.05" y1="734.92" x2="347.45" y2="734.92" xlink:href="#linear-gradient"/><linearGradient id="linear-gradient-36" x1="354.43" y1="717.38" x2="377.83" y2="717.38" xlink:href="#linear-gradient"/><linearGradient id="linear-gradient-37" x1="232.91" y1="819.33" x2="256.3" y2="819.33" xlink:href="#linear-gradient"/><linearGradient id="linear-gradient-38" x1="263.29" y1="801.79" x2="286.69" y2="801.79" xlink:href="#linear-gradient"/><linearGradient id="linear-gradient-39" x1="324.05" y1="766.71" x2="347.45" y2="766.71" xlink:href="#linear-gradient"/><linearGradient id="linear-gradient-40" x1="354.43" y1="749.17" x2="377.83" y2="749.17" xlink:href="#linear-gradient"/><linearGradient id="linear-gradient-41" x1="232.91" y1="851.11" x2="256.3" y2="851.11" xlink:href="#linear-gradient"/><linearGradient id="linear-gradient-42" x1="263.29" y1="833.57" x2="286.69" y2="833.57" xlink:href="#linear-gradient"/><linearGradient id="linear-gradient-43" x1="324.05" y1="798.49" x2="347.45" y2="798.49" xlink:href="#linear-gradient"/><linearGradient id="linear-gradient-44" x1="354.43" y1="780.95" x2="377.83" y2="780.95" xlink:href="#linear-gradient"/><linearGradient id="linear-gradient-45" x1="232.91" y1="882.89" x2="256.3" y2="882.89" xlink:href="#linear-gradient"/><linearGradient id="linear-gradient-46" x1="263.29" y1="865.35" x2="286.69" y2="865.35" xlink:href="#linear-gradient"/><linearGradient id="linear-gradient-47" x1="324.05" y1="830.27" x2="347.45" y2="830.27" xlink:href="#linear-gradient"/><linearGradient id="linear-gradient-48" x1="354.43" y1="812.73" x2="377.83" y2="812.73" xlink:href="#linear-gradient"/><linearGradient id="linear-gradient-49" x1="232.91" y1="914.68" x2="256.3" y2="914.68" xlink:href="#linear-gradient"/><linearGradient id="linear-gradient-50" x1="263.29" y1="897.13" x2="286.69" y2="897.13" xlink:href="#linear-gradient"/><linearGradient id="linear-gradient-51" x1="324.05" y1="862.05" x2="347.45" y2="862.05" xlink:href="#linear-gradient"/><linearGradient id="linear-gradient-52" x1="354.43" y1="844.51" x2="377.83" y2="844.51" xlink:href="#linear-gradient"/><linearGradient id="linear-gradient-53" x1="232.91" y1="946.46" x2="256.3" y2="946.46" xlink:href="#linear-gradient"/><linearGradient id="linear-gradient-54" x1="263.29" y1="928.92" x2="286.69" y2="928.92" xlink:href="#linear-gradient"/><linearGradient id="linear-gradient-55" x1="324.05" y1="893.83" x2="347.45" y2="893.83" xlink:href="#linear-gradient"/><linearGradient id="linear-gradient-56" x1="354.43" y1="876.29" x2="377.83" y2="876.29" xlink:href="#linear-gradient"/><linearGradient id="linear-gradient-57" x1="232.91" y1="978.24" x2="256.3" y2="978.24" xlink:href="#linear-gradient"/><linearGradient id="linear-gradient-58" x1="263.29" y1="960.7" x2="286.69" y2="960.7" xlink:href="#linear-gradient"/><linearGradient id="linear-gradient-59" x1="324.05" y1="925.62" x2="347.45" y2="925.62" xlink:href="#linear-gradient"/><linearGradient id="linear-gradient-60" x1="354.43" y1="908.07" x2="377.83" y2="908.07" xlink:href="#linear-gradient"/><linearGradient id="linear-gradient-61" x1="232.91" y1="1010.02" x2="256.3" y2="1010.02" xlink:href="#linear-gradient"/><linearGradient id="linear-gradient-62" x1="263.29" y1="992.48" x2="286.69" y2="992.48" xlink:href="#linear-gradient"/><linearGradient id="linear-gradient-63" x1="324.05" y1="957.4" x2="347.45" y2="957.4" xlink:href="#linear-gradient"/><linearGradient id="linear-gradient-64" x1="354.43" y1="939.86" x2="377.83" y2="939.86" xlink:href="#linear-gradient"/><linearGradient id="linear-gradient-65" x1="232.91" y1="1041.8" x2="256.3" y2="1041.8" xlink:href="#linear-gradient"/><linearGradient id="linear-gradient-66" x1="263.29" y1="1024.26" x2="286.69" y2="1024.26" xlink:href="#linear-gradient"/><linearGradient id="linear-gradient-67" x1="324.05" y1="989.18" x2="347.45" y2="989.18" xlink:href="#linear-gradient"/><linearGradient id="linear-gradient-68" x1="354.43" y1="971.64" x2="377.83" y2="971.64" xlink:href="#linear-gradient"/><linearGradient id="linear-gradient-69" x1="232.91" y1="1073.59" x2="256.3" y2="1073.59" xlink:href="#linear-gradient"/><linearGradient id="linear-gradient-70" x1="263.29" y1="1056.04" x2="286.69" y2="1056.04" xlink:href="#linear-gradient"/><linearGradient id="linear-gradient-71" x1="324.05" y1="1020.96" x2="347.45" y2="1020.96" xlink:href="#linear-gradient"/><linearGradient id="linear-gradient-72" x1="354.43" y1="1003.42" x2="377.83" y2="1003.42" xlink:href="#linear-gradient"/><linearGradient id="linear-gradient-73" x1="232.91" y1="1105.37" x2="256.3" y2="1105.37" xlink:href="#linear-gradient"/><linearGradient id="linear-gradient-74" x1="263.29" y1="1087.83" x2="286.69" y2="1087.83" xlink:href="#linear-gradient"/><linearGradient id="linear-gradient-75" x1="324.05" y1="1052.74" x2="347.45" y2="1052.74" xlink:href="#linear-gradient"/><linearGradient id="linear-gradient-76" x1="354.43" y1="1035.2" x2="377.83" y2="1035.2" xlink:href="#linear-gradient"/><linearGradient id="linear-gradient-77" x1="232.91" y1="1137.15" x2="256.3" y2="1137.15" xlink:href="#linear-gradient"/><linearGradient id="linear-gradient-78" x1="263.29" y1="1119.61" x2="286.69" y2="1119.61" xlink:href="#linear-gradient"/><linearGradient id="linear-gradient-79" x1="324.05" y1="1084.53" x2="347.45" y2="1084.53" xlink:href="#linear-gradient"/><linearGradient id="linear-gradient-80" x1="354.43" y1="1066.98" x2="377.83" y2="1066.98" xlink:href="#linear-gradient"/><linearGradient id="New_Gradient_Swatch_copy_25-2" x1="-162.13" y1="1239.58" x2="901.58" y2="-529.36" gradientTransform="matrix(1, 0, 0, 1, 0, 0)" xlink:href="#New_Gradient_Swatch_copy_25"/><linearGradient id="linear-gradient-81" x1="150.86" y1="533.29" x2="174.25" y2="533.29" xlink:href="#linear-gradient"/><linearGradient id="linear-gradient-82" x1="120.47" y1="515.75" x2="143.87" y2="515.75" xlink:href="#linear-gradient"/><linearGradient id="linear-gradient-83" x1="59.71" y1="480.67" x2="83.11" y2="480.67" xlink:href="#linear-gradient"/><linearGradient id="linear-gradient-84" x1="29.33" y1="463.13" x2="52.73" y2="463.13" xlink:href="#linear-gradient"/><linearGradient id="linear-gradient-85" x1="120.47" y1="547.53" x2="143.87" y2="547.53" xlink:href="#linear-gradient"/><linearGradient id="linear-gradient-86" x1="59.71" y1="512.45" x2="83.11" y2="512.45" xlink:href="#linear-gradient"/><linearGradient id="linear-gradient-87" x1="29.33" y1="494.91" x2="52.73" y2="494.91" xlink:href="#linear-gradient"/><linearGradient id="linear-gradient-88" x1="150.86" y1="596.86" x2="174.25" y2="596.86" xlink:href="#linear-gradient"/><linearGradient id="linear-gradient-89" x1="120.47" y1="579.32" x2="143.87" y2="579.32" xlink:href="#linear-gradient"/><linearGradient id="linear-gradient-90" x1="59.71" y1="544.23" x2="83.11" y2="544.23" xlink:href="#linear-gradient"/><linearGradient id="linear-gradient-91" x1="29.33" y1="526.69" x2="52.73" y2="526.69" xlink:href="#linear-gradient"/><linearGradient id="linear-gradient-92" x1="150.86" y1="628.64" x2="174.25" y2="628.64" xlink:href="#linear-gradient"/><linearGradient id="linear-gradient-93" x1="120.47" y1="611.1" x2="143.87" y2="611.1" xlink:href="#linear-gradient"/><linearGradient id="linear-gradient-94" x1="59.71" y1="576.01" x2="83.11" y2="576.01" xlink:href="#linear-gradient"/><linearGradient id="linear-gradient-95" x1="29.33" y1="558.47" x2="52.73" y2="558.47" xlink:href="#linear-gradient"/><linearGradient id="linear-gradient-96" x1="150.86" y1="660.42" x2="174.25" y2="660.42" xlink:href="#linear-gradient"/><linearGradient id="linear-gradient-97" x1="120.47" y1="642.88" x2="143.87" y2="642.88" xlink:href="#linear-gradient"/><linearGradient id="linear-gradient-98" x1="150.86" y1="692.2" x2="174.25" y2="692.2" xlink:href="#linear-gradient"/><linearGradient id="linear-gradient-99" x1="120.47" y1="674.66" x2="143.87" y2="674.66" xlink:href="#linear-gradient"/><linearGradient id="linear-gradient-100" x1="59.71" y1="639.58" x2="83.11" y2="639.58" xlink:href="#linear-gradient"/><linearGradient id="linear-gradient-101" x1="29.33" y1="622.04" x2="52.73" y2="622.04" xlink:href="#linear-gradient"/><linearGradient id="linear-gradient-102" x1="120.47" y1="706.44" x2="143.87" y2="706.44" xlink:href="#linear-gradient"/><linearGradient id="linear-gradient-103" x1="59.71" y1="671.36" x2="83.11" y2="671.36" xlink:href="#linear-gradient"/><linearGradient id="linear-gradient-104" x1="29.33" y1="653.82" x2="52.73" y2="653.82" xlink:href="#linear-gradient"/><linearGradient id="linear-gradient-105" x1="150.86" y1="755.77" x2="174.25" y2="755.77" xlink:href="#linear-gradient"/><linearGradient id="linear-gradient-106" x1="120.47" y1="738.22" x2="143.87" y2="738.22" xlink:href="#linear-gradient"/><linearGradient id="linear-gradient-107" x1="59.71" y1="703.14" x2="83.11" y2="703.14" xlink:href="#linear-gradient"/><linearGradient id="linear-gradient-108" x1="29.33" y1="685.6" x2="52.73" y2="685.6" xlink:href="#linear-gradient"/><linearGradient id="linear-gradient-109" x1="150.86" y1="787.55" x2="174.25" y2="787.55" xlink:href="#linear-gradient"/><linearGradient id="linear-gradient-110" x1="120.47" y1="770.01" x2="143.87" y2="770.01" xlink:href="#linear-gradient"/><linearGradient id="linear-gradient-111" x1="59.71" y1="734.92" x2="83.11" y2="734.92" xlink:href="#linear-gradient"/><linearGradient id="linear-gradient-112" x1="29.33" y1="717.38" x2="52.73" y2="717.38" xlink:href="#linear-gradient"/><linearGradient id="linear-gradient-113" x1="150.86" y1="819.33" x2="174.25" y2="819.33" xlink:href="#linear-gradient"/><linearGradient id="linear-gradient-114" x1="120.47" y1="801.79" x2="143.87" y2="801.79" xlink:href="#linear-gradient"/><linearGradient id="linear-gradient-115" x1="59.71" y1="766.71" x2="83.11" y2="766.71" xlink:href="#linear-gradient"/><linearGradient id="linear-gradient-116" x1="29.33" y1="749.17" x2="52.73" y2="749.17" xlink:href="#linear-gradient"/><linearGradient id="linear-gradient-117" x1="150.86" y1="851.11" x2="174.25" y2="851.11" xlink:href="#linear-gradient"/><linearGradient id="linear-gradient-118" x1="120.47" y1="833.57" x2="143.87" y2="833.57" xlink:href="#linear-gradient"/><linearGradient id="linear-gradient-119" x1="29.33" y1="780.95" x2="52.73" y2="780.95" xlink:href="#linear-gradient"/><linearGradient id="linear-gradient-120" x1="150.86" y1="882.89" x2="174.25" y2="882.89" xlink:href="#linear-gradient"/><linearGradient id="linear-gradient-121" x1="120.47" y1="865.35" x2="143.87" y2="865.35" xlink:href="#linear-gradient"/><linearGradient id="linear-gradient-122" x1="59.71" y1="830.27" x2="83.11" y2="830.27" xlink:href="#linear-gradient"/><linearGradient id="linear-gradient-123" x1="29.33" y1="812.73" x2="52.73" y2="812.73" xlink:href="#linear-gradient"/><linearGradient id="linear-gradient-124" x1="150.86" y1="914.68" x2="174.25" y2="914.68" xlink:href="#linear-gradient"/><linearGradient id="linear-gradient-125" x1="120.47" y1="897.13" x2="143.87" y2="897.13" xlink:href="#linear-gradient"/><linearGradient id="linear-gradient-126" x1="59.71" y1="862.05" x2="83.11" y2="862.05" xlink:href="#linear-gradient"/><linearGradient id="linear-gradient-127" x1="29.33" y1="844.51" x2="52.73" y2="844.51" xlink:href="#linear-gradient"/><linearGradient id="linear-gradient-128" x1="150.86" y1="946.46" x2="174.25" y2="946.46" xlink:href="#linear-gradient"/><linearGradient id="linear-gradient-129" x1="120.47" y1="928.92" x2="143.87" y2="928.92" xlink:href="#linear-gradient"/><linearGradient id="linear-gradient-130" x1="59.71" y1="893.83" x2="83.11" y2="893.83" xlink:href="#linear-gradient"/><linearGradient id="linear-gradient-131" x1="29.33" y1="876.29" x2="52.73" y2="876.29" xlink:href="#linear-gradient"/><linearGradient id="linear-gradient-132" x1="150.86" y1="978.24" x2="174.25" y2="978.24" xlink:href="#linear-gradient"/><linearGradient id="linear-gradient-133" x1="120.47" y1="960.7" x2="143.87" y2="960.7" xlink:href="#linear-gradient"/><linearGradient id="linear-gradient-134" x1="59.71" y1="925.62" x2="83.11" y2="925.62" xlink:href="#linear-gradient"/><linearGradient id="linear-gradient-135" x1="29.33" y1="908.07" x2="52.73" y2="908.07" xlink:href="#linear-gradient"/><linearGradient id="linear-gradient-136" x1="150.86" y1="1010.02" x2="174.25" y2="1010.02" xlink:href="#linear-gradient"/><linearGradient id="linear-gradient-137" x1="120.47" y1="992.48" x2="143.87" y2="992.48" xlink:href="#linear-gradient"/><linearGradient id="linear-gradient-138" x1="59.71" y1="957.4" x2="83.11" y2="957.4" xlink:href="#linear-gradient"/><linearGradient id="linear-gradient-139" x1="150.86" y1="1041.8" x2="174.25" y2="1041.8" xlink:href="#linear-gradient"/><linearGradient id="linear-gradient-140" x1="120.47" y1="1024.26" x2="143.87" y2="1024.26" xlink:href="#linear-gradient"/><linearGradient id="linear-gradient-141" x1="59.71" y1="989.18" x2="83.11" y2="989.18" xlink:href="#linear-gradient"/><linearGradient id="linear-gradient-142" x1="29.33" y1="971.64" x2="52.73" y2="971.64" xlink:href="#linear-gradient"/><linearGradient id="linear-gradient-143" x1="150.86" y1="1073.59" x2="174.25" y2="1073.59" xlink:href="#linear-gradient"/><linearGradient id="linear-gradient-144" x1="120.47" y1="1056.04" x2="143.87" y2="1056.04" xlink:href="#linear-gradient"/><linearGradient id="linear-gradient-145" x1="59.71" y1="1020.96" x2="83.11" y2="1020.96" xlink:href="#linear-gradient"/><linearGradient id="linear-gradient-146" x1="29.33" y1="1003.42" x2="52.73" y2="1003.42" xlink:href="#linear-gradient"/><linearGradient id="linear-gradient-147" x1="150.86" y1="1105.37" x2="174.25" y2="1105.37" xlink:href="#linear-gradient"/><linearGradient id="linear-gradient-148" x1="120.47" y1="1087.83" x2="143.87" y2="1087.83" xlink:href="#linear-gradient"/><linearGradient id="linear-gradient-149" x1="59.71" y1="1052.74" x2="83.11" y2="1052.74" xlink:href="#linear-gradient"/><linearGradient id="linear-gradient-150" x1="29.33" y1="1035.2" x2="52.73" y2="1035.2" xlink:href="#linear-gradient"/><linearGradient id="linear-gradient-151" x1="150.86" y1="1137.15" x2="174.25" y2="1137.15" xlink:href="#linear-gradient"/><linearGradient id="linear-gradient-152" x1="120.47" y1="1119.61" x2="143.87" y2="1119.61" xlink:href="#linear-gradient"/><linearGradient id="linear-gradient-153" x1="59.71" y1="1084.53" x2="83.11" y2="1084.53" xlink:href="#linear-gradient"/><linearGradient id="linear-gradient-154" x1="29.33" y1="1066.98" x2="52.73" y2="1066.98" xlink:href="#linear-gradient"/><linearGradient id="linear-gradient-155" x1="203.58" y1="420.99" x2="407.16" y2="420.99" xlink:href="#linear-gradient"/><linearGradient id="linear-gradient-156" x1="203.58" y1="1159.5" x2="407.16" y2="1159.5" xlink:href="#linear-gradient"/><linearGradient id="New_Gradient_Swatch_copy_25-3" x1="-278.63" y1="799.63" x2="621.6" y2="-60.76" gradientTransform="matrix(1, 0, 0, 1, 0, 0)" xlink:href="#New_Gradient_Swatch_copy_25"/><linearGradient id="New_Gradient_Swatch_copy_25-4" x1="130.47" y1="-15.4" x2="192.39" y2="-166.36" gradientTransform="matrix(0.87, -0.5, 0, 1.15, 134.92, 607.49)" xlink:href="#New_Gradient_Swatch_copy_25"/><linearGradient id="New_Gradient_Swatch_copy_25-5" x1="1923.44" y1="694.71" x2="1985.36" y2="543.75" gradientTransform="matrix(-0.87, -0.5, 0, 1.15, 1804.96, 607.49)" xlink:href="#New_Gradient_Swatch_copy_25"/><linearGradient id="New_Gradient_Swatch_copy_25-6" x1="-193.64" y1="543.4" x2="445.65" y2="158.61" gradientTransform="matrix(1, 0, 0, 1, 0, 0)" xlink:href="#New_Gradient_Swatch_copy_25"/><linearGradient id="New_Gradient_Swatch_copy_25-7" x1="114.86" y1="-86.85" x2="165.36" y2="-209.97" gradientTransform="matrix(0.87, -0.5, 0, 1.15, 134.92, 607.49)" xlink:href="#New_Gradient_Swatch_copy_25"/><linearGradient id="New_Gradient_Swatch_copy_25-8" x1="1903.58" y1="633.64" x2="1954.08" y2="510.51" gradientTransform="matrix(-0.87, -0.5, 0, 1.15, 1804.96, 607.49)" xlink:href="#New_Gradient_Swatch_copy_25"/><linearGradient id="New_Gradient_Swatch_copy_25-9" x1="2.79" y1="396.62" x2="296.08" y2="212.21" gradientTransform="matrix(1, 0, 0, 1, 0, 0)" xlink:href="#New_Gradient_Swatch_copy_25"/><linearGradient id="linear-gradient-157" x1="203.58" y1="265.7" x2="315.15" y2="265.7" xlink:href="#linear-gradient"/><linearGradient id="New_Gradient_Swatch_copy_25-10" x1="-17.61" y1="335.25" x2="297.89" y2="137.5" gradientTransform="matrix(1, 0, 0, 1, 0, 0)" xlink:href="#New_Gradient_Swatch_copy_25"/><linearGradient id="linear-gradient-158" x1="203.58" y1="104.72" x2="220.35" y2="104.72" xlink:href="#linear-gradient"/><linearGradient id="linear-gradient-159" x1="200.43" y1="3.15" x2="206.73" y2="3.15" xlink:href="#linear-gradient"/></defs><g id="Layer_2" data-name="Layer 2"><g id="_Layer_" data-name="&lt;Layer&gt;"><polygon class="cls-1" points="407.16 1098.14 203.58 1215.67 203.58 503.22 407.16 385.69 407.16 1098.14"/><polygon class="cls-2" points="256.31 539.96 232.91 553.47 232.91 526.62 256.31 513.11 256.31 539.96"/><polygon class="cls-3" points="286.69 522.42 263.29 535.93 263.29 509.08 286.69 495.57 286.69 522.42"/><polygon class="cls-4" points="347.45 487.34 324.05 500.85 324.05 474 347.45 460.49 347.45 487.34"/><polygon class="cls-5" points="377.83 469.8 354.44 483.31 354.44 456.46 377.83 442.95 377.83 469.8"/><polygon class="cls-6" points="256.31 571.75 232.91 585.25 232.91 558.4 256.31 544.89 256.31 571.75"/><polygon class="cls-7" points="286.69 554.2 263.29 567.71 263.29 540.86 286.69 527.35 286.69 554.2"/><polygon class="cls-8" points="347.45 519.12 324.05 532.63 324.05 505.78 347.45 492.27 347.45 519.12"/><polygon class="cls-9" points="377.83 501.58 354.44 515.09 354.44 488.24 377.83 474.73 377.83 501.58"/><polygon class="cls-10" points="256.31 603.53 232.91 617.04 232.91 590.19 256.31 576.68 256.31 603.53"/><polygon class="cls-11" points="286.69 585.99 263.29 599.5 263.29 572.64 286.69 559.13 286.69 585.99"/><polygon class="cls-12" points="347.45 550.9 324.05 564.41 324.05 537.56 347.45 524.05 347.45 550.9"/><polygon class="cls-13" points="377.83 533.36 354.44 546.87 354.44 520.02 377.83 506.51 377.83 533.36"/><polygon class="cls-14" points="256.31 635.31 232.91 648.82 232.91 621.97 256.31 608.46 256.31 635.31"/><polygon class="cls-15" points="286.69 617.77 263.29 631.28 263.29 604.43 286.69 590.92 286.69 617.77"/><polygon class="cls-16" points="347.45 582.68 324.05 596.2 324.05 569.34 347.45 555.83 347.45 582.68"/><polygon class="cls-17" points="377.83 565.14 354.44 578.65 354.44 551.8 377.83 538.29 377.83 565.14"/><polygon class="cls-18" points="256.31 667.09 232.91 680.6 232.91 653.75 256.31 640.24 256.31 667.09"/><polygon class="cls-19" points="286.69 649.55 263.29 663.06 263.29 636.21 286.69 622.7 286.69 649.55"/><polygon class="cls-20" points="347.45 614.47 324.05 627.98 324.05 601.13 347.45 587.62 347.45 614.47"/><polygon class="cls-21" points="377.83 596.93 354.44 610.43 354.44 583.59 377.83 570.08 377.83 596.93"/><polygon class="cls-22" points="256.31 698.87 232.91 712.38 232.91 685.53 256.31 672.02 256.31 698.87"/><polygon class="cls-23" points="286.69 681.33 263.29 694.84 263.29 667.99 286.69 654.48 286.69 681.33"/><polygon class="cls-24" points="347.45 646.25 324.05 659.76 324.05 632.91 347.45 619.4 347.45 646.25"/><polygon class="cls-25" points="377.83 628.71 354.44 642.22 354.44 615.37 377.83 601.86 377.83 628.71"/><polygon class="cls-26" points="256.31 730.65 232.91 744.16 232.91 717.31 256.31 703.8 256.31 730.65"/><polygon class="cls-27" points="286.69 713.11 263.29 726.62 263.29 699.77 286.69 686.26 286.69 713.11"/><polygon class="cls-28" points="347.45 678.03 324.05 691.54 324.05 664.69 347.45 651.18 347.45 678.03"/><polygon class="cls-29" points="377.83 660.49 354.44 674 354.44 647.15 377.83 633.64 377.83 660.49"/><polygon class="cls-30" points="256.31 762.44 232.91 775.95 232.91 749.1 256.31 735.59 256.31 762.44"/><polygon class="cls-31" points="286.69 744.9 263.29 758.4 263.29 731.55 286.69 718.04 286.69 744.9"/><polygon class="cls-32" points="347.45 709.81 324.05 723.32 324.05 696.47 347.45 682.96 347.45 709.81"/><polygon class="cls-33" points="377.83 692.27 354.44 705.78 354.44 678.93 377.83 665.42 377.83 692.27"/><polygon class="cls-34" points="256.31 794.22 232.91 807.73 232.91 780.88 256.31 767.37 256.31 794.22"/><polygon class="cls-35" points="286.69 776.68 263.29 790.19 263.29 763.34 286.69 749.83 286.69 776.68"/><polygon class="cls-36" points="347.45 741.6 324.05 755.11 324.05 728.25 347.45 714.74 347.45 741.6"/><polygon class="cls-37" points="377.83 724.05 354.44 737.56 354.44 710.71 377.83 697.2 377.83 724.05"/><polygon class="cls-38" points="256.31 826 232.91 839.51 232.91 812.66 256.31 799.15 256.31 826"/><polygon class="cls-39" points="286.69 808.46 263.29 821.97 263.29 795.12 286.69 781.61 286.69 808.46"/><polygon class="cls-40" points="347.45 773.38 324.05 786.89 324.05 760.04 347.45 746.53 347.45 773.38"/><polygon class="cls-41" points="377.83 755.84 354.44 769.35 354.44 742.5 377.83 728.99 377.83 755.84"/><polygon class="cls-42" points="256.31 857.78 232.91 871.29 232.91 844.44 256.31 830.93 256.31 857.78"/><polygon class="cls-43" points="286.69 840.24 263.29 853.75 263.29 826.9 286.69 813.39 286.69 840.24"/><polygon class="cls-44" points="347.45 805.16 324.05 818.67 324.05 791.82 347.45 778.31 347.45 805.16"/><polygon class="cls-45" points="377.83 787.62 354.44 801.13 354.44 774.28 377.83 760.77 377.83 787.62"/><polygon class="cls-46" points="256.31 889.57 232.91 903.07 232.91 876.22 256.31 862.71 256.31 889.57"/><polygon class="cls-47" points="286.69 872.02 263.29 885.53 263.29 858.68 286.69 845.17 286.69 872.02"/><polygon class="cls-48" points="347.45 836.94 324.05 850.45 324.05 823.6 347.45 810.09 347.45 836.94"/><polygon class="cls-49" points="377.83 819.4 354.44 832.91 354.44 806.06 377.83 792.55 377.83 819.4"/><polygon class="cls-50" points="256.31 921.35 232.91 934.86 232.91 908.01 256.31 894.5 256.31 921.35"/><polygon class="cls-51" points="286.69 903.81 263.29 917.32 263.29 890.47 286.69 876.96 286.69 903.81"/><polygon class="cls-52" points="347.45 868.72 324.05 882.23 324.05 855.38 347.45 841.87 347.45 868.72"/><polygon class="cls-53" points="377.83 851.18 354.44 864.69 354.44 837.84 377.83 824.33 377.83 851.18"/><polygon class="cls-54" points="256.31 953.13 232.91 966.64 232.91 939.79 256.31 926.28 256.31 953.13"/><polygon class="cls-55" points="286.69 935.59 263.29 949.1 263.29 922.25 286.69 908.74 286.69 935.59"/><polygon class="cls-56" points="347.45 900.5 324.05 914.01 324.05 887.16 347.45 873.65 347.45 900.5"/><polygon class="cls-57" points="377.83 882.96 354.44 896.47 354.44 869.62 377.83 856.11 377.83 882.96"/><polygon class="cls-58" points="256.31 984.91 232.91 998.42 232.91 971.57 256.31 958.06 256.31 984.91"/><polygon class="cls-59" points="286.69 967.37 263.29 980.88 263.29 954.03 286.69 940.52 286.69 967.37"/><polygon class="cls-60" points="347.45 932.29 324.05 945.8 324.05 918.95 347.45 905.44 347.45 932.29"/><polygon class="cls-61" points="377.83 914.75 354.44 928.25 354.44 901.4 377.83 887.89 377.83 914.75"/><polygon class="cls-62" points="256.31 1016.69 232.91 1030.2 232.91 1003.35 256.31 989.84 256.31 1016.69"/><polygon class="cls-63" points="286.69 999.15 263.29 1012.66 263.29 985.81 286.69 972.3 286.69 999.15"/><polygon class="cls-64" points="347.45 964.07 324.05 977.58 324.05 950.73 347.45 937.22 347.45 964.07"/><polygon class="cls-65" points="377.83 946.53 354.44 960.04 354.44 933.19 377.83 919.68 377.83 946.53"/><polygon class="cls-66" points="256.31 1048.47 232.91 1061.98 232.91 1035.13 256.31 1021.62 256.31 1048.47"/><polygon class="cls-67" points="286.69 1030.93 263.29 1044.44 263.29 1017.59 286.69 1004.08 286.69 1030.93"/><polygon class="cls-68" points="347.45 995.85 324.05 1009.36 324.05 982.51 347.45 969 347.45 995.85"/><polygon class="cls-69" points="377.83 978.31 354.44 991.82 354.44 964.97 377.83 951.46 377.83 978.31"/><polygon class="cls-70" points="256.31 1080.26 232.91 1093.77 232.91 1066.92 256.31 1053.41 256.31 1080.26"/><polygon class="cls-71" points="286.69 1062.72 263.29 1076.22 263.29 1049.38 286.69 1035.87 286.69 1062.72"/><polygon class="cls-72" points="347.45 1027.63 324.05 1041.14 324.05 1014.29 347.45 1000.78 347.45 1027.63"/><polygon class="cls-73" points="377.83 1010.09 354.44 1023.6 354.44 996.75 377.83 983.24 377.83 1010.09"/><polygon class="cls-74" points="256.31 1112.04 232.91 1125.55 232.91 1098.7 256.31 1085.19 256.31 1112.04"/><polygon class="cls-75" points="286.69 1094.5 263.29 1108.01 263.29 1081.16 286.69 1067.65 286.69 1094.5"/><polygon class="cls-76" points="347.45 1059.41 324.05 1072.92 324.05 1046.07 347.45 1032.56 347.45 1059.41"/><polygon class="cls-77" points="377.83 1041.87 354.44 1055.38 354.44 1028.53 377.83 1015.02 377.83 1041.87"/><polygon class="cls-78" points="256.31 1143.82 232.91 1157.33 232.91 1130.48 256.31 1116.97 256.31 1143.82"/><polygon class="cls-79" points="286.69 1126.28 263.29 1139.79 263.29 1112.94 286.69 1099.43 286.69 1126.28"/><polygon class="cls-80" points="347.45 1091.2 324.05 1104.71 324.05 1077.86 347.45 1064.35 347.45 1091.2"/><polygon class="cls-81" points="377.83 1073.66 354.44 1087.16 354.44 1060.32 377.83 1046.81 377.83 1073.66"/><polygon class="cls-82" points="0 1098.14 203.58 1215.67 203.58 503.22 0 385.69 0 1098.14"/><polygon class="cls-83" points="150.85 539.96 174.25 553.47 174.25 526.62 150.85 513.11 150.85 539.96"/><polygon class="cls-84" points="120.47 522.42 143.87 535.93 143.87 509.08 120.47 495.57 120.47 522.42"/><polygon class="cls-85" points="59.71 487.34 83.11 500.85 83.11 474 59.71 460.49 59.71 487.34"/><polygon class="cls-86" points="29.33 469.8 52.73 483.31 52.73 456.46 29.33 442.95 29.33 469.8"/><polygon class="cls-87" points="150.85 571.75 174.25 585.25 174.25 558.4 150.85 544.89 150.85 571.75"/><polygon class="cls-88" points="120.47 554.2 143.87 567.71 143.87 540.86 120.47 527.35 120.47 554.2"/><polygon class="cls-89" points="59.71 519.12 83.11 532.63 83.11 505.78 59.71 492.27 59.71 519.12"/><polygon class="cls-90" points="29.33 501.58 52.73 515.09 52.73 488.24 29.33 474.73 29.33 501.58"/><polygon class="cls-91" points="150.85 603.53 174.25 617.04 174.25 590.19 150.85 576.68 150.85 603.53"/><polygon class="cls-92" points="120.47 585.99 143.87 599.5 143.87 572.64 120.47 559.13 120.47 585.99"/><polygon class="cls-93" points="59.71 550.9 83.11 564.41 83.11 537.56 59.71 524.05 59.71 550.9"/><polygon class="cls-94" points="29.33 533.36 52.73 546.87 52.73 520.02 29.33 506.51 29.33 533.36"/><polygon class="cls-95" points="150.85 635.31 174.25 648.82 174.25 621.97 150.85 608.46 150.85 635.31"/><polygon class="cls-96" points="120.47 617.77 143.87 631.28 143.87 604.43 120.47 590.92 120.47 617.77"/><polygon class="cls-97" points="59.71 582.68 83.11 596.2 83.11 569.34 59.71 555.83 59.71 582.68"/><polygon class="cls-98" points="29.33 565.14 52.73 578.65 52.73 551.8 29.33 538.29 29.33 565.14"/><polygon class="cls-99" points="150.85 667.09 174.25 680.6 174.25 653.75 150.85 640.24 150.85 667.09"/><polygon class="cls-100" points="120.47 649.55 143.87 663.06 143.87 636.21 120.47 622.7 120.47 649.55"/><polygon class="cls-87" points="59.71 614.47 83.11 627.98 83.11 601.13 59.71 587.62 59.71 614.47"/><polygon class="cls-87" points="29.33 596.93 52.73 610.43 52.73 583.59 29.33 570.08 29.33 596.93"/><polygon class="cls-101" points="150.85 698.87 174.25 712.38 174.25 685.53 150.85 672.02 150.85 698.87"/><polygon class="cls-102" points="120.47 681.33 143.87 694.84 143.87 667.99 120.47 654.48 120.47 681.33"/><polygon class="cls-103" points="59.71 646.25 83.11 659.76 83.11 632.91 59.71 619.4 59.71 646.25"/><polygon class="cls-104" points="29.33 628.71 52.73 642.22 52.73 615.37 29.33 601.86 29.33 628.71"/><polygon class="cls-87" points="150.85 730.65 174.25 744.16 174.25 717.31 150.85 703.8 150.85 730.65"/><polygon class="cls-105" points="120.47 713.11 143.87 726.62 143.87 699.77 120.47 686.26 120.47 713.11"/><polygon class="cls-106" points="59.71 678.03 83.11 691.54 83.11 664.69 59.71 651.18 59.71 678.03"/><polygon class="cls-107" points="29.33 660.49 52.73 674 52.73 647.15 29.33 633.64 29.33 660.49"/><polygon class="cls-108" points="150.85 762.44 174.25 775.95 174.25 749.1 150.85 735.59 150.85 762.44"/><polygon class="cls-109" points="120.47 744.9 143.87 758.4 143.87 731.55 120.47 718.04 120.47 744.9"/><polygon class="cls-110" points="59.71 709.81 83.11 723.32 83.11 696.47 59.71 682.96 59.71 709.81"/><polygon class="cls-111" points="29.33 692.27 52.73 705.78 52.73 678.93 29.33 665.42 29.33 692.27"/><polygon class="cls-112" points="150.85 794.22 174.25 807.73 174.25 780.88 150.85 767.37 150.85 794.22"/><polygon class="cls-113" points="120.47 776.68 143.87 790.19 143.87 763.34 120.47 749.83 120.47 776.68"/><polygon class="cls-114" points="59.71 741.6 83.11 755.11 83.11 728.25 59.71 714.74 59.71 741.6"/><polygon class="cls-115" points="29.33 724.05 52.73 737.56 52.73 710.71 29.33 697.2 29.33 724.05"/><polygon class="cls-116" points="150.85 826 174.25 839.51 174.25 812.66 150.85 799.15 150.85 826"/><polygon class="cls-117" points="120.47 808.46 143.87 821.97 143.87 795.12 120.47 781.61 120.47 808.46"/><polygon class="cls-118" points="59.71 773.38 83.11 786.89 83.11 760.04 59.71 746.53 59.71 773.38"/><polygon class="cls-119" points="29.33 755.84 52.73 769.35 52.73 742.5 29.33 728.99 29.33 755.84"/><polygon class="cls-120" points="150.85 857.78 174.25 871.29 174.25 844.44 150.85 830.93 150.85 857.78"/><polygon class="cls-121" points="120.47 840.24 143.87 853.75 143.87 826.9 120.47 813.39 120.47 840.24"/><polygon class="cls-87" points="59.71 805.16 83.11 818.67 83.11 791.82 59.71 778.31 59.71 805.16"/><polygon class="cls-122" points="29.33 787.62 52.73 801.13 52.73 774.28 29.33 760.77 29.33 787.62"/><polygon class="cls-123" points="150.85 889.57 174.25 903.07 174.25 876.22 150.85 862.71 150.85 889.57"/><polygon class="cls-124" points="120.47 872.02 143.87 885.53 143.87 858.68 120.47 845.17 120.47 872.02"/><polygon class="cls-125" points="59.71 836.94 83.11 850.45 83.11 823.6 59.71 810.09 59.71 836.94"/><polygon class="cls-126" points="29.33 819.4 52.73 832.91 52.73 806.06 29.33 792.55 29.33 819.4"/><polygon class="cls-127" points="150.85 921.35 174.25 934.86 174.25 908.01 150.85 894.5 150.85 921.35"/><polygon class="cls-128" points="120.47 903.81 143.87 917.32 143.87 890.47 120.47 876.96 120.47 903.81"/><polygon class="cls-129" points="59.71 868.72 83.11 882.23 83.11 855.38 59.71 841.87 59.71 868.72"/><polygon class="cls-130" points="29.33 851.18 52.73 864.69 52.73 837.84 29.33 824.33 29.33 851.18"/><polygon class="cls-131" points="150.85 953.13 174.25 966.64 174.25 939.79 150.85 926.28 150.85 953.13"/><polygon class="cls-132" points="120.47 935.59 143.87 949.1 143.87 922.25 120.47 908.74 120.47 935.59"/><polygon class="cls-133" points="59.71 900.5 83.11 914.01 83.11 887.16 59.71 873.65 59.71 900.5"/><polygon class="cls-134" points="29.33 882.96 52.73 896.47 52.73 869.62 29.33 856.11 29.33 882.96"/><polygon class="cls-135" points="150.85 984.91 174.25 998.42 174.25 971.57 150.85 958.06 150.85 984.91"/><polygon class="cls-136" points="120.47 967.37 143.87 980.88 143.87 954.03 120.47 940.52 120.47 967.37"/><polygon class="cls-137" points="59.71 932.29 83.11 945.8 83.11 918.95 59.71 905.44 59.71 932.29"/><polygon class="cls-138" points="29.33 914.75 52.73 928.25 52.73 901.4 29.33 887.89 29.33 914.75"/><polygon class="cls-139" points="150.85 1016.69 174.25 1030.2 174.25 1003.35 150.85 989.84 150.85 1016.69"/><polygon class="cls-140" points="120.47 999.15 143.87 1012.66 143.87 985.81 120.47 972.3 120.47 999.15"/><polygon class="cls-141" points="59.71 964.07 83.11 977.58 83.11 950.73 59.71 937.22 59.71 964.07"/><polygon class="cls-87" points="29.33 946.53 52.73 960.04 52.73 933.19 29.33 919.68 29.33 946.53"/><polygon class="cls-142" points="150.85 1048.47 174.25 1061.98 174.25 1035.13 150.85 1021.62 150.85 1048.47"/><polygon class="cls-143" points="120.47 1030.93 143.87 1044.44 143.87 1017.59 120.47 1004.08 120.47 1030.93"/><polygon class="cls-144" points="59.71 995.85 83.11 1009.36 83.11 982.51 59.71 969 59.71 995.85"/><polygon class="cls-145" points="29.33 978.31 52.73 991.82 52.73 964.97 29.33 951.46 29.33 978.31"/><polygon class="cls-146" points="150.85 1080.26 174.25 1093.77 174.25 1066.92 150.85 1053.41 150.85 1080.26"/><polygon class="cls-147" points="120.47 1062.72 143.87 1076.22 143.87 1049.38 120.47 1035.87 120.47 1062.72"/><polygon class="cls-148" points="59.71 1027.63 83.11 1041.14 83.11 1014.29 59.71 1000.78 59.71 1027.63"/><polygon class="cls-149" points="29.33 1010.09 52.73 1023.6 52.73 996.75 29.33 983.24 29.33 1010.09"/><polygon class="cls-150" points="150.85 1112.04 174.25 1125.55 174.25 1098.7 150.85 1085.19 150.85 1112.04"/><polygon class="cls-151" points="120.47 1094.5 143.87 1108.01 143.87 1081.16 120.47 1067.65 120.47 1094.5"/><polygon class="cls-152" points="59.71 1059.41 83.11 1072.92 83.11 1046.07 59.71 1032.56 59.71 1059.41"/><polygon class="cls-153" points="29.33 1041.87 52.73 1055.38 52.73 1028.53 29.33 1015.02 29.33 1041.87"/><polygon class="cls-154" points="150.85 1143.82 174.25 1157.33 174.25 1130.48 150.85 1116.97 150.85 1143.82"/><polygon class="cls-155" points="120.47 1126.28 143.87 1139.79 143.87 1112.94 120.47 1099.43 120.47 1126.28"/><polygon class="cls-156" points="59.71 1091.2 83.11 1104.71 83.11 1077.86 59.71 1064.35 59.71 1091.2"/><polygon class="cls-157" points="29.33 1073.66 52.73 1087.16 52.73 1060.32 29.33 1046.81 29.33 1073.66"/><polygon class="cls-158" points="407.16 338.75 203.58 456.29 203.58 503.22 407.16 385.69 407.16 338.75"/><polygon class="cls-159" points="0 338.75 203.58 456.29 203.58 503.22 0 385.69 0 338.75"/><polygon class="cls-160" points="407.16 1098.14 203.58 1215.67 203.58 1220.86 407.16 1103.32 407.16 1098.14"/><polygon class="cls-159" points="0 1098.14 203.58 1215.67 203.58 1220.86 0 1103.32 0 1098.14"/><polygon class="cls-161" points="0 338.75 203.58 221.22 407.16 338.75 203.58 456.29 0 338.75"/><polygon class="cls-162" points="372.75 338.75 203.58 436.43 203.58 401.98 372.75 304.31 372.75 338.75"/><polygon class="cls-163" points="34.41 338.75 203.58 436.43 203.58 401.98 34.41 304.31 34.41 338.75"/><polygon class="cls-164" points="372.75 304.31 203.58 206.64 34.41 304.31 203.58 401.98 372.75 304.31"/><polygon class="cls-165" points="330.87 304.31 203.58 377.8 203.58 343.87 330.87 270.37 330.87 304.31"/><polygon class="cls-166" points="76.29 304.31 203.58 377.8 203.58 343.87 76.29 270.37 76.29 304.31"/><polygon class="cls-167" points="330.87 270.37 203.58 196.88 76.29 270.37 203.58 343.87 330.87 270.37"/><polygon class="cls-168" points="203.58 238.16 203.58 334.79 315.15 270.37 275.55 196.61 203.58 238.16"/><polygon class="cls-169" points="203.58 238.16 203.58 334.79 92.01 270.37 131.61 196.61 203.58 238.16"/><polygon class="cls-170" points="275.55 196.61 203.58 155.06 131.61 196.61 203.58 238.16 275.55 196.61"/><polygon class="cls-171" points="203.58 206.3 203.58 3.15 220.35 196.61 203.58 206.3"/><polygon class="cls-169" points="203.58 206.3 203.58 3.15 186.81 196.61 203.58 206.3"/><path class="cls-172" d="M206.73,3.15A3.15,3.15,0,1,1,203.58,0,3.15,3.15,0,0,1,206.73,3.15Z"/></g></g></svg>