<svg xmlns="http://www.w3.org/2000/svg" xmlns:xlink="http://www.w3.org/1999/xlink" viewBox="0 0 254.66 1295.02"><defs><style>.cls-1{fill:url(#New_Gradient_Swatch_copy_25);}.cls-2{fill:url(#New_Gradient_Swatch_copy_25-2);}.cls-3{fill:url(#New_Gradient_Swatch_copy_25-3);}.cls-4{fill:url(#Gradiente_sem_nome_59);}.cls-5{fill:url(#New_Gradient_Swatch_copy_25-4);}.cls-6{fill:url(#New_Gradient_Swatch_copy_25-5);}.cls-7{fill:url(#New_Gradient_Swatch_copy_25-6);}.cls-8{fill:url(#New_Gradient_Swatch_copy_25-7);}.cls-9{fill:url(#New_Gradient_Swatch_copy_25-8);}.cls-10{fill:url(#New_Gradient_Swatch_copy_25-9);}.cls-11{fill:url(#New_Gradient_Swatch_copy_25-10);}.cls-12{fill:url(#New_Gradient_Swatch_copy_25-11);}.cls-13{fill:url(#New_Gradient_Swatch_copy_25-12);}.cls-14{fill:url(#Gradiente_sem_nome_10);}.cls-15{fill:url(#New_Gradient_Swatch_copy_25-13);}.cls-16{fill:url(#New_Gradient_Swatch_copy_25-14);}.cls-17{fill:url(#New_Gradient_Swatch_copy_25-15);}.cls-18{fill:url(#New_Gradient_Swatch_copy_25-16);}.cls-19{fill:url(#New_Gradient_Swatch_copy_25-17);}.cls-20{fill:url(#New_Gradient_Swatch_copy_25-18);}.cls-21{fill:url(#New_Gradient_Swatch_copy_25-19);}.cls-22{fill:url(#New_Gradient_Swatch_copy_25-20);}.cls-23{fill:url(#New_Gradient_Swatch_copy_25-21);}.cls-24{fill:url(#New_Gradient_Swatch_copy_25-22);}.cls-25{fill:url(#New_Gradient_Swatch_copy_25-23);}.cls-26{fill:url(#Gradiente_sem_nome_10-2);}.cls-27{fill:url(#New_Gradient_Swatch_copy_25-24);}.cls-28{fill:url(#New_Gradient_Swatch_copy_25-25);}.cls-29{fill:url(#New_Gradient_Swatch_copy_25-26);}.cls-30{fill:url(#New_Gradient_Swatch_copy_25-27);}.cls-31{fill:#ff6e82;}</style><linearGradient id="New_Gradient_Swatch_copy_25" x1="-195.7" y1="1417.51" x2="273.06" y2="1150.11" gradientUnits="userSpaceOnUse"><stop offset="0" stop-color="#25054d"/><stop offset="1" stop-color="#45108a"/></linearGradient><linearGradient id="New_Gradient_Swatch_copy_25-2" x1="59.84" y1="1264.13" x2="194.82" y2="1264.13" xlink:href="#New_Gradient_Swatch_copy_25"/><linearGradient id="New_Gradient_Swatch_copy_25-3" x1="-168.2" y1="1376.17" x2="260.65" y2="1131.53" xlink:href="#New_Gradient_Swatch_copy_25"/><linearGradient id="Gradiente_sem_nome_59" x1="65.59" y1="1235.84" x2="189.07" y2="1235.84" gradientUnits="userSpaceOnUse"><stop offset="0" stop-color="#ca5475"/><stop offset="0.16" stop-color="#ce5d77"/><stop offset="0.43" stop-color="#db757e"/><stop offset="0.76" stop-color="#ee9b89"/><stop offset="1" stop-color="#ffbc92"/></linearGradient><linearGradient id="New_Gradient_Swatch_copy_25-4" x1="1.72" y1="1192.31" x2="196.16" y2="1192.31" xlink:href="#New_Gradient_Swatch_copy_25"/><linearGradient id="New_Gradient_Swatch_copy_25-5" x1="59.84" y1="1223.2" x2="194.82" y2="1223.2" xlink:href="#New_Gradient_Swatch_copy_25"/><linearGradient id="New_Gradient_Swatch_copy_25-6" x1="3.57" y1="1187.45" x2="195.14" y2="1187.45" xlink:href="#New_Gradient_Swatch_copy_25"/><linearGradient id="New_Gradient_Swatch_copy_25-7" x1="3.57" y1="889.59" x2="195.14" y2="889.59" xlink:href="#New_Gradient_Swatch_copy_25"/><linearGradient id="New_Gradient_Swatch_copy_25-8" x1="89.41" y1="634.41" x2="192.71" y2="542.22" xlink:href="#New_Gradient_Swatch_copy_25"/><linearGradient id="New_Gradient_Swatch_copy_25-9" x1="53.3" y1="617.14" x2="275.79" y2="418.57" xlink:href="#New_Gradient_Swatch_copy_25"/><linearGradient id="New_Gradient_Swatch_copy_25-10" x1="68.53" y1="523.27" x2="329.64" y2="290.23" xlink:href="#New_Gradient_Swatch_copy_25"/><linearGradient id="New_Gradient_Swatch_copy_25-11" x1="63.21" y1="564.56" x2="237.58" y2="408.95" xlink:href="#New_Gradient_Swatch_copy_25"/><linearGradient id="New_Gradient_Swatch_copy_25-12" x1="68.53" y1="507.5" x2="329.64" y2="274.46" xlink:href="#New_Gradient_Swatch_copy_25"/><linearGradient id="Gradiente_sem_nome_10" x1="27.72" y1="561.5" x2="285.99" y2="331" gradientUnits="userSpaceOnUse"><stop offset="0.1" stop-color="#01213b"/><stop offset="0.12" stop-color="#192742"/><stop offset="0.21" stop-color="#643a58"/><stop offset="0.28" stop-color="#9b4867"/><stop offset="0.33" stop-color="#bd5171"/><stop offset="0.36" stop-color="#ca5475"/><stop offset="0.45" stop-color="#d35c77"/><stop offset="0.59" stop-color="#ea717e"/><stop offset="0.68" stop-color="#fc8183"/><stop offset="0.71" stop-color="#f37d80"/><stop offset="0.75" stop-color="#da7479"/><stop offset="0.81" stop-color="#b1646e"/><stop offset="0.88" stop-color="#794f5d"/><stop offset="0.95" stop-color="#323449"/><stop offset="1" stop-color="#01213b"/></linearGradient><linearGradient id="New_Gradient_Swatch_copy_25-13" x1="-97.44" y1="640.04" x2="163.67" y2="407" xlink:href="#New_Gradient_Swatch_copy_25"/><linearGradient id="New_Gradient_Swatch_copy_25-14" x1="70.15" y1="508.05" x2="225.94" y2="369.01" xlink:href="#New_Gradient_Swatch_copy_25"/><linearGradient id="New_Gradient_Swatch_copy_25-15" x1="-227.29" y1="613.52" x2="287.31" y2="319.97" xlink:href="#New_Gradient_Swatch_copy_25"/><linearGradient id="New_Gradient_Swatch_copy_25-16" x1="53.25" y1="442.97" x2="201.42" y2="442.97" xlink:href="#New_Gradient_Swatch_copy_25"/><linearGradient id="New_Gradient_Swatch_copy_25-17" x1="-114.89" y1="503.5" x2="236.6" y2="303" xlink:href="#New_Gradient_Swatch_copy_25"/><linearGradient id="New_Gradient_Swatch_copy_25-18" x1="76.73" y1="399.33" x2="177.93" y2="399.33" xlink:href="#New_Gradient_Swatch_copy_25"/><linearGradient id="New_Gradient_Swatch_copy_25-19" x1="-29.75" y1="357.19" x2="198.2" y2="227.16" xlink:href="#New_Gradient_Swatch_copy_25"/><linearGradient id="New_Gradient_Swatch_copy_25-20" x1="94.51" y1="322.52" x2="160.15" y2="322.52" xlink:href="#New_Gradient_Swatch_copy_25"/><linearGradient id="New_Gradient_Swatch_copy_25-21" x1="93.12" y1="287.88" x2="245.04" y2="152.29" xlink:href="#New_Gradient_Swatch_copy_25"/><linearGradient id="New_Gradient_Swatch_copy_25-22" x1="93.39" y1="299.71" x2="185.83" y2="217.2" xlink:href="#New_Gradient_Swatch_copy_25"/><linearGradient id="New_Gradient_Swatch_copy_25-23" x1="93.12" y1="278.7" x2="245.04" y2="143.11" xlink:href="#New_Gradient_Swatch_copy_25"/><linearGradient id="Gradiente_sem_nome_10-2" x1="69.38" y1="310.12" x2="219.64" y2="176.01" xlink:href="#Gradiente_sem_nome_10"/><linearGradient id="New_Gradient_Swatch_copy_25-24" x1="-131.38" y1="472.4" x2="193.69" y2="179.26" xlink:href="#New_Gradient_Swatch_copy_25"/><linearGradient id="New_Gradient_Swatch_copy_25-25" x1="94.06" y1="279.03" x2="184.7" y2="198.13" xlink:href="#New_Gradient_Swatch_copy_25"/><linearGradient id="New_Gradient_Swatch_copy_25-26" x1="64.12" y1="150.93" x2="155.85" y2="98.6" xlink:href="#New_Gradient_Swatch_copy_25"/><linearGradient id="New_Gradient_Swatch_copy_25-27" x1="114.13" y1="178.09" x2="140.54" y2="178.09" xlink:href="#New_Gradient_Swatch_copy_25"/></defs><g id="Layer_2" data-name="Layer 2"><g id="_Layer_" data-name="&lt;Layer&gt;"><path class="cls-1" d="M175.2,1205.61c26.27,15.16,26.14,39.83-.3,55.1s-69.17,15.34-95.44.17-26.14-39.84.3-55.1S148.93,1190.44,175.2,1205.61Z"/><path class="cls-2" d="M194.81,1233.24c-.11,9.93-6.74,19.87-19.91,27.47-26.44,15.26-69.17,15.34-95.44.17-13.19-7.62-19.72-17.63-19.61-27.64h0v22.82c-.11,10,6.42,20,19.61,27.63,26.27,15.17,69,15.09,95.44-.17,13.17-7.6,19.8-17.53,19.91-27.46v-22.82Z"/><path class="cls-3" d="M171.13,1182.3c24,13.88,23.91,36.44-.28,50.41s-63.28,14-87.31.15-23.92-36.44.27-50.4S147.09,1168.42,171.13,1182.3Z"/><path class="cls-4" d="M189.07,1207.58c-.1,9.09-6.17,18.17-18.22,25.13-24.18,14-63.28,14-87.31.15-12.07-7-18-16.12-17.94-25.28h0v20.87c-.1,9.16,5.87,18.32,17.94,25.29,24,13.87,63.13,13.8,87.31-.16,12.05-6.95,18.12-16,18.22-25.13v-20.87Z"/><path class="cls-5" d="M175.2,1164.67c26.27,15.17,26.14,39.84-.3,55.1s-69.17,15.34-95.44.18-26.14-39.84.3-55.1S148.93,1149.51,175.2,1164.67Z"/><path class="cls-6" d="M194.81,1192.31c-.11,9.93-6.74,19.86-19.91,27.46-26.44,15.27-69.17,15.34-95.44.18-13.19-7.62-19.72-17.63-19.61-27.64h0v22.82c-.11,10,6.42,20,19.61,27.63,26.27,15.17,69,15.09,95.44-.17,13.17-7.6,19.8-17.53,19.91-27.46v-22.82Z"/><path class="cls-7" d="M174.5,1160.22c25.88,15,25.75,39.25-.3,54.29s-68.15,15.11-94,.17-25.76-39.25.29-54.29S148.61,1145.28,174.5,1160.22Z"/><polygon class="cls-8" points="88.94 591.73 60.84 1187.45 193.82 1187.45 165.72 591.73 88.94 591.73"/><path class="cls-9" d="M42.91,597.49c-.57,27.43,37.22,49.94,84.42,49.94s85-22.51,84.42-49.94V588.3c.57,27.43-37.22,49.94-84.42,49.94s-85-22.51-84.42-49.94Z"/><path class="cls-10" d="M252.81,535.19H1.85L44.2,597.34c6.84,23.16,41.25,40.9,83.13,40.9s76.3-17.74,83.13-40.9Z"/><path class="cls-11" d="M254.65,469.86c.86,41.38-56.14,75.33-127.32,75.33S-.85,511.24,0,469.86C.86,429,57.86,396.34,127.33,396.34S253.81,429,254.65,469.86Z"/><path class="cls-12" d="M0,521.67C-.85,563,56.15,597,127.33,597s128.18-34,127.32-75.32V469.86c.86,41.38-56.14,75.33-127.32,75.33S-.85,511.24,0,469.86Z"/><path class="cls-13" d="M254.65,454.09c.86,41.38-56.14,75.33-127.32,75.33S-.85,495.47,0,454.09c.85-40.82,57.85-73.52,127.32-73.52S253.81,413.27,254.65,454.09Z"/><path class="cls-14" d="M0,468c-.86,41.38,56.14,75.33,127.32,75.33S255.51,509.33,254.65,468V454.09c.86,41.38-56.14,75.33-127.32,75.33S-.85,495.47,0,454.09Z"/><path class="cls-15" d="M254.65,438.51c.86,41.37-56.14,75.32-127.32,75.32S-.85,479.88,0,438.51C.86,397.69,57.86,365,127.33,365S253.81,397.69,254.65,438.51Z"/><path class="cls-16" d="M0,452.37c-.86,41.37,56.14,75.33,127.32,75.33s128.18-34,127.32-75.33V438.51c.86,41.37-56.14,75.32-127.32,75.32S-.85,479.88,0,438.51Z"/><path class="cls-17" d="M179.88,380.89c28.84,16.65,28.69,43.73-.33,60.49s-75.93,16.84-104.77.19-28.69-43.73.33-60.49S151,364.24,179.88,380.89Z"/><path class="cls-18" d="M201.41,411.23c-.12,10.9-7.41,21.81-21.86,30.15-29,16.75-75.93,16.84-104.77.19-14.48-8.36-21.65-19.35-21.53-30.34h0v20.71c-.12,11,7,22,21.53,30.33,28.84,16.66,75.75,16.57,104.77-.18,14.45-8.35,21.74-19.25,21.86-30.15V411.23Z"/><path class="cls-19" d="M163.23,344.61c19.69,11.37,19.6,29.87-.23,41.31s-51.86,11.5-71.56.13-19.6-29.87.22-41.31S143.53,333.23,163.23,344.61Z"/><path class="cls-20" d="M177.93,365.33c-.08,7.44-5.06,14.89-14.93,20.59-19.82,11.45-51.86,11.5-71.56.13-9.89-5.71-14.79-13.21-14.71-20.72h0v38.79c-.08,7.51,4.82,15,14.71,20.72,19.7,11.37,51.74,11.32,71.56-.13,9.87-5.7,14.85-13.14,14.93-20.59V365.33Z"/><path class="cls-21" d="M150.61,254.14c12.77,7.38,12.71,19.38-.15,26.8s-33.63,7.46-46.41.08-12.71-19.37.15-26.79S137.83,246.77,150.61,254.14Z"/><path class="cls-22" d="M160.15,267.58c-.06,4.83-3.28,9.66-9.69,13.36-12.85,7.42-33.63,7.46-46.41.08-6.41-3.7-9.59-8.57-9.53-13.44h0v90.93c-.06,4.87,3.12,9.74,9.53,13.44,12.78,7.38,33.56,7.34,46.41-.08,6.41-3.7,9.63-8.53,9.69-13.36V267.58Z"/><path class="cls-23" d="M201.41,256.81c.5,24.07-32.66,43.82-74.08,43.82s-74.58-19.75-74.08-43.82c.5-23.76,33.66-42.78,74.08-42.78S200.92,233.05,201.41,256.81Z"/><path class="cls-24" d="M53.25,268.55c-.5,24.07,32.67,43.83,74.08,43.83s74.58-19.76,74.08-43.83V256.81c.5,24.07-32.66,43.82-74.08,43.82s-74.58-19.75-74.08-43.82Z"/><path class="cls-25" d="M201.41,247.63c.5,24.07-32.66,43.83-74.08,43.83S52.75,271.7,53.25,247.63c.5-23.75,33.66-42.78,74.08-42.78S200.92,223.88,201.41,247.63Z"/><path class="cls-26" d="M53.25,255.7c-.5,24.07,32.67,43.82,74.08,43.82s74.58-19.75,74.08-43.82v-8.07c.5,24.07-32.66,43.83-74.08,43.83S52.75,271.7,53.25,247.63Z"/><path class="cls-27" d="M201.41,238.56c.5,24.08-32.66,43.83-74.08,43.83s-74.58-19.75-74.08-43.83c.5-23.75,33.66-42.77,74.08-42.77S200.92,214.81,201.41,238.56Z"/><path class="cls-28" d="M53.25,246.63c-.5,24.07,32.67,43.82,74.08,43.82s74.58-19.75,74.08-43.82v-8.07c.5,24.08-32.66,43.83-74.08,43.83s-74.58-19.75-74.08-43.83Z"/><path class="cls-29" d="M136.7,109.46c5.14,3,5.11,7.8-.06,10.78s-13.53,3-18.68,0-5.11-7.8.06-10.79S131.56,106.49,136.7,109.46Z"/><path class="cls-30" d="M140.54,114.87c0,1.94-1.32,3.89-3.9,5.37-5.17,3-13.53,3-18.68,0-2.58-1.49-3.86-3.45-3.83-5.41h0V233.68c0,2,1.25,3.92,3.83,5.41,5.15,3,13.51,2.95,18.68,0,2.58-1.49,3.88-3.44,3.9-5.38V114.87Z"/><path class="cls-31" d="M127,0l-1.58,112.52a2.67,2.67,0,0,0,.56,1.67,1.73,1.73,0,0,0,2.75,0,2.61,2.61,0,0,0,.57-1.66L127.69,0Z"/></g></g></svg>