<svg xmlns="http://www.w3.org/2000/svg" xmlns:xlink="http://www.w3.org/1999/xlink" viewBox="0 0 353.65 553.62"><defs><style>.cls-1{isolation:isolate;}.cls-2{fill:url(#New_Gradient_Swatch_copy_25);}.cls-3{fill:url(#New_Gradient_Swatch_copy_25-2);}.cls-4{fill:url(#New_Gradient_Swatch_copy_25-3);}.cls-5{fill:url(#New_Gradient_Swatch_copy_25-4);}.cls-6{fill:url(#New_Gradient_Swatch_copy_25-5);}.cls-7{fill:url(#linear-gradient);}.cls-8{fill:#6a00b8;}.cls-9{fill:#420073;}.cls-10{fill:url(#linear-gradient-2);}.cls-11{fill:url(#linear-gradient-3);}.cls-12{fill:url(#linear-gradient-4);}.cls-13{fill:url(#New_Gradient_Swatch_copy_25-6);}.cls-14{fill:url(#New_Gradient_Swatch_copy_25-7);}.cls-15{fill:url(#New_Gradient_Swatch_copy_25-8);}.cls-16{fill:url(#New_Gradient_Swatch_copy_25-9);}.cls-17{fill:url(#New_Gradient_Swatch_copy_25-10);}.cls-18{fill:url(#linear-gradient-5);}.cls-19{fill:url(#linear-gradient-6);}.cls-20{fill:url(#linear-gradient-7);}.cls-21{fill:url(#linear-gradient-8);}.cls-22{fill:url(#New_Gradient_Swatch_copy_25-11);}.cls-23{fill:url(#New_Gradient_Swatch_copy_25-12);}.cls-24{fill:url(#New_Gradient_Swatch_copy_25-13);}.cls-25{fill:url(#New_Gradient_Swatch_copy_25-14);}.cls-26{fill:url(#New_Gradient_Swatch_copy_25-15);}.cls-27{fill:url(#linear-gradient-9);}.cls-28{fill:url(#linear-gradient-10);}.cls-29{fill:url(#linear-gradient-11);}.cls-30{fill:url(#linear-gradient-12);}.cls-31{fill:url(#New_Gradient_Swatch_copy_25-16);}.cls-32{fill:url(#New_Gradient_Swatch_copy_25-17);}.cls-33{fill:url(#New_Gradient_Swatch_copy_25-18);}.cls-34{fill:url(#New_Gradient_Swatch_copy_25-19);}.cls-35{fill:url(#New_Gradient_Swatch_copy_25-20);}.cls-36{fill:url(#linear-gradient-13);}.cls-37{fill:url(#linear-gradient-14);}.cls-38{fill:url(#linear-gradient-15);}.cls-39{fill:url(#linear-gradient-16);}.cls-40{fill:url(#New_Gradient_Swatch_copy_25-21);}.cls-41{fill:url(#New_Gradient_Swatch_copy_25-22);}.cls-42{fill:url(#New_Gradient_Swatch_copy_25-23);}.cls-43{fill:url(#New_Gradient_Swatch_copy_25-24);}.cls-44{fill:url(#New_Gradient_Swatch_copy_25-25);}.cls-45{fill:url(#linear-gradient-17);}.cls-46{fill:url(#linear-gradient-18);}.cls-47{fill:url(#linear-gradient-19);}.cls-48{fill:url(#linear-gradient-20);}.cls-49{fill:url(#linear-gradient-21);}</style><linearGradient id="New_Gradient_Swatch_copy_25" x1="13.83" y1="396.61" x2="341.18" y2="396.61" gradientUnits="userSpaceOnUse"><stop offset="0" stop-color="#25054d"/><stop offset="1" stop-color="#45108a"/></linearGradient><linearGradient id="New_Gradient_Swatch_copy_25-2" x1="176.68" y1="475.12" x2="341.18" y2="475.12" xlink:href="#New_Gradient_Swatch_copy_25"/><linearGradient id="New_Gradient_Swatch_copy_25-3" x1="12.47" y1="475.12" x2="178.04" y2="475.12" xlink:href="#New_Gradient_Swatch_copy_25"/><linearGradient id="New_Gradient_Swatch_copy_25-4" x1="176.27" y1="348" x2="338.41" y2="348" xlink:href="#New_Gradient_Swatch_copy_25"/><linearGradient id="New_Gradient_Swatch_copy_25-5" x1="15.24" y1="348" x2="176.31" y2="348" xlink:href="#New_Gradient_Swatch_copy_25"/><linearGradient id="linear-gradient" x1="0.03" y1="388.64" x2="353.65" y2="388.64" gradientUnits="userSpaceOnUse"><stop offset="0" stop-color="#00e5ff"/><stop offset="1" stop-color="#c0f"/></linearGradient><linearGradient id="linear-gradient-2" x1="3354.02" y1="-335.09" x2="3558.66" y2="-130.45" gradientTransform="matrix(-0.87, 0.5, 0, 1.15, 3297.27, -1001.85)" xlink:href="#linear-gradient"/><linearGradient id="linear-gradient-3" x1="3374.83" y1="-369.7" x2="3579.47" y2="-165.06" gradientTransform="matrix(-0.87, 0.5, 0, 1.15, 3297.27, -1001.85)" xlink:href="#linear-gradient"/><linearGradient id="linear-gradient-4" x1="3395.64" y1="-404.31" x2="3600.28" y2="-199.67" gradientTransform="matrix(-0.87, 0.5, 0, 1.15, 3297.27, -1001.85)" xlink:href="#linear-gradient"/><linearGradient id="New_Gradient_Swatch_copy_25-6" x1="13.83" y1="325.06" x2="341.18" y2="325.06" xlink:href="#New_Gradient_Swatch_copy_25"/><linearGradient id="New_Gradient_Swatch_copy_25-7" x1="176.68" y1="403.56" x2="341.18" y2="403.56" xlink:href="#New_Gradient_Swatch_copy_25"/><linearGradient id="New_Gradient_Swatch_copy_25-8" x1="12.47" y1="403.56" x2="178.04" y2="403.56" xlink:href="#New_Gradient_Swatch_copy_25"/><linearGradient id="New_Gradient_Swatch_copy_25-9" x1="176.27" y1="276.44" x2="338.41" y2="276.44" xlink:href="#New_Gradient_Swatch_copy_25"/><linearGradient id="New_Gradient_Swatch_copy_25-10" x1="15.24" y1="276.44" x2="176.31" y2="276.44" xlink:href="#New_Gradient_Swatch_copy_25"/><linearGradient id="linear-gradient-5" x1="0.03" y1="317.09" x2="353.65" y2="317.09" xlink:href="#linear-gradient"/><linearGradient id="linear-gradient-6" x1="3354.02" y1="-397.06" x2="3558.66" y2="-192.42" gradientTransform="matrix(-0.87, 0.5, 0, 1.15, 3297.27, -1001.85)" xlink:href="#linear-gradient"/><linearGradient id="linear-gradient-7" x1="3374.83" y1="-431.67" x2="3579.47" y2="-227.03" gradientTransform="matrix(-0.87, 0.5, 0, 1.15, 3297.27, -1001.85)" xlink:href="#linear-gradient"/><linearGradient id="linear-gradient-8" x1="3395.64" y1="-466.28" x2="3600.28" y2="-261.64" gradientTransform="matrix(-0.87, 0.5, 0, 1.15, 3297.27, -1001.85)" xlink:href="#linear-gradient"/><linearGradient id="New_Gradient_Swatch_copy_25-11" x1="13.83" y1="253.5" x2="341.18" y2="253.5" xlink:href="#New_Gradient_Swatch_copy_25"/><linearGradient id="New_Gradient_Swatch_copy_25-12" x1="176.68" y1="332" x2="341.18" y2="332" xlink:href="#New_Gradient_Swatch_copy_25"/><linearGradient id="New_Gradient_Swatch_copy_25-13" x1="12.47" y1="332" x2="178.04" y2="332" xlink:href="#New_Gradient_Swatch_copy_25"/><linearGradient id="New_Gradient_Swatch_copy_25-14" x1="176.27" y1="204.88" x2="338.41" y2="204.88" xlink:href="#New_Gradient_Swatch_copy_25"/><linearGradient id="New_Gradient_Swatch_copy_25-15" x1="15.24" y1="204.88" x2="176.31" y2="204.88" xlink:href="#New_Gradient_Swatch_copy_25"/><linearGradient id="linear-gradient-9" x1="0.03" y1="245.53" x2="353.65" y2="245.53" xlink:href="#linear-gradient"/><linearGradient id="linear-gradient-10" x1="3354.02" y1="-459.04" x2="3558.66" y2="-254.4" gradientTransform="matrix(-0.87, 0.5, 0, 1.15, 3297.27, -1001.85)" xlink:href="#linear-gradient"/><linearGradient id="linear-gradient-11" x1="3374.83" y1="-493.64" x2="3579.47" y2="-289" gradientTransform="matrix(-0.87, 0.5, 0, 1.15, 3297.27, -1001.85)" xlink:href="#linear-gradient"/><linearGradient id="linear-gradient-12" x1="3395.64" y1="-528.25" x2="3600.28" y2="-323.61" gradientTransform="matrix(-0.87, 0.5, 0, 1.15, 3297.27, -1001.85)" xlink:href="#linear-gradient"/><linearGradient id="New_Gradient_Swatch_copy_25-16" x1="13.83" y1="181.94" x2="341.18" y2="181.94" xlink:href="#New_Gradient_Swatch_copy_25"/><linearGradient id="New_Gradient_Swatch_copy_25-17" x1="176.68" y1="260.45" x2="341.18" y2="260.45" xlink:href="#New_Gradient_Swatch_copy_25"/><linearGradient id="New_Gradient_Swatch_copy_25-18" x1="12.47" y1="260.45" x2="178.04" y2="260.45" xlink:href="#New_Gradient_Swatch_copy_25"/><linearGradient id="New_Gradient_Swatch_copy_25-19" x1="176.27" y1="133.33" x2="338.41" y2="133.33" xlink:href="#New_Gradient_Swatch_copy_25"/><linearGradient id="New_Gradient_Swatch_copy_25-20" x1="15.24" y1="133.32" x2="176.31" y2="133.32" xlink:href="#New_Gradient_Swatch_copy_25"/><linearGradient id="linear-gradient-13" x1="0.03" y1="173.97" x2="353.65" y2="173.97" xlink:href="#linear-gradient"/><linearGradient id="linear-gradient-14" x1="3354.02" y1="-521.01" x2="3558.66" y2="-316.37" gradientTransform="matrix(-0.87, 0.5, 0, 1.15, 3297.27, -1001.85)" xlink:href="#linear-gradient"/><linearGradient id="linear-gradient-15" x1="3374.83" y1="-555.61" x2="3579.47" y2="-350.97" gradientTransform="matrix(-0.87, 0.5, 0, 1.15, 3297.27, -1001.85)" xlink:href="#linear-gradient"/><linearGradient id="linear-gradient-16" x1="3395.64" y1="-590.22" x2="3600.28" y2="-385.58" gradientTransform="matrix(-0.87, 0.5, 0, 1.15, 3297.27, -1001.85)" xlink:href="#linear-gradient"/><linearGradient id="New_Gradient_Swatch_copy_25-21" x1="13.83" y1="110.38" x2="341.18" y2="110.38" xlink:href="#New_Gradient_Swatch_copy_25"/><linearGradient id="New_Gradient_Swatch_copy_25-22" x1="176.68" y1="188.89" x2="341.18" y2="188.89" xlink:href="#New_Gradient_Swatch_copy_25"/><linearGradient id="New_Gradient_Swatch_copy_25-23" x1="12.47" y1="188.89" x2="178.04" y2="188.89" xlink:href="#New_Gradient_Swatch_copy_25"/><linearGradient id="New_Gradient_Swatch_copy_25-24" x1="176.27" y1="61.77" x2="338.41" y2="61.77" xlink:href="#New_Gradient_Swatch_copy_25"/><linearGradient id="New_Gradient_Swatch_copy_25-25" x1="15.24" y1="61.77" x2="176.31" y2="61.77" xlink:href="#New_Gradient_Swatch_copy_25"/><linearGradient id="linear-gradient-17" x1="0.03" y1="102.41" x2="353.65" y2="102.41" xlink:href="#linear-gradient"/><linearGradient id="linear-gradient-18" x1="3354.02" y1="-582.98" x2="3558.66" y2="-378.34" gradientTransform="matrix(-0.87, 0.5, 0, 1.15, 3297.27, -1001.85)" xlink:href="#linear-gradient"/><linearGradient id="linear-gradient-19" x1="3374.83" y1="-617.58" x2="3579.47" y2="-412.94" gradientTransform="matrix(-0.87, 0.5, 0, 1.15, 3297.27, -1001.85)" xlink:href="#linear-gradient"/><linearGradient id="linear-gradient-20" x1="3395.64" y1="-652.19" x2="3600.28" y2="-447.55" gradientTransform="matrix(-0.87, 0.5, 0, 1.15, 3297.27, -1001.85)" xlink:href="#linear-gradient"/><linearGradient id="linear-gradient-21" x1="104" y1="103.02" x2="239.27" y2="103.02" xlink:href="#linear-gradient"/></defs><g id="Layer_2" data-name="Layer 2"><g id="_Layer_" data-name="&lt;Layer&gt;"><g class="cls-1"><polygon class="cls-2" points="341.18 396.61 178.04 491.42 13.83 396.61 176.97 301.81 341.18 396.61"/><polygon class="cls-3" points="341.18 396.61 339.82 458.82 176.68 553.62 178.04 491.42 341.18 396.61"/><polygon class="cls-4" points="178.04 491.42 176.68 553.62 12.47 458.82 13.83 396.61 178.04 491.42"/></g><g class="cls-1"><polygon class="cls-5" points="338.41 388.65 338.38 400.94 176.27 307.35 176.31 295.06 338.41 388.65"/><polygon class="cls-6" points="176.31 295.06 176.27 307.35 15.24 400.94 15.27 388.64 176.31 295.06"/><path class="cls-7" d="M176.27,286.23,353.65,388.64,177.41,491.06,0,388.65Zm1.1,196,161-93.58-162.1-93.59-161,93.58,162.1,93.59"/><polygon class="cls-8" points="353.65 388.64 353.61 400.94 177.38 503.35 177.41 491.06 353.65 388.64"/><polygon class="cls-9" points="177.41 491.06 177.38 503.35 0 400.94 0.04 388.65 177.41 491.06"/></g><polygon class="cls-10" points="290 470.58 330.07 447.44 330.07 421.73 290 444.86 290 470.58"/><polygon class="cls-11" points="242.01 498.29 282.08 475.15 282.08 449.44 242.01 472.57 242.01 498.29"/><polygon class="cls-12" points="194.02 525.99 234.09 502.86 234.09 477.14 194.02 500.28 194.02 525.99"/><g class="cls-1"><polygon class="cls-13" points="341.18 325.06 178.04 419.86 13.83 325.06 176.97 230.25 341.18 325.06"/><polygon class="cls-14" points="341.18 325.06 339.82 387.26 176.68 482.07 178.04 419.86 341.18 325.06"/><polygon class="cls-15" points="178.04 419.86 176.68 482.07 12.47 387.26 13.83 325.06 178.04 419.86"/></g><g class="cls-1"><polygon class="cls-16" points="338.41 317.09 338.38 329.38 176.27 235.79 176.31 223.5 338.41 317.09"/><polygon class="cls-17" points="176.31 223.5 176.27 235.79 15.24 329.38 15.27 317.08 176.31 223.5"/><path class="cls-18" d="M176.27,214.67,353.65,317.08,177.41,419.5,0,317.09Zm1.1,196,161-93.58L176.31,223.5l-161,93.58,162.1,93.59"/><polygon class="cls-8" points="353.65 317.08 353.61 329.38 177.38 431.8 177.41 419.5 353.65 317.08"/><polygon class="cls-9" points="177.41 419.5 177.38 431.8 0 329.39 0.04 317.09 177.41 419.5"/></g><polygon class="cls-19" points="290 399.02 330.07 375.89 330.07 350.17 290 373.31 290 399.02"/><polygon class="cls-20" points="242.01 426.73 282.08 403.59 282.08 377.88 242.01 401.01 242.01 426.73"/><polygon class="cls-21" points="194.02 454.44 234.09 431.3 234.09 405.59 194.02 428.72 194.02 454.44"/><g class="cls-1"><polygon class="cls-22" points="341.18 253.5 178.04 348.31 13.83 253.5 176.97 158.69 341.18 253.5"/><polygon class="cls-23" points="341.18 253.5 339.82 315.7 176.68 410.51 178.04 348.31 341.18 253.5"/><polygon class="cls-24" points="178.04 348.31 176.68 410.51 12.47 315.7 13.83 253.5 178.04 348.31"/></g><g class="cls-1"><polygon class="cls-25" points="338.41 245.53 338.38 257.83 176.27 164.24 176.31 151.94 338.41 245.53"/><polygon class="cls-26" points="176.31 151.94 176.27 164.24 15.24 257.82 15.27 245.53 176.31 151.94"/><path class="cls-27" d="M176.27,143.12l177.38,102.4L177.41,347.94,0,245.53Zm1.1,196,161-93.59-162.1-93.59-161,93.58,162.1,93.6"/><polygon class="cls-8" points="353.65 245.52 353.61 257.82 177.38 360.24 177.41 347.94 353.65 245.52"/><polygon class="cls-9" points="177.41 347.94 177.38 360.24 0 257.83 0.04 245.53 177.41 347.94"/></g><polygon class="cls-28" points="290 327.46 330.07 304.33 330.07 278.62 290 301.75 290 327.46"/><polygon class="cls-29" points="242.01 355.17 282.08 332.04 282.08 306.32 242.01 329.46 242.01 355.17"/><polygon class="cls-30" points="194.02 382.88 234.09 359.74 234.09 334.03 194.02 357.16 194.02 382.88"/><g class="cls-1"><polygon class="cls-31" points="341.18 181.94 178.04 276.75 13.83 181.94 176.97 87.13 341.18 181.94"/><polygon class="cls-32" points="341.18 181.94 339.82 244.14 176.68 338.95 178.04 276.75 341.18 181.94"/><polygon class="cls-33" points="178.04 276.75 176.68 338.95 12.47 244.15 13.83 181.94 178.04 276.75"/></g><g class="cls-1"><polygon class="cls-34" points="338.41 173.97 338.38 186.27 176.27 92.68 176.31 80.38 338.41 173.97"/><polygon class="cls-35" points="176.31 80.38 176.27 92.68 15.24 186.26 15.27 173.97 176.31 80.38"/><path class="cls-36" d="M176.27,71.56,353.65,174,177.41,276.38,0,174Zm1.1,196,161-93.59L176.31,80.38,15.27,174l162.1,93.59"/><polygon class="cls-8" points="353.65 173.97 353.61 186.26 177.38 288.68 177.41 276.38 353.65 173.97"/><polygon class="cls-9" points="177.41 276.38 177.38 288.68 0 186.27 0.04 173.98 177.41 276.38"/></g><polygon class="cls-37" points="290 255.91 330.07 232.77 330.07 207.06 290 230.19 290 255.91"/><polygon class="cls-38" points="242.01 283.61 282.08 260.48 282.08 234.76 242.01 257.9 242.01 283.61"/><polygon class="cls-39" points="194.02 311.32 234.09 288.19 234.09 262.47 194.02 285.61 194.02 311.32"/><g class="cls-1"><polygon class="cls-40" points="341.18 110.38 178.04 205.19 13.83 110.38 176.97 15.58 341.18 110.38"/><polygon class="cls-41" points="341.18 110.38 339.82 172.59 176.68 267.39 178.04 205.19 341.18 110.38"/><polygon class="cls-42" points="178.04 205.19 176.68 267.39 12.47 172.59 13.83 110.38 178.04 205.19"/></g><g class="cls-1"><polygon class="cls-43" points="338.41 102.42 338.38 114.71 176.27 21.12 176.31 8.82 338.41 102.42"/><polygon class="cls-44" points="176.31 8.82 176.27 21.12 15.24 114.71 15.27 102.41 176.31 8.82"/><path class="cls-45" d="M176.27,0,353.65,102.41,177.41,204.83,0,102.42Zm1.1,196,161-93.58L176.31,8.83l-161,93.58L177.37,196"/><polygon class="cls-8" points="353.65 102.41 353.61 114.7 177.38 217.12 177.41 204.83 353.65 102.41"/><polygon class="cls-9" points="177.41 204.83 177.38 217.12 0 114.71 0.04 102.42 177.41 204.83"/></g><polygon class="cls-46" points="290 184.35 330.07 161.21 330.07 135.5 290 158.63 290 184.35"/><polygon class="cls-47" points="242.01 212.06 282.08 188.92 282.08 163.21 242.01 186.34 242.01 212.06"/><polygon class="cls-48" points="194.02 239.76 234.09 216.63 234.09 190.91 194.02 214.05 194.02 239.76"/><path class="cls-49" d="M196.05,73.77,165.42,91.45l26.24,15.16L222.3,88.92l17,9.8-75.08,43.35-17-9.8L176,115.64l-26.25-15.16L121,117.12l-17-9.8L179.07,64Z"/></g></g></svg>