<svg xmlns="http://www.w3.org/2000/svg" xmlns:xlink="http://www.w3.org/1999/xlink" viewBox="0 0 336.26 562.65"><defs><style>.cls-1{fill:url(#New_Gradient_Swatch_copy_25);}.cls-2{fill:url(#New_Gradient_Swatch_copy_25-2);}.cls-3{fill:url(#New_Gradient_Swatch_copy_25-3);}.cls-4{fill:url(#New_Gradient_Swatch_copy_25-4);}.cls-5{fill:url(#New_Gradient_Swatch_copy_25-5);}.cls-6{fill:url(#New_Gradient_Swatch_copy_25-6);}.cls-7{fill:url(#New_Gradient_Swatch_copy_25-7);}.cls-8{fill:url(#linear-gradient);}.cls-9{fill:url(#linear-gradient-2);}.cls-10{fill:url(#linear-gradient-3);}.cls-11{fill:url(#linear-gradient-4);}.cls-12{fill:url(#linear-gradient-5);}.cls-13{fill:url(#linear-gradient-6);}.cls-14{fill:url(#linear-gradient-7);}.cls-15{fill:url(#linear-gradient-8);}.cls-16{fill:url(#linear-gradient-9);}.cls-17{fill:url(#linear-gradient-10);}.cls-18{fill:url(#linear-gradient-11);}.cls-19{fill:url(#linear-gradient-12);}.cls-20{fill:url(#linear-gradient-13);}.cls-21{fill:url(#linear-gradient-14);}.cls-22{fill:url(#New_Gradient_Swatch_copy_26);}.cls-23{fill:url(#New_Gradient_Swatch_copy_26-2);}.cls-24{fill:url(#New_Gradient_Swatch_copy_26-3);}.cls-25{fill:url(#New_Gradient_Swatch_copy_26-4);}.cls-26{fill:url(#New_Gradient_Swatch_copy_26-5);}.cls-27{fill:url(#New_Gradient_Swatch_copy_26-6);}.cls-28{fill:url(#New_Gradient_Swatch_copy_26-7);}.cls-29{fill:url(#New_Gradient_Swatch_copy_26-8);}.cls-30{fill:url(#New_Gradient_Swatch_copy_26-9);}.cls-31{fill:url(#New_Gradient_Swatch_copy_26-10);}.cls-32{fill:url(#New_Gradient_Swatch_copy_26-11);}.cls-33{fill:url(#New_Gradient_Swatch_copy_26-12);}.cls-34{fill:url(#New_Gradient_Swatch_copy_26-13);}.cls-35{fill:url(#New_Gradient_Swatch_copy_26-14);}</style><linearGradient id="New_Gradient_Swatch_copy_25" x1="261.77" y1="454.33" x2="564.61" y2="363.65" gradientUnits="userSpaceOnUse"><stop offset="0" stop-color="#25054d"/><stop offset="1" stop-color="#45108a"/></linearGradient><linearGradient id="New_Gradient_Swatch_copy_25-2" x1="366" y1="150.4" x2="254.4" y2="363.08" xlink:href="#New_Gradient_Swatch_copy_25"/><linearGradient id="New_Gradient_Swatch_copy_25-3" x1="220.14" y1="292.2" x2="484.84" y2="212.94" xlink:href="#New_Gradient_Swatch_copy_25"/><linearGradient id="New_Gradient_Swatch_copy_25-4" x1="321.54" y1="25.71" x2="209.98" y2="238.31" xlink:href="#New_Gradient_Swatch_copy_25"/><linearGradient id="New_Gradient_Swatch_copy_25-5" x1="175.96" y1="167.19" x2="440.66" y2="87.93" xlink:href="#New_Gradient_Swatch_copy_25"/><linearGradient id="New_Gradient_Swatch_copy_25-6" x1="-273.02" y1="398.12" x2="480.59" y2="229.18" xlink:href="#New_Gradient_Swatch_copy_25"/><linearGradient id="New_Gradient_Swatch_copy_25-7" x1="230.71" y1="-132.77" x2="116.02" y2="85.82" xlink:href="#New_Gradient_Swatch_copy_25"/><linearGradient id="linear-gradient" x1="228.21" y1="520.67" x2="375.13" y2="0.8" gradientUnits="userSpaceOnUse"><stop offset="0" stop-color="#6628b3"/><stop offset="0.49" stop-color="#7c1dc9"/><stop offset="0.64" stop-color="#9e41b9"/><stop offset="0.95" stop-color="#f29c92"/><stop offset="1" stop-color="#ffa98c"/></linearGradient><linearGradient id="linear-gradient-2" x1="234.14" y1="522.34" x2="381.06" y2="2.47" xlink:href="#linear-gradient"/><linearGradient id="linear-gradient-3" x1="240.06" y1="524.01" x2="386.98" y2="4.15" xlink:href="#linear-gradient"/><linearGradient id="linear-gradient-4" x1="245.99" y1="525.69" x2="392.91" y2="5.82" xlink:href="#linear-gradient"/><linearGradient id="linear-gradient-5" x1="251.91" y1="527.36" x2="398.83" y2="7.5" xlink:href="#linear-gradient"/><linearGradient id="linear-gradient-6" x1="257.83" y1="529.04" x2="404.75" y2="9.17" xlink:href="#linear-gradient"/><linearGradient id="linear-gradient-7" x1="153.76" y1="499.62" x2="300.68" y2="-20.24" xlink:href="#linear-gradient"/><linearGradient id="linear-gradient-8" x1="159.25" y1="501.18" x2="306.17" y2="-18.69" xlink:href="#linear-gradient"/><linearGradient id="linear-gradient-9" x1="164.75" y1="502.73" x2="311.67" y2="-17.14" xlink:href="#linear-gradient"/><linearGradient id="linear-gradient-10" x1="170.24" y1="504.28" x2="317.16" y2="-15.58" xlink:href="#linear-gradient"/><linearGradient id="linear-gradient-11" x1="80.33" y1="478.87" x2="227.25" y2="-40.99" xlink:href="#linear-gradient"/><linearGradient id="linear-gradient-12" x1="85.82" y1="480.43" x2="232.74" y2="-39.44" xlink:href="#linear-gradient"/><linearGradient id="linear-gradient-13" x1="91.32" y1="481.98" x2="238.24" y2="-37.89" xlink:href="#linear-gradient"/><linearGradient id="linear-gradient-14" x1="96.81" y1="483.53" x2="243.73" y2="-36.34" xlink:href="#linear-gradient"/><linearGradient id="New_Gradient_Swatch_copy_26" x1="206.08" y1="504.11" x2="35.3" y2="36.98" gradientUnits="userSpaceOnUse"><stop offset="0.03" stop-color="#7c1dc9"/><stop offset="0.21" stop-color="#6e41d2"/><stop offset="0.62" stop-color="#4c9be8"/><stop offset="1" stop-color="#2af6ff"/></linearGradient><linearGradient id="New_Gradient_Swatch_copy_26-2" x1="198.5" y1="504.39" x2="27.72" y2="37.26" xlink:href="#New_Gradient_Swatch_copy_26"/><linearGradient id="New_Gradient_Swatch_copy_26-3" x1="190.93" y1="504.67" x2="20.15" y2="37.54" xlink:href="#New_Gradient_Swatch_copy_26"/><linearGradient id="New_Gradient_Swatch_copy_26-4" x1="183.35" y1="504.95" x2="12.57" y2="37.82" xlink:href="#New_Gradient_Swatch_copy_26"/><linearGradient id="New_Gradient_Swatch_copy_26-5" x1="173.62" y1="515.98" x2="2.84" y2="48.85" xlink:href="#New_Gradient_Swatch_copy_26"/><linearGradient id="New_Gradient_Swatch_copy_26-6" x1="166.04" y1="516.26" x2="-4.74" y2="49.13" xlink:href="#New_Gradient_Swatch_copy_26"/><linearGradient id="New_Gradient_Swatch_copy_26-7" x1="158.46" y1="516.53" x2="-12.31" y2="49.41" xlink:href="#New_Gradient_Swatch_copy_26"/><linearGradient id="New_Gradient_Swatch_copy_26-8" x1="150.89" y1="516.81" x2="-19.89" y2="49.69" xlink:href="#New_Gradient_Swatch_copy_26"/><linearGradient id="New_Gradient_Swatch_copy_26-9" x1="141.31" y1="527.79" x2="-29.47" y2="60.66" xlink:href="#New_Gradient_Swatch_copy_26"/><linearGradient id="New_Gradient_Swatch_copy_26-10" x1="136.76" y1="537.99" x2="-34.01" y2="70.87" xlink:href="#New_Gradient_Swatch_copy_26"/><linearGradient id="New_Gradient_Swatch_copy_26-11" x1="132.22" y1="548.2" x2="-38.56" y2="81.07" xlink:href="#New_Gradient_Swatch_copy_26"/><linearGradient id="New_Gradient_Swatch_copy_26-12" x1="127.67" y1="558.4" x2="-43.1" y2="91.28" xlink:href="#New_Gradient_Swatch_copy_26"/><linearGradient id="New_Gradient_Swatch_copy_26-13" x1="123.13" y1="568.61" x2="-47.65" y2="101.48" xlink:href="#New_Gradient_Swatch_copy_26"/><linearGradient id="New_Gradient_Swatch_copy_26-14" x1="118.58" y1="578.81" x2="-52.19" y2="111.68" xlink:href="#New_Gradient_Swatch_copy_26"/></defs><g id="Layer_2" data-name="Layer 2"><g id="_Layer_" data-name="&lt;Layer&gt;"><polygon class="cls-1" points="233.31 562.65 336.26 503.96 336.26 332.23 233.31 390.92 233.31 562.65"/><polygon class="cls-2" points="187.72 364.99 233.35 390.92 336.26 332.23 292.07 305.76 187.72 364.99"/><polygon class="cls-3" points="188.78 365.22 291.74 306.54 291.74 207.13 188.78 265.82 188.78 365.22"/><polygon class="cls-4" points="143.75 239.9 188.86 266.1 291.74 207.13 247.41 180.9 143.75 239.9"/><polygon class="cls-5" points="144.6 240.21 247.56 181.52 247.56 82.12 144.6 140.81 144.6 240.21"/><polygon class="cls-6" points="188.83 365.12 188.83 265.82 144.65 240.21 144.65 140.8 0.62 58.74 0 225.35 0 428.02 233.35 562.65 233.35 390.92 188.83 365.12"/><polygon class="cls-7" points="0.62 58.74 144.65 140.81 247.56 82.11 103.45 0 0.62 58.74"/><polygon class="cls-8" points="216.57 396.48 233.37 406.14 318.72 356.74 318.72 365.82 233.37 415.21 216.57 405.55 216.57 396.48"/><polygon class="cls-9" points="216.57 419.11 233.37 428.77 318.72 379.38 318.72 388.46 233.37 437.85 216.57 428.19 216.57 419.11"/><polygon class="cls-10" points="216.57 441.75 233.37 451.41 318.72 402.02 318.72 411.09 233.37 460.49 216.57 450.82 216.57 441.75"/><polygon class="cls-11" points="216.57 464.38 233.37 474.05 318.72 424.65 318.72 433.73 233.37 483.12 216.57 473.46 216.57 464.38"/><polygon class="cls-12" points="216.57 487.02 233.37 496.68 318.72 447.29 318.72 456.37 233.37 505.76 216.57 496.1 216.57 487.02"/><polygon class="cls-13" points="216.57 509.66 233.37 519.32 318.72 469.93 318.72 479 233.37 528.39 216.57 518.73 216.57 509.66"/><polygon class="cls-14" points="171.71 270.7 188.51 280.36 273.86 230.97 273.86 240.05 188.51 289.44 171.71 279.78 171.71 270.7"/><polygon class="cls-15" points="171.71 291.7 188.51 301.36 273.86 251.97 273.86 261.05 188.51 310.44 171.71 300.78 171.71 291.7"/><polygon class="cls-16" points="171.71 312.7 188.51 322.36 273.86 272.97 273.86 282.04 188.51 331.44 171.71 321.77 171.71 312.7"/><polygon class="cls-17" points="171.71 333.7 188.51 343.36 273.86 293.96 273.86 303.04 188.51 352.43 171.71 342.77 171.71 333.7"/><polygon class="cls-18" points="127.86 145.27 144.67 154.93 230.02 105.54 230.02 114.61 144.67 164.01 127.86 154.34 127.86 145.27"/><polygon class="cls-19" points="127.86 166.26 144.67 175.93 230.02 126.53 230.02 135.61 144.67 185 127.86 175.34 127.86 166.26"/><polygon class="cls-20" points="127.86 187.26 144.67 196.93 230.02 147.53 230.02 156.61 144.67 206 127.86 196.34 127.86 187.26"/><polygon class="cls-21" points="127.86 208.26 144.67 217.92 230.02 168.53 230.02 177.61 144.67 227 127.86 217.34 127.86 208.26"/><polygon class="cls-22" points="15.72 82.47 110.95 135.79 110.95 144.87 15.72 91.55 15.72 82.47"/><polygon class="cls-23" points="15.72 103.47 110.95 156.79 110.95 165.87 15.72 112.55 15.72 103.47"/><polygon class="cls-24" points="15.72 124.47 110.95 177.79 110.95 186.87 15.72 133.54 15.72 124.47"/><polygon class="cls-25" points="15.72 145.47 110.95 198.79 110.95 207.86 15.72 154.54 15.72 145.47"/><polygon class="cls-26" points="15.72 183.13 110.95 236.45 110.95 245.53 15.72 192.21 15.72 183.13"/><polygon class="cls-27" points="15.72 204.13 110.95 257.45 110.95 266.52 15.72 213.2 15.72 204.13"/><polygon class="cls-28" points="15.72 225.13 110.95 278.44 110.95 287.52 15.72 234.2 15.72 225.13"/><polygon class="cls-29" points="15.72 246.12 110.95 299.44 110.95 308.52 15.72 255.2 15.72 246.12"/><polygon class="cls-30" points="15.72 283.31 110.95 336.63 110.95 345.7 15.72 292.38 15.72 283.31"/><polygon class="cls-31" points="15.72 305.94 110.95 359.26 110.95 368.34 15.72 315.02 15.72 305.94"/><polygon class="cls-32" points="15.72 328.58 110.95 381.9 110.95 390.98 15.72 337.66 15.72 328.58"/><polygon class="cls-33" points="15.72 351.22 110.95 404.54 110.95 413.62 15.72 360.29 15.72 351.22"/><polygon class="cls-34" points="15.72 373.85 110.95 427.17 110.95 436.25 15.72 382.93 15.72 373.85"/><polygon class="cls-35" points="15.72 396.49 110.95 449.81 110.95 458.89 15.72 405.57 15.72 396.49"/></g></g></svg>