<svg xmlns="http://www.w3.org/2000/svg" xmlns:xlink="http://www.w3.org/1999/xlink" viewBox="0 0 282.42 908.04"><defs><style>.cls-1{fill:url(#Gradiente_sem_nome_33);}.cls-2{fill:url(#New_Gradient_Swatch_copy_25);}.cls-3{fill:url(#New_Gradient_Swatch_copy_25-2);}.cls-4{fill:url(#Gradiente_sem_nome_33-2);}.cls-5{fill:url(#New_Gradient_Swatch_copy_25-3);}.cls-6{fill:url(#New_Gradient_Swatch_copy_25-4);}.cls-7{fill:url(#Gradiente_sem_nome_33-3);}.cls-8{fill:url(#New_Gradient_Swatch_copy_25-5);}.cls-9{fill:url(#New_Gradient_Swatch_copy_25-6);}.cls-10{fill:url(#Gradiente_sem_nome_33-4);}.cls-11{fill:url(#New_Gradient_Swatch_copy_25-7);}.cls-12{fill:url(#New_Gradient_Swatch_copy_25-8);}.cls-13{fill:url(#Gradiente_sem_nome_33-5);}.cls-14{fill:url(#New_Gradient_Swatch_copy_25-9);}.cls-15{fill:url(#New_Gradient_Swatch_copy_25-10);}.cls-16{fill:url(#Gradiente_sem_nome_33-6);}.cls-17{fill:url(#New_Gradient_Swatch_copy_25-11);}.cls-18{fill:url(#New_Gradient_Swatch_copy_25-12);}.cls-19{fill:url(#Gradiente_sem_nome_33-7);}.cls-20{fill:url(#New_Gradient_Swatch_copy_25-13);}.cls-21{fill:url(#New_Gradient_Swatch_copy_25-14);}.cls-22{fill:url(#Gradiente_sem_nome_33-8);}.cls-23{fill:url(#New_Gradient_Swatch_copy_25-15);}.cls-24{fill:url(#New_Gradient_Swatch_copy_25-16);}.cls-25{fill:url(#Gradiente_sem_nome_33-9);}.cls-26{fill:url(#New_Gradient_Swatch_copy_25-17);}.cls-27{fill:url(#New_Gradient_Swatch_copy_25-18);}.cls-28{fill:url(#New_Gradient_Swatch_copy_25-19);}.cls-29{fill:url(#New_Gradient_Swatch_copy_25-20);}.cls-30{fill:url(#New_Gradient_Swatch_copy_25-21);}.cls-31{fill:url(#Gradiente_sem_nome_33-10);}.cls-32{fill:url(#Gradiente_sem_nome_33-11);}.cls-33{fill:url(#New_Gradient_Swatch_copy_25-22);}.cls-34{fill:url(#New_Gradient_Swatch_copy_25-23);}.cls-35{fill:url(#linear-gradient);}.cls-36{fill:#000d16;}.cls-37{fill:url(#linear-gradient-2);}.cls-38{fill:url(#New_Gradient_Swatch_copy_25-24);}.cls-39{fill:url(#Gradiente_sem_nome_33-12);}</style><linearGradient id="Gradiente_sem_nome_33" x1="2.64" y1="756.77" x2="278.86" y2="756.77" gradientUnits="userSpaceOnUse"><stop offset="0" stop-color="#006581"/><stop offset="0.19" stop-color="#096d89"/><stop offset="0.49" stop-color="#21839f"/><stop offset="0.88" stop-color="#47a7c2"/><stop offset="1" stop-color="#55b4ce"/></linearGradient><linearGradient id="New_Gradient_Swatch_copy_25" x1="250.35" y1="739.29" x2="314.36" y2="740.74" gradientUnits="userSpaceOnUse"><stop offset="0" stop-color="#25054d"/><stop offset="1" stop-color="#45108a"/></linearGradient><linearGradient id="New_Gradient_Swatch_copy_25-2" x1="1.06" y1="820.35" x2="276.62" y2="826.59" xlink:href="#New_Gradient_Swatch_copy_25"/><linearGradient id="Gradiente_sem_nome_33-2" x1="2.64" y1="679.82" x2="278.86" y2="679.82" xlink:href="#Gradiente_sem_nome_33"/><linearGradient id="New_Gradient_Swatch_copy_25-3" x1="250.4" y1="662.34" x2="314.31" y2="663.79" xlink:href="#New_Gradient_Swatch_copy_25"/><linearGradient id="New_Gradient_Swatch_copy_25-4" x1="1.06" y1="743.41" x2="276.62" y2="749.64" xlink:href="#New_Gradient_Swatch_copy_25"/><linearGradient id="Gradiente_sem_nome_33-3" x1="2.64" y1="602.88" x2="278.86" y2="602.88" xlink:href="#Gradiente_sem_nome_33"/><linearGradient id="New_Gradient_Swatch_copy_25-5" x1="250.35" y1="585.39" x2="314.36" y2="586.84" xlink:href="#New_Gradient_Swatch_copy_25"/><linearGradient id="New_Gradient_Swatch_copy_25-6" x1="1.06" y1="666.46" x2="276.62" y2="672.7" xlink:href="#New_Gradient_Swatch_copy_25"/><linearGradient id="Gradiente_sem_nome_33-4" x1="2.64" y1="525.93" x2="278.86" y2="525.93" xlink:href="#Gradiente_sem_nome_33"/><linearGradient id="New_Gradient_Swatch_copy_25-7" x1="250.4" y1="508.44" x2="314.31" y2="509.89" xlink:href="#New_Gradient_Swatch_copy_25"/><linearGradient id="New_Gradient_Swatch_copy_25-8" x1="1.06" y1="589.51" x2="276.62" y2="595.75" xlink:href="#New_Gradient_Swatch_copy_25"/><linearGradient id="Gradiente_sem_nome_33-5" x1="2.64" y1="448.98" x2="278.86" y2="448.98" xlink:href="#Gradiente_sem_nome_33"/><linearGradient id="New_Gradient_Swatch_copy_25-9" x1="250.35" y1="431.49" x2="314.36" y2="432.94" xlink:href="#New_Gradient_Swatch_copy_25"/><linearGradient id="New_Gradient_Swatch_copy_25-10" x1="1.06" y1="512.56" x2="276.62" y2="518.8" xlink:href="#New_Gradient_Swatch_copy_25"/><linearGradient id="Gradiente_sem_nome_33-6" x1="2.64" y1="372.03" x2="278.86" y2="372.03" xlink:href="#Gradiente_sem_nome_33"/><linearGradient id="New_Gradient_Swatch_copy_25-11" x1="250.4" y1="354.55" x2="314.31" y2="355.99" xlink:href="#New_Gradient_Swatch_copy_25"/><linearGradient id="New_Gradient_Swatch_copy_25-12" x1="1.06" y1="435.61" x2="276.62" y2="441.85" xlink:href="#New_Gradient_Swatch_copy_25"/><linearGradient id="Gradiente_sem_nome_33-7" x1="2.64" y1="295.08" x2="278.86" y2="295.08" xlink:href="#Gradiente_sem_nome_33"/><linearGradient id="New_Gradient_Swatch_copy_25-13" x1="250.35" y1="277.6" x2="314.36" y2="279.05" xlink:href="#New_Gradient_Swatch_copy_25"/><linearGradient id="New_Gradient_Swatch_copy_25-14" x1="1.06" y1="358.66" x2="276.62" y2="364.9" xlink:href="#New_Gradient_Swatch_copy_25"/><linearGradient id="Gradiente_sem_nome_33-8" x1="2.64" y1="218.13" x2="278.86" y2="218.13" xlink:href="#Gradiente_sem_nome_33"/><linearGradient id="New_Gradient_Swatch_copy_25-15" x1="250.4" y1="200.65" x2="314.31" y2="202.1" xlink:href="#New_Gradient_Swatch_copy_25"/><linearGradient id="New_Gradient_Swatch_copy_25-16" x1="1.06" y1="281.71" x2="276.62" y2="287.95" xlink:href="#New_Gradient_Swatch_copy_25"/><linearGradient id="Gradiente_sem_nome_33-9" x1="2.64" y1="141.18" x2="278.86" y2="141.18" xlink:href="#Gradiente_sem_nome_33"/><linearGradient id="New_Gradient_Swatch_copy_25-17" x1="250.35" y1="123.7" x2="314.36" y2="125.15" xlink:href="#New_Gradient_Swatch_copy_25"/><linearGradient id="New_Gradient_Swatch_copy_25-18" x1="1.06" y1="204.77" x2="276.62" y2="211" xlink:href="#New_Gradient_Swatch_copy_25"/><linearGradient id="New_Gradient_Swatch_copy_25-19" x1="247.13" y1="98.8" x2="305.53" y2="100.12" xlink:href="#New_Gradient_Swatch_copy_25"/><linearGradient id="New_Gradient_Swatch_copy_25-20" x1="-30.05" y1="186.08" x2="304.84" y2="55.15" xlink:href="#New_Gradient_Swatch_copy_25"/><linearGradient id="New_Gradient_Swatch_copy_25-21" x1="-56.17" y1="304.89" x2="278.26" y2="23.48" xlink:href="#New_Gradient_Swatch_copy_25"/><linearGradient id="Gradiente_sem_nome_33-10" x1="8.69" y1="83.43" x2="272.5" y2="83.43" xlink:href="#Gradiente_sem_nome_33"/><linearGradient id="Gradiente_sem_nome_33-11" x1="66.96" y1="62.28" x2="214.96" y2="62.28" xlink:href="#Gradiente_sem_nome_33"/><linearGradient id="New_Gradient_Swatch_copy_25-22" x1="201.6" y1="52.96" x2="232.07" y2="53.65" xlink:href="#New_Gradient_Swatch_copy_25"/><linearGradient id="New_Gradient_Swatch_copy_25-23" x1="65.83" y1="109.02" x2="214.04" y2="112.37" xlink:href="#New_Gradient_Swatch_copy_25"/><linearGradient id="linear-gradient" x1="122.35" y1="136.66" x2="126.72" y2="136.66" gradientUnits="userSpaceOnUse"><stop offset="0" stop-color="#00e5ff"/><stop offset="1" stop-color="#c0f"/></linearGradient><linearGradient id="linear-gradient-2" x1="248.51" y1="64.26" x2="252.87" y2="64.26" xlink:href="#linear-gradient"/><linearGradient id="New_Gradient_Swatch_copy_25-24" x1="7.53" y1="154.65" x2="270.36" y2="160.6" xlink:href="#New_Gradient_Swatch_copy_25"/><linearGradient id="Gradiente_sem_nome_33-12" x1="8.6" y1="145.18" x2="272.98" y2="145.18" xlink:href="#Gradiente_sem_nome_33"/></defs><g id="Layer_2" data-name="Layer 2"><g id="_Layer_" data-name="&lt;Layer&gt;"><path class="cls-1" d="M273.81,753.2,135,833.33c-12.76,7.36-35,6.44-49.77-2.07L12.19,789.08c-14.73-8.5-16.33-21.37-3.58-28.73L147.4,680.22c12.76-7.37,35-6.45,49.77,2.06l73.07,42.18C285,733,286.57,745.83,273.81,753.2Z"/><path class="cls-2" d="M282.36,740.08V740h0Z"/><path class="cls-3" d="M273.81,753.2,135,833.33c-12.76,7.36-35,6.44-49.77-2.07L12.19,789.08c-7.11-4.1-11.12-9.21-12-14.23v65.72c-1.1,6.21,3,13,12,18.25L85.25,901c14.74,8.51,37,9.43,49.78,2.06l138.78-80.12c6.1-3.52,8.88-8.3,8.55-13.25V741.57C282,745.93,279.24,750.07,273.81,753.2Z"/><path class="cls-4" d="M273.81,676.25,135,756.38c-12.76,7.36-35,6.44-49.77-2.06L12.19,712.13c-14.73-8.5-16.33-21.37-3.58-28.73L147.4,603.27c12.76-7.37,35-6.44,49.77,2.06l73.07,42.18C285,656,286.57,668.88,273.81,676.25Z"/><path class="cls-5" d="M282.36,663.13V663h0Z"/><path class="cls-6" d="M273.81,676.25,135,756.38c-12.76,7.36-35,6.44-49.77-2.06L12.19,712.13C5.08,708,1.07,702.92.21,697.9v65.72c-1.1,6.21,3,13,12,18.25l73.06,42.18c14.74,8.51,37,9.43,49.78,2.07L273.81,746c6.1-3.52,8.88-8.3,8.55-13.25V664.62C282,669,279.24,673.12,273.81,676.25Z"/><path class="cls-7" d="M273.81,599.3,135,679.43c-12.76,7.37-35,6.44-49.77-2.06L12.19,635.18c-14.73-8.5-16.33-21.37-3.58-28.73L147.4,526.32c12.76-7.37,35-6.44,49.77,2.06l73.07,42.19C285,579.07,286.57,591.94,273.81,599.3Z"/><path class="cls-8" d="M282.36,586.18v-.12h0Z"/><path class="cls-9" d="M273.81,599.3,135,679.43c-12.76,7.37-35,6.44-49.77-2.06L12.19,635.18C5.08,631.08,1.07,626,.21,621v65.73c-1.1,6.21,3,13,12,18.24L85.25,747.1c14.74,8.51,37,9.43,49.78,2.07L273.81,669c6.1-3.52,8.88-8.3,8.55-13.25V587.67C282,592,279.24,596.17,273.81,599.3Z"/><path class="cls-10" d="M273.81,522.35,135,602.48c-12.76,7.37-35,6.44-49.77-2.06L12.19,558.24c-14.73-8.51-16.33-21.37-3.58-28.74L147.4,449.37c12.76-7.36,35-6.44,49.77,2.06l73.07,42.19C285,502.12,286.57,515,273.81,522.35Z"/><path class="cls-11" d="M282.36,509.23v-.12h0Z"/><path class="cls-12" d="M273.81,522.35,135,602.48c-12.76,7.37-35,6.44-49.77-2.06L12.19,558.24C5.08,554.14,1.07,549,.21,544v65.73c-1.1,6.21,3,13,12,18.24l73.06,42.19c14.74,8.5,37,9.42,49.78,2.06l138.78-80.13c6.1-3.52,8.88-8.29,8.55-13.25V510.72C282,515.09,279.24,519.22,273.81,522.35Z"/><path class="cls-13" d="M273.81,445.4,135,525.53c-12.76,7.37-35,6.44-49.77-2.06L12.19,481.29c-14.73-8.51-16.33-21.37-3.58-28.74L147.4,372.42c12.76-7.36,35-6.44,49.77,2.07l73.07,42.18C285,425.17,286.57,438,273.81,445.4Z"/><path class="cls-14" d="M282.36,432.28v-.12h0Z"/><path class="cls-15" d="M273.81,445.4,135,525.53c-12.76,7.37-35,6.44-49.77-2.06L12.19,481.29c-7.11-4.1-11.12-9.22-12-14.24v65.73c-1.1,6.21,3,13,12,18.24l73.06,42.19c14.74,8.5,37,9.43,49.78,2.06l138.78-80.13c6.1-3.52,8.88-8.29,8.55-13.25V433.77C282,438.14,279.24,442.27,273.81,445.4Z"/><path class="cls-16" d="M273.81,368.46,135,448.58c-12.76,7.37-35,6.45-49.77-2.06L12.19,404.34C-2.54,395.83-4.14,383,8.61,375.6L147.4,295.47c12.76-7.36,35-6.44,49.77,2.07l73.07,42.18C285,348.22,286.57,361.09,273.81,368.46Z"/><path class="cls-17" d="M282.36,355.33v-.12h0Z"/><path class="cls-18" d="M273.81,368.46,135,448.58c-12.76,7.37-35,6.45-49.77-2.06L12.19,404.34c-7.11-4.1-11.12-9.21-12-14.24v65.73c-1.1,6.21,3,13,12,18.25l73.06,42.18c14.74,8.5,37,9.43,49.78,2.06l138.78-80.13c6.1-3.52,8.88-8.29,8.55-13.25V356.83C282,361.19,279.24,365.32,273.81,368.46Z"/><path class="cls-19" d="M273.81,291.51,135,371.64c-12.76,7.36-35,6.44-49.77-2.07L12.19,327.39C-2.54,318.89-4.14,306,8.61,298.65L147.4,218.52c12.76-7.36,35-6.44,49.77,2.07l73.07,42.18C285,271.28,286.57,284.14,273.81,291.51Z"/><path class="cls-20" d="M282.36,278.38v-.12h0Z"/><path class="cls-21" d="M273.81,291.51,135,371.64c-12.76,7.36-35,6.44-49.77-2.07L12.19,327.39c-7.11-4.1-11.12-9.21-12-14.24v65.73c-1.1,6.21,3,13,12,18.25l73.06,42.18c14.74,8.5,37,9.43,49.78,2.06l138.78-80.13c6.1-3.52,8.88-8.29,8.55-13.24V279.88C282,284.24,279.24,288.37,273.81,291.51Z"/><path class="cls-22" d="M273.81,214.56,135,294.69c-12.76,7.36-35,6.44-49.77-2.07L12.19,250.44c-14.73-8.5-16.33-21.37-3.58-28.73L147.4,141.58c12.76-7.37,35-6.45,49.77,2.06l73.07,42.18C285,194.33,286.57,207.19,273.81,214.56Z"/><path class="cls-23" d="M282.36,201.43v-.12h0Z"/><path class="cls-24" d="M273.81,214.56,135,294.69c-12.76,7.36-35,6.44-49.77-2.07L12.19,250.44c-7.11-4.1-11.12-9.21-12-14.23v65.72c-1.1,6.21,3,13,12,18.25l73.06,42.18c14.74,8.51,37,9.43,49.78,2.06l138.78-80.13c6.1-3.51,8.88-8.29,8.55-13.24V202.93C282,207.29,279.24,211.42,273.81,214.56Z"/><path class="cls-25" d="M273.81,137.61,135,217.74c-12.76,7.36-35,6.44-49.77-2.06L12.19,173.49C-2.54,165-4.14,152.12,8.61,144.76L147.4,64.63c12.76-7.37,35-6.44,49.77,2.06l73.07,42.18C285,117.38,286.57,130.24,273.81,137.61Z"/><path class="cls-26" d="M282.36,124.49v-.13h0Z"/><path class="cls-27" d="M273.81,137.61,135,217.74c-12.76,7.36-35,6.44-49.77-2.06L12.19,173.49c-7.11-4.1-11.12-9.21-12-14.23V225c-1.1,6.21,3,13.05,12,18.25l73.06,42.18c14.74,8.51,37,9.43,49.78,2.07l138.78-80.13c6.1-3.52,8.88-8.3,8.55-13.25V126C282,130.34,279.24,134.48,273.81,137.61Z"/><path class="cls-28" d="M276.33,99.52V99.4h0Z"/><path class="cls-29" d="M268.14,115.7,135.29,192.41c-12.22,7.05-33.55,6.16-47.65-2L17.7,150.05c-14.1-8.14-15.64-20.46-3.42-27.51l132.86-76.7c12.21-7.06,33.54-6.17,47.64,2l69.94,40.38C278.83,96.33,280.36,108.65,268.14,115.7Z"/><path class="cls-30" d="M268.14,135.38,135.29,212.09c-12.22,7-33.55,6.16-47.65-2L17.7,169.73c-14.1-8.14-15.64-20.46-3.42-27.51l132.86-76.7c12.21-7,33.54-6.17,47.64,2l69.94,40.38C278.83,116,280.36,128.33,268.14,135.38Z"/><path class="cls-31" d="M16.09,122.06,149,45.35c4.77-2.76,11.48-4.27,18.88-4.27,9.1,0,18.26,2.28,25.14,6.25l69.94,40.38c4.66,2.69,7.84,5.88,9.16,9.11h3.83c-1.27-4.36-5-8.7-11.18-12.25L194.78,44.19c-14.1-8.14-35.43-9-47.64-2L14.28,118.92c-4.93,2.85-7.58,6.55-8.11,10.49H9.8C10.49,126,13.51,123.55,16.09,122.06Z"/><path class="cls-32" d="M212.26,60.37,137.89,103.3c-6.83,4-18.77,3.45-26.66-1.1L72.08,79.59C64.19,75,63.33,68.14,70.16,64.2l74.37-42.94c6.83-3.94,18.77-3.45,26.66,1.11L210.34,45C218.24,49.53,219.09,56.42,212.26,60.37Z"/><path class="cls-33" d="M216.84,53.34v-.07h0Z"/><path class="cls-34" d="M212.26,60.37,137.89,103.3c-6.83,4-18.77,3.45-26.66-1.1L72.08,79.59c-3.81-2.19-6-4.93-6.42-7.62v60.56c-.59,3.33,1.59,7,6.42,9.78l39.15,22.6c7.89,4.56,19.83,5.05,26.67,1.11l74.36-42.94c3.27-1.88,4.76-4.44,4.58-7.1V54.14C216.67,56.48,215.17,58.69,212.26,60.37Z"/><polygon class="cls-35" points="126.72 198.39 122.35 200.81 122.35 74.94 126.72 72.52 126.72 198.39"/><polygon class="cls-36" points="117.98 198.28 122.35 200.81 122.35 74.94 117.98 72.41 117.98 198.28"/><polygon class="cls-37" points="252.87 125.98 248.51 128.41 248.51 2.54 252.87 0.11 252.87 125.98"/><polygon class="cls-36" points="244.14 125.87 248.51 128.41 248.51 2.54 244.14 0 244.14 125.87"/><path class="cls-38" d="M268.14,112.08,135.29,188.79c-12.22,7.05-33.55,6.16-47.65-2L17.7,146.43c-6.8-3.93-10.65-8.82-11.47-13.63v19.47c-1.05,5.94,2.85,12.48,11.47,17.46l70,40.38c14.1,8.14,35.43,9,47.64,2l132.86-76.71c5.83-3.37,8.5-7.94,8.18-12.68V101C276,105.12,273.34,109.08,268.14,112.08Z"/><path class="cls-39" d="M272.07,96.82a8.63,8.63,0,0,1,.7,3.31c0,4.21-3.5,7.12-6.44,8.81L133.47,185.65c-4.77,2.76-11.48,4.27-18.88,4.27-9.1,0-18.26-2.27-25.14-6.25L19.51,143.29c-6.26-3.61-9.86-8.14-9.86-12.42a7.69,7.69,0,0,1,.15-1.46H6.17c-.79,5.82,3.11,12.16,11.53,17l69.94,40.38c14.1,8.14,35.43,9,47.65,2l132.85-76.71c6.89-4,9.4-9.63,7.76-15.26Z"/></g></g></svg>