<svg xmlns="http://www.w3.org/2000/svg" xmlns:xlink="http://www.w3.org/1999/xlink" viewBox="0 0 287.55 622.7"><defs><style>.cls-1{fill:url(#New_Gradient_Swatch_copy_25);}.cls-2{fill:url(#New_Gradient_Swatch_copy_25-2);}.cls-3{fill:url(#linear-gradient);}.cls-4{fill:url(#New_Gradient_Swatch_copy_26);}.cls-5{fill:url(#New_Gradient_Swatch_copy_26-2);}.cls-6{fill:url(#New_Gradient_Swatch_copy_26-3);}.cls-7{fill:url(#New_Gradient_Swatch_copy_26-4);}.cls-8{fill:url(#New_Gradient_Swatch_copy_26-5);}.cls-9{fill:url(#New_Gradient_Swatch_copy_26-6);}.cls-10{fill:url(#New_Gradient_Swatch_copy_26-7);}.cls-11{fill:url(#New_Gradient_Swatch_copy_26-8);}.cls-12{fill:url(#New_Gradient_Swatch_copy_26-9);}.cls-13{fill:url(#New_Gradient_Swatch_copy_26-10);}.cls-14{fill:url(#New_Gradient_Swatch_copy_26-11);}.cls-15{fill:url(#New_Gradient_Swatch_copy_26-12);}.cls-16{fill:url(#New_Gradient_Swatch_copy_26-13);}.cls-17{fill:url(#New_Gradient_Swatch_copy_26-14);}.cls-18{fill:url(#New_Gradient_Swatch_copy_26-15);}.cls-19{fill:url(#New_Gradient_Swatch_copy_26-16);}.cls-20{fill:url(#New_Gradient_Swatch_copy_26-17);}.cls-21{fill:url(#New_Gradient_Swatch_copy_26-18);}.cls-22{fill:url(#New_Gradient_Swatch_copy_26-19);}.cls-23{fill:url(#New_Gradient_Swatch_copy_26-20);}.cls-24{fill:url(#New_Gradient_Swatch_copy_26-21);}.cls-25{fill:url(#New_Gradient_Swatch_copy_26-22);}.cls-26{fill:url(#New_Gradient_Swatch_copy_26-23);}.cls-27{fill:url(#New_Gradient_Swatch_copy_26-24);}.cls-28{fill:url(#New_Gradient_Swatch_copy_26-25);}.cls-29{fill:url(#New_Gradient_Swatch_copy_26-26);}.cls-30{fill:url(#New_Gradient_Swatch_copy_26-27);}.cls-31{fill:url(#New_Gradient_Swatch_copy_26-28);}.cls-32{fill:url(#New_Gradient_Swatch_copy_26-29);}.cls-33{fill:url(#New_Gradient_Swatch_copy_26-30);}.cls-34{fill:url(#New_Gradient_Swatch_copy_26-31);}.cls-35{fill:url(#New_Gradient_Swatch_copy_26-32);}.cls-36{fill:url(#New_Gradient_Swatch_copy_25-3);}.cls-37{fill:url(#New_Gradient_Swatch_copy_25-4);}.cls-38{fill:url(#New_Gradient_Swatch_copy_25-5);}.cls-39{fill:url(#linear-gradient-2);}</style><linearGradient id="New_Gradient_Swatch_copy_25" x1="174.13" y1="365.25" x2="713.67" y2="203.7" gradientUnits="userSpaceOnUse"><stop offset="0" stop-color="#25054d"/><stop offset="1" stop-color="#45108a"/></linearGradient><linearGradient id="New_Gradient_Swatch_copy_25-2" x1="-273.92" y1="430.44" x2="432.07" y2="272.18" xlink:href="#New_Gradient_Swatch_copy_25"/><linearGradient id="linear-gradient" x1="293.57" y1="-202.18" x2="132.43" y2="104.92" gradientUnits="userSpaceOnUse"><stop offset="0.74" stop-color="#45108a"/><stop offset="1" stop-color="#3746a3"/></linearGradient><linearGradient id="New_Gradient_Swatch_copy_26" x1="70.74" y1="518.69" x2="70.74" y2="158.4" gradientUnits="userSpaceOnUse"><stop offset="0.03" stop-color="#7c1dc9"/><stop offset="0.21" stop-color="#6e41d2"/><stop offset="0.62" stop-color="#4c9be8"/><stop offset="1" stop-color="#2af6ff"/></linearGradient><linearGradient id="New_Gradient_Swatch_copy_26-2" x1="70.74" y1="522.36" x2="70.74" y2="162.07" xlink:href="#New_Gradient_Swatch_copy_26"/><linearGradient id="New_Gradient_Swatch_copy_26-3" x1="70.74" y1="526.04" x2="70.74" y2="165.75" xlink:href="#New_Gradient_Swatch_copy_26"/><linearGradient id="New_Gradient_Swatch_copy_26-4" x1="70.74" y1="529.71" x2="70.74" y2="169.42" xlink:href="#New_Gradient_Swatch_copy_26"/><linearGradient id="New_Gradient_Swatch_copy_26-5" x1="70.74" y1="533.38" x2="70.74" y2="173.09" xlink:href="#New_Gradient_Swatch_copy_26"/><linearGradient id="New_Gradient_Swatch_copy_26-6" x1="70.74" y1="537.06" x2="70.74" y2="176.77" xlink:href="#New_Gradient_Swatch_copy_26"/><linearGradient id="New_Gradient_Swatch_copy_26-7" x1="70.74" y1="540.73" x2="70.74" y2="180.44" xlink:href="#New_Gradient_Swatch_copy_26"/><linearGradient id="New_Gradient_Swatch_copy_26-8" x1="70.74" y1="544.4" x2="70.74" y2="184.12" xlink:href="#New_Gradient_Swatch_copy_26"/><linearGradient id="New_Gradient_Swatch_copy_26-9" x1="70.74" y1="548.08" x2="70.74" y2="187.79" xlink:href="#New_Gradient_Swatch_copy_26"/><linearGradient id="New_Gradient_Swatch_copy_26-10" x1="70.74" y1="551.75" x2="70.74" y2="191.46" xlink:href="#New_Gradient_Swatch_copy_26"/><linearGradient id="New_Gradient_Swatch_copy_26-11" x1="70.74" y1="555.42" x2="70.74" y2="195.14" xlink:href="#New_Gradient_Swatch_copy_26"/><linearGradient id="New_Gradient_Swatch_copy_26-12" x1="70.74" y1="559.1" x2="70.74" y2="198.81" xlink:href="#New_Gradient_Swatch_copy_26"/><linearGradient id="New_Gradient_Swatch_copy_26-13" x1="70.74" y1="562.77" x2="70.74" y2="202.48" xlink:href="#New_Gradient_Swatch_copy_26"/><linearGradient id="New_Gradient_Swatch_copy_26-14" x1="70.74" y1="566.45" x2="70.74" y2="206.16" xlink:href="#New_Gradient_Swatch_copy_26"/><linearGradient id="New_Gradient_Swatch_copy_26-15" x1="70.74" y1="570.12" x2="70.74" y2="209.83" xlink:href="#New_Gradient_Swatch_copy_26"/><linearGradient id="New_Gradient_Swatch_copy_26-16" x1="70.74" y1="573.79" x2="70.74" y2="213.51" xlink:href="#New_Gradient_Swatch_copy_26"/><linearGradient id="New_Gradient_Swatch_copy_26-17" x1="3798.65" y1="255.03" x2="4110.69" y2="14.6" gradientTransform="matrix(-1, 0, 0, 1, 4147.57, 0)" xlink:href="#New_Gradient_Swatch_copy_26"/><linearGradient id="New_Gradient_Swatch_copy_26-18" x1="3811.59" y1="271.82" x2="4123.63" y2="31.4" gradientTransform="matrix(-1, 0, 0, 1, 4147.57, 0)" xlink:href="#New_Gradient_Swatch_copy_26"/><linearGradient id="New_Gradient_Swatch_copy_26-19" x1="3824.53" y1="288.62" x2="4136.57" y2="48.19" gradientTransform="matrix(-1, 0, 0, 1, 4147.57, 0)" xlink:href="#New_Gradient_Swatch_copy_26"/><linearGradient id="New_Gradient_Swatch_copy_26-20" x1="3837.47" y1="305.41" x2="4149.51" y2="64.99" gradientTransform="matrix(-1, 0, 0, 1, 4147.57, 0)" xlink:href="#New_Gradient_Swatch_copy_26"/><linearGradient id="New_Gradient_Swatch_copy_26-21" x1="3850.41" y1="322.21" x2="4162.45" y2="81.78" gradientTransform="matrix(-1, 0, 0, 1, 4147.57, 0)" xlink:href="#New_Gradient_Swatch_copy_26"/><linearGradient id="New_Gradient_Swatch_copy_26-22" x1="3863.35" y1="339" x2="4175.39" y2="98.58" gradientTransform="matrix(-1, 0, 0, 1, 4147.57, 0)" xlink:href="#New_Gradient_Swatch_copy_26"/><linearGradient id="New_Gradient_Swatch_copy_26-23" x1="3876.3" y1="355.8" x2="4188.33" y2="115.37" gradientTransform="matrix(-1, 0, 0, 1, 4147.57, 0)" xlink:href="#New_Gradient_Swatch_copy_26"/><linearGradient id="New_Gradient_Swatch_copy_26-24" x1="3889.24" y1="372.59" x2="4201.27" y2="132.17" gradientTransform="matrix(-1, 0, 0, 1, 4147.57, 0)" xlink:href="#New_Gradient_Swatch_copy_26"/><linearGradient id="New_Gradient_Swatch_copy_26-25" x1="3902.18" y1="389.39" x2="4214.21" y2="148.96" gradientTransform="matrix(-1, 0, 0, 1, 4147.57, 0)" xlink:href="#New_Gradient_Swatch_copy_26"/><linearGradient id="New_Gradient_Swatch_copy_26-26" x1="3915.12" y1="406.18" x2="4227.15" y2="165.76" gradientTransform="matrix(-1, 0, 0, 1, 4147.57, 0)" xlink:href="#New_Gradient_Swatch_copy_26"/><linearGradient id="New_Gradient_Swatch_copy_26-27" x1="3928.06" y1="422.98" x2="4240.09" y2="182.55" gradientTransform="matrix(-1, 0, 0, 1, 4147.57, 0)" xlink:href="#New_Gradient_Swatch_copy_26"/><linearGradient id="New_Gradient_Swatch_copy_26-28" x1="3941" y1="439.77" x2="4253.03" y2="199.35" gradientTransform="matrix(-1, 0, 0, 1, 4147.57, 0)" xlink:href="#New_Gradient_Swatch_copy_26"/><linearGradient id="New_Gradient_Swatch_copy_26-29" x1="3953.94" y1="456.57" x2="4265.97" y2="216.14" gradientTransform="matrix(-1, 0, 0, 1, 4147.57, 0)" xlink:href="#New_Gradient_Swatch_copy_26"/><linearGradient id="New_Gradient_Swatch_copy_26-30" x1="3966.88" y1="473.36" x2="4278.91" y2="232.94" gradientTransform="matrix(-1, 0, 0, 1, 4147.57, 0)" xlink:href="#New_Gradient_Swatch_copy_26"/><linearGradient id="New_Gradient_Swatch_copy_26-31" x1="3979.82" y1="490.16" x2="4291.85" y2="249.73" gradientTransform="matrix(-1, 0, 0, 1, 4147.57, 0)" xlink:href="#New_Gradient_Swatch_copy_26"/><linearGradient id="New_Gradient_Swatch_copy_26-32" x1="3992.76" y1="506.95" x2="4304.8" y2="266.53" gradientTransform="matrix(-1, 0, 0, 1, 4147.57, 0)" xlink:href="#New_Gradient_Swatch_copy_26"/><linearGradient id="New_Gradient_Swatch_copy_25-3" x1="8614.46" y1="8327.79" x2="8505.24" y2="8535.95" gradientTransform="translate(8657.4 8604.43) rotate(180)" xlink:href="#New_Gradient_Swatch_copy_25"/><linearGradient id="New_Gradient_Swatch_copy_25-4" x1="14.29" y1="87.72" x2="200.49" y2="27.04" xlink:href="#New_Gradient_Swatch_copy_25"/><linearGradient id="New_Gradient_Swatch_copy_25-5" x1="176.54" y1="63.34" x2="240.76" y2="35.26" xlink:href="#New_Gradient_Swatch_copy_25"/><linearGradient id="linear-gradient-2" x1="22.37" y1="178.21" x2="310.73" y2="-27.91" xlink:href="#linear-gradient"/></defs><g id="Layer_2" data-name="Layer 2"><g id="_Layer_" data-name="&lt;Layer&gt;"><polygon class="cls-1" points="142.72 622.7 287.55 539.43 287.55 83.25 142.72 166.52 142.72 622.7"/><polygon class="cls-2" points="0 539.43 142.8 622.7 142.8 166.52 0 83.36 0 539.43"/><polygon class="cls-3" points="0 83.36 142.8 166.52 287.55 83.25 144.59 0 0 83.36"/><polygon class="cls-4" points="124.81 179.25 16.66 116.27 16.66 126.78 124.81 189.77 124.81 179.25"/><polygon class="cls-5" points="124.81 206.02 16.66 143.03 16.66 153.55 124.81 216.53 124.81 206.02"/><polygon class="cls-6" points="124.81 232.78 16.66 169.8 16.66 180.31 124.81 243.3 124.81 232.78"/><polygon class="cls-7" points="124.81 259.55 16.66 196.57 16.66 207.08 124.81 270.06 124.81 259.55"/><polygon class="cls-8" points="124.81 286.31 16.66 223.33 16.66 233.85 124.81 296.83 124.81 286.31"/><polygon class="cls-9" points="124.81 313.08 16.66 250.1 16.66 260.61 124.81 323.59 124.81 313.08"/><polygon class="cls-10" points="124.81 339.85 16.66 276.86 16.66 287.38 124.81 350.36 124.81 339.85"/><polygon class="cls-11" points="124.81 366.61 16.66 303.63 16.66 314.14 124.81 377.12 124.81 366.61"/><polygon class="cls-12" points="124.81 393.38 16.66 330.39 16.66 340.91 124.81 403.89 124.81 393.38"/><polygon class="cls-13" points="124.81 420.14 16.66 357.16 16.66 367.67 124.81 430.65 124.81 420.14"/><polygon class="cls-14" points="124.81 446.91 16.66 383.92 16.66 394.44 124.81 457.42 124.81 446.91"/><polygon class="cls-15" points="124.81 473.67 16.66 410.69 16.66 421.2 124.81 484.19 124.81 473.67"/><polygon class="cls-16" points="124.81 500.44 16.66 437.45 16.66 447.97 124.81 510.95 124.81 500.44"/><polygon class="cls-17" points="124.81 527.2 16.66 464.22 16.66 474.73 124.81 537.72 124.81 527.2"/><polygon class="cls-18" points="124.81 553.97 16.66 490.99 16.66 501.5 124.81 564.48 124.81 553.97"/><polygon class="cls-19" points="124.81 580.73 16.66 517.75 16.66 528.26 124.81 591.25 124.81 580.73"/><polygon class="cls-20" points="162.45 179.25 270.6 116.27 270.6 126.78 162.45 189.77 162.45 179.25"/><polygon class="cls-21" points="162.45 206.02 270.6 143.03 270.6 153.55 162.45 216.53 162.45 206.02"/><polygon class="cls-22" points="162.45 232.78 270.6 169.8 270.6 180.31 162.45 243.3 162.45 232.78"/><polygon class="cls-23" points="162.45 259.55 270.6 196.57 270.6 207.08 162.45 270.06 162.45 259.55"/><polygon class="cls-24" points="162.45 286.31 270.6 223.33 270.6 233.85 162.45 296.83 162.45 286.31"/><polygon class="cls-25" points="162.45 313.08 270.6 250.1 270.6 260.61 162.45 323.59 162.45 313.08"/><polygon class="cls-26" points="162.45 339.85 270.6 276.86 270.6 287.38 162.45 350.36 162.45 339.85"/><polygon class="cls-27" points="162.45 366.61 270.6 303.63 270.6 314.14 162.45 377.12 162.45 366.61"/><polygon class="cls-28" points="162.45 393.38 270.6 330.39 270.6 340.91 162.45 403.89 162.45 393.38"/><polygon class="cls-29" points="162.45 420.14 270.6 357.16 270.6 367.67 162.45 430.65 162.45 420.14"/><polygon class="cls-30" points="162.45 446.91 270.6 383.92 270.6 394.44 162.45 457.42 162.45 446.91"/><polygon class="cls-31" points="162.45 473.67 270.6 410.69 270.6 421.2 162.45 484.19 162.45 473.67"/><polygon class="cls-32" points="162.45 500.44 270.6 437.45 270.6 447.97 162.45 510.95 162.45 500.44"/><polygon class="cls-33" points="162.45 527.2 270.6 464.22 270.6 474.73 162.45 537.72 162.45 527.2"/><polygon class="cls-34" points="162.45 553.97 270.6 490.99 270.6 501.5 162.45 564.48 162.45 553.97"/><polygon class="cls-35" points="162.45 580.73 270.6 517.75 270.6 528.26 162.45 591.25 162.45 580.73"/><polygon class="cls-36" points="242.41 83.42 144.53 26.42 46.52 82.86 144.52 139.92 242.41 83.42"/><polygon class="cls-37" points="144.58 43.27 144.58 26.45 144.53 26.42 46.52 82.86 61.08 91.33 144.58 43.27"/><polygon class="cls-38" points="144.53 43.27 227.87 91.8 242.41 83.42 144.53 26.42 144.53 43.27"/><polygon class="cls-39" points="61.72 90.97 143.91 138.83 227.21 90.9 144.94 42.99 61.72 90.97"/></g></g></svg>