<svg xmlns="http://www.w3.org/2000/svg" xmlns:xlink="http://www.w3.org/1999/xlink" viewBox="0 0 513.16 549.91"><defs><style>.cls-1{isolation:isolate;}.cls-2{fill:url(#New_Gradient_Swatch_copy_25);}.cls-3{fill:#6300aa;}.cls-4{fill:#450076;}.cls-5{fill:url(#linear-gradient);}.cls-6{fill:url(#linear-gradient-2);}.cls-7{fill:url(#linear-gradient-3);}.cls-8{fill:url(#linear-gradient-4);}.cls-9{fill:url(#linear-gradient-5);}.cls-10{fill:url(#linear-gradient-6);}.cls-11{fill:url(#linear-gradient-7);}.cls-12{fill:url(#linear-gradient-8);}.cls-13{fill:url(#linear-gradient-9);}.cls-14{fill:url(#linear-gradient-10);}.cls-15{fill:url(#linear-gradient-11);}.cls-16{fill:url(#linear-gradient-12);}.cls-17{fill:url(#linear-gradient-13);}.cls-18{fill:url(#linear-gradient-14);}.cls-19{fill:url(#linear-gradient-15);}.cls-20{fill:url(#linear-gradient-16);}.cls-21{fill:url(#linear-gradient-17);}.cls-22{fill:url(#linear-gradient-18);}.cls-23{fill:url(#linear-gradient-19);}.cls-24{fill:url(#linear-gradient-20);}.cls-25{fill:url(#linear-gradient-21);}.cls-26{fill:url(#linear-gradient-22);}.cls-27{fill:url(#linear-gradient-23);}.cls-28{fill:url(#linear-gradient-24);}.cls-29{fill:url(#linear-gradient-25);}.cls-30{fill:url(#linear-gradient-26);}.cls-31{fill:url(#linear-gradient-27);}.cls-32{fill:url(#linear-gradient-28);}.cls-33{fill:url(#linear-gradient-29);}.cls-34{fill:url(#linear-gradient-30);}.cls-35{fill:url(#linear-gradient-31);}.cls-36{fill:url(#linear-gradient-32);}.cls-37{fill:url(#linear-gradient-33);}.cls-38{fill:url(#linear-gradient-34);}.cls-39{fill:url(#linear-gradient-35);}.cls-40{fill:url(#linear-gradient-36);}.cls-41{fill:url(#linear-gradient-37);}.cls-42{fill:url(#linear-gradient-38);}.cls-43{fill:url(#linear-gradient-39);}.cls-44{fill:#6600af;}.cls-45{fill:#47007a;}.cls-46{fill:url(#linear-gradient-40);}.cls-47{fill:url(#linear-gradient-41);}.cls-48{fill:url(#New_Gradient_Swatch_copy_25-2);}.cls-49{fill:url(#New_Gradient_Swatch_copy_25-3);}.cls-50{fill:url(#New_Gradient_Swatch_copy_25-4);}.cls-51{fill:url(#New_Gradient_Swatch_copy_25-5);}.cls-52{fill:url(#New_Gradient_Swatch_copy_25-6);}.cls-53{fill:url(#New_Gradient_Swatch_copy_25-7);}</style><linearGradient id="New_Gradient_Swatch_copy_25" x1="0.91" y1="114.31" x2="513.16" y2="114.31" gradientUnits="userSpaceOnUse"><stop offset="0" stop-color="#25054d"/><stop offset="1" stop-color="#45108a"/></linearGradient><linearGradient id="linear-gradient" x1="-4065.19" y1="1392.73" x2="-3920.2" y2="1537.71" gradientTransform="matrix(-0.87, 0.5, 0, 1.15, -2989.23, 722.95)" gradientUnits="userSpaceOnUse"><stop offset="0" stop-color="#00e5ff"/><stop offset="1" stop-color="#c0f"/></linearGradient><linearGradient id="linear-gradient-2" x1="-4039.58" y1="1368.21" x2="-3894.59" y2="1513.2" xlink:href="#linear-gradient"/><linearGradient id="linear-gradient-3" x1="-4013.96" y1="1343.69" x2="-3868.98" y2="1488.68" xlink:href="#linear-gradient"/><linearGradient id="linear-gradient-4" x1="-3988.35" y1="1319.17" x2="-3843.36" y2="1464.16" xlink:href="#linear-gradient"/><linearGradient id="linear-gradient-5" x1="-4065.19" y1="1366.46" x2="-3920.21" y2="1511.45" xlink:href="#linear-gradient"/><linearGradient id="linear-gradient-6" x1="-4039.58" y1="1341.94" x2="-3894.59" y2="1486.93" xlink:href="#linear-gradient"/><linearGradient id="linear-gradient-7" x1="-4013.96" y1="1317.42" x2="-3868.98" y2="1462.41" xlink:href="#linear-gradient"/><linearGradient id="linear-gradient-8" x1="-3988.35" y1="1292.91" x2="-3843.36" y2="1437.89" xlink:href="#linear-gradient"/><linearGradient id="linear-gradient-9" x1="-4065.19" y1="1340.19" x2="-3920.2" y2="1485.18" xlink:href="#linear-gradient"/><linearGradient id="linear-gradient-10" x1="-4039.58" y1="1315.68" x2="-3894.59" y2="1460.66" xlink:href="#linear-gradient"/><linearGradient id="linear-gradient-11" x1="-4013.96" y1="1291.16" x2="-3868.98" y2="1436.14" xlink:href="#linear-gradient"/><linearGradient id="linear-gradient-12" x1="-3988.35" y1="1266.64" x2="-3843.36" y2="1411.63" xlink:href="#linear-gradient"/><linearGradient id="linear-gradient-13" x1="-4065.19" y1="1313.93" x2="-3920.2" y2="1458.91" xlink:href="#linear-gradient"/><linearGradient id="linear-gradient-14" x1="-4039.58" y1="1289.41" x2="-3894.59" y2="1434.4" xlink:href="#linear-gradient"/><linearGradient id="linear-gradient-15" x1="-4013.96" y1="1264.89" x2="-3868.98" y2="1409.88" xlink:href="#linear-gradient"/><linearGradient id="linear-gradient-16" x1="-3988.35" y1="1240.37" x2="-3843.36" y2="1385.36" xlink:href="#linear-gradient"/><linearGradient id="linear-gradient-17" x1="-4065.19" y1="1287.66" x2="-3920.21" y2="1432.65" xlink:href="#linear-gradient"/><linearGradient id="linear-gradient-18" x1="-4039.58" y1="1263.14" x2="-3894.59" y2="1408.13" xlink:href="#linear-gradient"/><linearGradient id="linear-gradient-19" x1="-4013.96" y1="1238.62" x2="-3868.98" y2="1383.61" xlink:href="#linear-gradient"/><linearGradient id="linear-gradient-20" x1="-3988.35" y1="1214.11" x2="-3843.36" y2="1359.09" xlink:href="#linear-gradient"/><linearGradient id="linear-gradient-21" x1="-4065.19" y1="1261.39" x2="-3920.2" y2="1406.38" xlink:href="#linear-gradient"/><linearGradient id="linear-gradient-22" x1="-4039.58" y1="1236.88" x2="-3894.59" y2="1381.86" xlink:href="#linear-gradient"/><linearGradient id="linear-gradient-23" x1="-4013.96" y1="1212.36" x2="-3868.98" y2="1357.34" xlink:href="#linear-gradient"/><linearGradient id="linear-gradient-24" x1="-3988.35" y1="1187.84" x2="-3843.36" y2="1332.83" xlink:href="#linear-gradient"/><linearGradient id="linear-gradient-25" x1="-4065.19" y1="1235.13" x2="-3920.21" y2="1380.11" xlink:href="#linear-gradient"/><linearGradient id="linear-gradient-26" x1="-4039.58" y1="1210.61" x2="-3894.59" y2="1355.6" xlink:href="#linear-gradient"/><linearGradient id="linear-gradient-27" x1="-4013.96" y1="1186.09" x2="-3868.98" y2="1331.08" xlink:href="#linear-gradient"/><linearGradient id="linear-gradient-28" x1="-3988.35" y1="1161.57" x2="-3843.36" y2="1306.56" xlink:href="#linear-gradient"/><linearGradient id="linear-gradient-29" x1="-4065.19" y1="1208.86" x2="-3920.21" y2="1353.85" xlink:href="#linear-gradient"/><linearGradient id="linear-gradient-30" x1="-4039.58" y1="1184.34" x2="-3894.59" y2="1329.33" xlink:href="#linear-gradient"/><linearGradient id="linear-gradient-31" x1="-4013.96" y1="1159.82" x2="-3868.98" y2="1304.81" xlink:href="#linear-gradient"/><linearGradient id="linear-gradient-32" x1="-3988.35" y1="1135.31" x2="-3843.36" y2="1280.29" xlink:href="#linear-gradient"/><linearGradient id="linear-gradient-33" x1="22.38" y1="345.55" x2="266.7" y2="506.06" gradientTransform="matrix(1, 0, 0, 1, 0, 0)" xlink:href="#linear-gradient"/><linearGradient id="linear-gradient-34" x1="22.37" y1="308.1" x2="266.7" y2="468.61" gradientTransform="matrix(1, 0, 0, 1, 0, 0)" xlink:href="#linear-gradient"/><linearGradient id="linear-gradient-35" x1="22.38" y1="270.65" x2="266.7" y2="431.16" gradientTransform="matrix(1, 0, 0, 1, 0, 0)" xlink:href="#linear-gradient"/><linearGradient id="linear-gradient-36" x1="22.38" y1="233.2" x2="266.7" y2="393.7" gradientTransform="matrix(1, 0, 0, 1, 0, 0)" xlink:href="#linear-gradient"/><linearGradient id="linear-gradient-37" x1="22.37" y1="195.75" x2="266.7" y2="356.25" gradientTransform="matrix(1, 0, 0, 1, 0, 0)" xlink:href="#linear-gradient"/><linearGradient id="linear-gradient-38" x1="22.38" y1="158.3" x2="266.7" y2="318.8" gradientTransform="matrix(1, 0, 0, 1, 0, 0)" xlink:href="#linear-gradient"/><linearGradient id="linear-gradient-39" x1="22.38" y1="120.84" x2="266.7" y2="281.35" gradientTransform="matrix(1, 0, 0, 1, 0, 0)" xlink:href="#linear-gradient"/><linearGradient id="linear-gradient-40" x1="390.44" y1="101.12" x2="446.83" y2="101.12" gradientTransform="matrix(1, 0, 0, 1, 0, 0)" xlink:href="#linear-gradient"/><linearGradient id="linear-gradient-41" x1="341.14" y1="128.54" x2="397.52" y2="128.54" gradientTransform="matrix(1, 0, 0, 1, 0, 0)" xlink:href="#linear-gradient"/><linearGradient id="New_Gradient_Swatch_copy_25-2" x1="44.33" y1="42.7" x2="137.33" y2="42.7" xlink:href="#New_Gradient_Swatch_copy_25"/><linearGradient id="New_Gradient_Swatch_copy_25-3" x1="90.59" y1="63.67" x2="137.33" y2="63.67" xlink:href="#New_Gradient_Swatch_copy_25"/><linearGradient id="New_Gradient_Swatch_copy_25-4" x1="43.94" y1="63.67" x2="90.98" y2="63.67" xlink:href="#New_Gradient_Swatch_copy_25"/><linearGradient id="New_Gradient_Swatch_copy_25-5" x1="109.09" y1="83.33" x2="202.09" y2="83.33" xlink:href="#New_Gradient_Swatch_copy_25"/><linearGradient id="New_Gradient_Swatch_copy_25-6" x1="155.35" y1="104.31" x2="202.09" y2="104.31" xlink:href="#New_Gradient_Swatch_copy_25"/><linearGradient id="New_Gradient_Swatch_copy_25-7" x1="108.7" y1="104.31" x2="155.74" y2="104.31" xlink:href="#New_Gradient_Swatch_copy_25"/></defs><g id="Layer_2" data-name="Layer 2"><g id="_Layer_" data-name="&lt;Layer&gt;"><g class="cls-1"><polygon class="cls-2" points="513.16 104.46 396.27 172.38 299.49 228.63 202.07 172.38 0.91 56.24 97.69 0 298.86 116.14 415.74 48.21 513.16 104.46"/><polygon class="cls-3" points="396.27 172.38 299.49 228.63 298.58 549.91 395.36 493.67 512.25 425.74 513.16 104.46 396.27 172.38"/><polygon class="cls-4" points="202.07 172.38 0.91 56.24 0 377.53 201.16 493.67 298.58 549.91 299.49 228.63 202.07 172.38"/></g><polygon class="cls-5" points="454.54 424.76 490.79 403.83 490.79 396.1 454.54 417.02 454.54 424.76"/><polygon class="cls-6" points="411.12 449.83 447.37 428.9 447.37 421.16 411.12 442.09 411.12 449.83"/><polygon class="cls-7" points="367.71 474.89 403.96 453.96 403.96 446.23 367.71 467.15 367.71 474.89"/><polygon class="cls-8" points="324.3 499.96 360.55 479.03 360.55 471.29 324.3 492.22 324.3 499.96"/><polygon class="cls-9" points="454.54 394.43 490.79 373.5 490.79 365.76 454.54 386.69 454.54 394.43"/><polygon class="cls-10" points="411.12 419.5 447.37 398.57 447.37 390.83 411.12 411.76 411.12 419.5"/><polygon class="cls-11" points="367.71 444.56 403.96 423.63 403.96 415.89 367.71 436.82 367.71 444.56"/><polygon class="cls-12" points="324.3 469.63 360.55 448.7 360.55 440.96 324.3 461.89 324.3 469.63"/><polygon class="cls-13" points="454.54 364.1 490.79 343.17 490.79 335.43 454.54 356.36 454.54 364.1"/><polygon class="cls-14" points="411.12 389.17 447.37 368.24 447.37 360.5 411.12 381.43 411.12 389.17"/><polygon class="cls-15" points="367.71 414.23 403.96 393.3 403.96 385.56 367.71 406.49 367.71 414.23"/><polygon class="cls-16" points="324.3 439.3 360.55 418.37 360.55 410.63 324.3 431.56 324.3 439.3"/><polygon class="cls-17" points="454.54 333.77 490.79 312.84 490.79 305.1 454.54 326.03 454.54 333.77"/><polygon class="cls-18" points="411.12 358.84 447.37 337.91 447.37 330.17 411.12 351.1 411.12 358.84"/><polygon class="cls-19" points="367.71 383.9 403.96 362.97 403.96 355.23 367.71 376.16 367.71 383.9"/><polygon class="cls-20" points="324.3 408.97 360.55 388.04 360.55 380.3 324.3 401.23 324.3 408.97"/><polygon class="cls-21" points="454.54 303.44 490.79 282.51 490.79 274.77 454.54 295.7 454.54 303.44"/><polygon class="cls-22" points="411.12 328.51 447.37 307.58 447.37 299.84 411.12 320.77 411.12 328.51"/><polygon class="cls-23" points="367.71 353.57 403.96 332.64 403.96 324.9 367.71 345.83 367.71 353.57"/><polygon class="cls-24" points="324.3 378.64 360.55 357.71 360.55 349.97 324.3 370.9 324.3 378.64"/><polygon class="cls-25" points="454.54 273.11 490.79 252.18 490.79 244.44 454.54 265.37 454.54 273.11"/><polygon class="cls-26" points="411.12 298.18 447.37 277.25 447.37 269.51 411.12 290.44 411.12 298.18"/><polygon class="cls-27" points="367.71 323.24 403.96 302.31 403.96 294.57 367.71 315.5 367.71 323.24"/><polygon class="cls-28" points="324.3 348.31 360.55 327.38 360.55 319.64 324.3 340.57 324.3 348.31"/><polygon class="cls-29" points="454.54 242.78 490.79 221.85 490.79 214.11 454.54 235.04 454.54 242.78"/><polygon class="cls-30" points="411.12 267.85 447.37 246.92 447.37 239.18 411.12 260.11 411.12 267.85"/><polygon class="cls-31" points="367.71 292.91 403.96 271.98 403.96 264.24 367.71 285.17 367.71 292.91"/><polygon class="cls-32" points="324.3 317.98 360.55 297.05 360.55 289.31 324.3 310.24 324.3 317.98"/><polygon class="cls-33" points="454.54 212.45 490.79 191.52 490.79 183.78 454.54 204.71 454.54 212.45"/><polygon class="cls-34" points="411.12 237.51 447.37 216.59 447.37 208.85 411.12 229.78 411.12 237.51"/><polygon class="cls-35" points="367.71 262.58 403.96 241.65 403.96 233.91 367.71 254.84 367.71 262.58"/><polygon class="cls-36" points="324.3 287.64 360.55 266.72 360.55 258.98 324.3 279.91 324.3 287.64"/><polygon class="cls-37" points="272.78 504.46 21.03 359.12 21.03 350.25 272.78 495.6 272.78 504.46"/><polygon class="cls-38" points="272.78 467.01 21.03 321.66 21.03 312.8 272.78 458.15 272.78 467.01"/><polygon class="cls-39" points="272.78 429.56 21.03 284.21 21.03 275.35 272.78 420.7 272.78 429.56"/><polygon class="cls-40" points="272.78 392.11 21.03 246.76 21.03 237.9 272.78 383.25 272.78 392.11"/><polygon class="cls-41" points="272.78 354.66 21.03 209.31 21.03 200.45 272.78 345.8 272.78 354.66"/><polygon class="cls-42" points="272.78 317.21 21.03 171.86 21.03 163 272.78 308.34 272.78 317.21"/><polygon class="cls-43" points="272.78 279.75 21.03 134.41 21.03 125.55 272.78 270.89 272.78 279.75"/><g class="cls-1"><polygon class="cls-44" points="416.64 87.08 416.59 100.17 397.3 112.95 397.34 99.85 416.64 87.08"/><polygon class="cls-45" points="439.92 102.39 439.88 115.49 416.59 100.17 416.64 87.08 439.92 102.39"/><path class="cls-46" d="M416.62,82.52l30.21,19.87-26.18,17.33L390.44,99.85Zm4,32.65,19.29-12.78L416.64,87.08l-19.3,12.77,23.29,15.32"/><polygon class="cls-44" points="446.82 102.39 446.78 115.49 420.61 132.82 420.65 119.72 446.82 102.39"/><polygon class="cls-45" points="420.65 119.72 420.61 132.82 390.4 112.95 390.44 99.85 420.65 119.72"/></g><g class="cls-1"><polygon class="cls-44" points="367.33 114.49 367.28 127.59 347.99 140.36 348.04 127.27 367.33 114.49"/><polygon class="cls-45" points="390.62 129.81 390.57 142.91 367.28 127.59 367.33 114.49 390.62 129.81"/><path class="cls-47" d="M367.31,109.94l30.21,19.87-26.17,17.33-30.21-19.87Zm4,32.64,19.3-12.77-23.29-15.32L348,127.27l23.28,15.31"/><polygon class="cls-44" points="397.52 129.81 397.47 142.91 371.3 160.24 371.35 147.14 397.52 129.81"/><polygon class="cls-45" points="371.35 147.14 371.3 160.24 341.09 140.36 341.14 127.27 371.35 147.14"/></g><g class="cls-1"><polygon class="cls-48" points="137.33 42.7 90.98 69.63 44.33 42.7 90.68 15.76 137.33 42.7"/><polygon class="cls-49" points="137.33 42.7 136.94 57.72 90.59 84.65 90.98 69.63 137.33 42.7"/><polygon class="cls-50" points="90.98 69.63 90.59 84.65 43.94 57.72 44.33 42.7 90.98 69.63"/></g><g class="cls-1"><polygon class="cls-51" points="202.09 83.33 155.74 110.26 109.09 83.33 155.44 56.4 202.09 83.33"/><polygon class="cls-52" points="202.09 83.33 201.7 98.35 155.35 125.28 155.74 110.26 202.09 83.33"/><polygon class="cls-53" points="155.74 110.26 155.35 125.28 108.7 98.35 109.09 83.33 155.74 110.26"/></g></g></g></svg>