<svg xmlns="http://www.w3.org/2000/svg" xmlns:xlink="http://www.w3.org/1999/xlink" viewBox="0 0 402.94 845.31"><defs><style>.cls-1{isolation:isolate;}.cls-2{fill:url(#New_Gradient_Swatch_copy_25);}.cls-3{fill:url(#New_Gradient_Swatch_copy_25-2);}.cls-4{fill:url(#New_Gradient_Swatch_copy_8);}.cls-5{fill:url(#linear-gradient);}.cls-6{fill:url(#linear-gradient-2);}.cls-7{fill:url(#linear-gradient-3);}.cls-8{fill:url(#linear-gradient-4);}.cls-9{fill:url(#linear-gradient-5);}.cls-10{fill:url(#linear-gradient-6);}.cls-11{mix-blend-mode:screen;opacity:0.5;fill:url(#linear-gradient-7);}.cls-12{fill:url(#linear-gradient-8);}.cls-13{fill:url(#linear-gradient-9);}.cls-14{fill:url(#linear-gradient-10);}.cls-15{fill:url(#linear-gradient-11);}.cls-16{fill:url(#linear-gradient-12);}.cls-17{fill:url(#linear-gradient-13);}.cls-18{fill:url(#linear-gradient-14);}.cls-19{fill:url(#linear-gradient-15);}.cls-20{fill:url(#linear-gradient-16);}.cls-21{fill:url(#linear-gradient-17);}.cls-22{fill:url(#linear-gradient-18);}.cls-23{fill:url(#linear-gradient-19);}.cls-24{fill:url(#linear-gradient-20);}.cls-25{fill:url(#linear-gradient-21);}.cls-26{fill:url(#linear-gradient-22);}.cls-27{fill:url(#linear-gradient-23);}.cls-28{fill:url(#linear-gradient-24);}.cls-29{fill:url(#linear-gradient-25);}.cls-30{fill:url(#linear-gradient-26);}.cls-31{fill:url(#linear-gradient-27);}.cls-32{fill:url(#linear-gradient-28);}.cls-33{fill:url(#linear-gradient-29);}.cls-34{fill:url(#linear-gradient-30);}.cls-35{fill:url(#linear-gradient-31);}.cls-36{fill:url(#linear-gradient-32);}.cls-37{fill:url(#linear-gradient-33);}.cls-38{fill:url(#linear-gradient-34);}.cls-39{fill:url(#linear-gradient-35);}.cls-40{fill:url(#linear-gradient-36);}.cls-41{fill:url(#linear-gradient-37);}.cls-42{fill:url(#linear-gradient-38);}.cls-43{fill:url(#linear-gradient-39);}.cls-44{fill:url(#linear-gradient-40);}.cls-45{fill:url(#linear-gradient-41);}.cls-46{fill:url(#linear-gradient-42);}.cls-47{fill:url(#linear-gradient-43);}.cls-48{fill:url(#linear-gradient-44);}.cls-49{fill:url(#linear-gradient-45);}.cls-50{fill:url(#linear-gradient-46);}.cls-51{fill:url(#linear-gradient-47);}.cls-52{fill:url(#linear-gradient-48);}.cls-53{fill:url(#linear-gradient-49);}.cls-54{fill:url(#linear-gradient-50);}.cls-55{fill:url(#New_Gradient_Swatch_copy_25-3);}.cls-56{fill:url(#New_Gradient_Swatch_copy_25-4);}.cls-57{fill:url(#New_Gradient_Swatch_copy_26);}.cls-58{fill:url(#New_Gradient_Swatch_copy_26-2);}.cls-59{fill:url(#New_Gradient_Swatch_copy_26-3);}.cls-60{fill:url(#New_Gradient_Swatch_copy_26-4);}.cls-61{fill:url(#New_Gradient_Swatch_copy_26-5);}.cls-62{fill:url(#New_Gradient_Swatch_copy_26-6);}.cls-63{fill:url(#New_Gradient_Swatch_copy_26-7);}.cls-64{fill:url(#New_Gradient_Swatch_copy_26-8);}.cls-65{fill:url(#New_Gradient_Swatch_copy_26-9);}.cls-66{fill:url(#linear-gradient-51);}.cls-67{fill:url(#linear-gradient-52);}.cls-68{fill:url(#linear-gradient-53);}.cls-69{fill:url(#linear-gradient-54);}.cls-70{fill:url(#linear-gradient-55);}.cls-71{fill:url(#linear-gradient-56);}.cls-72{fill:url(#linear-gradient-57);}.cls-73{fill:url(#linear-gradient-58);}.cls-74{fill:url(#linear-gradient-59);}.cls-75{fill:url(#New_Gradient_Swatch_copy_25-5);}.cls-76{fill:url(#New_Gradient_Swatch_copy_26-10);}.cls-77{fill:url(#New_Gradient_Swatch_copy_26-11);}.cls-78{fill:url(#New_Gradient_Swatch_copy_25-6);}.cls-79{fill:url(#New_Gradient_Swatch_copy_25-7);}.cls-80{fill:url(#New_Gradient_Swatch_copy_26-12);}.cls-81{fill:url(#New_Gradient_Swatch_copy_26-13);}.cls-82{fill:url(#New_Gradient_Swatch_copy_26-14);}.cls-83{fill:url(#New_Gradient_Swatch_copy_26-15);}.cls-84{fill:url(#New_Gradient_Swatch_copy_26-16);}.cls-85{fill:url(#New_Gradient_Swatch_copy_26-17);}.cls-86{fill:url(#linear-gradient-60);}.cls-87{fill:url(#linear-gradient-61);}.cls-88{fill:url(#linear-gradient-62);}.cls-89{fill:url(#linear-gradient-63);}.cls-90{fill:url(#linear-gradient-64);}.cls-91{fill:url(#linear-gradient-65);}.cls-92{fill:url(#New_Gradient_Swatch_copy_25-8);}.cls-93{fill:url(#New_Gradient_Swatch_copy_25-9);}.cls-94{fill:url(#New_Gradient_Swatch_copy_25-10);}.cls-95{fill:url(#linear-gradient-66);}.cls-96{fill:url(#linear-gradient-67);}.cls-97{fill:url(#New_Gradient_Swatch_copy_25-11);}.cls-98{fill:url(#linear-gradient-68);}</style><linearGradient id="New_Gradient_Swatch_copy_25" x1="284.28" y1="660.89" x2="752.68" y2="520.63" gradientTransform="matrix(-1, 0, 0, 1, 405.44, 0)" gradientUnits="userSpaceOnUse"><stop offset="0" stop-color="#25054d"/><stop offset="1" stop-color="#45108a"/></linearGradient><linearGradient id="New_Gradient_Swatch_copy_25-2" x1="-148.36" y1="717.18" x2="461.69" y2="580.43" xlink:href="#New_Gradient_Swatch_copy_25"/><linearGradient id="New_Gradient_Swatch_copy_8" x1="-108" y1="702.74" x2="405.44" y2="587.65" gradientTransform="matrix(-1, 0, 0, 1, 405.44, 0)" gradientUnits="userSpaceOnUse"><stop offset="0.04" stop-color="#ffa98c"/><stop offset="0.32" stop-color="#ffb892"/><stop offset="0.86" stop-color="#fee1a3"/><stop offset="1" stop-color="#feeca8"/></linearGradient><linearGradient id="linear-gradient" x1="206.71" y1="827.89" x2="221" y2="859.94" xlink:href="#New_Gradient_Swatch_copy_25"/><linearGradient id="linear-gradient-2" x1="87.46" y1="772.11" x2="87.46" y2="887.69" xlink:href="#New_Gradient_Swatch_copy_25"/><linearGradient id="linear-gradient-3" x1="179.21" y1="648.01" x2="103.34" y2="792.6" gradientTransform="matrix(-1, 0, 0, 1, 405.44, 0)" gradientUnits="userSpaceOnUse"><stop offset="0.74" stop-color="#45108a"/><stop offset="1" stop-color="#3746a3"/></linearGradient><linearGradient id="linear-gradient-4" x1="215.79" y1="807.6" x2="228.16" y2="835.36" xlink:href="#New_Gradient_Swatch_copy_25"/><linearGradient id="linear-gradient-5" x1="106.53" y1="747.09" x2="106.53" y2="862.67" xlink:href="#New_Gradient_Swatch_copy_25"/><linearGradient id="linear-gradient-6" x1="172.14" y1="660.39" x2="116.98" y2="765.51" xlink:href="#linear-gradient-3"/><linearGradient id="linear-gradient-7" x1="127.22" y1="721.63" x2="100.89" y2="769.39" gradientTransform="matrix(-1, 0, 0, 1, 405.44, 0)" gradientUnits="userSpaceOnUse"><stop offset="0" stop-color="#fdd65b"/><stop offset="0.01" stop-color="#f7d159"/><stop offset="0.13" stop-color="#bea144"/><stop offset="0.25" stop-color="#8b7632"/><stop offset="0.37" stop-color="#605223"/><stop offset="0.49" stop-color="#3e3416"/><stop offset="0.62" stop-color="#231d0c"/><stop offset="0.74" stop-color="#0f0d05"/><stop offset="0.87" stop-color="#040301"/><stop offset="1"/></linearGradient><linearGradient id="linear-gradient-8" x1="55.92" y1="700.77" x2="92.33" y2="700.77" gradientTransform="matrix(-1, 0, 0, 1, 419.19, 0)" gradientUnits="userSpaceOnUse"><stop offset="0.01" stop-color="#6b24d6"/><stop offset="0.07" stop-color="#742eda"/><stop offset="0.17" stop-color="#8b49e4"/><stop offset="0.23" stop-color="#9b5bea"/><stop offset="0.37" stop-color="#773bc1"/><stop offset="0.53" stop-color="#531c99"/><stop offset="0.61" stop-color="#45108a"/><stop offset="0.7" stop-color="#4a1190"/><stop offset="0.82" stop-color="#5915a0"/><stop offset="0.95" stop-color="#701abc"/><stop offset="1" stop-color="#7c1dc9"/></linearGradient><linearGradient id="linear-gradient-9" x1="41.99" y1="694.2" x2="78.99" y2="694.2" gradientTransform="matrix(-1, 0, 0, 1, 405.44, 0)" gradientUnits="userSpaceOnUse"><stop offset="0" stop-color="#7467d3"/><stop offset="1" stop-color="#a56ef4"/></linearGradient><linearGradient id="linear-gradient-10" x1="59.99" y1="695.2" x2="88.31" y2="695.2" xlink:href="#linear-gradient-8"/><linearGradient id="linear-gradient-11" x1="46.1" y1="689.52" x2="74.88" y2="689.52" xlink:href="#linear-gradient-9"/><linearGradient id="linear-gradient-12" x1="63.47" y1="641.09" x2="84.88" y2="641.09" xlink:href="#linear-gradient-8"/><linearGradient id="linear-gradient-13" x1="93.66" y1="567.81" x2="73.1" y2="588.5" gradientTransform="matrix(-1, 0, 0, 1, 419.19, 0)" gradientUnits="userSpaceOnUse"><stop offset="0.04" stop-color="#ffba78"/><stop offset="0.4" stop-color="#ffc987"/><stop offset="1" stop-color="#feeca8"/></linearGradient><linearGradient id="linear-gradient-14" x1="59.99" y1="591.74" x2="88.31" y2="591.74" xlink:href="#linear-gradient-8"/><linearGradient id="linear-gradient-15" x1="46.1" y1="586.07" x2="74.88" y2="586.07" xlink:href="#linear-gradient-9"/><linearGradient id="linear-gradient-16" x1="62.8" y1="721.84" x2="99.21" y2="721.84" gradientTransform="matrix(-1, 0, 0, 1, 389.69, 0)" xlink:href="#linear-gradient-8"/><linearGradient id="linear-gradient-17" x1="78.37" y1="715.27" x2="115.37" y2="715.27" xlink:href="#linear-gradient-9"/><linearGradient id="linear-gradient-18" x1="66.87" y1="716.27" x2="95.19" y2="716.27" gradientTransform="matrix(-1, 0, 0, 1, 389.69, 0)" xlink:href="#linear-gradient-8"/><linearGradient id="linear-gradient-19" x1="82.48" y1="710.59" x2="111.26" y2="710.59" xlink:href="#linear-gradient-9"/><linearGradient id="linear-gradient-20" x1="70.35" y1="662.16" x2="91.76" y2="662.16" gradientTransform="matrix(-1, 0, 0, 1, 389.69, 0)" xlink:href="#linear-gradient-8"/><linearGradient id="linear-gradient-21" x1="100.54" y1="588.88" x2="79.98" y2="609.57" gradientTransform="matrix(-1, 0, 0, 1, 389.69, 0)" xlink:href="#linear-gradient-13"/><linearGradient id="linear-gradient-22" x1="66.87" y1="612.81" x2="95.19" y2="612.81" gradientTransform="matrix(-1, 0, 0, 1, 389.69, 0)" xlink:href="#linear-gradient-8"/><linearGradient id="linear-gradient-23" x1="82.48" y1="607.14" x2="111.26" y2="607.14" xlink:href="#linear-gradient-9"/><linearGradient id="linear-gradient-24" x1="69.68" y1="742.91" x2="106.09" y2="742.91" gradientTransform="matrix(-1, 0, 0, 1, 360.19, 0)" xlink:href="#linear-gradient-8"/><linearGradient id="linear-gradient-25" x1="114.75" y1="736.34" x2="151.75" y2="736.34" xlink:href="#linear-gradient-9"/><linearGradient id="linear-gradient-26" x1="73.75" y1="737.34" x2="102.07" y2="737.34" gradientTransform="matrix(-1, 0, 0, 1, 360.19, 0)" xlink:href="#linear-gradient-8"/><linearGradient id="linear-gradient-27" x1="118.86" y1="731.66" x2="147.64" y2="731.66" xlink:href="#linear-gradient-9"/><linearGradient id="linear-gradient-28" x1="77.23" y1="683.22" x2="98.64" y2="683.22" gradientTransform="matrix(-1, 0, 0, 1, 360.19, 0)" xlink:href="#linear-gradient-8"/><linearGradient id="linear-gradient-29" x1="107.42" y1="609.95" x2="86.86" y2="630.64" gradientTransform="matrix(-1, 0, 0, 1, 360.19, 0)" xlink:href="#linear-gradient-13"/><linearGradient id="linear-gradient-30" x1="73.75" y1="633.88" x2="102.07" y2="633.88" gradientTransform="matrix(-1, 0, 0, 1, 360.19, 0)" xlink:href="#linear-gradient-8"/><linearGradient id="linear-gradient-31" x1="118.86" y1="628.2" x2="147.64" y2="628.2" xlink:href="#linear-gradient-9"/><linearGradient id="linear-gradient-32" x1="135.68" y1="763.99" x2="172.09" y2="763.99" gradientTransform="matrix(-1, 0, 0, 1, 389.69, 0)" xlink:href="#linear-gradient-8"/><linearGradient id="linear-gradient-33" x1="151.25" y1="757.42" x2="188.25" y2="757.42" xlink:href="#linear-gradient-9"/><linearGradient id="linear-gradient-34" x1="139.75" y1="758.42" x2="168.07" y2="758.42" gradientTransform="matrix(-1, 0, 0, 1, 389.69, 0)" xlink:href="#linear-gradient-8"/><linearGradient id="linear-gradient-35" x1="155.36" y1="752.74" x2="184.14" y2="752.74" xlink:href="#linear-gradient-9"/><linearGradient id="linear-gradient-36" x1="143.23" y1="704.31" x2="164.64" y2="704.31" gradientTransform="matrix(-1, 0, 0, 1, 389.69, 0)" xlink:href="#linear-gradient-8"/><linearGradient id="linear-gradient-37" x1="173.42" y1="631.03" x2="152.86" y2="651.72" gradientTransform="matrix(-1, 0, 0, 1, 389.69, 0)" xlink:href="#linear-gradient-13"/><linearGradient id="linear-gradient-38" x1="139.75" y1="654.96" x2="168.07" y2="654.96" gradientTransform="matrix(-1, 0, 0, 1, 389.69, 0)" xlink:href="#linear-gradient-8"/><linearGradient id="linear-gradient-39" x1="155.36" y1="649.29" x2="184.14" y2="649.29" xlink:href="#linear-gradient-9"/><linearGradient id="linear-gradient-40" x1="142.56" y1="785.06" x2="178.97" y2="785.06" gradientTransform="matrix(-1, 0, 0, 1, 360.19, 0)" xlink:href="#linear-gradient-8"/><linearGradient id="linear-gradient-41" x1="187.63" y1="778.49" x2="224.63" y2="778.49" xlink:href="#linear-gradient-9"/><linearGradient id="linear-gradient-42" x1="146.63" y1="779.48" x2="174.95" y2="779.48" gradientTransform="matrix(-1, 0, 0, 1, 360.19, 0)" xlink:href="#linear-gradient-8"/><linearGradient id="linear-gradient-43" x1="191.74" y1="773.81" x2="220.52" y2="773.81" xlink:href="#linear-gradient-9"/><linearGradient id="linear-gradient-44" x1="150.11" y1="725.37" x2="171.52" y2="725.37" gradientTransform="matrix(-1, 0, 0, 1, 360.19, 0)" xlink:href="#linear-gradient-8"/><linearGradient id="linear-gradient-45" x1="180.3" y1="652.1" x2="159.74" y2="672.79" gradientTransform="matrix(-1, 0, 0, 1, 360.19, 0)" xlink:href="#linear-gradient-13"/><linearGradient id="linear-gradient-46" x1="146.63" y1="676.03" x2="174.95" y2="676.03" gradientTransform="matrix(-1, 0, 0, 1, 360.19, 0)" xlink:href="#linear-gradient-8"/><linearGradient id="linear-gradient-47" x1="191.74" y1="670.35" x2="220.52" y2="670.35" xlink:href="#linear-gradient-9"/><linearGradient id="linear-gradient-48" x1="307.74" y1="639.76" x2="337.96" y2="707.57" xlink:href="#New_Gradient_Swatch_copy_25"/><linearGradient id="linear-gradient-49" x1="110.7" y1="617.89" x2="110.7" y2="738.35" xlink:href="#New_Gradient_Swatch_copy_25"/><linearGradient id="linear-gradient-50" x1="402.96" y1="207.77" x2="169.26" y2="653.15" xlink:href="#linear-gradient-3"/><linearGradient id="New_Gradient_Swatch_copy_25-3" x1="283.27" y1="492.07" x2="764.96" y2="347.84" xlink:href="#New_Gradient_Swatch_copy_25"/><linearGradient id="New_Gradient_Swatch_copy_25-4" x1="-156.97" y1="549.99" x2="470.68" y2="409.29" xlink:href="#New_Gradient_Swatch_copy_25"/><linearGradient id="New_Gradient_Swatch_copy_26" x1="155.53" y1="661.4" x2="146.88" y2="280.82" gradientTransform="matrix(-1, 0, 0, 1, 405.44, 0)" gradientUnits="userSpaceOnUse"><stop offset="0.03" stop-color="#7c1dc9"/><stop offset="0.21" stop-color="#6e41d2"/><stop offset="0.62" stop-color="#4c9be8"/><stop offset="1" stop-color="#2af6ff"/></linearGradient><linearGradient id="New_Gradient_Swatch_copy_26-2" x1="155" y1="661.41" x2="146.35" y2="280.83" xlink:href="#New_Gradient_Swatch_copy_26"/><linearGradient id="New_Gradient_Swatch_copy_26-3" x1="154.46" y1="661.43" x2="145.81" y2="280.84" xlink:href="#New_Gradient_Swatch_copy_26"/><linearGradient id="New_Gradient_Swatch_copy_26-4" x1="153.93" y1="661.44" x2="145.28" y2="280.85" xlink:href="#New_Gradient_Swatch_copy_26"/><linearGradient id="New_Gradient_Swatch_copy_26-5" x1="153.4" y1="661.45" x2="144.75" y2="280.87" xlink:href="#New_Gradient_Swatch_copy_26"/><linearGradient id="New_Gradient_Swatch_copy_26-6" x1="152.87" y1="661.46" x2="144.22" y2="280.88" xlink:href="#New_Gradient_Swatch_copy_26"/><linearGradient id="New_Gradient_Swatch_copy_26-7" x1="152.34" y1="661.47" x2="143.69" y2="280.89" xlink:href="#New_Gradient_Swatch_copy_26"/><linearGradient id="New_Gradient_Swatch_copy_26-8" x1="151.81" y1="661.49" x2="143.16" y2="280.9" xlink:href="#New_Gradient_Swatch_copy_26"/><linearGradient id="New_Gradient_Swatch_copy_26-9" x1="151.28" y1="661.5" x2="142.63" y2="280.91" xlink:href="#New_Gradient_Swatch_copy_26"/><linearGradient id="linear-gradient-51" x1="316.17" y1="623.15" x2="323.38" y2="269.96" gradientTransform="matrix(-1, 0, 0, 1, 405.44, 0)" gradientUnits="userSpaceOnUse"><stop offset="0.03" stop-color="#45108a"/><stop offset="1" stop-color="#3746a3"/></linearGradient><linearGradient id="linear-gradient-52" x1="316.65" y1="623.16" x2="323.85" y2="269.97" xlink:href="#linear-gradient-51"/><linearGradient id="linear-gradient-53" x1="317.12" y1="623.17" x2="324.33" y2="269.98" xlink:href="#linear-gradient-51"/><linearGradient id="linear-gradient-54" x1="317.6" y1="623.18" x2="324.81" y2="269.99" xlink:href="#linear-gradient-51"/><linearGradient id="linear-gradient-55" x1="318.08" y1="623.19" x2="325.28" y2="270" xlink:href="#linear-gradient-51"/><linearGradient id="linear-gradient-56" x1="318.55" y1="623.2" x2="325.76" y2="270.01" xlink:href="#linear-gradient-51"/><linearGradient id="linear-gradient-57" x1="319.03" y1="623.21" x2="326.24" y2="270.02" xlink:href="#linear-gradient-51"/><linearGradient id="linear-gradient-58" x1="319.51" y1="623.22" x2="326.71" y2="270.03" xlink:href="#linear-gradient-51"/><linearGradient id="linear-gradient-59" x1="319.98" y1="623.23" x2="327.19" y2="270.04" xlink:href="#linear-gradient-51"/><linearGradient id="New_Gradient_Swatch_copy_25-5" x1="412.56" y1="-27.12" x2="222.14" y2="335.78" xlink:href="#New_Gradient_Swatch_copy_25"/><linearGradient id="New_Gradient_Swatch_copy_26-10" x1="285.65" y1="275.7" x2="735.94" y2="140.87" xlink:href="#New_Gradient_Swatch_copy_26"/><linearGradient id="New_Gradient_Swatch_copy_26-11" x1="-136.61" y1="329.77" x2="449.41" y2="198.4" xlink:href="#New_Gradient_Swatch_copy_26"/><linearGradient id="New_Gradient_Swatch_copy_25-6" x1="285.65" y1="265.97" x2="735.94" y2="131.14" xlink:href="#New_Gradient_Swatch_copy_25"/><linearGradient id="New_Gradient_Swatch_copy_25-7" x1="-136.61" y1="320.04" x2="449.41" y2="188.67" xlink:href="#New_Gradient_Swatch_copy_25"/><linearGradient id="New_Gradient_Swatch_copy_26-12" x1="137.05" y1="567.43" x2="148.59" y2="218.56" xlink:href="#New_Gradient_Swatch_copy_26"/><linearGradient id="New_Gradient_Swatch_copy_26-13" x1="138.29" y1="555.56" x2="149.82" y2="206.69" xlink:href="#New_Gradient_Swatch_copy_26"/><linearGradient id="New_Gradient_Swatch_copy_26-14" x1="139.52" y1="543.69" x2="151.06" y2="194.82" xlink:href="#New_Gradient_Swatch_copy_26"/><linearGradient id="New_Gradient_Swatch_copy_26-15" x1="140.76" y1="531.82" x2="152.29" y2="182.95" xlink:href="#New_Gradient_Swatch_copy_26"/><linearGradient id="New_Gradient_Swatch_copy_26-16" x1="141.99" y1="519.95" x2="153.52" y2="171.08" xlink:href="#New_Gradient_Swatch_copy_26"/><linearGradient id="New_Gradient_Swatch_copy_26-17" x1="143.22" y1="508.08" x2="154.76" y2="159.21" xlink:href="#New_Gradient_Swatch_copy_26"/><linearGradient id="linear-gradient-60" x1="270.02" y1="455.4" x2="343.54" y2="79.14" xlink:href="#linear-gradient-51"/><linearGradient id="linear-gradient-61" x1="276.93" y1="445.51" x2="350.45" y2="69.25" xlink:href="#linear-gradient-51"/><linearGradient id="linear-gradient-62" x1="283.83" y1="435.61" x2="357.36" y2="59.35" xlink:href="#linear-gradient-51"/><linearGradient id="linear-gradient-63" x1="290.74" y1="425.71" x2="364.26" y2="49.45" xlink:href="#linear-gradient-51"/><linearGradient id="linear-gradient-64" x1="297.65" y1="415.81" x2="371.17" y2="39.55" xlink:href="#linear-gradient-51"/><linearGradient id="linear-gradient-65" x1="304.56" y1="405.92" x2="378.08" y2="29.66" xlink:href="#linear-gradient-51"/><linearGradient id="New_Gradient_Swatch_copy_25-8" x1="412.56" y1="-222.73" x2="222.14" y2="140.17" xlink:href="#New_Gradient_Swatch_copy_25"/><linearGradient id="New_Gradient_Swatch_copy_25-9" x1="285.26" y1="151.42" x2="612.37" y2="53.48" xlink:href="#New_Gradient_Swatch_copy_25"/><linearGradient id="New_Gradient_Swatch_copy_25-10" x1="-47.86" y1="190.53" x2="376.12" y2="95.48" xlink:href="#New_Gradient_Swatch_copy_25"/><linearGradient id="linear-gradient-66" x1="286.05" y1="141.32" x2="602.75" y2="46.49" xlink:href="#linear-gradient-9"/><linearGradient id="linear-gradient-67" x1="-41.11" y1="179.14" x2="369.07" y2="87.19" xlink:href="#linear-gradient-9"/><linearGradient id="New_Gradient_Swatch_copy_25-11" x1="392.31" y1="-211.85" x2="223.46" y2="109.94" xlink:href="#New_Gradient_Swatch_copy_25"/><linearGradient id="linear-gradient-68" x1="319.08" y1="766.95" x2="333.23" y2="73.84" xlink:href="#linear-gradient-51"/></defs><g class="cls-1"><g id="Layer_2" data-name="Layer 2"><g id="_Layer_" data-name="&lt;Layer&gt;"><polygon class="cls-2" points="171.13 590.28 171.13 808.57 0 710.17 0 491.88 171.13 590.28"/><polygon class="cls-3" points="171.04 590.28 171.04 808.57 339.79 710.2 339.79 492.01 171.04 590.28"/><polygon class="cls-4" points="334.5 691.58 334.5 517.5 190.1 601.24 190.1 775.39 334.5 691.58"/><polygon class="cls-5" points="233.12 831.7 233.12 845.31 171.19 808.72 171.19 795.11 233.12 831.7"/><polygon class="cls-6" points="233.03 831.7 233.03 845.31 402.94 746.26 402.94 732.75 233.03 831.7"/><polygon class="cls-7" points="402.94 732.75 233.03 831.7 171.19 795.11 341.28 696.06 402.94 732.75"/><polygon class="cls-8" points="214.06 806.68 214.06 820.29 171.19 795.22 171.19 781.61 214.06 806.68"/><polygon class="cls-9" points="213.96 806.68 213.96 820.29 383.87 721.24 383.87 707.73 213.96 806.68"/><polygon class="cls-10" points="383.87 707.73 213.96 806.68 171.19 781.61 341.28 682.55 383.87 707.73"/><polygon class="cls-11" points="324.67 692.47 382.37 708.94 213.96 806.65 193.9 768.5 324.67 692.47"/><path class="cls-12" d="M326.46,694.13h37v2.37h0v.1c0,6-8.28,10.82-18.5,10.82s-18.49-4.82-18.49-10.77v-.15h0Z"/><path class="cls-13" d="M326.46,694.2c0,5.12,8.28,9.27,18.49,9.27s18.5-4.15,18.5-9.27-8.28-9.27-18.5-9.27S326.46,689.08,326.46,694.2Z"/><path class="cls-14" d="M330.57,689.47h28.77v3h0v.11c0,4.63-6.44,8.38-14.39,8.38s-14.38-3.75-14.38-8.38v-3.08Z"/><path class="cls-15" d="M330.57,689.52c0,4,6.44,7.22,14.38,7.22s14.39-3.23,14.39-7.22-6.44-7.21-14.39-7.21S330.57,685.54,330.57,689.52Z"/><path class="cls-16" d="M334.08,587.31h21.75V688.44h0v.06c0,3.53-4.87,6.36-10.88,6.36s-10.87-2.83-10.87-6.33v-.09h0Z"/><path class="cls-17" d="M334.08,587.36c0,3,4.87,5.45,10.87,5.45s10.88-2.44,10.88-5.45S351,581.9,345,581.9,334.08,584.35,334.08,587.36Z"/><path class="cls-18" d="M330.57,586h28.77v3h0v.11c0,4.63-6.44,8.38-14.39,8.38s-14.38-3.75-14.38-8.38V586Z"/><path class="cls-19" d="M330.57,586.07c0,4,6.44,7.21,14.38,7.21s14.39-3.23,14.39-7.21-6.44-7.21-14.39-7.21S330.57,582.09,330.57,586.07Z"/><path class="cls-20" d="M290.07,715.19h37v2.38h0s0,.1,0,.15c0,5.95-8.28,10.77-18.5,10.77s-18.5-4.82-18.5-10.77a.58.58,0,0,1,0-.1v-2.43Z"/><path class="cls-21" d="M290.07,715.27c0,5.12,8.29,9.27,18.5,9.27s18.5-4.15,18.5-9.27-8.28-9.27-18.5-9.27S290.07,710.15,290.07,715.27Z"/><path class="cls-22" d="M294.18,710.54H323v3h0v.12c0,4.63-6.44,8.38-14.39,8.38s-14.39-3.75-14.39-8.38v-3.08Z"/><path class="cls-23" d="M294.18,710.59c0,4,6.45,7.21,14.39,7.21S323,714.58,323,710.59s-6.44-7.21-14.39-7.21S294.18,706.61,294.18,710.59Z"/><path class="cls-24" d="M297.7,608.38h21.75V709.51h0v.09c0,3.5-4.87,6.33-10.88,6.33s-10.87-2.83-10.87-6.33v-.09h0Z"/><path class="cls-25" d="M297.7,608.42c0,3,4.86,5.46,10.87,5.46s10.88-2.45,10.88-5.46S314.58,603,308.57,603,297.7,605.41,297.7,608.42Z"/><path class="cls-26" d="M294.18,607.08H323v3h0v.07c0,4.67-6.44,8.42-14.39,8.42s-14.39-3.75-14.39-8.38a1,1,0,0,0,0-.11h0Z"/><path class="cls-27" d="M294.18,607.14c0,4,6.45,7.21,14.39,7.21S323,611.12,323,607.14s-6.44-7.21-14.39-7.21S294.18,603.15,294.18,607.14Z"/><path class="cls-28" d="M253.69,736.26h37v2.38h0s0,.1,0,.15c0,6-8.28,10.77-18.5,10.77s-18.5-4.82-18.5-10.77a.58.58,0,0,1,0-.1v-2.43Z"/><path class="cls-29" d="M253.69,736.34c0,5.12,8.28,9.27,18.5,9.27s18.5-4.15,18.5-9.27-8.28-9.27-18.5-9.27S253.69,731.22,253.69,736.34Z"/><path class="cls-30" d="M257.8,731.6h28.78v3h0v.12c0,4.62-6.44,8.38-14.39,8.38s-14.39-3.76-14.39-8.38V731.6Z"/><path class="cls-31" d="M257.8,731.66c0,4,6.44,7.21,14.39,7.21s14.39-3.23,14.39-7.21-6.44-7.21-14.39-7.21S257.8,727.68,257.8,731.66Z"/><path class="cls-32" d="M261.31,629.45h21.76V730.58h0v.09c0,3.49-4.87,6.33-10.88,6.33s-10.88-2.84-10.88-6.33v-.09h0Z"/><path class="cls-33" d="M261.31,629.49c0,3,4.87,5.45,10.88,5.45s10.88-2.44,10.88-5.45S278.2,624,272.19,624,261.31,626.48,261.31,629.49Z"/><path class="cls-34" d="M257.8,628.15h28.78v3h0v.07c0,4.67-6.44,8.42-14.39,8.42s-14.39-3.75-14.39-8.38c0,0,0-.08,0-.11h0Z"/><path class="cls-35" d="M257.8,628.2c0,4,6.44,7.22,14.39,7.22s14.39-3.23,14.39-7.22S280.14,621,272.19,621,257.8,624.22,257.8,628.2Z"/><path class="cls-36" d="M217.2,757.34h37v2.38h0v.1c0,6-8.28,10.82-18.5,10.82s-18.49-4.82-18.49-10.77v-.15h0Z"/><path class="cls-37" d="M217.2,757.42c0,5.12,8.28,9.27,18.49,9.27s18.5-4.15,18.5-9.27-8.28-9.27-18.5-9.27S217.2,752.3,217.2,757.42Z"/><path class="cls-38" d="M221.31,752.68h28.77v3h0v.12c0,4.63-6.44,8.38-14.39,8.38s-14.38-3.75-14.38-8.38v-3.09Z"/><path class="cls-39" d="M221.31,752.74c0,4,6.44,7.21,14.38,7.21s14.39-3.22,14.39-7.21-6.44-7.21-14.39-7.21S221.31,748.76,221.31,752.74Z"/><path class="cls-40" d="M224.82,650.53h21.75V751.66h0v.09c0,3.5-4.87,6.33-10.88,6.33s-10.87-2.83-10.87-6.33V650.53Z"/><path class="cls-41" d="M224.82,650.57c0,3,4.87,5.45,10.87,5.45s10.88-2.44,10.88-5.45-4.87-5.45-10.88-5.45S224.82,647.56,224.82,650.57Z"/><path class="cls-42" d="M221.31,649.23h28.77v3h0v.07c0,4.67-6.44,8.42-14.39,8.42s-14.38-3.75-14.38-8.38v-.11h0Z"/><path class="cls-43" d="M221.31,649.29c0,4,6.44,7.21,14.38,7.21s14.39-3.23,14.39-7.21-6.44-7.22-14.39-7.22S221.31,645.3,221.31,649.29Z"/><path class="cls-44" d="M180.81,778.41h37v2.38h0v.15c0,5.95-8.28,10.77-18.5,10.77s-18.5-4.82-18.5-10.77a.58.58,0,0,1,0-.1v-2.43Z"/><path class="cls-45" d="M180.81,778.49c0,5.12,8.29,9.27,18.5,9.27s18.5-4.15,18.5-9.27-8.28-9.27-18.5-9.27S180.81,773.37,180.81,778.49Z"/><path class="cls-46" d="M184.92,773.75H213.7v3h0v.08c0,4.66-6.44,8.42-14.39,8.42s-14.39-3.76-14.39-8.38v-.12h0Z"/><path class="cls-47" d="M184.92,773.81c0,4,6.45,7.21,14.39,7.21s14.39-3.23,14.39-7.21-6.44-7.21-14.39-7.21S184.92,769.83,184.92,773.81Z"/><path class="cls-48" d="M188.44,671.6h21.75V772.73h0v.06c0,3.52-4.87,6.36-10.88,6.36s-10.87-2.84-10.87-6.34v-.08h0Z"/><path class="cls-49" d="M188.44,671.64c0,3,4.87,5.45,10.87,5.45s10.88-2.44,10.88-5.45-4.87-5.45-10.88-5.45S188.44,668.63,188.44,671.64Z"/><path class="cls-50" d="M184.92,670.3H213.7v3h0v.08c0,4.67-6.44,8.42-14.39,8.42s-14.39-3.75-14.39-8.38v-.12h0Z"/><path class="cls-51" d="M184.92,670.35c0,4,6.45,7.22,14.39,7.22s14.39-3.23,14.39-7.22-6.44-7.21-14.39-7.21S184.92,666.37,184.92,670.35Z"/><polygon class="cls-52" points="209.89 675.8 209.89 694.18 0 571.21 0 552.83 209.89 675.8"/><polygon class="cls-53" points="209.79 675.8 209.79 694.18 379.7 595.13 379.7 576.86 209.79 675.8"/><polygon class="cls-54" points="379.7 576.86 209.79 675.8 0 552.83 170.09 453.78 379.7 576.86"/><polygon class="cls-55" points="171.13 408.57 171.13 652.05 0 553.65 0 310.17 171.13 408.57"/><polygon class="cls-56" points="171.04 408.57 171.04 652.05 339.79 553.67 339.79 310.3 171.04 408.57"/><path class="cls-57" d="M187.82,422.83v14.69l16.45-10.11V412.74Zm46.47-27.39-16.45,10.1v14.68l16.45-10.11Zm90-51.89-16.45,10.09v14.69l16.45-10.11Zm-30,17.29-16.44,10.1v14.68l16.44-10.11Zm-30,17.3-16.45,10.1v14.68l16.45-10.11Z"/><path class="cls-58" d="M187.82,446.19v14.68l16.45-10.11V436.1Zm46.47-27.39-16.45,10.09v14.69l16.45-10.11Zm90-51.9L307.88,377v14.68l16.45-10.11Zm-30,17.3-16.44,10.09V409l16.44-10.11Zm-30,17.3-16.45,10.09v14.69l16.45-10.11Z"/><path class="cls-59" d="M187.82,469.54v14.69l16.45-10.11V459.45Zm46.47-27.39-16.45,10.1v14.68l16.45-10.11Zm90-51.89-16.45,10.09V415l16.45-10.11Zm-30,17.3-16.44,10.09v14.69l16.44-10.11Zm-30,17.29L247.85,435v14.68l16.45-10.11Z"/><path class="cls-60" d="M187.82,492.9v14.69l16.45-10.11V482.81Zm46.47-27.39L217.84,475.6v14.69l16.45-10.11Zm90-51.9-16.45,10.1v14.68l16.45-10.11Zm-30,17.3L277.87,441v14.68l16.44-10.11Zm-30,17.3L247.85,458.3V473l16.45-10.11Z"/><path class="cls-61" d="M187.82,516.26v14.68l16.45-10.11V506.16Zm46.47-27.4L217.84,499v14.68l16.45-10.11Zm90-51.89-16.45,10.09v14.69l16.45-10.11Zm-30,17.3-16.44,10.09v14.69l16.44-10.11Zm-30,17.3-16.45,10.09v14.68l16.45-10.11Z"/><path class="cls-62" d="M187.82,539.61V554.3l16.45-10.11V529.52Zm46.47-27.39-16.45,10.09V537l16.45-10.11Zm90-51.9-16.45,10.1V485.1L324.33,475Zm-30,17.3-16.44,10.1V502.4l16.44-10.11Zm-30,17.3L247.85,505V519.7l16.45-10.11Z"/><path class="cls-63" d="M187.82,563v14.68l16.45-10.11V552.87Zm46.47-27.4-16.45,10.1v14.68l16.45-10.11Zm90-51.89-16.45,10.09v14.69l16.45-10.11Zm-30,17.3-16.44,10.09v14.69l16.44-10.11Zm-30,17.3-16.45,10.09v14.69L264.3,533Z"/><path class="cls-64" d="M187.82,586.32V601l16.45-10.11V576.23Zm46.47-27.39L217.84,569v14.69l16.45-10.11Zm90-51.89-16.45,10.09v14.68l16.45-10.1Zm-30,17.29-16.44,10.1v14.68L294.31,539Zm-30,17.3-16.45,10.1v14.68L264.3,556.3Z"/><path class="cls-65" d="M187.82,609.68v14.68l16.45-10.11V599.58Zm46.47-27.39-16.45,10.09v14.69L234.29,597Zm90-51.9-16.45,10.09v14.69l16.45-10.11Zm-30,17.3-16.44,10.09v14.69l16.44-10.11Zm-30,17.3-16.45,10.09v14.69l16.45-10.11Z"/><path class="cls-66" d="M16.27,358.22l16.45,10.11V353.64L16.27,343.55Zm30,17.29,16.45,10.11V370.94l-16.45-10.1Zm30,17.3,16.45,10.11V388.24L76.3,378.14Zm60,19.93v14.67l16.45,10.11V422.83Zm-30-2.63,16.45,10.11V405.54l-16.45-10.1Z"/><path class="cls-67" d="M16.27,381.57l16.45,10.11V377L16.27,366.9Zm30,17.3L62.74,409V394.29L46.29,384.2Zm30,17.3,16.45,10.11V411.59L76.3,401.5Zm60,19.93v14.66l16.45,10.11V446.19Zm-30-2.63,16.45,10.11V428.89L106.32,418.8Z"/><path class="cls-68" d="M16.27,404.93,32.72,415V400.35L16.27,390.26Zm30,17.3,16.45,10.11V417.65L46.29,407.56Zm30,17.29,16.45,10.11V435L76.3,424.85Zm60,19.93v14.67l16.45,10.11V469.54Zm-30-2.63,16.45,10.11V452.25l-16.45-10.1Z"/><path class="cls-69" d="M16.27,428.28l16.45,10.11V423.71l-16.45-10.1Zm30,17.3,16.45,10.11V441l-16.45-10.1Zm30,17.3L92.75,473V458.3L76.3,448.21Zm60,19.93v14.67l16.45,10.11V492.9Zm-30-2.63,16.45,10.11V475.6l-16.45-10.09Z"/><path class="cls-70" d="M16.27,451.64l16.45,10.11V447.06L16.27,437Zm30,17.3,16.45,10.11V464.36L46.29,454.27Zm30,17.29,16.45,10.11V481.66L76.3,471.57Zm60,19.93v14.67l16.45,10.11V516.26Zm-30-2.63,16.45,10.11V499l-16.45-10.1Z"/><path class="cls-71" d="M16.27,475,32.72,485.1V470.42l-16.45-10.1Zm30,17.3L62.74,502.4V487.72l-16.45-10.1Zm30,17.3L92.75,519.7V505L76.3,494.92Zm60,19.93v14.67l16.45,10.11V539.61Zm-30-2.63L122.77,537V522.31l-16.45-10.09Z"/><path class="cls-72" d="M16.27,498.35l16.45,10.11V493.77L16.27,483.68Zm30,17.3,16.45,10.11V511.07L46.29,501Zm30,17.3,16.45,10.11V528.37L76.3,518.28Zm60,19.92v14.67l16.45,10.11V563Zm-30-2.63,16.45,10.11V545.67l-16.45-10.1Z"/><path class="cls-73" d="M16.27,521.71l16.45,10.1V517.13L16.27,507Zm30,17.29,16.45,10.11V534.43l-16.45-10.1Zm30,17.3,16.45,10.11V551.73L76.3,541.63Zm60,19.93V590.9L152.78,601V586.32Zm-30-2.63,16.45,10.11V569l-16.45-10.09Z"/><path class="cls-74" d="M16.27,545.06l16.45,10.11V540.48L16.27,530.39Zm30,17.3,16.45,10.11V557.78L46.29,547.69Zm30,17.3,16.45,10.11V575.08L76.3,565Zm60,19.92v14.67l16.45,10.11V609.68Zm-30-2.62,16.45,10.11V592.38l-16.45-10.09Z"/><polygon class="cls-75" points="339.79 310.3 171.04 408.57 0 310.17 168.93 211.79 339.79 310.3"/><polygon class="cls-76" points="171.13 222.69 171.13 406.62 0 308.21 0 124.29 171.13 222.69"/><polygon class="cls-77" points="171.04 222.69 171.04 406.62 339.79 308.24 339.79 124.42 171.04 222.69"/><polygon class="cls-78" points="171.13 212.96 171.13 396.88 0 298.48 0 114.56 171.13 212.96"/><polygon class="cls-79" points="171.04 212.96 171.04 396.88 339.79 298.51 339.79 114.69 171.04 212.96"/><path class="cls-80" d="M187.82,227.22v14.69l16.45-10.11V217.13Zm46.47-27.39-16.45,10.09v14.69l16.45-10.11Zm90-51.9L307.88,158v14.68l16.45-10.11Zm-30,17.3-16.44,10.1V190l16.44-10.11Zm-30,17.3-16.45,10.09v14.69L264.3,197.2Z"/><path class="cls-81" d="M187.82,252.68v14.68l16.45-10.11V242.59Zm46.47-27.39-16.45,10.09v14.69L234.29,240Zm90-51.9-16.45,10.1v14.68l16.45-10.11Zm-30,17.3-16.44,10.09v14.69l16.44-10.11Zm-30,17.3-16.45,10.09v14.69l16.45-10.11Z"/><path class="cls-82" d="M187.82,278.14v14.68l16.45-10.11V268Zm46.47-27.39-16.45,10.09v14.68l16.45-10.11Zm90-51.9-16.45,10.09v14.69l16.45-10.11Zm-30,17.3-16.44,10.09v14.69l16.44-10.11Zm-30,17.3-16.45,10.09v14.69l16.45-10.11Z"/><path class="cls-83" d="M187.82,303.6v14.68l16.45-10.11V293.5Zm46.47-27.4-16.45,10.1V301l16.45-10.11Zm90-51.89L307.88,234.4v14.69L324.33,239Zm-30,17.3L277.87,251.7v14.69l16.44-10.11Zm-30,17.3L247.85,269v14.68l16.45-10.1Z"/><path class="cls-84" d="M187.82,329.05v14.69l16.45-10.11V319Zm46.47-27.39-16.45,10.1v14.68l16.45-10.11Zm90-51.89-16.45,10.09v14.69l16.45-10.11Zm-30,17.3-16.44,10.09v14.68l16.44-10.1Zm-30,17.29-16.45,10.1v14.68L264.3,299Z"/><path class="cls-85" d="M187.82,354.51V369.2l16.45-10.11V344.42Zm46.47-27.39-16.45,10.09V351.9l16.45-10.11Zm90-51.89-16.45,10.09V300l16.45-10.1Zm-30,17.29-16.44,10.1V317.3l16.44-10.11Zm-30,17.3-16.45,10.1V334.6l16.45-10.11Z"/><path class="cls-86" d="M16.27,162.6l16.45,10.11V158l-16.45-10.1Zm30,17.3L62.74,190V175.33l-16.45-10.1Zm30,17.3,16.45,10.11V192.62L76.3,182.53Zm60,19.93V231.8l16.45,10.11V227.22Zm-30-2.63,16.45,10.11V209.92l-16.45-10.09Z"/><path class="cls-87" d="M16.27,188.06l16.45,10.11V183.49l-16.45-10.1Zm30,17.3,16.45,10.11V200.78L46.29,190.69Zm30,17.3,16.45,10.11V218.08L76.3,208Zm60,19.93v14.66l16.45,10.11V252.68Zm-30-2.63,16.45,10.11V235.38l-16.45-10.09Z"/><path class="cls-88" d="M16.27,213.52l16.45,10.11V208.94L16.27,198.85Zm30,17.3,16.45,10.11V226.24L46.29,216.15Zm30,17.3,16.45,10.11V243.54L76.3,233.45Zm60,19.92v14.67l16.45,10.11V278.14Zm-30-2.63,16.45,10.11V260.84l-16.45-10.09Z"/><path class="cls-89" d="M16.27,239l16.45,10.11V234.4L16.27,224.31Zm30,17.3,16.45,10.11V251.7L46.29,241.61Zm30,17.3,16.45,10.1V269L76.3,258.91Zm60,19.92v14.67l16.45,10.11V303.6Zm-30-2.63L122.77,301V286.3l-16.45-10.1Z"/><path class="cls-90" d="M16.27,264.44l16.45,10.11V259.86L16.27,249.77Zm30,17.3,16.45,10.1V277.16L46.29,267.07ZM76.3,299l16.45,10.11V294.46L76.3,284.36Zm60,19.93v14.67l16.45,10.11V329.05Zm-30-2.63,16.45,10.11V311.76l-16.45-10.1Z"/><path class="cls-91" d="M16.27,289.9,32.72,300V285.32L16.27,275.23Zm30,17.29L62.74,317.3V302.62l-16.45-10.1Zm30,17.3L92.75,334.6V319.92L76.3,309.82Zm60,19.93v14.67l16.45,10.11V354.51Zm-30-2.63,16.45,10.11V337.21l-16.45-10.09Z"/><polygon class="cls-92" points="339.79 114.69 171.04 212.96 0 114.56 168.93 16.18 339.79 114.69"/><polygon class="cls-93" points="171.19 174.48 171.19 200.73 19.45 113.48 19.45 87.23 171.19 174.48"/><polygon class="cls-94" points="171.11 174.48 171.11 200.73 320.74 113.5 320.74 87.34 171.11 174.48"/><polygon class="cls-95" points="171.19 174.48 171.19 180.99 19.45 93.73 19.45 87.23 171.19 174.48"/><polygon class="cls-96" points="171.11 174.48 171.11 180.99 320.74 93.76 320.74 87.34 171.11 174.48"/><polygon class="cls-97" points="320.74 87.34 171.11 174.48 19.45 87.23 169.24 0 320.74 87.34"/><path class="cls-98" d="M136.33,652.61V760.4l16.45,10.11V662.7ZM16.27,691.2l16.45,10.11V593.51l-16.45-10.1Zm30,17.3,16.45,10.11V610.81l-16.45-10.1Zm30,17.3,16.45,10.11V628.11L76.3,618Zm30,17.3,16.45,10.11V645.4l-16.45-10.09Z"/></g></g></g></svg>