<svg xmlns="http://www.w3.org/2000/svg" xmlns:xlink="http://www.w3.org/1999/xlink" viewBox="0 0 424.97 1334.6"><defs><style>.cls-1{fill:url(#New_Gradient_Swatch_copy_25);}.cls-2{fill:url(#linear-gradient);}.cls-3{fill:url(#New_Gradient_Swatch_copy_25-2);}.cls-4{fill:url(#linear-gradient-2);}.cls-5{fill:#006581;}.cls-6{fill:url(#linear-gradient-3);}.cls-7{fill:url(#linear-gradient-4);}.cls-8{fill:url(#New_Gradient_Swatch_copy_25-3);}.cls-9{fill:url(#New_Gradient_Swatch_copy_25-4);}.cls-10{fill:url(#linear-gradient-5);}.cls-11{fill:url(#New_Gradient_Swatch_copy_25-5);}.cls-12{fill:url(#linear-gradient-6);}.cls-13{fill:url(#linear-gradient-7);}.cls-14{fill:url(#New_Gradient_Swatch_copy_25-6);}.cls-15{fill:url(#linear-gradient-8);}.cls-16{fill:url(#New_Gradient_Swatch_copy_25-7);}.cls-17{fill:url(#New_Gradient_Swatch_copy_25-8);}.cls-18{fill:url(#linear-gradient-9);}.cls-19{fill:url(#linear-gradient-10);}.cls-20{fill:url(#linear-gradient-11);}.cls-21{fill:url(#linear-gradient-12);}.cls-22{fill:url(#linear-gradient-13);}</style><linearGradient id="New_Gradient_Swatch_copy_25" x1="-281.03" y1="1222.06" x2="350.51" y2="-409.27" gradientTransform="matrix(0.87, -0.5, 0, 1.15, 199.2, 683.38)" gradientUnits="userSpaceOnUse"><stop offset="0" stop-color="#25054d"/><stop offset="1" stop-color="#45108a"/></linearGradient><linearGradient id="linear-gradient" x1="73.77" y1="525.83" x2="210.23" y2="-294.42" gradientTransform="matrix(0.87, -0.5, 0, 1.15, 199.2, 683.38)" gradientUnits="userSpaceOnUse"><stop offset="0" stop-color="#00e5ff"/><stop offset="1" stop-color="#c0f"/></linearGradient><linearGradient id="New_Gradient_Swatch_copy_25-2" x1="-101.37" y1="1276.8" x2="829.09" y2="-969.66" gradientTransform="matrix(1, 0, 0, 1, 0, 0)" xlink:href="#New_Gradient_Swatch_copy_25"/><linearGradient id="linear-gradient-2" x1="212.49" y1="296.88" x2="424.97" y2="296.88" gradientTransform="matrix(1, 0, 0, 1, 0, 0)" xlink:href="#linear-gradient"/><linearGradient id="linear-gradient-3" x1="212.49" y1="1254.21" x2="424.97" y2="1254.21" gradientTransform="matrix(1, 0, 0, 1, 0, 0)" xlink:href="#linear-gradient"/><linearGradient id="linear-gradient-4" x1="0" y1="1254.21" x2="212.49" y2="1254.21" gradientTransform="matrix(1, 0, 0, 1, 0, 0)" xlink:href="#linear-gradient"/><linearGradient id="New_Gradient_Swatch_copy_25-3" x1="-343.04" y1="566.33" x2="484.41" y2="45.25" gradientTransform="matrix(1, 0, 0, 1, 0, 0)" xlink:href="#New_Gradient_Swatch_copy_25"/><linearGradient id="New_Gradient_Swatch_copy_25-4" x1="466.62" y1="-14.98" x2="147.22" y2="302.59" gradientTransform="matrix(1, 0, 0, 1, 0, 0)" xlink:href="#New_Gradient_Swatch_copy_25"/><linearGradient id="linear-gradient-5" x1="212.49" y1="253.19" x2="405.64" y2="253.19" gradientTransform="matrix(1, 0, 0, 1, 0, 0)" xlink:href="#linear-gradient"/><linearGradient id="New_Gradient_Swatch_copy_25-5" x1="207.36" y1="-21.94" x2="-27.6" y2="398.42" gradientTransform="matrix(1, 0, 0, 1, 0, 0)" xlink:href="#New_Gradient_Swatch_copy_25"/><linearGradient id="linear-gradient-6" x1="260.36" y1="156.26" x2="-32.43" y2="302.19" gradientTransform="matrix(1, 0, 0, 1, 0, 0)" xlink:href="#linear-gradient"/><linearGradient id="linear-gradient-7" x1="212.49" y1="184.98" x2="265.61" y2="184.98" gradientTransform="matrix(1, 0, 0, 1, 0, 0)" xlink:href="#linear-gradient"/><linearGradient id="New_Gradient_Swatch_copy_25-6" x1="73.6" y1="212" x2="280.47" y2="81.73" gradientTransform="matrix(1, 0, 0, 1, 0, 0)" xlink:href="#New_Gradient_Swatch_copy_25"/><linearGradient id="linear-gradient-8" x1="212.49" y1="115.79" x2="228.09" y2="115.79" gradientTransform="matrix(1, 0, 0, 1, 0, 0)" xlink:href="#linear-gradient"/><linearGradient id="New_Gradient_Swatch_copy_25-7" x1="171.69" y1="123.73" x2="232.46" y2="85.46" gradientTransform="matrix(1, 0, 0, 1, 0, 0)" xlink:href="#New_Gradient_Swatch_copy_25"/><linearGradient id="New_Gradient_Swatch_copy_25-8" x1="199.45" y1="274.58" x2="274.49" y2="167.65" gradientTransform="matrix(1, 0, 0, 1, 0, 0)" xlink:href="#New_Gradient_Swatch_copy_25"/><linearGradient id="linear-gradient-9" x1="211.04" y1="50.78" x2="213.94" y2="50.78" gradientTransform="matrix(1, 0, 0, 1, 0, 0)" xlink:href="#linear-gradient"/><linearGradient id="linear-gradient-10" x1="207.52" y1="4.97" x2="217.46" y2="4.97" gradientTransform="matrix(1, 0, 0, 1, 0, 0)" xlink:href="#linear-gradient"/><linearGradient id="linear-gradient-11" x1="209.34" y1="19.3" x2="215.64" y2="19.3" gradientTransform="matrix(1, 0, 0, 1, 0, 0)" xlink:href="#linear-gradient"/><linearGradient id="linear-gradient-12" x1="209.34" y1="28.12" x2="215.64" y2="28.12" gradientTransform="matrix(1, 0, 0, 1, 0, 0)" xlink:href="#linear-gradient"/><linearGradient id="linear-gradient-13" x1="209.34" y1="36.94" x2="215.64" y2="36.94" gradientTransform="matrix(1, 0, 0, 1, 0, 0)" xlink:href="#linear-gradient"/></defs><g id="Layer_2" data-name="Layer 2"><g id="_Layer_" data-name="&lt;Layer&gt;"><polygon class="cls-1" points="424.97 1173.82 212.49 1296.5 212.49 377.27 424.97 254.59 424.97 1173.82"/><path class="cls-2" d="M251.58,844.89l-14.93,8.62V363.32l14.93-8.62Zm29.84-507.42-14.92,8.62V836.27l14.92-8.61Zm29.85-17.23-14.92,8.61V819l14.92-8.61ZM341.12,303l-14.93,8.61V801.81l14.93-8.62ZM371,285.78,356,294.39V784.58L371,776Zm29.85-17.24-14.93,8.62V767.35l14.93-8.62Zm-149.23,626-14.93,8.62v379.41l14.93-8.61Zm29.84-17.23L266.5,885.9v379.41l14.92-8.61Zm29.85-17.23-14.92,8.61v379.42l14.92-8.62Zm29.85-17.23-14.93,8.61v379.42l14.93-8.62ZM371,825.59,356,834.2v379.42L371,1205Zm29.85-17.24L385.88,817v379.42l14.93-8.62Z"/><polygon class="cls-3" points="0 1173.82 212.49 1296.5 212.49 377.27 0 254.59 0 1173.82"/><polygon class="cls-4" points="424.97 254.59 212.49 377.27 212.49 339.17 424.97 216.49 424.97 254.59"/><polygon class="cls-5" points="0 254.59 212.49 377.27 212.49 339.17 0 216.49 0 254.59"/><polygon class="cls-6" points="424.97 1211.92 212.49 1334.6 212.49 1296.5 424.97 1173.82 424.97 1211.92"/><polygon class="cls-7" points="0 1211.92 212.49 1334.6 212.49 1296.5 0 1173.82 0 1211.92"/><polygon class="cls-8" points="212.49 93.81 424.97 216.49 212.49 339.17 0 216.49 212.49 93.81"/><polygon class="cls-9" points="212.49 103.24 405.64 214.75 405.64 180.12 212.49 68.6 212.49 103.24"/><polygon class="cls-10" points="405.64 214.75 212.49 326.27 212.49 291.63 405.64 180.12 405.64 214.75"/><polygon class="cls-11" points="212.49 103.24 19.34 214.75 19.34 180.12 212.49 68.6 212.49 103.24"/><polygon class="cls-5" points="19.34 214.75 212.49 326.27 212.49 291.63 19.34 180.12 19.34 214.75"/><path class="cls-12" d="M212.49,68.6,19.34,180.12,212.49,291.63,405.64,180.12Zm0,217.39L29.12,180.12,212.49,74.25,395.86,180.12Z"/><polygon class="cls-13" points="265.61 214.75 212.49 245.42 212.49 155.21 265.61 124.54 265.61 214.75"/><polygon class="cls-5" points="159.37 214.75 212.49 245.42 212.49 155.21 159.37 124.54 159.37 214.75"/><polygon class="cls-14" points="212.49 93.87 265.61 124.54 212.49 155.21 159.37 124.54 212.49 93.87"/><polygon class="cls-15" points="228.09 124.54 212.49 133.55 212.49 107.05 228.09 98.04 228.09 124.54"/><polygon class="cls-5" points="196.88 124.54 212.49 133.55 212.49 107.05 196.88 98.04 196.88 124.54"/><polygon class="cls-16" points="212.49 89.03 228.09 98.04 212.49 107.05 196.88 98.04 212.49 89.03"/><polygon class="cls-17" points="249.08 224.29 233.02 233.57 233.02 206.29 249.08 197.02 249.08 224.29"/><path class="cls-18" d="M212.49,98A1.45,1.45,0,0,1,211,96.58V5a1.45,1.45,0,1,1,2.9,0V96.58A1.45,1.45,0,0,1,212.49,98Z"/><path class="cls-19" d="M217.46,5a5,5,0,1,1-5-5A5,5,0,0,1,217.46,5Z"/><path class="cls-20" d="M212.49,22.44a3.15,3.15,0,1,1,3.15-3.14A3.15,3.15,0,0,1,212.49,22.44Z"/><path class="cls-21" d="M212.49,31.26a3.15,3.15,0,1,1,3.15-3.14A3.15,3.15,0,0,1,212.49,31.26Z"/><path class="cls-22" d="M212.49,40.09a3.15,3.15,0,1,1,3.15-3.15A3.16,3.16,0,0,1,212.49,40.09Z"/></g></g></svg>