<svg xmlns="http://www.w3.org/2000/svg" xmlns:xlink="http://www.w3.org/1999/xlink" viewBox="0 0 245.28 454.37"><defs><style>.cls-1{isolation:isolate;}.cls-2{fill:url(#New_Gradient_Swatch_copy_25);}.cls-3{fill:url(#New_Gradient_Swatch_copy_25-2);}.cls-4{fill:url(#New_Gradient_Swatch_copy_25-3);}.cls-5{fill:url(#New_Gradient_Swatch_copy_25-4);}.cls-6{fill:url(#New_Gradient_Swatch_copy_25-5);}.cls-7{fill:url(#linear-gradient);}.cls-8{fill:url(#linear-gradient-2);}.cls-9{fill:url(#linear-gradient-3);}.cls-10{fill:url(#New_Gradient_Swatch_copy_25-6);}.cls-11{fill:url(#New_Gradient_Swatch_copy_25-7);}.cls-12{fill:url(#New_Gradient_Swatch_copy_25-8);}.cls-13{fill:url(#New_Gradient_Swatch_copy_25-9);}.cls-14{fill:url(#New_Gradient_Swatch_copy_25-10);}.cls-15{fill:url(#linear-gradient-4);}.cls-16{fill:url(#linear-gradient-5);}.cls-17{fill:url(#linear-gradient-6);}.cls-18{fill:url(#New_Gradient_Swatch_copy_25-11);}.cls-19{fill:url(#New_Gradient_Swatch_copy_25-12);}.cls-20{fill:url(#New_Gradient_Swatch_copy_25-13);}.cls-21{fill:url(#New_Gradient_Swatch_copy_25-14);}.cls-22{fill:url(#New_Gradient_Swatch_copy_25-15);}.cls-23{fill:url(#linear-gradient-7);}.cls-24{fill:url(#linear-gradient-8);}.cls-25{fill:url(#linear-gradient-9);}.cls-26{fill:url(#New_Gradient_Swatch_copy_25-16);}.cls-27{fill:url(#New_Gradient_Swatch_copy_25-17);}.cls-28{fill:url(#New_Gradient_Swatch_copy_25-18);}.cls-29{fill:url(#New_Gradient_Swatch_copy_25-19);}.cls-30{fill:url(#New_Gradient_Swatch_copy_25-20);}.cls-31{fill:url(#linear-gradient-10);}.cls-32{fill:url(#linear-gradient-11);}.cls-33{fill:url(#linear-gradient-12);}.cls-34{fill:url(#New_Gradient_Swatch_copy_25-21);}.cls-35{fill:url(#New_Gradient_Swatch_copy_25-22);}.cls-36{fill:url(#New_Gradient_Swatch_copy_25-23);}.cls-37{fill:url(#New_Gradient_Swatch_copy_25-24);}.cls-38{fill:url(#New_Gradient_Swatch_copy_25-25);}.cls-39{fill:url(#linear-gradient-13);}.cls-40{fill:url(#linear-gradient-14);}.cls-41{fill:url(#linear-gradient-15);}.cls-42{fill:url(#New_Gradient_Swatch_copy_25-26);}.cls-43{fill:url(#New_Gradient_Swatch_copy_25-27);}.cls-44{fill:url(#New_Gradient_Swatch_copy_25-28);}.cls-45{fill:url(#New_Gradient_Swatch_copy_25-29);}.cls-46{fill:url(#New_Gradient_Swatch_copy_25-30);}.cls-47{fill:url(#linear-gradient-16);}.cls-48{fill:url(#linear-gradient-17);}.cls-49{fill:url(#linear-gradient-18);}.cls-50{fill:url(#New_Gradient_Swatch_copy_25-31);}.cls-51{fill:url(#New_Gradient_Swatch_copy_25-32);}.cls-52{fill:url(#New_Gradient_Swatch_copy_25-33);}.cls-53{fill:url(#New_Gradient_Swatch_copy_25-34);}.cls-54{fill:url(#New_Gradient_Swatch_copy_25-35);}.cls-55{fill:url(#linear-gradient-19);}.cls-56{fill:url(#linear-gradient-20);}.cls-57{fill:url(#linear-gradient-21);}.cls-58{fill:url(#New_Gradient_Swatch_copy_25-36);}.cls-59{fill:url(#New_Gradient_Swatch_copy_25-37);}.cls-60{fill:url(#New_Gradient_Swatch_copy_25-38);}.cls-61{fill:url(#New_Gradient_Swatch_copy_25-39);}.cls-62{fill:url(#New_Gradient_Swatch_copy_25-40);}.cls-63{fill:url(#linear-gradient-22);}.cls-64{fill:url(#linear-gradient-23);}.cls-65{fill:url(#linear-gradient-24);}.cls-66{fill:url(#New_Gradient_Swatch_copy_25-41);}.cls-67{fill:url(#New_Gradient_Swatch_copy_25-42);}.cls-68{fill:url(#New_Gradient_Swatch_copy_25-43);}.cls-69{fill:url(#New_Gradient_Swatch_copy_25-44);}.cls-70{fill:url(#New_Gradient_Swatch_copy_25-45);}.cls-71{fill:url(#linear-gradient-25);}.cls-72{fill:url(#linear-gradient-26);}.cls-73{fill:url(#linear-gradient-27);}.cls-74{fill:url(#New_Gradient_Swatch_copy_25-46);}</style><linearGradient id="New_Gradient_Swatch_copy_25" x1="12.72" y1="361.05" x2="233.48" y2="361.05" gradientUnits="userSpaceOnUse"><stop offset="0" stop-color="#25054d"/><stop offset="1" stop-color="#45108a"/></linearGradient><linearGradient id="New_Gradient_Swatch_copy_25-2" x1="122.54" y1="407.71" x2="233.48" y2="407.71" xlink:href="#New_Gradient_Swatch_copy_25"/><linearGradient id="New_Gradient_Swatch_copy_25-3" x1="11.8" y1="407.71" x2="123.46" y2="407.71" xlink:href="#New_Gradient_Swatch_copy_25"/><linearGradient id="New_Gradient_Swatch_copy_25-4" x1="122.26" y1="325.02" x2="234.71" y2="325.02" xlink:href="#New_Gradient_Swatch_copy_25"/><linearGradient id="New_Gradient_Swatch_copy_25-5" x1="10.57" y1="325.02" x2="122.28" y2="325.02" xlink:href="#New_Gradient_Swatch_copy_25"/><linearGradient id="linear-gradient" x1="0.02" y1="353.21" x2="245.28" y2="353.21" gradientUnits="userSpaceOnUse"><stop offset="0" stop-color="#00e5ff"/><stop offset="1" stop-color="#c0f"/></linearGradient><linearGradient id="linear-gradient-2" x1="123.02" y1="392.99" x2="245.28" y2="392.99" xlink:href="#linear-gradient"/><linearGradient id="linear-gradient-3" x1="0" y1="392.99" x2="123.05" y2="392.99" xlink:href="#linear-gradient"/><linearGradient id="New_Gradient_Swatch_copy_25-6" x1="12.72" y1="325.45" x2="233.48" y2="325.45" xlink:href="#New_Gradient_Swatch_copy_25"/><linearGradient id="New_Gradient_Swatch_copy_25-7" x1="122.54" y1="372.11" x2="233.48" y2="372.11" xlink:href="#New_Gradient_Swatch_copy_25"/><linearGradient id="New_Gradient_Swatch_copy_25-8" x1="11.8" y1="372.11" x2="123.46" y2="372.11" xlink:href="#New_Gradient_Swatch_copy_25"/><linearGradient id="New_Gradient_Swatch_copy_25-9" x1="122.26" y1="289.42" x2="234.71" y2="289.42" xlink:href="#New_Gradient_Swatch_copy_25"/><linearGradient id="New_Gradient_Swatch_copy_25-10" x1="10.57" y1="289.42" x2="122.28" y2="289.42" xlink:href="#New_Gradient_Swatch_copy_25"/><linearGradient id="linear-gradient-4" x1="0.02" y1="317.61" x2="245.28" y2="317.61" xlink:href="#linear-gradient"/><linearGradient id="linear-gradient-5" x1="123.02" y1="357.39" x2="245.28" y2="357.39" xlink:href="#linear-gradient"/><linearGradient id="linear-gradient-6" x1="0" y1="357.39" x2="123.05" y2="357.39" xlink:href="#linear-gradient"/><linearGradient id="New_Gradient_Swatch_copy_25-11" x1="12.72" y1="289.85" x2="233.48" y2="289.85" xlink:href="#New_Gradient_Swatch_copy_25"/><linearGradient id="New_Gradient_Swatch_copy_25-12" x1="122.54" y1="336.51" x2="233.48" y2="336.51" xlink:href="#New_Gradient_Swatch_copy_25"/><linearGradient id="New_Gradient_Swatch_copy_25-13" x1="11.8" y1="336.51" x2="123.46" y2="336.51" xlink:href="#New_Gradient_Swatch_copy_25"/><linearGradient id="New_Gradient_Swatch_copy_25-14" x1="122.26" y1="253.82" x2="234.71" y2="253.82" xlink:href="#New_Gradient_Swatch_copy_25"/><linearGradient id="New_Gradient_Swatch_copy_25-15" x1="10.57" y1="253.82" x2="122.28" y2="253.82" xlink:href="#New_Gradient_Swatch_copy_25"/><linearGradient id="linear-gradient-7" x1="0.02" y1="282.01" x2="245.28" y2="282.01" xlink:href="#linear-gradient"/><linearGradient id="linear-gradient-8" x1="123.02" y1="321.79" x2="245.28" y2="321.79" xlink:href="#linear-gradient"/><linearGradient id="linear-gradient-9" x1="0" y1="321.79" x2="123.05" y2="321.79" xlink:href="#linear-gradient"/><linearGradient id="New_Gradient_Swatch_copy_25-16" x1="12.72" y1="254.25" x2="233.48" y2="254.25" xlink:href="#New_Gradient_Swatch_copy_25"/><linearGradient id="New_Gradient_Swatch_copy_25-17" x1="122.54" y1="300.9" x2="233.48" y2="300.9" xlink:href="#New_Gradient_Swatch_copy_25"/><linearGradient id="New_Gradient_Swatch_copy_25-18" x1="11.8" y1="300.91" x2="123.46" y2="300.91" xlink:href="#New_Gradient_Swatch_copy_25"/><linearGradient id="New_Gradient_Swatch_copy_25-19" x1="122.26" y1="218.22" x2="234.71" y2="218.22" xlink:href="#New_Gradient_Swatch_copy_25"/><linearGradient id="New_Gradient_Swatch_copy_25-20" x1="10.57" y1="218.22" x2="122.28" y2="218.22" xlink:href="#New_Gradient_Swatch_copy_25"/><linearGradient id="linear-gradient-10" x1="0.02" y1="246.41" x2="245.28" y2="246.41" xlink:href="#linear-gradient"/><linearGradient id="linear-gradient-11" x1="123.02" y1="286.19" x2="245.28" y2="286.19" xlink:href="#linear-gradient"/><linearGradient id="linear-gradient-12" x1="0" y1="286.19" x2="123.05" y2="286.19" xlink:href="#linear-gradient"/><linearGradient id="New_Gradient_Swatch_copy_25-21" x1="12.72" y1="218.65" x2="233.48" y2="218.65" xlink:href="#New_Gradient_Swatch_copy_25"/><linearGradient id="New_Gradient_Swatch_copy_25-22" x1="122.54" y1="265.3" x2="233.48" y2="265.3" xlink:href="#New_Gradient_Swatch_copy_25"/><linearGradient id="New_Gradient_Swatch_copy_25-23" x1="11.8" y1="265.3" x2="123.46" y2="265.3" xlink:href="#New_Gradient_Swatch_copy_25"/><linearGradient id="New_Gradient_Swatch_copy_25-24" x1="122.26" y1="182.62" x2="234.71" y2="182.62" xlink:href="#New_Gradient_Swatch_copy_25"/><linearGradient id="New_Gradient_Swatch_copy_25-25" x1="10.57" y1="182.62" x2="122.28" y2="182.62" xlink:href="#New_Gradient_Swatch_copy_25"/><linearGradient id="linear-gradient-13" x1="0.02" y1="210.81" x2="245.28" y2="210.81" xlink:href="#linear-gradient"/><linearGradient id="linear-gradient-14" x1="123.02" y1="250.59" x2="245.28" y2="250.59" xlink:href="#linear-gradient"/><linearGradient id="linear-gradient-15" x1="0" y1="250.59" x2="123.05" y2="250.59" xlink:href="#linear-gradient"/><linearGradient id="New_Gradient_Swatch_copy_25-26" x1="12.72" y1="183.05" x2="233.48" y2="183.05" xlink:href="#New_Gradient_Swatch_copy_25"/><linearGradient id="New_Gradient_Swatch_copy_25-27" x1="122.54" y1="229.7" x2="233.48" y2="229.7" xlink:href="#New_Gradient_Swatch_copy_25"/><linearGradient id="New_Gradient_Swatch_copy_25-28" x1="11.8" y1="229.7" x2="123.46" y2="229.7" xlink:href="#New_Gradient_Swatch_copy_25"/><linearGradient id="New_Gradient_Swatch_copy_25-29" x1="122.26" y1="147.02" x2="234.71" y2="147.02" xlink:href="#New_Gradient_Swatch_copy_25"/><linearGradient id="New_Gradient_Swatch_copy_25-30" x1="10.57" y1="147.02" x2="122.28" y2="147.02" xlink:href="#New_Gradient_Swatch_copy_25"/><linearGradient id="linear-gradient-16" x1="0.02" y1="175.21" x2="245.28" y2="175.21" xlink:href="#linear-gradient"/><linearGradient id="linear-gradient-17" x1="123.02" y1="214.99" x2="245.28" y2="214.99" xlink:href="#linear-gradient"/><linearGradient id="linear-gradient-18" x1="0" y1="214.99" x2="123.05" y2="214.99" xlink:href="#linear-gradient"/><linearGradient id="New_Gradient_Swatch_copy_25-31" x1="12.72" y1="147.45" x2="233.48" y2="147.45" xlink:href="#New_Gradient_Swatch_copy_25"/><linearGradient id="New_Gradient_Swatch_copy_25-32" x1="122.54" y1="194.1" x2="233.48" y2="194.1" xlink:href="#New_Gradient_Swatch_copy_25"/><linearGradient id="New_Gradient_Swatch_copy_25-33" x1="11.8" y1="194.1" x2="123.46" y2="194.1" xlink:href="#New_Gradient_Swatch_copy_25"/><linearGradient id="New_Gradient_Swatch_copy_25-34" x1="122.26" y1="111.42" x2="234.71" y2="111.42" xlink:href="#New_Gradient_Swatch_copy_25"/><linearGradient id="New_Gradient_Swatch_copy_25-35" x1="10.57" y1="111.42" x2="122.28" y2="111.42" xlink:href="#New_Gradient_Swatch_copy_25"/><linearGradient id="linear-gradient-19" x1="0.02" y1="139.61" x2="245.28" y2="139.61" xlink:href="#linear-gradient"/><linearGradient id="linear-gradient-20" x1="123.02" y1="179.38" x2="245.28" y2="179.38" xlink:href="#linear-gradient"/><linearGradient id="linear-gradient-21" x1="0" y1="179.39" x2="123.05" y2="179.39" xlink:href="#linear-gradient"/><linearGradient id="New_Gradient_Swatch_copy_25-36" x1="12.72" y1="111.84" x2="233.48" y2="111.84" xlink:href="#New_Gradient_Swatch_copy_25"/><linearGradient id="New_Gradient_Swatch_copy_25-37" x1="122.54" y1="158.5" x2="233.48" y2="158.5" xlink:href="#New_Gradient_Swatch_copy_25"/><linearGradient id="New_Gradient_Swatch_copy_25-38" x1="11.8" y1="158.5" x2="123.46" y2="158.5" xlink:href="#New_Gradient_Swatch_copy_25"/><linearGradient id="New_Gradient_Swatch_copy_25-39" x1="122.26" y1="75.82" x2="234.71" y2="75.82" xlink:href="#New_Gradient_Swatch_copy_25"/><linearGradient id="New_Gradient_Swatch_copy_25-40" x1="10.57" y1="75.81" x2="122.28" y2="75.81" xlink:href="#New_Gradient_Swatch_copy_25"/><linearGradient id="linear-gradient-22" x1="0.02" y1="104.01" x2="245.28" y2="104.01" xlink:href="#linear-gradient"/><linearGradient id="linear-gradient-23" x1="123.02" y1="143.78" x2="245.28" y2="143.78" xlink:href="#linear-gradient"/><linearGradient id="linear-gradient-24" x1="0" y1="143.79" x2="123.05" y2="143.79" xlink:href="#linear-gradient"/><linearGradient id="New_Gradient_Swatch_copy_25-41" x1="12.72" y1="76.24" x2="233.48" y2="76.24" xlink:href="#New_Gradient_Swatch_copy_25"/><linearGradient id="New_Gradient_Swatch_copy_25-42" x1="122.54" y1="122.9" x2="233.48" y2="122.9" xlink:href="#New_Gradient_Swatch_copy_25"/><linearGradient id="New_Gradient_Swatch_copy_25-43" x1="11.8" y1="122.9" x2="123.46" y2="122.9" xlink:href="#New_Gradient_Swatch_copy_25"/><linearGradient id="New_Gradient_Swatch_copy_25-44" x1="122.26" y1="42.84" x2="234.71" y2="42.84" xlink:href="#New_Gradient_Swatch_copy_25"/><linearGradient id="New_Gradient_Swatch_copy_25-45" x1="10.57" y1="42.84" x2="122.28" y2="42.84" xlink:href="#New_Gradient_Swatch_copy_25"/><linearGradient id="linear-gradient-25" x1="0.02" y1="71.03" x2="245.28" y2="71.03" xlink:href="#linear-gradient"/><linearGradient id="linear-gradient-26" x1="123.02" y1="110.81" x2="245.28" y2="110.81" xlink:href="#linear-gradient"/><linearGradient id="linear-gradient-27" x1="0" y1="110.81" x2="123.05" y2="110.81" xlink:href="#linear-gradient"/><linearGradient id="New_Gradient_Swatch_copy_25-46" x1="78.17" y1="75.48" x2="164.93" y2="75.48" xlink:href="#New_Gradient_Swatch_copy_25"/></defs><g id="Layer_2" data-name="Layer 2"><g id="_Layer_" data-name="&lt;Layer&gt;"><g class="cls-1"><polygon class="cls-2" points="233.48 361.05 123.46 424.99 12.72 361.05 122.74 297.12 233.48 361.05"/><polygon class="cls-3" points="233.48 361.05 232.56 390.43 122.54 454.37 123.46 424.99 233.48 361.05"/><polygon class="cls-4" points="123.46 424.99 122.54 454.37 11.8 390.43 12.72 361.05 123.46 424.99"/></g><g class="cls-1"><polygon class="cls-5" points="234.71 353.22 234.69 361.74 122.26 296.83 122.28 288.31 234.71 353.22"/><polygon class="cls-6" points="122.28 288.31 122.26 296.83 10.57 361.74 10.59 353.21 122.28 288.31"/><path class="cls-7" d="M122.26,282.18l123,71-122.23,71-123-71ZM123,418.12l111.69-64.9L122.28,288.3,10.59,353.21,123,418.12"/><polygon class="cls-8" points="245.28 353.21 245.25 361.74 123.02 432.77 123.05 424.24 245.28 353.21"/><polygon class="cls-9" points="123.05 424.24 123.02 432.77 0 361.75 0.02 353.22 123.05 424.24"/></g><g class="cls-1"><polygon class="cls-10" points="233.48 325.45 123.46 389.39 12.72 325.45 122.74 261.51 233.48 325.45"/><polygon class="cls-11" points="233.48 325.45 232.56 354.83 122.54 418.76 123.46 389.39 233.48 325.45"/><polygon class="cls-12" points="123.46 389.39 122.54 418.76 11.8 354.83 12.72 325.45 123.46 389.39"/></g><g class="cls-1"><polygon class="cls-13" points="234.71 317.62 234.69 326.14 122.26 261.23 122.28 252.7 234.71 317.62"/><polygon class="cls-14" points="122.28 252.7 122.26 261.23 10.57 326.14 10.59 317.61 122.28 252.7"/><path class="cls-15" d="M122.26,246.58l123,71-122.23,71-123-71ZM123,382.52l111.69-64.91L122.28,252.7,10.59,317.61,123,382.52"/><polygon class="cls-16" points="245.28 317.61 245.25 326.14 123.02 397.17 123.05 388.64 245.28 317.61"/><polygon class="cls-17" points="123.05 388.64 123.02 397.17 0 326.14 0.02 317.62 123.05 388.64"/></g><g class="cls-1"><polygon class="cls-18" points="233.48 289.85 123.46 353.79 12.72 289.85 122.74 225.91 233.48 289.85"/><polygon class="cls-19" points="233.48 289.85 232.56 319.23 122.54 383.16 123.46 353.79 233.48 289.85"/><polygon class="cls-20" points="123.46 353.79 122.54 383.16 11.8 319.23 12.72 289.85 123.46 353.79"/></g><g class="cls-1"><polygon class="cls-21" points="234.71 282.01 234.69 290.54 122.26 225.63 122.28 217.1 234.71 282.01"/><polygon class="cls-22" points="122.28 217.1 122.26 225.63 10.57 290.54 10.59 282.01 122.28 217.1"/><path class="cls-23" d="M122.26,211l123,71L123.05,353,0,282ZM123,346.92,234.71,282,122.28,217.1,10.59,282,123,346.92"/><polygon class="cls-24" points="245.28 282.01 245.25 290.54 123.02 361.57 123.05 353.04 245.28 282.01"/><polygon class="cls-25" points="123.05 353.04 123.02 361.57 0 290.54 0.02 282.01 123.05 353.04"/></g><g class="cls-1"><polygon class="cls-26" points="233.48 254.25 123.46 318.19 12.72 254.25 122.74 190.31 233.48 254.25"/><polygon class="cls-27" points="233.48 254.25 232.56 283.63 122.54 347.56 123.46 318.19 233.48 254.25"/><polygon class="cls-28" points="123.46 318.19 122.54 347.56 11.8 283.63 12.72 254.25 123.46 318.19"/></g><g class="cls-1"><polygon class="cls-29" points="234.71 246.41 234.69 254.94 122.26 190.03 122.28 181.5 234.71 246.41"/><polygon class="cls-30" points="122.28 181.5 122.26 190.03 10.57 254.94 10.59 246.41 122.28 181.5"/><path class="cls-31" d="M122.26,175.38l123,71-122.23,71-123-71ZM123,311.32l111.69-64.91L122.28,181.5,10.59,246.41,123,311.32"/><polygon class="cls-32" points="245.28 246.41 245.25 254.94 123.02 325.97 123.05 317.44 245.28 246.41"/><polygon class="cls-33" points="123.05 317.44 123.02 325.97 0 254.94 0.02 246.41 123.05 317.44"/></g><g class="cls-1"><polygon class="cls-34" points="233.48 218.65 123.46 282.58 12.72 218.65 122.74 154.71 233.48 218.65"/><polygon class="cls-35" points="233.48 218.65 232.56 248.02 122.54 311.96 123.46 282.58 233.48 218.65"/><polygon class="cls-36" points="123.46 282.58 122.54 311.96 11.8 248.03 12.72 218.65 123.46 282.58"/></g><g class="cls-1"><polygon class="cls-37" points="234.71 210.81 234.69 219.34 122.26 154.43 122.28 145.9 234.71 210.81"/><polygon class="cls-38" points="122.28 145.9 122.26 154.43 10.57 219.34 10.59 210.81 122.28 145.9"/><path class="cls-39" d="M122.26,139.78l123,71-122.23,71-123-71ZM123,275.72l111.69-64.91L122.28,145.9,10.59,210.81,123,275.72"/><polygon class="cls-40" points="245.28 210.81 245.25 219.33 123.02 290.37 123.05 281.84 245.28 210.81"/><polygon class="cls-41" points="123.05 281.84 123.02 290.37 0 219.34 0.02 210.81 123.05 281.84"/></g><g class="cls-1"><polygon class="cls-42" points="233.48 183.05 123.46 246.98 12.72 183.05 122.74 119.11 233.48 183.05"/><polygon class="cls-43" points="233.48 183.05 232.56 212.42 122.54 276.36 123.46 246.98 233.48 183.05"/><polygon class="cls-44" points="123.46 246.98 122.54 276.36 11.8 212.42 12.72 183.05 123.46 246.98"/></g><g class="cls-1"><polygon class="cls-45" points="234.71 175.21 234.69 183.74 122.26 118.83 122.28 110.3 234.71 175.21"/><polygon class="cls-46" points="122.28 110.3 122.26 118.83 10.57 183.73 10.59 175.21 122.28 110.3"/><path class="cls-47" d="M122.26,104.18l123,71-122.23,71-123-71ZM123,240.12l111.69-64.91L122.28,110.3,10.59,175.21,123,240.12"/><polygon class="cls-48" points="245.28 175.21 245.25 183.73 123.02 254.77 123.05 246.24 245.28 175.21"/><polygon class="cls-49" points="123.05 246.24 123.02 254.77 0 183.74 0.02 175.21 123.05 246.24"/></g><g class="cls-1"><polygon class="cls-50" points="233.48 147.44 123.46 211.38 12.72 147.45 122.74 83.51 233.48 147.44"/><polygon class="cls-51" points="233.48 147.44 232.56 176.82 122.54 240.76 123.46 211.38 233.48 147.44"/><polygon class="cls-52" points="123.46 211.38 122.54 240.76 11.8 176.82 12.72 147.45 123.46 211.38"/></g><g class="cls-1"><polygon class="cls-53" points="234.71 139.61 234.69 148.14 122.26 83.23 122.28 74.7 234.71 139.61"/><polygon class="cls-54" points="122.28 74.7 122.26 83.23 10.57 148.13 10.59 139.6 122.28 74.7"/><path class="cls-55" d="M122.26,68.58l123,71-122.23,71-123-71ZM123,204.52l111.69-64.91L122.28,74.7,10.59,139.6,123,204.52"/><polygon class="cls-56" points="245.28 139.6 245.25 148.13 123.02 219.16 123.05 210.64 245.28 139.6"/><polygon class="cls-57" points="123.05 210.64 123.02 219.16 0 148.14 0.02 139.61 123.05 210.64"/></g><g class="cls-1"><polygon class="cls-58" points="233.48 111.84 123.46 175.78 12.72 111.84 122.74 47.91 233.48 111.84"/><polygon class="cls-59" points="233.48 111.84 232.56 141.22 122.54 205.16 123.46 175.78 233.48 111.84"/><polygon class="cls-60" points="123.46 175.78 122.54 205.16 11.8 141.22 12.72 111.84 123.46 175.78"/></g><g class="cls-1"><polygon class="cls-61" points="234.71 104.01 234.69 112.54 122.26 47.63 122.28 39.1 234.71 104.01"/><polygon class="cls-62" points="122.28 39.1 122.26 47.63 10.57 112.53 10.59 104 122.28 39.1"/><path class="cls-63" d="M122.26,33l123,71L123.05,175,0,104ZM123,168.91,234.71,104,122.28,39.1,10.59,104,123,168.91"/><polygon class="cls-64" points="245.28 104 245.25 112.53 123.02 183.56 123.05 175.04 245.28 104"/><polygon class="cls-65" points="123.05 175.04 123.02 183.56 0 112.54 0.02 104.01 123.05 175.04"/></g><g class="cls-1"><polygon class="cls-66" points="233.48 76.24 123.46 140.18 12.72 76.24 122.74 12.31 233.48 76.24"/><polygon class="cls-67" points="233.48 76.24 232.56 105.62 122.54 169.56 123.46 140.18 233.48 76.24"/><polygon class="cls-68" points="123.46 140.18 122.54 169.56 11.8 105.62 12.72 76.24 123.46 140.18"/></g><g class="cls-1"><polygon class="cls-69" points="234.71 71.03 234.69 79.56 122.26 14.65 122.28 6.12 234.71 71.03"/><polygon class="cls-70" points="122.28 6.12 122.26 14.65 10.57 79.56 10.59 71.03 122.28 6.12"/><path class="cls-71" d="M122.26,0l123,71-122.23,71L0,71ZM123,135.94,234.71,71,122.28,6.12,10.59,71,123,135.94"/><polygon class="cls-72" points="245.28 71.03 245.25 79.56 123.02 150.59 123.05 142.06 245.28 71.03"/><polygon class="cls-73" points="123.05 142.06 123.02 150.59 0 79.56 0.02 71.03 123.05 142.06"/></g><path class="cls-74" d="M137.21,56.71,117.56,68.06l16.84,9.72,19.65-11.35,10.88,6.29-48.15,27.8-10.89-6.28,18.48-10.67-16.83-9.72L89.06,84.52,78.17,78.23l48.15-27.8Z"/></g></g></svg>