<svg xmlns="http://www.w3.org/2000/svg" xmlns:xlink="http://www.w3.org/1999/xlink" viewBox="0 0 541.58 767.06"><defs><style>.cls-1{isolation:isolate;}.cls-2{fill:url(#New_Gradient_Swatch_copy_25);}.cls-3{fill:url(#New_Gradient_Swatch_copy_25-2);}.cls-4{fill:url(#New_Gradient_Swatch_copy_25-3);}.cls-5{fill:url(#New_Gradient_Swatch_copy_25-4);}.cls-6{fill:url(#New_Gradient_Swatch_copy_25-5);}.cls-7{fill:url(#New_Gradient_Swatch_copy_25-6);}.cls-8{fill:url(#New_Gradient_Swatch_copy_25-7);}.cls-9{fill:url(#New_Gradient_Swatch_copy_25-8);}.cls-10{fill:url(#New_Gradient_Swatch_copy_25-9);}.cls-11{fill:url(#linear-gradient);}.cls-12{fill:url(#linear-gradient-2);}.cls-13{fill:url(#linear-gradient-3);}.cls-14{fill:url(#linear-gradient-4);}.cls-15{fill:url(#linear-gradient-5);}.cls-16{fill:url(#linear-gradient-6);}.cls-17{fill:url(#linear-gradient-7);}.cls-18{fill:url(#linear-gradient-8);}.cls-19{fill:url(#linear-gradient-9);}.cls-20{fill:url(#linear-gradient-10);}.cls-21{fill:url(#linear-gradient-11);}.cls-22{fill:url(#linear-gradient-12);}.cls-23{fill:url(#linear-gradient-13);}.cls-24{fill:url(#linear-gradient-14);}.cls-25{fill:url(#linear-gradient-15);}.cls-26{fill:url(#linear-gradient-16);}.cls-27{fill:url(#linear-gradient-17);}.cls-28{fill:url(#linear-gradient-18);}.cls-29{fill:url(#linear-gradient-19);}.cls-30{fill:url(#linear-gradient-20);}.cls-31{fill:url(#linear-gradient-21);}.cls-32{fill:url(#linear-gradient-22);}.cls-33{fill:url(#linear-gradient-23);}.cls-34{fill:url(#linear-gradient-24);}.cls-35{fill:url(#linear-gradient-25);}.cls-36{fill:url(#linear-gradient-26);}.cls-37{fill:url(#linear-gradient-27);}.cls-38{fill:url(#linear-gradient-28);}.cls-39{fill:url(#linear-gradient-29);}.cls-40{fill:url(#linear-gradient-30);}.cls-102,.cls-103,.cls-41{mix-blend-mode:screen;}.cls-102,.cls-41{opacity:0.5;}.cls-41{fill:url(#linear-gradient-31);}.cls-42{fill:url(#New_Gradient_Swatch_copy_25-10);}.cls-43{fill:url(#New_Gradient_Swatch_copy_25-11);}.cls-44{fill:url(#New_Gradient_Swatch_copy_25-12);}.cls-45{fill:url(#New_Gradient_Swatch_copy_26);}.cls-46{fill:url(#New_Gradient_Swatch_copy_26-2);}.cls-47{fill:url(#New_Gradient_Swatch_copy_26-3);}.cls-48{fill:url(#New_Gradient_Swatch_copy_26-4);}.cls-49{fill:url(#New_Gradient_Swatch_copy_26-5);}.cls-50{fill:url(#New_Gradient_Swatch_copy_26-6);}.cls-51{fill:url(#New_Gradient_Swatch_copy_26-7);}.cls-52{fill:url(#New_Gradient_Swatch_copy_26-8);}.cls-53{fill:url(#New_Gradient_Swatch_copy_26-9);}.cls-54{fill:url(#New_Gradient_Swatch_copy_26-10);}.cls-55{fill:url(#New_Gradient_Swatch_copy_26-11);}.cls-56{fill:url(#New_Gradient_Swatch_copy_26-12);}.cls-57{fill:url(#New_Gradient_Swatch_copy_26-13);}.cls-58{fill:url(#New_Gradient_Swatch_copy_26-14);}.cls-59{fill:url(#New_Gradient_Swatch_copy_26-15);}.cls-60{fill:url(#New_Gradient_Swatch_copy_26-16);}.cls-61{fill:url(#New_Gradient_Swatch_copy_26-17);}.cls-62{fill:url(#New_Gradient_Swatch_copy_26-18);}.cls-63{fill:url(#New_Gradient_Swatch_copy_26-19);}.cls-64{fill:url(#New_Gradient_Swatch_copy_26-20);}.cls-65{fill:url(#New_Gradient_Swatch_copy_26-21);}.cls-66{fill:url(#New_Gradient_Swatch_copy_26-22);}.cls-67{fill:url(#linear-gradient-32);}.cls-68{fill:url(#linear-gradient-33);}.cls-69{fill:url(#linear-gradient-34);}.cls-70{fill:url(#linear-gradient-35);}.cls-71{fill:url(#linear-gradient-36);}.cls-72{fill:url(#linear-gradient-37);}.cls-73{fill:url(#linear-gradient-38);}.cls-74{fill:url(#linear-gradient-39);}.cls-75{fill:url(#linear-gradient-40);}.cls-76{fill:url(#linear-gradient-41);}.cls-77{fill:url(#linear-gradient-42);}.cls-78{fill:url(#linear-gradient-43);}.cls-79{fill:url(#linear-gradient-44);}.cls-80{fill:url(#linear-gradient-45);}.cls-81{fill:url(#linear-gradient-46);}.cls-82{fill:url(#linear-gradient-47);}.cls-83{fill:url(#linear-gradient-48);}.cls-84{fill:url(#linear-gradient-49);}.cls-85{fill:url(#linear-gradient-50);}.cls-86{fill:url(#linear-gradient-51);}.cls-87{fill:url(#linear-gradient-52);}.cls-88{fill:url(#linear-gradient-53);}.cls-89{fill:url(#New_Gradient_Swatch_copy_25-13);}.cls-90{fill:url(#New_Gradient_Swatch_copy_25-14);}.cls-91{fill:url(#linear-gradient-54);}.cls-92{fill:url(#linear-gradient-55);}.cls-93{fill:url(#New_Gradient_Swatch_copy_25-15);}.cls-94{fill:url(#New_Gradient_Swatch_copy_25-16);}.cls-95{fill:url(#New_Gradient_Swatch_copy_25-17);}.cls-96{fill:url(#New_Gradient_Swatch_copy_25-18);}.cls-97,.cls-98{mix-blend-mode:color-dodge;}.cls-97{fill:url(#linear-gradient-56);}.cls-98{fill:url(#linear-gradient-57);}.cls-99{fill:url(#New_Gradient_Swatch_copy_42);}.cls-100{fill:url(#New_Gradient_Swatch_copy_36);}.cls-101{fill:url(#New_Gradient_Swatch_copy_42-2);}.cls-102{fill:url(#linear-gradient-58);}.cls-103{fill:url(#radial-gradient);}</style><linearGradient id="New_Gradient_Swatch_copy_25" x1="460.53" y1="678.04" x2="757.97" y2="588.97" gradientUnits="userSpaceOnUse"><stop offset="0" stop-color="#25054d"/><stop offset="1" stop-color="#45108a"/></linearGradient><linearGradient id="New_Gradient_Swatch_copy_25-2" x1="-97.16" y1="714.84" x2="698.34" y2="536.51" xlink:href="#New_Gradient_Swatch_copy_25"/><linearGradient id="New_Gradient_Swatch_copy_25-3" x1="477.77" y1="297.96" x2="340.71" y2="559.18" xlink:href="#New_Gradient_Swatch_copy_25"/><linearGradient id="New_Gradient_Swatch_copy_25-4" x1="390.86" y1="530.78" x2="688.29" y2="441.72" xlink:href="#New_Gradient_Swatch_copy_25"/><linearGradient id="New_Gradient_Swatch_copy_25-5" x1="-5.64" y1="567.28" x2="550.63" y2="442.58" xlink:href="#New_Gradient_Swatch_copy_25"/><linearGradient id="New_Gradient_Swatch_copy_25-6" x1="447.34" y1="186.04" x2="315.58" y2="437.14" xlink:href="#New_Gradient_Swatch_copy_25"/><linearGradient id="New_Gradient_Swatch_copy_25-7" x1="321.72" y1="383.65" x2="619.15" y2="294.59" xlink:href="#New_Gradient_Swatch_copy_25"/><linearGradient id="New_Gradient_Swatch_copy_25-8" x1="78.98" y1="419.6" x2="406.95" y2="346.08" xlink:href="#New_Gradient_Swatch_copy_25"/><linearGradient id="New_Gradient_Swatch_copy_25-9" x1="416.01" y1="71.54" x2="288.86" y2="313.88" xlink:href="#New_Gradient_Swatch_copy_25"/><linearGradient id="linear-gradient" x1="509.75" y1="731.5" x2="451.37" y2="635.22" gradientUnits="userSpaceOnUse"><stop offset="0.03" stop-color="#45108a"/><stop offset="1" stop-color="#3746a3"/></linearGradient><linearGradient id="linear-gradient-2" x1="512.16" y1="738.78" x2="447.69" y2="637.54" xlink:href="#linear-gradient"/><linearGradient id="linear-gradient-3" x1="514.22" y1="745.47" x2="443.4" y2="639.48" xlink:href="#linear-gradient"/><linearGradient id="linear-gradient-4" x1="515.9" y1="751.59" x2="438.48" y2="641.07" xlink:href="#linear-gradient"/><linearGradient id="linear-gradient-5" x1="517.16" y1="757.17" x2="432.9" y2="642.35" xlink:href="#linear-gradient"/><linearGradient id="linear-gradient-6" x1="517.97" y1="762.24" x2="426.66" y2="643.36" xlink:href="#linear-gradient"/><linearGradient id="linear-gradient-7" x1="518.31" y1="766.83" x2="419.72" y2="644.16" xlink:href="#linear-gradient"/><linearGradient id="linear-gradient-8" x1="518.15" y1="770.98" x2="412.07" y2="644.78" xlink:href="#linear-gradient"/><linearGradient id="linear-gradient-9" x1="517.47" y1="774.72" x2="403.7" y2="645.27" xlink:href="#linear-gradient"/><linearGradient id="linear-gradient-10" x1="439.56" y1="583.18" x2="381.17" y2="486.9" xlink:href="#linear-gradient"/><linearGradient id="linear-gradient-11" x1="441.96" y1="590.47" x2="377.49" y2="489.23" xlink:href="#linear-gradient"/><linearGradient id="linear-gradient-12" x1="444.02" y1="597.16" x2="373.2" y2="491.17" xlink:href="#linear-gradient"/><linearGradient id="linear-gradient-13" x1="445.7" y1="603.27" x2="368.28" y2="492.75" xlink:href="#linear-gradient"/><linearGradient id="linear-gradient-14" x1="446.96" y1="608.85" x2="362.71" y2="494.03" xlink:href="#linear-gradient"/><linearGradient id="linear-gradient-15" x1="447.77" y1="613.92" x2="356.46" y2="495.05" xlink:href="#linear-gradient"/><linearGradient id="linear-gradient-16" x1="448.11" y1="618.52" x2="349.52" y2="495.85" xlink:href="#linear-gradient"/><linearGradient id="linear-gradient-17" x1="447.95" y1="622.67" x2="341.87" y2="496.46" xlink:href="#linear-gradient"/><linearGradient id="linear-gradient-18" x1="447.27" y1="626.41" x2="333.51" y2="496.96" xlink:href="#linear-gradient"/><linearGradient id="linear-gradient-19" x1="370.94" y1="435.4" x2="312.56" y2="339.12" xlink:href="#linear-gradient"/><linearGradient id="linear-gradient-20" x1="373.35" y1="442.68" x2="308.87" y2="341.44" xlink:href="#linear-gradient"/><linearGradient id="linear-gradient-21" x1="375.41" y1="449.37" x2="304.59" y2="343.38" xlink:href="#linear-gradient"/><linearGradient id="linear-gradient-22" x1="377.08" y1="455.49" x2="299.67" y2="344.97" xlink:href="#linear-gradient"/><linearGradient id="linear-gradient-23" x1="378.34" y1="461.07" x2="294.09" y2="346.25" xlink:href="#linear-gradient"/><linearGradient id="linear-gradient-24" x1="379.16" y1="466.14" x2="287.84" y2="347.26" xlink:href="#linear-gradient"/><linearGradient id="linear-gradient-25" x1="379.5" y1="470.73" x2="280.9" y2="348.06" xlink:href="#linear-gradient"/><linearGradient id="linear-gradient-26" x1="379.34" y1="474.88" x2="273.26" y2="348.68" xlink:href="#linear-gradient"/><linearGradient id="linear-gradient-27" x1="378.66" y1="478.63" x2="264.89" y2="349.17" xlink:href="#linear-gradient"/><linearGradient id="linear-gradient-28" x1="316.65" y1="692.42" x2="410.07" y2="533.29" gradientUnits="userSpaceOnUse"><stop offset="0.03" stop-color="#483696"/><stop offset="0.55" stop-color="#7c1dc9"/><stop offset="0.68" stop-color="#9e41b9"/><stop offset="0.96" stop-color="#f29c92"/><stop offset="1" stop-color="#ffa98c"/></linearGradient><linearGradient id="linear-gradient-29" x1="329.17" y1="729.45" x2="414.15" y2="565.78" xlink:href="#linear-gradient-28"/><linearGradient id="linear-gradient-30" x1="343.38" y1="769.22" x2="419.39" y2="602.17" xlink:href="#linear-gradient-28"/><linearGradient id="linear-gradient-31" x1="332.89" y1="439.84" x2="256.89" y2="515.85" gradientUnits="userSpaceOnUse"><stop offset="0" stop-color="#c211a1"/><stop offset="0.01" stop-color="#bd119d"/><stop offset="0.15" stop-color="#8b0c73"/><stop offset="0.29" stop-color="#600850"/><stop offset="0.42" stop-color="#3e0533"/><stop offset="0.56" stop-color="#23031d"/><stop offset="0.7" stop-color="#0f010d"/><stop offset="0.85" stop-color="#040003"/><stop offset="1"/></linearGradient><linearGradient id="New_Gradient_Swatch_copy_25-10" x1="168.86" y1="440.1" x2="784.13" y2="255.87" xlink:href="#New_Gradient_Swatch_copy_25"/><linearGradient id="New_Gradient_Swatch_copy_25-11" x1="-322.85" y1="514.56" x2="483.5" y2="333.81" xlink:href="#New_Gradient_Swatch_copy_25"/><linearGradient id="New_Gradient_Swatch_copy_25-12" x1="294.24" y1="-200.95" x2="132.73" y2="106.85" xlink:href="#New_Gradient_Swatch_copy_25"/><linearGradient id="New_Gradient_Swatch_copy_26" x1="-49.45" y1="480.92" x2="83.55" y2="145.25" gradientUnits="userSpaceOnUse"><stop offset="0.03" stop-color="#7c1dc9"/><stop offset="0.21" stop-color="#6e41d2"/><stop offset="0.62" stop-color="#4c9be8"/><stop offset="1" stop-color="#2af6ff"/></linearGradient><linearGradient id="New_Gradient_Swatch_copy_26-2" x1="-43.35" y1="490.12" x2="89.65" y2="154.44" xlink:href="#New_Gradient_Swatch_copy_26"/><linearGradient id="New_Gradient_Swatch_copy_26-3" x1="-37.26" y1="499.31" x2="95.75" y2="163.63" xlink:href="#New_Gradient_Swatch_copy_26"/><linearGradient id="New_Gradient_Swatch_copy_26-4" x1="-31.16" y1="508.5" x2="101.85" y2="172.82" xlink:href="#New_Gradient_Swatch_copy_26"/><linearGradient id="New_Gradient_Swatch_copy_26-5" x1="-25.06" y1="517.69" x2="107.95" y2="182.01" xlink:href="#New_Gradient_Swatch_copy_26"/><linearGradient id="New_Gradient_Swatch_copy_26-6" x1="-18.96" y1="526.89" x2="114.04" y2="191.21" xlink:href="#New_Gradient_Swatch_copy_26"/><linearGradient id="New_Gradient_Swatch_copy_26-7" x1="-12.86" y1="536.08" x2="120.14" y2="200.4" xlink:href="#New_Gradient_Swatch_copy_26"/><linearGradient id="New_Gradient_Swatch_copy_26-8" x1="-6.76" y1="545.27" x2="126.24" y2="209.59" xlink:href="#New_Gradient_Swatch_copy_26"/><linearGradient id="New_Gradient_Swatch_copy_26-9" x1="-0.66" y1="554.46" x2="132.34" y2="218.78" xlink:href="#New_Gradient_Swatch_copy_26"/><linearGradient id="New_Gradient_Swatch_copy_26-10" x1="5.43" y1="563.65" x2="138.44" y2="227.97" xlink:href="#New_Gradient_Swatch_copy_26"/><linearGradient id="New_Gradient_Swatch_copy_26-11" x1="11.53" y1="572.85" x2="144.54" y2="237.16" xlink:href="#New_Gradient_Swatch_copy_26"/><linearGradient id="New_Gradient_Swatch_copy_26-12" x1="17.63" y1="582.04" x2="150.64" y2="246.36" xlink:href="#New_Gradient_Swatch_copy_26"/><linearGradient id="New_Gradient_Swatch_copy_26-13" x1="23.73" y1="591.23" x2="156.74" y2="255.55" xlink:href="#New_Gradient_Swatch_copy_26"/><linearGradient id="New_Gradient_Swatch_copy_26-14" x1="29.83" y1="600.42" x2="162.83" y2="264.74" xlink:href="#New_Gradient_Swatch_copy_26"/><linearGradient id="New_Gradient_Swatch_copy_26-15" x1="35.93" y1="609.61" x2="168.93" y2="273.93" xlink:href="#New_Gradient_Swatch_copy_26"/><linearGradient id="New_Gradient_Swatch_copy_26-16" x1="42.02" y1="618.81" x2="175.03" y2="283.12" xlink:href="#New_Gradient_Swatch_copy_26"/><linearGradient id="New_Gradient_Swatch_copy_26-17" x1="48.12" y1="628" x2="181.13" y2="292.31" xlink:href="#New_Gradient_Swatch_copy_26"/><linearGradient id="New_Gradient_Swatch_copy_26-18" x1="54.22" y1="637.19" x2="187.23" y2="301.51" xlink:href="#New_Gradient_Swatch_copy_26"/><linearGradient id="New_Gradient_Swatch_copy_26-19" x1="60.32" y1="646.38" x2="193.33" y2="310.7" xlink:href="#New_Gradient_Swatch_copy_26"/><linearGradient id="New_Gradient_Swatch_copy_26-20" x1="66.42" y1="655.57" x2="199.43" y2="319.89" xlink:href="#New_Gradient_Swatch_copy_26"/><linearGradient id="New_Gradient_Swatch_copy_26-21" x1="72.52" y1="664.77" x2="205.53" y2="329.08" xlink:href="#New_Gradient_Swatch_copy_26"/><linearGradient id="New_Gradient_Swatch_copy_26-22" x1="78.62" y1="673.96" x2="211.62" y2="338.27" xlink:href="#New_Gradient_Swatch_copy_26"/><linearGradient id="linear-gradient-32" x1="131.57" y1="356.46" x2="357.99" y2="-158.15" xlink:href="#linear-gradient-28"/><linearGradient id="linear-gradient-33" x1="138.13" y1="366.12" x2="364.56" y2="-148.49" xlink:href="#linear-gradient-28"/><linearGradient id="linear-gradient-34" x1="144.7" y1="375.78" x2="371.12" y2="-138.82" xlink:href="#linear-gradient-28"/><linearGradient id="linear-gradient-35" x1="151.26" y1="385.45" x2="377.69" y2="-129.16" xlink:href="#linear-gradient-28"/><linearGradient id="linear-gradient-36" x1="157.82" y1="395.11" x2="384.25" y2="-119.49" xlink:href="#linear-gradient-28"/><linearGradient id="linear-gradient-37" x1="164.39" y1="404.78" x2="390.82" y2="-109.83" xlink:href="#linear-gradient-28"/><linearGradient id="linear-gradient-38" x1="170.95" y1="414.44" x2="397.38" y2="-100.17" xlink:href="#linear-gradient-28"/><linearGradient id="linear-gradient-39" x1="177.52" y1="424.1" x2="403.95" y2="-90.5" xlink:href="#linear-gradient-28"/><linearGradient id="linear-gradient-40" x1="184.08" y1="433.77" x2="410.51" y2="-80.84" xlink:href="#linear-gradient-28"/><linearGradient id="linear-gradient-41" x1="190.65" y1="443.43" x2="417.08" y2="-71.18" xlink:href="#linear-gradient-28"/><linearGradient id="linear-gradient-42" x1="197.21" y1="453.1" x2="423.64" y2="-61.51" xlink:href="#linear-gradient-28"/><linearGradient id="linear-gradient-43" x1="203.78" y1="462.76" x2="430.2" y2="-51.85" xlink:href="#linear-gradient-28"/><linearGradient id="linear-gradient-44" x1="210.34" y1="472.42" x2="436.77" y2="-42.18" xlink:href="#linear-gradient-28"/><linearGradient id="linear-gradient-45" x1="216.91" y1="482.09" x2="443.33" y2="-32.52" xlink:href="#linear-gradient-28"/><linearGradient id="linear-gradient-46" x1="223.47" y1="491.75" x2="449.9" y2="-22.86" xlink:href="#linear-gradient-28"/><linearGradient id="linear-gradient-47" x1="230.04" y1="501.42" x2="456.46" y2="-13.19" xlink:href="#linear-gradient-28"/><linearGradient id="linear-gradient-48" x1="236.6" y1="511.08" x2="463.03" y2="-3.53" xlink:href="#linear-gradient-28"/><linearGradient id="linear-gradient-49" x1="243.16" y1="520.74" x2="469.59" y2="6.13" xlink:href="#linear-gradient-28"/><linearGradient id="linear-gradient-50" x1="249.73" y1="530.41" x2="476.16" y2="15.8" xlink:href="#linear-gradient-28"/><linearGradient id="linear-gradient-51" x1="256.29" y1="540.07" x2="482.72" y2="25.46" xlink:href="#linear-gradient-28"/><linearGradient id="linear-gradient-52" x1="262.86" y1="549.73" x2="489.29" y2="35.13" xlink:href="#linear-gradient-28"/><linearGradient id="linear-gradient-53" x1="269.42" y1="559.4" x2="495.85" y2="44.79" xlink:href="#linear-gradient-28"/><linearGradient id="New_Gradient_Swatch_copy_25-13" x1="181.77" y1="114.1" x2="428.26" y2="40.3" xlink:href="#New_Gradient_Swatch_copy_25"/><linearGradient id="New_Gradient_Swatch_copy_25-14" x1="-69.24" y1="143.56" x2="250.24" y2="71.95" xlink:href="#New_Gradient_Swatch_copy_25"/><linearGradient id="linear-gradient-54" x1="182.37" y1="106.48" x2="421.01" y2="35.03" gradientUnits="userSpaceOnUse"><stop offset="0" stop-color="#7467d3"/><stop offset="1" stop-color="#a56ef4"/></linearGradient><linearGradient id="linear-gradient-55" x1="-64.15" y1="134.98" x2="244.92" y2="65.7" xlink:href="#linear-gradient-54"/><linearGradient id="New_Gradient_Swatch_copy_25-15" x1="262.44" y1="-159.63" x2="135.21" y2="82.84" xlink:href="#New_Gradient_Swatch_copy_25"/><linearGradient id="New_Gradient_Swatch_copy_25-16" x1="10611.9" y1="8018.13" x2="10534.93" y2="8164.8" gradientTransform="translate(10683.34 8221.14) rotate(180)" xlink:href="#New_Gradient_Swatch_copy_25"/><linearGradient id="New_Gradient_Swatch_copy_25-17" x1="51.27" y1="69.9" x2="182.46" y2="27.14" xlink:href="#New_Gradient_Swatch_copy_25"/><linearGradient id="New_Gradient_Swatch_copy_25-18" x1="165.58" y1="52.72" x2="210.84" y2="32.93" xlink:href="#New_Gradient_Swatch_copy_25"/><linearGradient id="linear-gradient-56" x1="188.03" y1="451.58" x2="-148.71" y2="378.06" gradientUnits="userSpaceOnUse"><stop offset="0" stop-color="#972a74"/><stop offset="0.04" stop-color="#8a266a"/><stop offset="0.19" stop-color="#601b4a"/><stop offset="0.35" stop-color="#3d112f"/><stop offset="0.51" stop-color="#230a1b"/><stop offset="0.67" stop-color="#0f040c"/><stop offset="0.83" stop-color="#040103"/><stop offset="1"/></linearGradient><linearGradient id="linear-gradient-57" x1="304.22" y1="433.48" x2="218.85" y2="426.36" xlink:href="#linear-gradient-56"/><linearGradient id="New_Gradient_Swatch_copy_42" x1="5234.76" y1="726.37" x2="5250.1" y2="726.37" gradientTransform="matrix(-1, 0, 0, 1, 5528.57, 0)" gradientUnits="userSpaceOnUse"><stop offset="0" stop-color="#25054d"/><stop offset="0.5" stop-color="#45108a"/><stop offset="1" stop-color="#25054d"/></linearGradient><linearGradient id="New_Gradient_Swatch_copy_36" x1="5236.31" y1="715.85" x2="5248.65" y2="722.97" gradientTransform="matrix(-1, 0, 0, 1, 5528.57, 0)" gradientUnits="userSpaceOnUse"><stop offset="0.1" stop-color="#45108a"/><stop offset="1" stop-color="#7c1dc9"/></linearGradient><linearGradient id="New_Gradient_Swatch_copy_42-2" x1="5236.8" y1="645.61" x2="5248.09" y2="645.61" xlink:href="#New_Gradient_Swatch_copy_42"/><linearGradient id="linear-gradient-58" x1="5242.48" y1="573.42" x2="5242.48" y2="662.72" gradientTransform="matrix(-1, 0, 0, 1, 5528.57, 0)" gradientUnits="userSpaceOnUse"><stop offset="0" stop-color="#f15a29"/><stop offset="0.11" stop-color="#bd4620"/><stop offset="0.23" stop-color="#8b3418"/><stop offset="0.36" stop-color="#602410"/><stop offset="0.48" stop-color="#3e170a"/><stop offset="0.61" stop-color="#230d06"/><stop offset="0.73" stop-color="#0f0603"/><stop offset="0.86" stop-color="#040101"/><stop offset="1"/></linearGradient><radialGradient id="radial-gradient" cx="5242.48" cy="573.43" r="46.07" gradientTransform="matrix(-1, 0, 0, 1, 5528.57, 0)" gradientUnits="userSpaceOnUse"><stop offset="0.15" stop-color="#ffe4a7"/><stop offset="0.16" stop-color="#f4d8a3"/><stop offset="0.21" stop-color="#c4a191"/><stop offset="0.25" stop-color="#9b7182"/><stop offset="0.3" stop-color="#794b75"/><stop offset="0.35" stop-color="#5f2d6c"/><stop offset="0.39" stop-color="#4c1765"/><stop offset="0.43" stop-color="#410a60"/><stop offset="0.47" stop-color="#3d065f"/><stop offset="0.54" stop-color="#30054a"/><stop offset="0.67" stop-color="#1b032a"/><stop offset="0.79" stop-color="#0c0113"/><stop offset="0.9" stop-color="#030005"/><stop offset="1"/></radialGradient></defs><g class="cls-1"><g id="Layer_2" data-name="Layer 2"><g id="_Layer_" data-name="&lt;Layer&gt;"><polygon class="cls-2" points="424.69 758.09 541.58 691.5 541.58 584.44 424.69 651.04 424.69 758.09"/><polygon class="cls-3" points="159.13 604.09 424.76 758.09 424.76 651.04 159.13 497.13 159.13 604.09"/><polygon class="cls-4" points="159.13 497.13 424.76 651.04 541.58 584.44 275.82 430.46 159.13 497.13"/><polygon class="cls-5" points="355.02 610.83 471.91 544.24 471.91 437.19 355.02 503.78 355.02 610.83"/><polygon class="cls-6" points="177.81 508.7 355.09 610.83 355.09 503.78 177.81 401.74 177.81 508.7"/><polygon class="cls-7" points="177.81 401.74 355.09 503.78 471.91 437.19 294.5 335.07 177.81 401.74"/><polygon class="cls-8" points="285.88 463.7 402.77 397.12 402.77 290.06 285.88 356.66 285.88 463.7"/><polygon class="cls-9" points="192.85 410.53 285.95 463.7 285.95 356.66 192.85 303.57 192.85 410.53"/><polygon class="cls-10" points="192.85 303.57 285.95 356.66 402.77 290.06 309.54 236.9 192.85 303.57"/><polygon class="cls-11" points="398.5 654.73 424.79 669.85 514.13 617.8 514.13 632 424.79 684.05 398.5 668.93 398.5 654.73"/><polygon class="cls-12" points="398.5 662.45 424.79 677.57 514.13 625.52 514.13 639.72 424.79 691.77 398.5 676.65 398.5 662.45"/><polygon class="cls-13" points="398.5 670.17 424.79 685.29 514.13 633.24 514.13 647.45 424.79 699.49 398.5 684.38 398.5 670.17"/><polygon class="cls-14" points="398.5 677.89 424.79 693.01 514.13 640.96 514.13 655.17 424.79 707.22 398.5 692.1 398.5 677.89"/><polygon class="cls-15" points="398.5 685.61 424.79 700.73 514.13 648.68 514.13 662.89 424.79 714.94 398.5 699.82 398.5 685.61"/><polygon class="cls-16" points="398.5 693.33 424.79 708.45 514.13 656.4 514.13 670.61 424.79 722.66 398.5 707.54 398.5 693.33"/><polygon class="cls-17" points="398.5 701.05 424.79 716.17 514.13 664.12 514.13 678.33 424.79 730.38 398.5 715.26 398.5 701.05"/><polygon class="cls-18" points="398.5 708.77 424.79 723.89 514.13 671.84 514.13 686.05 424.79 738.1 398.5 722.98 398.5 708.77"/><polygon class="cls-19" points="398.5 716.5 424.79 731.62 514.13 679.57 514.13 693.77 424.79 745.82 398.5 730.7 398.5 716.5"/><polygon class="cls-20" points="328.3 506.42 354.6 521.53 443.93 469.49 443.93 483.69 354.6 535.74 328.3 520.62 328.3 506.42"/><polygon class="cls-21" points="328.3 514.14 354.6 529.25 443.93 477.21 443.93 491.41 354.6 543.46 328.3 528.34 328.3 514.14"/><polygon class="cls-22" points="328.3 521.86 354.6 536.98 443.93 484.93 443.93 499.13 354.6 551.18 328.3 536.06 328.3 521.86"/><polygon class="cls-23" points="328.3 529.58 354.6 544.7 443.93 492.65 443.93 506.85 354.6 558.9 328.3 543.78 328.3 529.58"/><polygon class="cls-24" points="328.3 537.3 354.6 552.42 443.93 500.37 443.93 514.57 354.6 566.62 328.3 551.5 328.3 537.3"/><polygon class="cls-25" points="328.3 545.02 354.6 560.14 443.93 508.09 443.93 522.29 354.6 574.34 328.3 559.22 328.3 545.02"/><polygon class="cls-26" points="328.3 552.74 354.6 567.86 443.93 515.81 443.93 530.01 354.6 582.06 328.3 566.95 328.3 552.74"/><polygon class="cls-27" points="328.3 560.46 354.6 575.58 443.93 523.53 443.93 537.74 354.6 589.78 328.3 574.67 328.3 560.46"/><polygon class="cls-28" points="328.3 568.18 354.6 583.3 443.93 531.25 443.93 545.46 354.6 597.51 328.3 582.39 328.3 568.18"/><polygon class="cls-29" points="259.69 358.63 285.98 373.75 375.31 321.7 375.31 335.9 285.98 387.95 259.69 372.83 259.69 358.63"/><polygon class="cls-30" points="259.69 366.35 285.98 381.47 375.31 329.42 375.31 343.63 285.98 395.68 259.69 380.56 259.69 366.35"/><polygon class="cls-31" points="259.69 374.07 285.98 389.19 375.31 337.14 375.31 351.35 285.98 403.4 259.69 388.28 259.69 374.07"/><polygon class="cls-32" points="259.69 381.79 285.98 396.91 375.31 344.86 375.31 359.07 285.98 411.12 259.69 396 259.69 381.79"/><polygon class="cls-33" points="259.69 389.51 285.98 404.63 375.31 352.58 375.31 366.79 285.98 418.84 259.69 403.72 259.69 389.51"/><polygon class="cls-34" points="259.69 397.23 285.98 412.35 375.31 360.3 375.31 374.51 285.98 426.56 259.69 411.44 259.69 397.23"/><polygon class="cls-35" points="259.69 404.95 285.98 420.07 375.31 368.02 375.31 382.23 285.98 434.28 259.69 419.16 259.69 404.95"/><polygon class="cls-36" points="259.69 412.68 285.98 427.8 375.31 375.75 375.31 389.95 285.98 442 259.69 426.88 259.69 412.68"/><polygon class="cls-37" points="259.69 420.4 285.98 435.52 375.31 383.47 375.31 397.67 285.98 449.72 259.69 434.6 259.69 420.4"/><polygon class="cls-38" points="342.81 623.46 326.06 613.71 326.06 700.78 342.81 710.54 342.81 623.46"/><polygon class="cls-39" points="365.56 636.81 348.82 627.06 348.82 714.14 365.56 723.9 365.56 636.81"/><polygon class="cls-40" points="388.33 650.17 371.58 640.42 371.58 727.49 388.33 737.25 388.33 650.17"/><polygon class="cls-41" points="177.81 508.7 355.09 610.83 355.09 503.78 177.81 401.74 177.81 508.7"/><polygon class="cls-42" points="143.05 767.06 288.2 683.61 288.2 85.13 143.05 168.59 143.05 767.06"/><polygon class="cls-43" points="0 683.61 143.13 767.06 143.13 168.59 0 85.24 0 683.61"/><polygon class="cls-44" points="0 85.24 143.13 168.59 288.2 85.13 144.92 1.69 0 85.24"/><path class="cls-45" d="M115.61,189v12L129,209.21v-12Zm-24.47-2.14,13.41,8.24v-12l-13.41-8.23Zm-73.39-42.3,13.41,8.24v-12l-13.41-8.23Zm24.47,14.1,13.4,8.24v-12l-13.4-8.23Zm24.46,14.1L80.09,181V169l-13.41-8.23Z"/><path class="cls-46" d="M115.61,213.59v12L129,233.79v-12Zm-24.47-2.14,13.41,8.24v-12l-13.41-8.23Zm-73.39-42.3,13.41,8.24v-12L17.75,157.2Zm24.47,14.1,13.4,8.24v-12l-13.4-8.22Zm24.46,14.1,13.41,8.24v-12L66.68,185.4Z"/><path class="cls-47" d="M115.61,238.18v11.95L129,258.37v-12ZM91.14,236l13.41,8.24v-12l-13.41-8.23Zm-73.39-42.3L31.16,202V190l-13.41-8.23Zm24.47,14.1,13.4,8.24v-12l-13.4-8.23Zm24.46,14.1,13.41,8.24v-12L66.68,210Z"/><path class="cls-48" d="M115.61,262.76v12L129,283V271Zm-24.47-2.14,13.41,8.24v-12l-13.41-8.23Zm-73.39-42.3,13.41,8.24v-12l-13.41-8.23Zm24.47,14.1,13.4,8.24v-12l-13.4-8.23Zm24.46,14.1,13.41,8.24v-12l-13.41-8.23Z"/><path class="cls-49" d="M115.61,287.35V299.3L129,307.54v-12ZM91.14,285.2l13.41,8.24v-12l-13.41-8.22ZM17.75,242.9l13.41,8.24v-12L17.75,231ZM42.22,257l13.4,8.24v-12l-13.4-8.22Zm24.46,14.1,13.41,8.24v-12l-13.41-8.22Z"/><path class="cls-50" d="M115.61,311.93v12L129,332.13v-12Zm-24.47-2.14L104.55,318v-12l-13.41-8.23Zm-73.39-42.3,13.41,8.24v-12l-13.41-8.23Zm24.47,14.1,13.4,8.24v-12l-13.4-8.23Zm24.46,14.1,13.41,8.24V292l-13.41-8.23Z"/><path class="cls-51" d="M115.61,336.51v12L129,356.71v-12Zm-24.47-2.14,13.41,8.24v-12l-13.41-8.23Zm-73.39-42.3,13.41,8.24v-12l-13.41-8.23Zm24.47,14.1,13.4,8.24v-12l-13.4-8.23Zm24.46,14.1,13.41,8.24v-12l-13.41-8.23Z"/><path class="cls-52" d="M115.61,361.1v11.95L129,381.29v-12ZM91.14,359l13.41,8.24v-12L91.14,347Zm-73.39-42.3,13.41,8.25v-12L17.75,304.7Zm24.47,14.1L55.62,339V327l-13.4-8.22Zm24.46,14.1,13.41,8.24v-12L66.68,332.9Z"/><path class="cls-53" d="M115.61,385.68v12L129,405.88v-12Zm-24.47-2.14,13.41,8.24v-12l-13.41-8.23Zm-73.39-42.3,13.41,8.24v-12l-13.41-8.23Zm24.47,14.1,13.4,8.24v-12l-13.4-8.23Zm24.46,14.1,13.41,8.24v-12l-13.41-8.23Z"/><path class="cls-54" d="M115.61,410.26v12L129,430.46v-12Zm-24.47-2.14,13.41,8.24v-12l-13.41-8.23Zm-73.39-42.3,13.41,8.24v-12l-13.41-8.22Zm24.47,14.1,13.4,8.24v-12L42.22,368ZM66.68,394l13.41,8.24v-12l-13.41-8.23Z"/><path class="cls-55" d="M115.61,434.85V446.8L129,455v-12ZM91.14,432.7l13.41,8.24V429l-13.41-8.22ZM17.75,390.41l13.41,8.24v-12l-13.41-8.23Zm24.47,14.1,13.4,8.24v-12l-13.4-8.23ZM66.68,418.6l13.41,8.24v-12l-13.41-8.22Z"/><path class="cls-56" d="M115.61,459.43v12L129,479.63v-12Zm-24.47-2.14,13.41,8.24v-12l-13.41-8.23ZM17.75,415l13.41,8.24v-12L17.75,403Zm24.47,14.1,13.4,8.24v-12l-13.4-8.23Zm24.46,14.1,13.41,8.24v-12l-13.41-8.23Z"/><path class="cls-57" d="M115.61,484v12L129,504.21v-12Zm-24.47-2.14,13.41,8.24v-12l-13.41-8.23Zm-73.39-42.3,13.41,8.24v-12l-13.41-8.22Zm24.47,14.1,13.4,8.24v-12l-13.4-8.22Zm24.46,14.1L80.09,476V464l-13.41-8.23Z"/><path class="cls-58" d="M115.61,508.6v11.95L129,528.79v-12Zm-24.47-2.15,13.41,8.24v-12L91.14,494.5ZM17.75,464.16l13.41,8.24v-12L17.75,452.2Zm24.47,14.1,13.4,8.24v-12l-13.4-8.23Zm24.46,14.1,13.41,8.24v-12L66.68,480.4Z"/><path class="cls-59" d="M115.61,533.18v12L129,553.38v-12ZM91.14,531l13.41,8.24v-12l-13.41-8.23Zm-73.39-42.3L31.16,497V485l-13.41-8.23Zm24.47,14.1,13.4,8.24v-12l-13.4-8.23Zm24.46,14.1,13.41,8.24v-12L66.68,505Z"/><path class="cls-60" d="M115.61,557.76v12L129,578V566Zm-24.47-2.14,13.41,8.24v-12l-13.41-8.23Zm-73.39-42.3,13.41,8.24v-12l-13.41-8.22Zm24.47,14.1,13.4,8.24v-12l-13.4-8.22Zm24.46,14.1,13.41,8.24v-12l-13.41-8.22Z"/><path class="cls-61" d="M115.61,582.35V594.3L129,602.54v-12Zm-24.47-2.14,13.41,8.24v-12l-13.41-8.23Zm-73.39-42.3,13.41,8.24v-12L17.75,526ZM42.22,552l13.4,8.24v-12l-13.4-8.23Zm24.46,14.1,13.41,8.24v-12l-13.41-8.23Z"/><path class="cls-62" d="M115.61,606.93v12L129,627.13v-12Zm-24.47-2.14L104.55,613v-12l-13.41-8.23Zm-73.39-42.3,13.41,8.24v-12l-13.41-8.23Zm24.47,14.1,13.4,8.24v-12l-13.4-8.23Zm24.46,14.1,13.41,8.24V587l-13.41-8.23Z"/><path class="cls-63" d="M115.61,631.52v12L129,651.71v-12Zm-24.47-2.15,13.41,8.24v-12l-13.41-8.22Zm-73.39-42.3,13.41,8.24v-12l-13.41-8.22Zm24.47,14.1,13.4,8.24v-12l-13.4-8.22Zm24.46,14.1,13.41,8.24v-12l-13.41-8.22Z"/><path class="cls-64" d="M115.61,656.1v12L129,676.3v-12ZM91.14,654l13.41,8.24v-12L91.14,642Zm-73.39-42.3,13.41,8.24v-12L17.75,599.7Zm24.47,14.1L55.62,634V622l-13.4-8.23Zm24.46,14.1,13.41,8.24v-12L66.68,627.9Z"/><path class="cls-65" d="M115.61,680.68v12L129,700.88v-12Zm-24.47-2.14,13.41,8.24v-12l-13.41-8.23Zm-73.39-42.3,13.41,8.24v-12l-13.41-8.23Zm24.47,14.1,13.4,8.24v-12l-13.4-8.23Zm24.46,14.1,13.41,8.24v-12l-13.41-8.23Z"/><path class="cls-66" d="M115.61,705.27v12L129,725.46v-12Zm-24.47-2.15,13.41,8.24v-12l-13.41-8.22Zm-73.39-42.3,13.41,8.25v-12l-13.41-8.22Zm24.47,14.1,13.4,8.24v-12L42.22,663ZM66.68,689l13.41,8.24v-12l-13.41-8.22Z"/><path class="cls-67" d="M268.84,132.61l-13.41,8.23v12l13.41-8.24Zm-24.46,14.1L231,154.94v12l13.41-8.24Zm-24.47,14.1L206.51,169v12l13.4-8.24Zm-62.33,36.43v12L171,201V189Zm37.87-22.33L182,183.14v12l13.41-8.24Z"/><path class="cls-68" d="M268.84,157.2l-13.41,8.22v12l13.41-8.24Zm-24.46,14.1L231,179.52v12l13.41-8.24Zm-24.47,14.1-13.4,8.22v12l13.4-8.24Zm-62.33,36.42v12l13.4-8.24v-12Zm37.87-22.33L182,207.72v12l13.41-8.24Z"/><path class="cls-69" d="M268.84,181.78,255.43,190v12l13.41-8.24Zm-24.46,14.1L231,204.11v12l13.41-8.24ZM219.91,210l-13.4,8.23v12l13.4-8.24Zm-62.33,36.43v12l13.4-8.24V238.18Zm37.87-22.33L182,232.31v12L195.45,236Z"/><path class="cls-70" d="M268.84,206.36l-13.41,8.23v12l13.41-8.24Zm-24.46,14.1L231,228.69v12l13.41-8.24Zm-24.47,14.1-13.4,8.23v12l13.4-8.24ZM157.58,271v12l13.4-8.24v-12Zm37.87-22.33L182,256.89v12l13.41-8.24Z"/><path class="cls-71" d="M268.84,231l-13.41,8.22v12l13.41-8.24Zm-24.46,14.1L231,253.27v12L244.38,257Zm-24.47,14.1-13.4,8.22v12l13.4-8.24Zm-62.33,36.42v12L171,299.3V287.35Zm37.87-22.32L182,281.47v12l13.41-8.24Z"/><path class="cls-72" d="M268.84,255.53l-13.41,8.23v12l13.41-8.24Zm-24.46,14.1L231,277.86v12l13.41-8.24Zm-24.47,14.1L206.51,292v12l13.4-8.24Zm-62.33,36.43v12l13.4-8.24v-12Zm37.87-22.33L182,306.06v12l13.41-8.24Z"/><path class="cls-73" d="M268.84,280.11l-13.41,8.23v12l13.41-8.24Zm-24.46,14.1L231,302.44v12l13.41-8.24Zm-24.47,14.1-13.4,8.23v12l13.4-8.24Zm-62.33,36.43v12l13.4-8.24v-12Zm37.87-22.33L182,330.64v12l13.41-8.24Z"/><path class="cls-74" d="M268.84,304.7l-13.41,8.23v12l13.41-8.25Zm-24.46,14.1L231,327v12l13.41-8.24Zm-24.47,14.1-13.4,8.22v12l13.4-8.24Zm-62.33,36.42v12l13.4-8.24V361.1ZM195.45,347,182,355.22v12L195.45,359Z"/><path class="cls-75" d="M268.84,329.28l-13.41,8.23v12l13.41-8.24Zm-24.46,14.1L231,351.61v12l13.41-8.24Zm-24.47,14.1-13.4,8.23v12l13.4-8.24Zm-62.33,36.43v12l13.4-8.24v-12Zm37.87-22.33L182,379.81v12l13.41-8.24Z"/><path class="cls-76" d="M268.84,353.87l-13.41,8.22v12l13.41-8.24ZM244.38,368,231,376.19v12l13.41-8.24Zm-24.47,14.1-13.4,8.23v12l13.4-8.24Zm-62.33,36.43v12l13.4-8.24v-12Zm37.87-22.33L182,404.39v12l13.41-8.24Z"/><path class="cls-77" d="M268.84,378.45l-13.41,8.23v12l13.41-8.24Zm-24.46,14.1L231,400.78v12l13.41-8.24Zm-24.47,14.1-13.4,8.22v12l13.4-8.24Zm-62.33,36.42v12L171,446.8V434.85Zm37.87-22.32L182,429v12l13.41-8.24Z"/><path class="cls-78" d="M268.84,403l-13.41,8.23v12L268.84,415Zm-24.46,14.1L231,425.36v12l13.41-8.24Zm-24.47,14.1-13.4,8.23v12l13.4-8.24Zm-62.33,36.43v12l13.4-8.24v-12Zm37.87-22.33L182,453.56v12l13.41-8.24Z"/><path class="cls-79" d="M268.84,427.62l-13.41,8.22v12l13.41-8.24Zm-24.46,14.1L231,449.94v12l13.41-8.24Zm-24.47,14.09L206.51,464v12l13.4-8.24Zm-62.33,36.43v12L171,496V484Zm37.87-22.33L182,478.14v12l13.41-8.24Z"/><path class="cls-80" d="M268.84,452.2l-13.41,8.23v12l13.41-8.24Zm-24.46,14.1L231,474.53v12l13.41-8.24Zm-24.47,14.1-13.4,8.23v12l13.4-8.24Zm-62.33,36.42v12l13.4-8.24V508.6Zm37.87-22.32L182,502.73v12l13.41-8.24Z"/><path class="cls-81" d="M268.84,476.78,255.43,485v12l13.41-8.24Zm-24.46,14.1L231,499.11v12l13.41-8.24ZM219.91,505l-13.4,8.23v12l13.4-8.24Zm-62.33,36.43v12l13.4-8.24v-12Zm37.87-22.33L182,527.31v12L195.45,531Z"/><path class="cls-82" d="M268.84,501.37l-13.41,8.22v12l13.41-8.24Zm-24.46,14.1L231,523.69v12l13.41-8.24Zm-24.47,14.1-13.4,8.22v12l13.4-8.24ZM157.58,566v12l13.4-8.24v-12Zm37.87-22.33L182,551.89v12l13.41-8.24Z"/><path class="cls-83" d="M268.84,526l-13.41,8.23v12l13.41-8.24Zm-24.46,14.1L231,548.28v12L244.38,552Zm-24.47,14.1-13.4,8.23v12l13.4-8.24Zm-62.33,36.43v12L171,594.3V582.35Zm37.87-22.33L182,576.48v12l13.41-8.24Z"/><path class="cls-84" d="M268.84,550.53l-13.41,8.23v12l13.41-8.24Zm-24.46,14.1L231,572.86v12l13.41-8.24Zm-24.47,14.1L206.51,587v12l13.4-8.24Zm-62.33,36.43v12l13.4-8.24v-12Zm37.87-22.33L182,601.06v12l13.41-8.24Z"/><path class="cls-85" d="M268.84,575.12l-13.41,8.22v12l13.41-8.24Zm-24.46,14.1L231,597.44v12l13.41-8.24Zm-24.47,14.1-13.4,8.22v12l13.4-8.24Zm-62.33,36.42v12l13.4-8.24v-12Zm37.87-22.32L182,625.64v12l13.41-8.24Z"/><path class="cls-86" d="M268.84,599.7l-13.41,8.23v12l13.41-8.24Zm-24.46,14.1L231,622v12l13.41-8.24Zm-24.47,14.1-13.4,8.23v12l13.4-8.24Zm-62.33,36.43v12l13.4-8.24v-12ZM195.45,642,182,650.23v12L195.45,654Z"/><path class="cls-87" d="M268.84,624.28l-13.41,8.23v12l13.41-8.24Zm-24.46,14.1L231,646.61v12l13.41-8.24Zm-24.47,14.1-13.4,8.23v12l13.4-8.24Zm-62.33,36.43v12l13.4-8.24v-12Zm37.87-22.33L182,674.81v12l13.41-8.24Z"/><path class="cls-88" d="M268.84,648.87l-13.41,8.22v12l13.41-8.25ZM244.38,663,231,671.19v12l13.41-8.24Zm-24.47,14.1-13.4,8.22v12l13.4-8.24Zm-62.33,36.42v12l13.4-8.24v-12Zm37.87-22.32L182,699.39v12l13.41-8.24Z"/><polygon class="cls-89" points="143.34 131.47 143.34 151.25 257.68 85.51 257.68 65.73 143.34 131.47"/><polygon class="cls-90" points="143.4 131.47 143.4 151.25 30.65 85.53 30.65 65.82 143.4 131.47"/><polygon class="cls-91" points="143.34 131.47 143.34 136.38 257.68 70.63 257.68 65.73 143.34 131.47"/><polygon class="cls-92" points="143.4 131.47 143.4 136.38 30.65 70.65 30.65 65.82 143.4 131.47"/><polygon class="cls-93" points="30.65 65.82 143.4 131.47 257.68 65.73 144.81 0 30.65 65.82"/><polygon class="cls-94" points="212 66.87 143.03 26.7 73.98 66.47 143.02 106.68 212 66.87"/><polygon class="cls-95" points="143.07 38.57 143.07 26.73 143.03 26.7 73.98 66.47 84.23 72.44 143.07 38.57"/><polygon class="cls-96" points="143.03 38.57 201.76 72.78 212 66.87 143.03 26.7 143.03 38.57"/><polygon class="cls-97" points="0 683.61 143.13 767.06 143.13 168.59 0 85.24 0 683.61"/><polygon class="cls-98" points="143.05 767.06 288.2 683.61 288.2 85.13 143.05 168.59 143.05 767.06"/><path class="cls-99" d="M278.3,719.38h15.58v9.38h0v.06c0,2.51-3.49,4.54-7.79,4.54s-7.79-2-7.79-4.54v-9.44Z"/><path class="cls-100" d="M278.3,719.41c0,2.5,3.49,4.53,7.79,4.53s7.79-2,7.79-4.53-3.49-4.54-7.79-4.54S278.3,716.9,278.3,719.41Z"/><path class="cls-101" d="M280.36,568.74h11.46V719.09h0v0c0,1.85-2.56,3.34-5.73,3.34s-5.73-1.49-5.73-3.34v0h0Z"/><path class="cls-102" d="M280.36,568.74h11.46V719.09h0v0c0,1.85-2.56,3.34-5.73,3.34s-5.73-1.49-5.73-3.34v0h0Z"/><path class="cls-103" d="M240,573.43a46.07,46.07,0,1,0,46.07-46.07A46.07,46.07,0,0,0,240,573.43Z"/></g></g></g></svg>