<svg xmlns="http://www.w3.org/2000/svg" xmlns:xlink="http://www.w3.org/1999/xlink" viewBox="0 0 563.41 565.76"><defs><style>.cls-1{isolation:isolate;}.cls-2{fill:url(#linear-gradient);}.cls-3{fill:url(#linear-gradient-2);}.cls-19,.cls-4,.cls-5,.cls-6,.cls-7,.cls-70,.cls-71,.cls-83,.cls-86{mix-blend-mode:multiply;}.cls-4,.cls-5,.cls-6,.cls-7,.cls-70,.cls-71,.cls-83,.cls-86{opacity:0.5;}.cls-4{fill:url(#linear-gradient-3);}.cls-5{fill:url(#linear-gradient-4);}.cls-6{fill:url(#linear-gradient-5);}.cls-7{fill:url(#linear-gradient-6);}.cls-8{fill:url(#linear-gradient-7);}.cls-9{fill:url(#linear-gradient-8);}.cls-10{fill:url(#linear-gradient-9);}.cls-11{fill:#7c1dc9;}.cls-12{fill:url(#linear-gradient-10);}.cls-13{fill:url(#linear-gradient-11);}.cls-14{fill:url(#linear-gradient-12);}.cls-15{fill:url(#linear-gradient-13);}.cls-16{fill:url(#linear-gradient-16);}.cls-17{fill:url(#linear-gradient-17);}.cls-18{mix-blend-mode:screen;fill:url(#linear-gradient-18);}.cls-18,.cls-19{opacity:0.7;}.cls-19{fill:url(#linear-gradient-19);}.cls-20{fill:url(#linear-gradient-20);}.cls-21{fill:url(#linear-gradient-21);}.cls-22{fill:url(#linear-gradient-22);}.cls-23{fill:url(#linear-gradient-23);}.cls-24{fill:url(#linear-gradient-24);}.cls-25{fill:url(#linear-gradient-25);}.cls-26{fill:url(#linear-gradient-26);}.cls-27{fill:url(#linear-gradient-27);}.cls-28{fill:url(#linear-gradient-28);}.cls-29{fill:url(#linear-gradient-29);}.cls-30{fill:url(#linear-gradient-30);}.cls-31{fill:url(#linear-gradient-31);}.cls-32{fill:url(#linear-gradient-32);}.cls-33{fill:url(#linear-gradient-33);}.cls-34{fill:url(#linear-gradient-34);}.cls-35{fill:url(#linear-gradient-35);}.cls-36{fill:url(#linear-gradient-36);}.cls-37{fill:url(#linear-gradient-37);}.cls-38{fill:url(#linear-gradient-38);}.cls-39{fill:url(#linear-gradient-39);}.cls-40{fill:url(#linear-gradient-40);}.cls-41{fill:url(#linear-gradient-41);}.cls-42{fill:url(#linear-gradient-42);}.cls-43{fill:url(#linear-gradient-43);}.cls-44{fill:url(#linear-gradient-44);}.cls-45{fill:url(#linear-gradient-45);}.cls-46{fill:url(#linear-gradient-46);}.cls-47{fill:url(#linear-gradient-47);}.cls-48{fill:url(#linear-gradient-48);}.cls-49{fill:url(#linear-gradient-49);}.cls-50{fill:url(#linear-gradient-50);}.cls-51{fill:url(#linear-gradient-51);}.cls-52{fill:url(#linear-gradient-52);}.cls-53{fill:url(#linear-gradient-53);}.cls-54{fill:url(#linear-gradient-54);}.cls-55{fill:url(#linear-gradient-55);}.cls-56{fill:url(#linear-gradient-56);}.cls-57{fill:url(#linear-gradient-57);}.cls-58{fill:url(#linear-gradient-58);}.cls-59{fill:url(#linear-gradient-59);}.cls-60{fill:url(#linear-gradient-60);}.cls-61{fill:url(#linear-gradient-61);}.cls-62{fill:url(#linear-gradient-62);}.cls-63{fill:url(#linear-gradient-63);}.cls-64{fill:url(#linear-gradient-64);}.cls-65{fill:url(#linear-gradient-65);}.cls-66{fill:url(#linear-gradient-66);}.cls-67{fill:url(#linear-gradient-67);}.cls-68{fill:url(#linear-gradient-68);}.cls-69{fill:url(#linear-gradient-69);}.cls-70{fill:url(#linear-gradient-70);}.cls-71{fill:url(#linear-gradient-71);}.cls-72{fill:url(#linear-gradient-72);}.cls-73{fill:url(#linear-gradient-73);}.cls-74{fill:url(#linear-gradient-74);}.cls-75{fill:url(#linear-gradient-75);}.cls-76{fill:url(#linear-gradient-76);}.cls-77{fill:url(#linear-gradient-77);}.cls-78{fill:url(#linear-gradient-78);}.cls-79{fill:url(#linear-gradient-79);}.cls-80{fill:url(#linear-gradient-80);}.cls-81{fill:url(#linear-gradient-81);}.cls-82{fill:url(#linear-gradient-82);}.cls-83{fill:url(#linear-gradient-83);}.cls-84{fill:url(#linear-gradient-84);}.cls-85{mix-blend-mode:color-dodge;fill:url(#Radial_Gradient_1);}.cls-86{fill:url(#linear-gradient-85);}</style><linearGradient id="linear-gradient" x1="374.86" y1="350.9" x2="859.57" y2="543.12" gradientTransform="matrix(-1, 0, 0, 1, 563.41, 0)" gradientUnits="userSpaceOnUse"><stop offset="0" stop-color="#45108a"/><stop offset="0.17" stop-color="#54149b"/><stop offset="0.53" stop-color="#711abc"/><stop offset="0.72" stop-color="#7c1dc9"/><stop offset="0.79" stop-color="#8d3bce"/><stop offset="0.92" stop-color="#b887db"/><stop offset="1" stop-color="#d1b4e3"/></linearGradient><linearGradient id="linear-gradient-2" x1="-164.06" y1="454.06" x2="577.69" y2="287.79" gradientTransform="matrix(-1, 0, 0, 1, 563.41, 0)" gradientUnits="userSpaceOnUse"><stop offset="0" stop-color="#45108a"/><stop offset="0.11" stop-color="#54149b"/><stop offset="0.33" stop-color="#711abc"/><stop offset="0.46" stop-color="#7c1dc9"/><stop offset="0.58" stop-color="#8d3bce"/><stop offset="0.85" stop-color="#b887db"/><stop offset="1" stop-color="#d1b4e3"/></linearGradient><linearGradient id="linear-gradient-3" x1="392.99" y1="300.99" x2="886.75" y2="153.15" xlink:href="#linear-gradient-2"/><linearGradient id="linear-gradient-4" x1="-118.82" y1="360.7" x2="530.44" y2="215.16" xlink:href="#linear-gradient-2"/><linearGradient id="linear-gradient-5" x1="393.23" y1="453.26" x2="883.86" y2="306.35" xlink:href="#linear-gradient-2"/><linearGradient id="linear-gradient-6" x1="-112.39" y1="518.04" x2="523.73" y2="375.45" xlink:href="#linear-gradient-2"/><linearGradient id="linear-gradient-7" x1="555.63" y1="-234.5" x2="296.2" y2="259.91" gradientTransform="matrix(-1, 0, 0, 1, 563.41, 0)" gradientUnits="userSpaceOnUse"><stop offset="0.74" stop-color="#45108a"/><stop offset="1" stop-color="#3746a3"/></linearGradient><linearGradient id="linear-gradient-8" x1="175.94" y1="420.76" x2="233.27" y2="298.29" gradientTransform="matrix(-1, 0, 0, 1, 563.41, 0)" gradientUnits="userSpaceOnUse"><stop offset="0.19" stop-color="#ffa98c"/><stop offset="0.52" stop-color="#c46aa7"/><stop offset="0.84" stop-color="#9033c0"/><stop offset="1" stop-color="#7c1dc9"/></linearGradient><linearGradient id="linear-gradient-9" x1="450.37" y1="407.88" x2="400.93" y2="299.24" xlink:href="#linear-gradient-8"/><linearGradient id="linear-gradient-10" x1="279.58" y1="545.02" x2="293.66" y2="576.62" xlink:href="#linear-gradient-2"/><linearGradient id="linear-gradient-11" x1="121.65" y1="471.4" x2="121.65" y2="673.88" xlink:href="#linear-gradient"/><linearGradient id="linear-gradient-12" x1="140.52" y1="498.67" x2="170.46" y2="447.14" gradientTransform="matrix(-1, 0, 0, 1, 563.41, 0)" gradientUnits="userSpaceOnUse"><stop offset="0" stop-color="#7c1dc9"/><stop offset="0.28" stop-color="#9b41ba"/><stop offset="0.9" stop-color="#ea9c96"/><stop offset="1" stop-color="#f7aa90"/></linearGradient><linearGradient id="linear-gradient-13" x1="287.13" y1="528.12" x2="299.63" y2="556.16" xlink:href="#linear-gradient-2"/><linearGradient id="linear-gradient-16" x1="137.52" y1="450.56" x2="137.52" y2="662.04" xlink:href="#linear-gradient"/><linearGradient id="linear-gradient-17" x1="152.92" y1="474.63" x2="211.77" y2="374.59" xlink:href="#linear-gradient-12"/><linearGradient id="linear-gradient-18" x1="177.45" y1="420.72" x2="149.59" y2="470.86" gradientTransform="matrix(-1, 0, 0, 1, 563.41, 0)" gradientUnits="userSpaceOnUse"><stop offset="0" stop-color="#f49587"/><stop offset="0.12" stop-color="#bd7368"/><stop offset="0.24" stop-color="#8b554d"/><stop offset="0.36" stop-color="#603b35"/><stop offset="0.48" stop-color="#3e2622"/><stop offset="0.61" stop-color="#231513"/><stop offset="0.74" stop-color="#0f0908"/><stop offset="0.86" stop-color="#040202"/><stop offset="1"/></linearGradient><linearGradient id="linear-gradient-19" x1="152.71" y1="445.24" x2="124.84" y2="495.41" gradientTransform="matrix(-1, 0, 0, 1, 563.41, 0)" gradientUnits="userSpaceOnUse"><stop offset="0" stop-color="#939598"/><stop offset="0.06" stop-color="#9fa1a4"/><stop offset="0.24" stop-color="#c2c3c4"/><stop offset="0.42" stop-color="#ddddde"/><stop offset="0.61" stop-color="#f0f0f0"/><stop offset="0.8" stop-color="#fbfbfb"/><stop offset="1" stop-color="#fff"/></linearGradient><linearGradient id="linear-gradient-20" x1="54.03" y1="403.15" x2="93.55" y2="403.15" gradientTransform="matrix(-1, 0, 0, 1, 577.16, 0)" gradientUnits="userSpaceOnUse"><stop offset="0.01" stop-color="#6b24d6"/><stop offset="0.07" stop-color="#742eda"/><stop offset="0.17" stop-color="#8b49e4"/><stop offset="0.23" stop-color="#9b5bea"/><stop offset="0.37" stop-color="#773bc1"/><stop offset="0.53" stop-color="#531c99"/><stop offset="0.61" stop-color="#45108a"/><stop offset="0.7" stop-color="#4a1190"/><stop offset="0.82" stop-color="#5915a0"/><stop offset="0.95" stop-color="#701abc"/><stop offset="1" stop-color="#7c1dc9"/></linearGradient><linearGradient id="linear-gradient-21" x1="40.09" y1="396.01" x2="80.25" y2="396.01" gradientTransform="matrix(-1, 0, 0, 1, 563.41, 0)" gradientUnits="userSpaceOnUse"><stop offset="0.04" stop-color="#6b24d6"/><stop offset="0.21" stop-color="#7733dc"/><stop offset="0.56" stop-color="#975ced"/><stop offset="0.7" stop-color="#a56ef4"/><stop offset="1" stop-color="#f7aa90"/></linearGradient><linearGradient id="linear-gradient-22" x1="58.45" y1="397.1" x2="89.19" y2="397.1" xlink:href="#linear-gradient-20"/><linearGradient id="linear-gradient-23" x1="44.55" y1="390.94" x2="75.79" y2="390.94" xlink:href="#linear-gradient-21"/><linearGradient id="linear-gradient-24" x1="62.22" y1="320.2" x2="85.46" y2="320.2" xlink:href="#linear-gradient-20"/><linearGradient id="linear-gradient-25" x1="95" y1="222.49" x2="72.68" y2="244.95" gradientTransform="matrix(-1, 0, 0, 1, 577.16, 0)" gradientUnits="userSpaceOnUse"><stop offset="0.04" stop-color="#ffba78"/><stop offset="0.4" stop-color="#ffc987"/><stop offset="1" stop-color="#feeca8"/></linearGradient><linearGradient id="linear-gradient-26" x1="58.45" y1="248.47" x2="89.19" y2="248.47" xlink:href="#linear-gradient-20"/><linearGradient id="linear-gradient-27" x1="44.55" y1="242.31" x2="75.79" y2="242.31" xlink:href="#linear-gradient-21"/><linearGradient id="linear-gradient-28" x1="64.02" y1="426.02" x2="103.54" y2="426.02" gradientTransform="matrix(-1, 0, 0, 1, 547.66, 0)" xlink:href="#linear-gradient-20"/><linearGradient id="linear-gradient-29" x1="79.58" y1="418.88" x2="119.74" y2="418.88" xlink:href="#linear-gradient-21"/><linearGradient id="linear-gradient-30" x1="68.44" y1="419.97" x2="99.18" y2="419.97" gradientTransform="matrix(-1, 0, 0, 1, 547.66, 0)" xlink:href="#linear-gradient-20"/><linearGradient id="linear-gradient-31" x1="84.04" y1="413.81" x2="115.27" y2="413.81" xlink:href="#linear-gradient-21"/><linearGradient id="linear-gradient-32" x1="72.21" y1="343.07" x2="95.45" y2="343.07" gradientTransform="matrix(-1, 0, 0, 1, 547.66, 0)" xlink:href="#linear-gradient-20"/><linearGradient id="linear-gradient-33" x1="104.99" y1="245.36" x2="82.67" y2="267.82" gradientTransform="matrix(-1, 0, 0, 1, 547.66, 0)" xlink:href="#linear-gradient-25"/><linearGradient id="linear-gradient-34" x1="68.44" y1="271.34" x2="99.18" y2="271.34" gradientTransform="matrix(-1, 0, 0, 1, 547.66, 0)" xlink:href="#linear-gradient-20"/><linearGradient id="linear-gradient-35" x1="84.04" y1="265.18" x2="115.27" y2="265.18" xlink:href="#linear-gradient-21"/><linearGradient id="linear-gradient-36" x1="74.01" y1="448.89" x2="113.53" y2="448.89" gradientTransform="matrix(-1, 0, 0, 1, 518.16, 0)" xlink:href="#linear-gradient-20"/><linearGradient id="linear-gradient-37" x1="119.07" y1="441.75" x2="159.23" y2="441.75" xlink:href="#linear-gradient-21"/><linearGradient id="linear-gradient-38" x1="78.43" y1="442.84" x2="109.17" y2="442.84" gradientTransform="matrix(-1, 0, 0, 1, 518.16, 0)" xlink:href="#linear-gradient-20"/><linearGradient id="linear-gradient-39" x1="123.53" y1="436.68" x2="154.76" y2="436.68" xlink:href="#linear-gradient-21"/><linearGradient id="linear-gradient-40" x1="82.2" y1="365.93" x2="105.44" y2="365.93" gradientTransform="matrix(-1, 0, 0, 1, 518.16, 0)" xlink:href="#linear-gradient-20"/><linearGradient id="linear-gradient-41" x1="114.98" y1="268.23" x2="92.66" y2="290.69" gradientTransform="matrix(-1, 0, 0, 1, 518.16, 0)" xlink:href="#linear-gradient-25"/><linearGradient id="linear-gradient-42" x1="78.43" y1="294.21" x2="109.17" y2="294.21" gradientTransform="matrix(-1, 0, 0, 1, 518.16, 0)" xlink:href="#linear-gradient-20"/><linearGradient id="linear-gradient-43" x1="123.53" y1="288.05" x2="154.76" y2="288.05" xlink:href="#linear-gradient-21"/><linearGradient id="linear-gradient-44" x1="143.12" y1="471.77" x2="182.65" y2="471.77" gradientTransform="matrix(-1, 0, 0, 1, 547.66, 0)" xlink:href="#linear-gradient-20"/><linearGradient id="linear-gradient-45" x1="158.68" y1="464.63" x2="198.84" y2="464.63" xlink:href="#linear-gradient-21"/><linearGradient id="linear-gradient-46" x1="147.54" y1="465.72" x2="178.28" y2="465.72" gradientTransform="matrix(-1, 0, 0, 1, 547.66, 0)" xlink:href="#linear-gradient-20"/><linearGradient id="linear-gradient-47" x1="163.14" y1="459.56" x2="194.38" y2="459.56" xlink:href="#linear-gradient-21"/><linearGradient id="linear-gradient-48" x1="151.32" y1="388.82" x2="174.56" y2="388.82" gradientTransform="matrix(-1, 0, 0, 1, 547.66, 0)" xlink:href="#linear-gradient-20"/><linearGradient id="linear-gradient-49" x1="184.09" y1="291.11" x2="161.77" y2="313.57" gradientTransform="matrix(-1, 0, 0, 1, 547.66, 0)" xlink:href="#linear-gradient-25"/><linearGradient id="linear-gradient-50" x1="147.54" y1="317.09" x2="178.28" y2="317.09" gradientTransform="matrix(-1, 0, 0, 1, 547.66, 0)" xlink:href="#linear-gradient-20"/><linearGradient id="linear-gradient-51" x1="163.14" y1="310.93" x2="194.38" y2="310.93" xlink:href="#linear-gradient-21"/><linearGradient id="linear-gradient-52" x1="153.11" y1="494.64" x2="192.63" y2="494.64" gradientTransform="matrix(-1, 0, 0, 1, 518.16, 0)" xlink:href="#linear-gradient-20"/><linearGradient id="linear-gradient-53" x1="198.17" y1="487.5" x2="238.33" y2="487.5" xlink:href="#linear-gradient-21"/><linearGradient id="linear-gradient-54" x1="157.53" y1="488.59" x2="188.27" y2="488.59" gradientTransform="matrix(-1, 0, 0, 1, 518.16, 0)" xlink:href="#linear-gradient-20"/><linearGradient id="linear-gradient-55" x1="202.63" y1="482.43" x2="233.87" y2="482.43" xlink:href="#linear-gradient-21"/><linearGradient id="linear-gradient-56" x1="161.31" y1="411.68" x2="184.55" y2="411.68" gradientTransform="matrix(-1, 0, 0, 1, 518.16, 0)" xlink:href="#linear-gradient-20"/><linearGradient id="linear-gradient-57" x1="194.08" y1="313.98" x2="171.76" y2="336.44" gradientTransform="matrix(-1, 0, 0, 1, 518.16, 0)" xlink:href="#linear-gradient-25"/><linearGradient id="linear-gradient-58" x1="157.53" y1="339.96" x2="188.27" y2="339.96" gradientTransform="matrix(-1, 0, 0, 1, 518.16, 0)" xlink:href="#linear-gradient-20"/><linearGradient id="linear-gradient-59" x1="202.63" y1="333.8" x2="233.87" y2="333.8" xlink:href="#linear-gradient-21"/><linearGradient id="linear-gradient-60" x1="192.29" y1="517.62" x2="231.81" y2="517.62" gradientTransform="matrix(-1, 0, 0, 1, 518.16, 0)" xlink:href="#linear-gradient-20"/><linearGradient id="linear-gradient-61" x1="237.34" y1="510.48" x2="277.5" y2="510.48" xlink:href="#linear-gradient-21"/><linearGradient id="linear-gradient-62" x1="196.7" y1="511.57" x2="227.45" y2="511.57" gradientTransform="matrix(-1, 0, 0, 1, 518.16, 0)" xlink:href="#linear-gradient-20"/><linearGradient id="linear-gradient-63" x1="241.81" y1="505.41" x2="273.04" y2="505.41" xlink:href="#linear-gradient-21"/><linearGradient id="linear-gradient-64" x1="200.48" y1="434.67" x2="223.72" y2="434.67" gradientTransform="matrix(-1, 0, 0, 1, 518.16, 0)" xlink:href="#linear-gradient-20"/><linearGradient id="linear-gradient-65" x1="233.25" y1="336.96" x2="210.94" y2="359.42" gradientTransform="matrix(-1, 0, 0, 1, 518.16, 0)" xlink:href="#linear-gradient-25"/><linearGradient id="linear-gradient-66" x1="196.7" y1="362.94" x2="227.45" y2="362.94" gradientTransform="matrix(-1, 0, 0, 1, 518.16, 0)" xlink:href="#linear-gradient-20"/><linearGradient id="linear-gradient-67" x1="241.81" y1="356.78" x2="273.04" y2="356.78" xlink:href="#linear-gradient-21"/><linearGradient id="linear-gradient-68" x1="429.27" y1="310.2" x2="466.16" y2="392.99" xlink:href="#linear-gradient-2"/><linearGradient id="linear-gradient-69" x1="161.54" y1="279.57" x2="161.54" y2="441.43" xlink:href="#linear-gradient-2"/><linearGradient id="linear-gradient-70" x1="427.82" y1="302.16" x2="458.66" y2="371.38" xlink:href="#linear-gradient-2"/><linearGradient id="linear-gradient-71" x1="161.54" y1="276.22" x2="161.54" y2="428.26" xlink:href="#linear-gradient-2"/><linearGradient id="linear-gradient-72" x1="546.48" y1="-254.78" x2="239.71" y2="329.86" xlink:href="#linear-gradient-2"/><linearGradient id="linear-gradient-73" x1="428.9" y1="296.73" x2="458.74" y2="363.68" xlink:href="#linear-gradient-2"/><linearGradient id="linear-gradient-74" x1="160.21" y1="271.41" x2="160.21" y2="423.01" xlink:href="#linear-gradient-2"/><linearGradient id="linear-gradient-75" x1="425.44" y1="-7.34" x2="81.75" y2="588.11" xlink:href="#linear-gradient-2"/><linearGradient id="linear-gradient-76" x1="255.9" y1="55.28" x2="608.31" y2="128.81" xlink:href="#linear-gradient-2"/><linearGradient id="linear-gradient-77" x1="471.32" y1="112.97" x2="690.66" y2="4.66" xlink:href="#linear-gradient-2"/><linearGradient id="linear-gradient-78" x1="213.62" y1="64.58" x2="265.57" y2="157.84" xlink:href="#linear-gradient-2"/><linearGradient id="linear-gradient-79" x1="110.45" y1="87.91" x2="645.17" y2="318.76" xlink:href="#linear-gradient-2"/><linearGradient id="linear-gradient-80" x1="253.62" y1="92.27" x2="773.37" y2="561.79" xlink:href="#linear-gradient-2"/><linearGradient id="linear-gradient-81" x1="-12.92" y1="213.1" x2="339.49" y2="286.63" xlink:href="#linear-gradient-2"/><linearGradient id="linear-gradient-82" x1="75.07" y1="225.47" x2="413.89" y2="296.17" xlink:href="#linear-gradient-2"/><linearGradient id="linear-gradient-83" x1="55.21" y1="221.32" x2="365.48" y2="286.06" xlink:href="#linear-gradient-2"/><linearGradient id="linear-gradient-84" x1="202.13" y1="271.08" x2="432.46" y2="157.34" xlink:href="#linear-gradient-2"/><radialGradient id="Radial_Gradient_1" cx="219.36" cy="261.02" r="82.15" gradientTransform="matrix(-1, 0, 0, 1, 563.41, 0)" gradientUnits="userSpaceOnUse"><stop offset="0" stop-color="#fff"/><stop offset="1"/></radialGradient><linearGradient id="linear-gradient-85" x1="281.28" y1="543.22" x2="302.47" y2="590.77" xlink:href="#linear-gradient-2"/></defs><g class="cls-1"><g id="Layer_2" data-name="Layer 2"><g id="_Layer_" data-name="&lt;Layer&gt;"><polygon class="cls-2" points="248.67 520.61 17.11 385.86 17.11 225.35 248.67 360.11 248.67 520.61"/><polygon class="cls-3" points="480.78 385.2 248.54 520.61 248.54 360.11 480.78 224.86 480.78 385.2"/><polygon class="cls-4" points="248.67 371.22 17.11 236.48 17.11 208.28 248.67 343.04 248.67 371.22"/><polygon class="cls-5" points="480.78 235.81 248.54 371.22 248.54 343.04 480.78 207.8 480.78 235.81"/><polygon class="cls-6" points="248.67 520.61 17.11 385.86 17.11 363.59 248.67 498.35 248.67 520.61"/><polygon class="cls-7" points="480.78 385.2 248.54 520.61 248.54 511.23 480.78 375.99 480.78 385.2"/><polygon class="cls-8" points="480.78 224.86 248.54 360.11 17.11 225.35 249.6 89.96 480.78 224.86"/><path class="cls-9" d="M381.74,340.94A7.72,7.72,0,0,0,370,334.36h0a20.48,20.48,0,0,0-9.76,17.44v82.51l21.52-13.23Zm-39.27,22.63A7.72,7.72,0,0,0,330.71,357h0A20.48,20.48,0,0,0,321,374.44v82.5l21.52-13.22ZM303.2,386.2a7.72,7.72,0,0,0-11.76-6.58h0a20.48,20.48,0,0,0-9.76,17.45v82.51l21.52-13.23Zm157.94-91.12a7.72,7.72,0,0,0-11.76-6.58h0A20.46,20.46,0,0,0,439.62,306v82.5l21.52-13.22Zm-39.27,22.63a7.73,7.73,0,0,0-11.76-6.58h0a20.46,20.46,0,0,0-9.76,17.45v82.51l21.52-13.23Z"/><path class="cls-10" d="M201.44,375.58v53L223,441.79V386.45A20.48,20.48,0,0,0,213.2,369h0A7.72,7.72,0,0,0,201.44,375.58ZM44.36,338l21.52,13.22V295.92a20.47,20.47,0,0,0-9.77-17.45h0a7.71,7.71,0,0,0-11.75,6.58Zm39.27,22.63,21.52,13.23V318.55a20.47,20.47,0,0,0-9.77-17.45h0a7.72,7.72,0,0,0-11.75,6.58ZM122.9,383.3l21.52,13.23V341.18a20.48,20.48,0,0,0-9.77-17.45h0a7.72,7.72,0,0,0-11.75,6.58Zm39.27,22.63,21.52,13.23V363.81a20.48,20.48,0,0,0-9.76-17.44h0A7.72,7.72,0,0,0,162.17,353Z"/><path class="cls-11" d="M208,368a7.53,7.53,0,0,0-1.88,5v53L223,436.29v5.5l-21.52-13.22v-53A7.66,7.66,0,0,1,208,368Z"/><path class="cls-11" d="M168.75,345.37a7.5,7.5,0,0,0-1.88,5v53l16.82,10.34v5.5l-21.52-13.23V353A7.66,7.66,0,0,1,168.75,345.37Z"/><path class="cls-11" d="M50.94,277.47a7.53,7.53,0,0,0-1.88,5v53l16.82,10.34v5.5L44.36,338v-53A7.66,7.66,0,0,1,50.94,277.47Z"/><path class="cls-11" d="M129.48,322.73a7.55,7.55,0,0,0-1.88,5v53L144.42,391v5.5L122.9,383.3v-53A7.66,7.66,0,0,1,129.48,322.73Z"/><path class="cls-11" d="M90.21,300.1a7.55,7.55,0,0,0-1.88,5v53l16.82,10.33v5.51L83.63,360.67v-53A7.66,7.66,0,0,1,90.21,300.1Z"/><polygon class="cls-12" points="325.75 554.43 325.75 565.76 248.67 520.46 248.67 509.12 325.75 554.43"/><polygon class="cls-13" points="325.67 554.43 325.67 565.76 557.85 431.9 557.85 420.66 325.67 554.43"/><polygon class="cls-14" points="557.85 420.66 325.67 554.43 248.67 509.12 481 375.27 557.85 420.66"/><polygon class="cls-15" points="309.87 533.59 309.87 544.93 248.67 509.21 248.67 497.88 309.87 533.59"/><polygon class="cls-12" points="325.75 554.43 325.75 565.76 248.67 520.46 248.67 509.12 325.75 554.43"/><polygon class="cls-15" points="309.87 533.59 309.87 544.93 248.67 509.21 248.67 497.88 309.87 533.59"/><polygon class="cls-16" points="309.79 533.59 309.79 544.93 541.98 411.07 541.98 399.82 309.79 533.59"/><polygon class="cls-17" points="541.98 399.82 309.79 533.59 248.67 497.88 481 364.02 541.98 399.82"/><path class="cls-18" d="M438.57,457.63l-21.52,13.21-56.83-36.53,21.52-13.23ZM399.3,480.27l-21.52,13.2L321,456.94l21.52-13.22ZM360,502.9l-21.52,13.2-56.83-36.52,21.52-13.23ZM518,411.78,496.44,425l-56.82-36.53,21.52-13.22Zm-39.27,22.63-21.52,13.2-56.82-36.52,21.52-13.23Z"/><path class="cls-19" d="M484,470.69,462.49,483.9l-56.83-36.53,21.53-13.23Zm-39.27,22.63-21.52,13.21L366.39,470l21.52-13.23ZM405.47,516,384,529.16l-56.83-36.53,21.52-13.22Zm-42.83,20.37-21.52,13.2L284.29,513l21.52-13.23Zm200.77-111.5L541.89,438l-56.83-36.53,21.52-13.23Zm-39.27,22.64-21.53,13.2-56.82-36.53,21.52-13.22Z"/><path class="cls-20" d="M483.16,395.93h40.16v2.58h0c0,.06,0,.11,0,.16,0,6.46-9,11.7-20.08,11.7s-20.08-5.24-20.08-11.7c0-.05,0-.1,0-.16h0Z"/><path class="cls-21" d="M483.16,396c0,5.55,9,10.06,20.08,10.06s20.08-4.51,20.08-10.06-9-10.07-20.08-10.07S483.16,390.46,483.16,396Z"/><path class="cls-22" d="M487.62,390.88h31.24v3.22h0v.13c0,5-7,9.09-15.62,9.09s-15.62-4.07-15.62-9.09v-3.35Z"/><path class="cls-23" d="M487.62,390.94c0,4.32,7,7.83,15.62,7.83s15.62-3.51,15.62-7.83-7-7.83-15.62-7.83S487.62,386.62,487.62,390.94Z"/><path class="cls-24" d="M491.43,243.66h23.62v146.1h0v.07c0,3.83-5.29,6.9-11.81,6.9s-11.81-3.07-11.81-6.87v-.1h0Z"/><path class="cls-25" d="M491.43,243.71c0,3.27,5.29,5.92,11.81,5.92s11.81-2.65,11.81-5.92-5.29-5.92-11.81-5.92S491.43,240.44,491.43,243.71Z"/><path class="cls-26" d="M487.62,242.25h31.24v3.22h0v.12c0,5-7,9.1-15.62,9.1s-15.62-4.07-15.62-9.1v-3.34Z"/><path class="cls-27" d="M487.62,242.31c0,4.32,7,7.83,15.62,7.83s15.62-3.51,15.62-7.83-7-7.83-15.62-7.83S487.62,238,487.62,242.31Z"/><path class="cls-28" d="M443.67,418.8h40.16v2.58h0s0,.11,0,.16c0,6.46-9,11.7-20.08,11.7s-20.08-5.24-20.08-11.7a.58.58,0,0,1,0-.1V418.8Z"/><path class="cls-29" d="M443.67,418.88c0,5.56,9,10.07,20.08,10.07s20.08-4.51,20.08-10.07-9-10.06-20.08-10.06S443.67,413.33,443.67,418.88Z"/><path class="cls-30" d="M448.13,413.75h31.24V417h0s0,.08,0,.12c0,5-7,9.1-15.62,9.1s-15.62-4.07-15.62-9.1a.38.38,0,0,1,0-.08v-3.26Z"/><path class="cls-31" d="M448.13,413.81c0,4.32,7,7.83,15.62,7.83s15.62-3.51,15.62-7.83-7-7.83-15.62-7.83S448.13,409.49,448.13,413.81Z"/><path class="cls-32" d="M451.94,266.53h23.62v146.1h0v.1c0,3.79-5.29,6.87-11.81,6.87s-11.81-3.08-11.81-6.87v-.1h0Z"/><path class="cls-33" d="M451.94,266.58c0,3.26,5.29,5.91,11.81,5.91s11.81-2.65,11.81-5.91-5.29-5.92-11.81-5.92S451.94,263.31,451.94,266.58Z"/><path class="cls-34" d="M448.13,265.12h31.24v3.22h0a.38.38,0,0,0,0,.08c0,5.07-7,9.14-15.62,9.14s-15.62-4.07-15.62-9.1c0,0,0-.08,0-.12h0Z"/><path class="cls-35" d="M448.13,265.18c0,4.32,7,7.83,15.62,7.83s15.62-3.51,15.62-7.83-7-7.83-15.62-7.83S448.13,260.86,448.13,265.18Z"/><path class="cls-36" d="M404.18,441.67h40.16v2.58h0c0,.05,0,.11,0,.16,0,6.46-9,11.69-20.08,11.69s-20.08-5.23-20.08-11.69c0-.05,0-.11,0-.16h0Z"/><path class="cls-37" d="M404.18,441.75c0,5.56,9,10.06,20.08,10.06s20.08-4.5,20.08-10.06-9-10.06-20.08-10.06S404.18,436.19,404.18,441.75Z"/><path class="cls-38" d="M408.64,436.61h31.24v3.23h0s0,.08,0,.12c0,5-7,9.1-15.62,9.1S408.64,445,408.64,440a.38.38,0,0,1,0-.08v-3.27Z"/><path class="cls-39" d="M408.64,436.68c0,4.32,7,7.82,15.62,7.82s15.62-3.5,15.62-7.82-7-7.83-15.62-7.83S408.64,432.35,408.64,436.68Z"/><path class="cls-40" d="M412.45,289.4h23.62V435.5h0v.1c0,3.79-5.29,6.87-11.81,6.87s-11.81-3.08-11.81-6.87v-.1h0Z"/><ellipse class="cls-41" cx="424.26" cy="289.44" rx="11.81" ry="5.92"/><path class="cls-42" d="M408.64,288h31.24v3.23h0a.38.38,0,0,0,0,.08c0,5.06-7,9.14-15.62,9.14s-15.62-4.08-15.62-9.1c0,0,0-.08,0-.12h0Z"/><path class="cls-43" d="M408.64,288.05c0,4.32,7,7.82,15.62,7.82s15.62-3.5,15.62-7.82-7-7.83-15.62-7.83S408.64,283.72,408.64,288.05Z"/><path class="cls-44" d="M364.57,464.55h40.16v2.58h0c0,.06,0,.11,0,.16,0,6.46-9,11.7-20.08,11.7s-20.08-5.24-20.08-11.7v-.16h0Z"/><path class="cls-45" d="M364.57,464.63c0,5.56,9,10.07,20.08,10.07s20.08-4.51,20.08-10.07-9-10.06-20.08-10.06S364.57,459.08,364.57,464.63Z"/><path class="cls-46" d="M369,459.5h31.23v3.22h0v.12c0,5-7,9.1-15.61,9.1S369,467.87,369,462.84V459.5Z"/><path class="cls-47" d="M369,459.56c0,4.32,7,7.83,15.62,7.83s15.61-3.51,15.61-7.83-7-7.83-15.61-7.83S369,455.24,369,459.56Z"/><path class="cls-48" d="M372.84,312.28h23.61v146.1h0v.1c0,3.79-5.28,6.87-11.8,6.87s-11.81-3.08-11.81-6.87V312.28Z"/><ellipse class="cls-49" cx="384.65" cy="312.33" rx="11.81" ry="5.92"/><path class="cls-50" d="M369,310.87h31.23v3.22h0v.08c0,5.07-7,9.14-15.61,9.14S369,319.24,369,314.21v-.12h0Z"/><ellipse class="cls-51" cx="384.65" cy="310.93" rx="15.62" ry="7.83"/><path class="cls-52" d="M325.08,487.42h40.16V490h0c0,.05,0,.11,0,.16,0,6.46-9,11.69-20.08,11.69s-20.08-5.23-20.08-11.69V490h0Z"/><path class="cls-53" d="M325.08,487.5c0,5.56,9,10.07,20.08,10.07s20.08-4.51,20.08-10.07-9-10.06-20.08-10.06S325.08,481.94,325.08,487.5Z"/><path class="cls-54" d="M329.54,482.36h31.24v3.23h0a.38.38,0,0,0,0,.08c0,5.06-7,9.14-15.62,9.14s-15.62-4.08-15.62-9.1v-.12h0Z"/><path class="cls-55" d="M329.54,482.43c0,4.32,7,7.82,15.62,7.82s15.62-3.5,15.62-7.82-7-7.83-15.62-7.83S329.54,478.1,329.54,482.43Z"/><path class="cls-56" d="M333.35,335.15H357v146.1h0v.06c0,3.83-5.28,6.91-11.8,6.91s-11.81-3.08-11.81-6.87v-.1h0Z"/><ellipse class="cls-57" cx="345.16" cy="335.19" rx="11.81" ry="5.92"/><path class="cls-58" d="M329.54,333.73h31.24V337h0a.38.38,0,0,0,0,.08c0,5.06-7,9.14-15.62,9.14s-15.62-4.08-15.62-9.1V337h0Z"/><path class="cls-59" d="M329.54,333.8c0,4.32,7,7.82,15.62,7.82s15.62-3.5,15.62-7.82-7-7.83-15.62-7.83S329.54,329.47,329.54,333.8Z"/><path class="cls-60" d="M285.9,510.4h40.16V513h0v.16c0,6.46-9,11.7-20.08,11.7s-20.08-5.24-20.08-11.7c0,0,0-.1,0-.16h0Z"/><path class="cls-61" d="M285.9,510.48c0,5.56,9,10.07,20.08,10.07s20.08-4.51,20.08-10.07-9-10.06-20.08-10.06S285.9,504.93,285.9,510.48Z"/><path class="cls-62" d="M290.36,505.35H321.6v3.22h0v.08c0,5.07-7,9.14-15.62,9.14s-15.62-4.07-15.62-9.1c0,0,0-.08,0-.12h0Z"/><path class="cls-63" d="M290.36,505.41c0,4.32,7,7.83,15.62,7.83s15.62-3.51,15.62-7.83-7-7.83-15.62-7.83S290.36,501.09,290.36,505.41Z"/><path class="cls-64" d="M294.18,358.13h23.61v146.1h0v.07c0,3.83-5.29,6.9-11.81,6.9s-11.8-3.07-11.8-6.87v-.1h0Z"/><ellipse class="cls-65" cx="305.98" cy="358.18" rx="11.81" ry="5.92"/><path class="cls-66" d="M290.36,356.72H321.6v3.22h0V360c0,5.07-7,9.14-15.62,9.14s-15.62-4.07-15.62-9.1c0,0,0-.08,0-.12h0Z"/><path class="cls-67" d="M290.36,356.78c0,4.32,7,7.83,15.62,7.83s15.62-3.51,15.62-7.83S314.61,349,306,349,290.36,352.46,290.36,356.78Z"/><polygon class="cls-68" points="283.31 362.68 283.31 382.08 2.65 218.03 2.65 198.63 283.31 362.68"/><polygon class="cls-69" points="283.18 362.68 283.18 382.08 520.56 243.7 520.56 224.44 283.18 362.68"/><polygon class="cls-70" points="283.31 362.68 283.31 372.51 2.65 208.46 2.65 198.63 283.31 362.68"/><polygon class="cls-71" points="283.18 362.68 283.18 372.51 520.56 234.13 520.56 224.44 283.18 362.68"/><polygon class="cls-72" points="520.56 224.44 283.18 362.68 2.65 198.63 246.03 63.38 520.56 224.44"/><polygon class="cls-73" points="283.32 359.56 283.32 367.42 0 201.81 0 193.95 283.32 359.56"/><polygon class="cls-74" points="283.18 359.56 283.18 367.42 523.22 227.49 523.22 219.78 283.18 359.56"/><polygon class="cls-75" points="523.22 219.78 283.18 359.56 0 193.95 246.04 57.16 523.22 219.78"/><polygon class="cls-76" points="255.24 62.02 134.28 6.4 13.32 201.69 255.24 62.02"/><polygon class="cls-77" points="134.28 6.4 13.32 201.69 0.13 193.74 121.75 0 134.28 6.4"/><polygon class="cls-78" points="149.27 19.82 252.22 63.94 495.87 207.05 394.05 163.5 149.27 19.82"/><polygon class="cls-79" points="381.09 193.22 278.37 352.43 18.32 199.62 121.63 41.81 381.09 193.22"/><polygon class="cls-80" points="400.5 166.64 276.62 357.37 12.75 202.32 137.22 13.01 400.5 166.64"/><polygon class="cls-81" points="524.06 219.83 403.1 164.22 282.13 359.51 524.06 219.83"/><polygon class="cls-82" points="494.54 221.2 408.32 181.56 322.1 320.75 494.54 221.2"/><polygon class="cls-83" points="488.69 219.88 407.67 182.63 408.32 181.56 494.54 221.2 322.1 320.75 326.63 313.44 488.69 219.88"/><polygon class="cls-84" points="403.1 164.22 282.13 359.51 267.03 351.21 388.65 157.47 403.1 164.22"/><polygon class="cls-85" points="283.27 360.03 399.36 162.01 404.83 165.3 283.27 360.03"/><polygon class="cls-86" points="309.87 533.59 309.87 544.93 325.74 554.43 325.74 565.76 248.67 520.46 248.67 509.21 248.67 509.12 248.67 497.88 309.87 533.59"/></g></g></g></svg>