<svg xmlns="http://www.w3.org/2000/svg" xmlns:xlink="http://www.w3.org/1999/xlink" viewBox="0 0 895.05 628.65"><defs><style>.cls-1{fill:url(#New_Gradient_Swatch_copy_25);}.cls-2{fill:url(#linear-gradient);}.cls-3{fill:url(#linear-gradient-2);}.cls-4{fill:url(#linear-gradient-3);}.cls-5{fill:url(#linear-gradient-4);}.cls-6{fill:url(#linear-gradient-5);}.cls-7{fill:url(#linear-gradient-6);}.cls-8{fill:url(#linear-gradient-7);}.cls-9{fill:url(#linear-gradient-8);}.cls-10{fill:url(#linear-gradient-9);}.cls-11{fill:url(#linear-gradient-10);}.cls-12{fill:url(#linear-gradient-11);}.cls-13{fill:url(#linear-gradient-12);}.cls-14{fill:url(#linear-gradient-13);}.cls-15{fill:url(#linear-gradient-14);}.cls-16{fill:url(#linear-gradient-15);}.cls-17{fill:url(#linear-gradient-16);}.cls-18{fill:url(#linear-gradient-17);}.cls-19{fill:url(#linear-gradient-18);}.cls-20{fill:url(#linear-gradient-19);}.cls-21{fill:url(#linear-gradient-20);}.cls-22{fill:url(#linear-gradient-21);}.cls-23{fill:url(#linear-gradient-22);}.cls-24{fill:url(#linear-gradient-23);}.cls-25{fill:url(#linear-gradient-24);}.cls-26{fill:url(#linear-gradient-25);}.cls-27{fill:url(#linear-gradient-26);}.cls-28{fill:url(#linear-gradient-27);}.cls-29{fill:url(#linear-gradient-28);}.cls-30{fill:url(#linear-gradient-29);}.cls-31{fill:url(#linear-gradient-30);}.cls-32{fill:url(#linear-gradient-31);}.cls-33{fill:url(#linear-gradient-32);}.cls-34{fill:url(#linear-gradient-33);}.cls-35{fill:url(#linear-gradient-34);}.cls-36{fill:url(#linear-gradient-35);}.cls-37{fill:url(#linear-gradient-36);}.cls-38{fill:url(#linear-gradient-37);}.cls-39{fill:url(#linear-gradient-38);}.cls-40{fill:url(#linear-gradient-39);}.cls-41{fill:url(#linear-gradient-40);}.cls-42{fill:url(#New_Gradient_Swatch_copy_25-2);}.cls-43{fill:url(#New_Gradient_Swatch_copy_25-3);}.cls-44{fill:url(#linear-gradient-41);}.cls-45{fill:url(#linear-gradient-42);}.cls-46{fill:url(#New_Gradient_Swatch_copy_25-4);}.cls-47{fill:url(#New_Gradient_Swatch_copy_25-5);}.cls-48{fill:url(#New_Gradient_Swatch_copy_25-6);}.cls-49{fill:url(#New_Gradient_Swatch_copy_25-7);}.cls-50{fill:url(#New_Gradient_Swatch_copy_25-8);}.cls-51{fill:url(#New_Gradient_Swatch_copy_25-9);}.cls-52{fill:url(#New_Gradient_Swatch_copy_25-10);}.cls-53{fill:url(#linear-gradient-43);}.cls-54{fill:url(#linear-gradient-44);}.cls-55{fill:url(#linear-gradient-45);}.cls-56{fill:url(#linear-gradient-46);}.cls-57{fill:url(#linear-gradient-47);}.cls-58{fill:url(#linear-gradient-48);}.cls-59{fill:url(#linear-gradient-49);}.cls-60{fill:url(#linear-gradient-50);}.cls-61{fill:url(#linear-gradient-51);}.cls-62{fill:url(#linear-gradient-52);}.cls-63{fill:url(#linear-gradient-53);}.cls-64{fill:url(#linear-gradient-54);}.cls-65{fill:url(#linear-gradient-55);}.cls-66{fill:url(#linear-gradient-56);}.cls-67{fill:url(#linear-gradient-57);}.cls-68{fill:url(#linear-gradient-58);}.cls-69{fill:url(#linear-gradient-59);}.cls-70{fill:url(#linear-gradient-60);}.cls-71{fill:url(#linear-gradient-61);}.cls-72{fill:url(#linear-gradient-62);}.cls-73{fill:url(#linear-gradient-63);}.cls-74{fill:url(#linear-gradient-64);}.cls-75{fill:url(#linear-gradient-65);}.cls-76{fill:url(#linear-gradient-66);}.cls-77{fill:url(#linear-gradient-67);}.cls-78{fill:url(#linear-gradient-68);}.cls-79{fill:url(#linear-gradient-69);}.cls-80{fill:url(#linear-gradient-70);}.cls-81{fill:url(#linear-gradient-71);}.cls-82{fill:url(#linear-gradient-72);}.cls-83{fill:url(#linear-gradient-73);}.cls-84{fill:url(#linear-gradient-74);}.cls-85{fill:url(#linear-gradient-75);}.cls-86{fill:url(#linear-gradient-76);}.cls-87{fill:url(#linear-gradient-77);}.cls-88{fill:url(#linear-gradient-78);}.cls-89{fill:url(#linear-gradient-79);}.cls-90{fill:url(#linear-gradient-80);}.cls-91{fill:url(#linear-gradient-81);}.cls-92{fill:url(#linear-gradient-82);}.cls-93{fill:url(#New_Gradient_Swatch_copy_25-11);}.cls-94{fill:url(#New_Gradient_Swatch_copy_25-12);}.cls-95{fill:url(#linear-gradient-83);}.cls-96{fill:url(#linear-gradient-84);}.cls-97{fill:url(#New_Gradient_Swatch_copy_25-13);}.cls-98{fill:url(#linear-gradient-85);}.cls-99{fill:url(#linear-gradient-86);}.cls-100{fill:url(#linear-gradient-87);}.cls-101{fill:url(#linear-gradient-88);}.cls-102{fill:url(#linear-gradient-89);}.cls-103{fill:url(#linear-gradient-90);}.cls-104{fill:url(#linear-gradient-91);}.cls-105{fill:url(#linear-gradient-92);}.cls-106{fill:url(#linear-gradient-93);}.cls-107{fill:url(#linear-gradient-94);}.cls-108{fill:url(#linear-gradient-95);}.cls-109{fill:url(#linear-gradient-96);}.cls-110{fill:url(#linear-gradient-97);}.cls-111{fill:url(#linear-gradient-98);}.cls-112{fill:url(#linear-gradient-99);}.cls-113{fill:url(#linear-gradient-100);}.cls-114{fill:url(#linear-gradient-101);}.cls-115{fill:url(#linear-gradient-102);}.cls-116{fill:url(#linear-gradient-103);}.cls-117{fill:url(#linear-gradient-104);}.cls-118{fill:url(#linear-gradient-105);}.cls-119{fill:url(#linear-gradient-106);}.cls-120{fill:url(#linear-gradient-107);}.cls-121{fill:url(#linear-gradient-108);}.cls-122{fill:url(#linear-gradient-109);}.cls-123{fill:url(#linear-gradient-110);}.cls-124{fill:url(#linear-gradient-111);}.cls-125{fill:url(#linear-gradient-112);}.cls-126{fill:url(#linear-gradient-113);}.cls-127{fill:url(#linear-gradient-114);}.cls-128{fill:url(#linear-gradient-115);}.cls-129{fill:url(#linear-gradient-116);}.cls-130{fill:url(#linear-gradient-117);}.cls-131{fill:url(#linear-gradient-118);}.cls-132{fill:url(#linear-gradient-119);}.cls-133{fill:url(#linear-gradient-120);}.cls-134{fill:url(#linear-gradient-121);}.cls-135{fill:url(#linear-gradient-122);}.cls-136{fill:url(#linear-gradient-123);}.cls-137{fill:url(#linear-gradient-124);}.cls-138{fill:url(#New_Gradient_Swatch_copy_25-14);}.cls-139{fill:url(#New_Gradient_Swatch_copy_25-15);}.cls-140{fill:url(#linear-gradient-125);}.cls-141{fill:url(#linear-gradient-126);}.cls-142{fill:url(#New_Gradient_Swatch_copy_25-16);}.cls-143{fill:url(#New_Gradient_Swatch_copy_25-17);}.cls-144{fill:url(#New_Gradient_Swatch_copy_25-18);}.cls-145{fill:url(#New_Gradient_Swatch_copy_25-19);}.cls-146{fill:url(#New_Gradient_Swatch_copy_25-20);}.cls-147{fill:url(#New_Gradient_Swatch_copy_25-21);}</style><linearGradient id="New_Gradient_Swatch_copy_25" x1="6745.86" y1="4133.65" x2="7157.92" y2="3680.11" gradientTransform="matrix(-0.87, -0.5, 0, 1.15, 6230.33, -633.29)" gradientUnits="userSpaceOnUse"><stop offset="0" stop-color="#25054d"/><stop offset="1" stop-color="#45108a"/></linearGradient><linearGradient id="linear-gradient" x1="5805.39" y1="207.77" x2="5861.52" y2="207.77" gradientTransform="matrix(-1, 0, 0, 1, 6058.22, 0)" gradientUnits="userSpaceOnUse"><stop offset="0" stop-color="#00e5ff"/><stop offset="1" stop-color="#c0f"/></linearGradient><linearGradient id="linear-gradient-2" x1="5867.51" y1="171.9" x2="5923.64" y2="171.9" xlink:href="#linear-gradient"/><linearGradient id="linear-gradient-3" x1="5929.63" y1="136.04" x2="5985.76" y2="136.04" xlink:href="#linear-gradient"/><linearGradient id="linear-gradient-4" x1="5991.75" y1="100.17" x2="6047.88" y2="100.17" xlink:href="#linear-gradient"/><linearGradient id="linear-gradient-5" x1="5805.39" y1="223.58" x2="5861.52" y2="223.58" xlink:href="#linear-gradient"/><linearGradient id="linear-gradient-6" x1="5867.51" y1="187.71" x2="5923.64" y2="187.71" xlink:href="#linear-gradient"/><linearGradient id="linear-gradient-7" x1="5929.63" y1="151.85" x2="5985.76" y2="151.85" xlink:href="#linear-gradient"/><linearGradient id="linear-gradient-8" x1="5991.75" y1="115.98" x2="6047.88" y2="115.98" xlink:href="#linear-gradient"/><linearGradient id="linear-gradient-9" x1="5805.39" y1="239.39" x2="5861.52" y2="239.39" xlink:href="#linear-gradient"/><linearGradient id="linear-gradient-10" x1="5867.51" y1="203.52" x2="5923.64" y2="203.52" xlink:href="#linear-gradient"/><linearGradient id="linear-gradient-11" x1="5929.63" y1="167.66" x2="5985.76" y2="167.66" xlink:href="#linear-gradient"/><linearGradient id="linear-gradient-12" x1="5991.75" y1="131.79" x2="6047.88" y2="131.79" xlink:href="#linear-gradient"/><linearGradient id="linear-gradient-13" x1="5805.39" y1="255.2" x2="5861.52" y2="255.2" xlink:href="#linear-gradient"/><linearGradient id="linear-gradient-14" x1="5867.51" y1="219.33" x2="5923.64" y2="219.33" xlink:href="#linear-gradient"/><linearGradient id="linear-gradient-15" x1="5929.63" y1="183.47" x2="5985.76" y2="183.47" xlink:href="#linear-gradient"/><linearGradient id="linear-gradient-16" x1="5991.75" y1="147.6" x2="6047.88" y2="147.6" xlink:href="#linear-gradient"/><linearGradient id="linear-gradient-17" x1="5805.39" y1="271.01" x2="5861.52" y2="271.01" xlink:href="#linear-gradient"/><linearGradient id="linear-gradient-18" x1="5867.51" y1="235.14" x2="5923.64" y2="235.14" xlink:href="#linear-gradient"/><linearGradient id="linear-gradient-19" x1="5929.63" y1="199.28" x2="5985.76" y2="199.28" xlink:href="#linear-gradient"/><linearGradient id="linear-gradient-20" x1="5991.75" y1="163.41" x2="6047.88" y2="163.41" xlink:href="#linear-gradient"/><linearGradient id="linear-gradient-21" x1="5805.39" y1="286.81" x2="5861.52" y2="286.81" xlink:href="#linear-gradient"/><linearGradient id="linear-gradient-22" x1="5867.51" y1="250.95" x2="5923.64" y2="250.95" xlink:href="#linear-gradient"/><linearGradient id="linear-gradient-23" x1="5929.63" y1="215.08" x2="5985.76" y2="215.08" xlink:href="#linear-gradient"/><linearGradient id="linear-gradient-24" x1="5991.75" y1="179.22" x2="6047.88" y2="179.22" xlink:href="#linear-gradient"/><linearGradient id="linear-gradient-25" x1="5805.39" y1="302.62" x2="5861.52" y2="302.62" xlink:href="#linear-gradient"/><linearGradient id="linear-gradient-26" x1="5867.51" y1="266.76" x2="5923.64" y2="266.76" xlink:href="#linear-gradient"/><linearGradient id="linear-gradient-27" x1="5929.63" y1="230.89" x2="5985.76" y2="230.89" xlink:href="#linear-gradient"/><linearGradient id="linear-gradient-28" x1="5991.75" y1="195.03" x2="6047.88" y2="195.03" xlink:href="#linear-gradient"/><linearGradient id="linear-gradient-29" x1="5805.39" y1="318.43" x2="5861.52" y2="318.43" xlink:href="#linear-gradient"/><linearGradient id="linear-gradient-30" x1="5867.51" y1="282.57" x2="5923.64" y2="282.57" xlink:href="#linear-gradient"/><linearGradient id="linear-gradient-31" x1="5929.63" y1="246.7" x2="5985.76" y2="246.7" xlink:href="#linear-gradient"/><linearGradient id="linear-gradient-32" x1="5991.75" y1="210.84" x2="6047.88" y2="210.84" xlink:href="#linear-gradient"/><linearGradient id="linear-gradient-33" x1="5805.39" y1="334.24" x2="5861.52" y2="334.24" xlink:href="#linear-gradient"/><linearGradient id="linear-gradient-34" x1="5867.51" y1="298.38" x2="5923.64" y2="298.38" xlink:href="#linear-gradient"/><linearGradient id="linear-gradient-35" x1="5929.63" y1="262.51" x2="5985.76" y2="262.51" xlink:href="#linear-gradient"/><linearGradient id="linear-gradient-36" x1="5991.75" y1="226.65" x2="6047.88" y2="226.65" xlink:href="#linear-gradient"/><linearGradient id="linear-gradient-37" x1="5805.39" y1="350.05" x2="5861.52" y2="350.05" xlink:href="#linear-gradient"/><linearGradient id="linear-gradient-38" x1="5867.51" y1="314.19" x2="5923.64" y2="314.19" xlink:href="#linear-gradient"/><linearGradient id="linear-gradient-39" x1="5929.63" y1="278.32" x2="5985.76" y2="278.32" xlink:href="#linear-gradient"/><linearGradient id="linear-gradient-40" x1="5991.75" y1="242.46" x2="6047.88" y2="242.46" xlink:href="#linear-gradient"/><linearGradient id="New_Gradient_Swatch_copy_25-2" x1="5725.68" y1="332.47" x2="6214.26" y2="-474.25" gradientTransform="matrix(-1, 0, 0, 1, 6058.22, 0)" xlink:href="#New_Gradient_Swatch_copy_25"/><linearGradient id="New_Gradient_Swatch_copy_25-3" x1="5707.52" y1="223.45" x2="6275.1" y2="-172.53" gradientTransform="matrix(-1, 0, 0, 1, 6058.22, 0)" xlink:href="#New_Gradient_Swatch_copy_25"/><linearGradient id="linear-gradient-41" x1="5795.05" y1="344.99" x2="6058.22" y2="344.99" xlink:href="#linear-gradient"/><linearGradient id="linear-gradient-42" x1="5705.55" y1="395.1" x2="5795.05" y2="395.1" xlink:href="#linear-gradient"/><linearGradient id="New_Gradient_Swatch_copy_25-4" x1="5914.29" y1="313.73" x2="6044.79" y2="91.12" gradientTransform="matrix(-1, 0, 0, 1, 6211.44, 0)" xlink:href="#New_Gradient_Swatch_copy_25"/><linearGradient id="New_Gradient_Swatch_copy_25-5" x1="5933.32" y1="174.43" x2="6002.29" y2="78.58" gradientTransform="matrix(-1, 0, 0, 1, 6211.44, 0)" xlink:href="#New_Gradient_Swatch_copy_25"/><linearGradient id="New_Gradient_Swatch_copy_25-6" x1="5758.32" y1="298.28" x2="5976.38" y2="127.8" gradientTransform="matrix(-1, 0, 0, 1, 6211.44, 0)" xlink:href="#New_Gradient_Swatch_copy_25"/><linearGradient id="New_Gradient_Swatch_copy_25-7" x1="5870.16" y1="339.17" x2="6000.66" y2="116.56" gradientTransform="matrix(-1, 0, 0, 1, 6211.44, 0)" xlink:href="#New_Gradient_Swatch_copy_25"/><linearGradient id="New_Gradient_Swatch_copy_25-8" x1="5889.19" y1="199.87" x2="5958.17" y2="104.02" gradientTransform="matrix(-1, 0, 0, 1, 6211.44, 0)" xlink:href="#New_Gradient_Swatch_copy_25"/><linearGradient id="New_Gradient_Swatch_copy_25-9" x1="5745.93" y1="298.91" x2="5964" y2="128.43" gradientTransform="matrix(-1, 0, 0, 1, 6211.44, 0)" xlink:href="#New_Gradient_Swatch_copy_25"/><linearGradient id="New_Gradient_Swatch_copy_25-10" x1="6119.55" y1="3932.37" x2="6531.6" y2="3478.83" xlink:href="#New_Gradient_Swatch_copy_25"/><linearGradient id="linear-gradient-43" x1="5263" y1="288.51" x2="5319.13" y2="288.51" xlink:href="#linear-gradient"/><linearGradient id="linear-gradient-44" x1="5325.12" y1="252.64" x2="5381.25" y2="252.64" xlink:href="#linear-gradient"/><linearGradient id="linear-gradient-45" x1="5387.24" y1="216.78" x2="5443.37" y2="216.78" xlink:href="#linear-gradient"/><linearGradient id="linear-gradient-46" x1="5449.36" y1="180.91" x2="5505.49" y2="180.91" xlink:href="#linear-gradient"/><linearGradient id="linear-gradient-47" x1="5263" y1="304.32" x2="5319.13" y2="304.32" xlink:href="#linear-gradient"/><linearGradient id="linear-gradient-48" x1="5325.12" y1="268.45" x2="5381.25" y2="268.45" xlink:href="#linear-gradient"/><linearGradient id="linear-gradient-49" x1="5387.24" y1="232.59" x2="5443.37" y2="232.59" xlink:href="#linear-gradient"/><linearGradient id="linear-gradient-50" x1="5449.36" y1="196.72" x2="5505.49" y2="196.72" xlink:href="#linear-gradient"/><linearGradient id="linear-gradient-51" x1="5263" y1="320.13" x2="5319.13" y2="320.13" xlink:href="#linear-gradient"/><linearGradient id="linear-gradient-52" x1="5325.12" y1="284.26" x2="5381.25" y2="284.26" xlink:href="#linear-gradient"/><linearGradient id="linear-gradient-53" x1="5387.24" y1="248.4" x2="5443.37" y2="248.4" xlink:href="#linear-gradient"/><linearGradient id="linear-gradient-54" x1="5449.36" y1="212.53" x2="5505.49" y2="212.53" xlink:href="#linear-gradient"/><linearGradient id="linear-gradient-55" x1="5263" y1="335.94" x2="5319.13" y2="335.94" xlink:href="#linear-gradient"/><linearGradient id="linear-gradient-56" x1="5325.12" y1="300.07" x2="5381.25" y2="300.07" xlink:href="#linear-gradient"/><linearGradient id="linear-gradient-57" x1="5387.24" y1="264.21" x2="5443.37" y2="264.21" xlink:href="#linear-gradient"/><linearGradient id="linear-gradient-58" x1="5449.36" y1="228.34" x2="5505.49" y2="228.34" xlink:href="#linear-gradient"/><linearGradient id="linear-gradient-59" x1="5263" y1="351.75" x2="5319.13" y2="351.75" xlink:href="#linear-gradient"/><linearGradient id="linear-gradient-60" x1="5325.12" y1="315.88" x2="5381.25" y2="315.88" xlink:href="#linear-gradient"/><linearGradient id="linear-gradient-61" x1="5387.24" y1="280.02" x2="5443.37" y2="280.02" xlink:href="#linear-gradient"/><linearGradient id="linear-gradient-62" x1="5449.36" y1="244.15" x2="5505.49" y2="244.15" xlink:href="#linear-gradient"/><linearGradient id="linear-gradient-63" x1="5263" y1="367.55" x2="5319.13" y2="367.55" xlink:href="#linear-gradient"/><linearGradient id="linear-gradient-64" x1="5325.12" y1="331.69" x2="5381.25" y2="331.69" xlink:href="#linear-gradient"/><linearGradient id="linear-gradient-65" x1="5387.24" y1="295.83" x2="5443.37" y2="295.83" xlink:href="#linear-gradient"/><linearGradient id="linear-gradient-66" x1="5449.36" y1="259.96" x2="5505.49" y2="259.96" xlink:href="#linear-gradient"/><linearGradient id="linear-gradient-67" x1="5263" y1="383.37" x2="5319.13" y2="383.37" xlink:href="#linear-gradient"/><linearGradient id="linear-gradient-68" x1="5325.12" y1="347.5" x2="5381.25" y2="347.5" xlink:href="#linear-gradient"/><linearGradient id="linear-gradient-69" x1="5387.24" y1="311.64" x2="5443.37" y2="311.64" xlink:href="#linear-gradient"/><linearGradient id="linear-gradient-70" x1="5449.36" y1="275.77" x2="5505.49" y2="275.77" xlink:href="#linear-gradient"/><linearGradient id="linear-gradient-71" x1="5263" y1="399.17" x2="5319.13" y2="399.17" xlink:href="#linear-gradient"/><linearGradient id="linear-gradient-72" x1="5325.12" y1="363.31" x2="5381.25" y2="363.31" xlink:href="#linear-gradient"/><linearGradient id="linear-gradient-73" x1="5387.24" y1="327.44" x2="5443.37" y2="327.44" xlink:href="#linear-gradient"/><linearGradient id="linear-gradient-74" x1="5449.36" y1="291.58" x2="5505.49" y2="291.58" xlink:href="#linear-gradient"/><linearGradient id="linear-gradient-75" x1="5263" y1="414.98" x2="5319.13" y2="414.98" xlink:href="#linear-gradient"/><linearGradient id="linear-gradient-76" x1="5325.12" y1="379.12" x2="5381.25" y2="379.12" xlink:href="#linear-gradient"/><linearGradient id="linear-gradient-77" x1="5387.24" y1="343.25" x2="5443.37" y2="343.25" xlink:href="#linear-gradient"/><linearGradient id="linear-gradient-78" x1="5449.36" y1="307.39" x2="5505.49" y2="307.39" xlink:href="#linear-gradient"/><linearGradient id="linear-gradient-79" x1="5263" y1="430.79" x2="5319.13" y2="430.79" xlink:href="#linear-gradient"/><linearGradient id="linear-gradient-80" x1="5325.12" y1="394.93" x2="5381.25" y2="394.93" xlink:href="#linear-gradient"/><linearGradient id="linear-gradient-81" x1="5387.24" y1="359.06" x2="5443.37" y2="359.06" xlink:href="#linear-gradient"/><linearGradient id="linear-gradient-82" x1="5449.36" y1="323.2" x2="5505.49" y2="323.2" xlink:href="#linear-gradient"/><linearGradient id="New_Gradient_Swatch_copy_25-11" x1="5183.29" y1="413.21" x2="5671.87" y2="-393.51" gradientTransform="matrix(-1, 0, 0, 1, 6058.22, 0)" xlink:href="#New_Gradient_Swatch_copy_25"/><linearGradient id="New_Gradient_Swatch_copy_25-12" x1="5099.56" y1="349.94" x2="5667.14" y2="-46.04" gradientTransform="matrix(-1, 0, 0, 1, 6058.22, 0)" xlink:href="#New_Gradient_Swatch_copy_25"/><linearGradient id="linear-gradient-83" x1="5252.66" y1="425.73" x2="5515.83" y2="425.73" xlink:href="#linear-gradient"/><linearGradient id="linear-gradient-84" x1="5163.16" y1="475.84" x2="5252.66" y2="475.84" xlink:href="#linear-gradient"/><linearGradient id="New_Gradient_Swatch_copy_25-13" x1="6351.96" y1="4133.65" x2="6764.02" y2="3680.11" xlink:href="#New_Gradient_Swatch_copy_25"/><linearGradient id="linear-gradient-85" x1="5464.27" y1="404.71" x2="5520.4" y2="404.71" xlink:href="#linear-gradient"/><linearGradient id="linear-gradient-86" x1="5526.39" y1="368.85" x2="5582.52" y2="368.85" xlink:href="#linear-gradient"/><linearGradient id="linear-gradient-87" x1="5588.51" y1="332.98" x2="5644.64" y2="332.98" xlink:href="#linear-gradient"/><linearGradient id="linear-gradient-88" x1="5650.63" y1="297.12" x2="5706.76" y2="297.12" xlink:href="#linear-gradient"/><linearGradient id="linear-gradient-89" x1="5464.27" y1="420.52" x2="5520.4" y2="420.52" xlink:href="#linear-gradient"/><linearGradient id="linear-gradient-90" x1="5526.39" y1="384.65" x2="5582.52" y2="384.65" xlink:href="#linear-gradient"/><linearGradient id="linear-gradient-91" x1="5588.51" y1="348.79" x2="5644.64" y2="348.79" xlink:href="#linear-gradient"/><linearGradient id="linear-gradient-92" x1="5650.63" y1="312.92" x2="5706.76" y2="312.92" xlink:href="#linear-gradient"/><linearGradient id="linear-gradient-93" x1="5464.27" y1="436.33" x2="5520.4" y2="436.33" xlink:href="#linear-gradient"/><linearGradient id="linear-gradient-94" x1="5526.39" y1="400.46" x2="5582.52" y2="400.46" xlink:href="#linear-gradient"/><linearGradient id="linear-gradient-95" x1="5588.51" y1="364.6" x2="5644.64" y2="364.6" xlink:href="#linear-gradient"/><linearGradient id="linear-gradient-96" x1="5650.63" y1="328.73" x2="5706.76" y2="328.73" xlink:href="#linear-gradient"/><linearGradient id="linear-gradient-97" x1="5464.27" y1="452.14" x2="5520.4" y2="452.14" xlink:href="#linear-gradient"/><linearGradient id="linear-gradient-98" x1="5526.39" y1="416.27" x2="5582.52" y2="416.27" xlink:href="#linear-gradient"/><linearGradient id="linear-gradient-99" x1="5588.51" y1="380.41" x2="5644.64" y2="380.41" xlink:href="#linear-gradient"/><linearGradient id="linear-gradient-100" x1="5650.63" y1="344.54" x2="5706.76" y2="344.54" xlink:href="#linear-gradient"/><linearGradient id="linear-gradient-101" x1="5464.27" y1="467.95" x2="5520.4" y2="467.95" xlink:href="#linear-gradient"/><linearGradient id="linear-gradient-102" x1="5526.39" y1="432.08" x2="5582.52" y2="432.08" xlink:href="#linear-gradient"/><linearGradient id="linear-gradient-103" x1="5588.51" y1="396.22" x2="5644.64" y2="396.22" xlink:href="#linear-gradient"/><linearGradient id="linear-gradient-104" x1="5650.63" y1="360.35" x2="5706.76" y2="360.35" xlink:href="#linear-gradient"/><linearGradient id="linear-gradient-105" x1="5464.27" y1="483.76" x2="5520.4" y2="483.76" xlink:href="#linear-gradient"/><linearGradient id="linear-gradient-106" x1="5526.39" y1="447.89" x2="5582.52" y2="447.89" xlink:href="#linear-gradient"/><linearGradient id="linear-gradient-107" x1="5588.51" y1="412.03" x2="5644.64" y2="412.03" xlink:href="#linear-gradient"/><linearGradient id="linear-gradient-108" x1="5650.63" y1="376.16" x2="5706.76" y2="376.16" xlink:href="#linear-gradient"/><linearGradient id="linear-gradient-109" x1="5464.27" y1="499.57" x2="5520.4" y2="499.57" xlink:href="#linear-gradient"/><linearGradient id="linear-gradient-110" x1="5526.39" y1="463.7" x2="5582.52" y2="463.7" xlink:href="#linear-gradient"/><linearGradient id="linear-gradient-111" x1="5588.51" y1="427.84" x2="5644.64" y2="427.84" xlink:href="#linear-gradient"/><linearGradient id="linear-gradient-112" x1="5650.63" y1="391.97" x2="5706.76" y2="391.97" xlink:href="#linear-gradient"/><linearGradient id="linear-gradient-113" x1="5464.27" y1="515.38" x2="5520.4" y2="515.38" xlink:href="#linear-gradient"/><linearGradient id="linear-gradient-114" x1="5526.39" y1="479.51" x2="5582.52" y2="479.51" xlink:href="#linear-gradient"/><linearGradient id="linear-gradient-115" x1="5588.51" y1="443.65" x2="5644.64" y2="443.65" xlink:href="#linear-gradient"/><linearGradient id="linear-gradient-116" x1="5650.63" y1="407.78" x2="5706.76" y2="407.78" xlink:href="#linear-gradient"/><linearGradient id="linear-gradient-117" x1="5464.27" y1="531.19" x2="5520.4" y2="531.19" xlink:href="#linear-gradient"/><linearGradient id="linear-gradient-118" x1="5526.39" y1="495.32" x2="5582.52" y2="495.32" xlink:href="#linear-gradient"/><linearGradient id="linear-gradient-119" x1="5588.51" y1="459.46" x2="5644.64" y2="459.46" xlink:href="#linear-gradient"/><linearGradient id="linear-gradient-120" x1="5650.63" y1="423.59" x2="5706.76" y2="423.59" xlink:href="#linear-gradient"/><linearGradient id="linear-gradient-121" x1="5464.27" y1="547" x2="5520.4" y2="547" xlink:href="#linear-gradient"/><linearGradient id="linear-gradient-122" x1="5526.39" y1="511.13" x2="5582.52" y2="511.13" xlink:href="#linear-gradient"/><linearGradient id="linear-gradient-123" x1="5588.51" y1="475.27" x2="5644.64" y2="475.27" xlink:href="#linear-gradient"/><linearGradient id="linear-gradient-124" x1="5650.63" y1="439.4" x2="5706.76" y2="439.4" xlink:href="#linear-gradient"/><linearGradient id="New_Gradient_Swatch_copy_25-14" x1="5384.56" y1="529.42" x2="5873.14" y2="-277.31" gradientTransform="matrix(-1, 0, 0, 1, 6058.22, 0)" xlink:href="#New_Gradient_Swatch_copy_25"/><linearGradient id="New_Gradient_Swatch_copy_25-15" x1="5295.53" y1="469.85" x2="5863.11" y2="73.86" gradientTransform="matrix(-1, 0, 0, 1, 6058.22, 0)" xlink:href="#New_Gradient_Swatch_copy_25"/><linearGradient id="linear-gradient-125" x1="5453.93" y1="541.93" x2="5717.1" y2="541.93" xlink:href="#linear-gradient"/><linearGradient id="linear-gradient-126" x1="5364.44" y1="592.05" x2="5453.93" y2="592.05" xlink:href="#linear-gradient"/><linearGradient id="New_Gradient_Swatch_copy_25-16" x1="5573.17" y1="510.68" x2="5703.67" y2="288.06" gradientTransform="matrix(-1, 0, 0, 1, 6211.44, 0)" xlink:href="#New_Gradient_Swatch_copy_25"/><linearGradient id="New_Gradient_Swatch_copy_25-17" x1="5592.2" y1="371.37" x2="5661.18" y2="275.52" gradientTransform="matrix(-1, 0, 0, 1, 6211.44, 0)" xlink:href="#New_Gradient_Swatch_copy_25"/><linearGradient id="New_Gradient_Swatch_copy_25-18" x1="5417.2" y1="495.22" x2="5635.27" y2="324.75" gradientTransform="matrix(-1, 0, 0, 1, 6211.44, 0)" xlink:href="#New_Gradient_Swatch_copy_25"/><linearGradient id="New_Gradient_Swatch_copy_25-19" x1="5529.05" y1="536.11" x2="5659.54" y2="313.5" gradientTransform="matrix(-1, 0, 0, 1, 6211.44, 0)" xlink:href="#New_Gradient_Swatch_copy_25"/><linearGradient id="New_Gradient_Swatch_copy_25-20" x1="5548.08" y1="396.81" x2="5617.05" y2="300.96" gradientTransform="matrix(-1, 0, 0, 1, 6211.44, 0)" xlink:href="#New_Gradient_Swatch_copy_25"/><linearGradient id="New_Gradient_Swatch_copy_25-21" x1="5404.81" y1="495.85" x2="5622.88" y2="325.37" gradientTransform="matrix(-1, 0, 0, 1, 6211.44, 0)" xlink:href="#New_Gradient_Swatch_copy_25"/></defs><g id="Layer_2" data-name="Layer 2"><g id="_Layer_" data-name="&lt;Layer&gt;"><polygon class="cls-1" points="0 279.77 263.17 431.71 263.17 203.61 0 51.67 0 279.77"/><polygon class="cls-2" points="196.7 197.33 252.83 229.73 252.83 218.21 196.7 185.8 196.7 197.33"/><polygon class="cls-3" points="134.58 161.46 190.71 193.87 190.71 182.34 134.58 149.93 134.58 161.46"/><polygon class="cls-4" points="72.46 125.6 128.59 158 128.59 146.48 72.46 114.07 72.46 125.6"/><polygon class="cls-5" points="10.34 89.73 66.47 122.14 66.47 110.61 10.34 78.2 10.34 89.73"/><polygon class="cls-6" points="196.7 213.14 252.83 245.54 252.83 234.01 196.7 201.61 196.7 213.14"/><polygon class="cls-7" points="134.58 177.27 190.71 209.68 190.71 198.15 134.58 165.74 134.58 177.27"/><polygon class="cls-8" points="72.46 141.41 128.59 173.81 128.59 162.28 72.46 129.88 72.46 141.41"/><polygon class="cls-9" points="10.34 105.54 66.47 137.95 66.47 126.42 10.34 94.01 10.34 105.54"/><polygon class="cls-10" points="196.7 228.95 252.83 261.35 252.83 249.82 196.7 217.42 196.7 228.95"/><polygon class="cls-11" points="134.58 193.08 190.71 225.49 190.71 213.96 134.58 181.55 134.58 193.08"/><polygon class="cls-12" points="72.46 157.22 128.59 189.62 128.59 178.09 72.46 145.69 72.46 157.22"/><polygon class="cls-13" points="10.34 121.35 66.47 153.76 66.47 142.23 10.34 109.82 10.34 121.35"/><polygon class="cls-14" points="196.7 244.76 252.83 277.16 252.83 265.63 196.7 233.23 196.7 244.76"/><polygon class="cls-15" points="134.58 208.89 190.71 241.3 190.71 229.77 134.58 197.36 134.58 208.89"/><polygon class="cls-16" points="72.46 173.03 128.59 205.43 128.59 193.91 72.46 161.5 72.46 173.03"/><polygon class="cls-17" points="10.34 137.16 66.47 169.57 66.47 158.04 10.34 125.63 10.34 137.16"/><polygon class="cls-18" points="196.7 260.57 252.83 292.97 252.83 281.44 196.7 249.04 196.7 260.57"/><polygon class="cls-19" points="134.58 224.7 190.71 257.11 190.71 245.58 134.58 213.17 134.58 224.7"/><polygon class="cls-20" points="72.46 188.84 128.59 221.24 128.59 209.72 72.46 177.31 72.46 188.84"/><polygon class="cls-21" points="10.34 152.97 66.47 185.38 66.47 173.85 10.34 141.44 10.34 152.97"/><polygon class="cls-22" points="196.7 276.38 252.83 308.78 252.83 297.25 196.7 264.85 196.7 276.38"/><polygon class="cls-23" points="134.58 240.51 190.71 272.92 190.71 261.39 134.58 228.98 134.58 240.51"/><polygon class="cls-24" points="72.46 204.65 128.59 237.05 128.59 225.52 72.46 193.12 72.46 204.65"/><polygon class="cls-25" points="10.34 168.78 66.47 201.19 66.47 189.66 10.34 157.25 10.34 168.78"/><polygon class="cls-26" points="196.7 292.19 252.83 324.59 252.83 313.06 196.7 280.66 196.7 292.19"/><polygon class="cls-27" points="134.58 256.32 190.71 288.73 190.71 277.2 134.58 244.79 134.58 256.32"/><polygon class="cls-28" points="72.46 220.46 128.59 252.86 128.59 241.33 72.46 208.93 72.46 220.46"/><polygon class="cls-29" points="10.34 184.59 66.47 217 66.47 205.47 10.34 173.06 10.34 184.59"/><polygon class="cls-30" points="196.7 308 252.83 340.4 252.83 328.87 196.7 296.47 196.7 308"/><polygon class="cls-31" points="134.58 272.13 190.71 304.54 190.71 293.01 134.58 260.6 134.58 272.13"/><polygon class="cls-32" points="72.46 236.26 128.59 268.67 128.59 257.14 72.46 224.74 72.46 236.26"/><polygon class="cls-33" points="10.34 200.4 66.47 232.81 66.47 221.28 10.34 188.87 10.34 200.4"/><polygon class="cls-34" points="196.7 323.81 252.83 356.21 252.83 344.68 196.7 312.28 196.7 323.81"/><polygon class="cls-35" points="134.58 287.94 190.71 320.35 190.71 308.82 134.58 276.41 134.58 287.94"/><polygon class="cls-36" points="72.46 252.07 128.59 284.48 128.59 272.95 72.46 240.55 72.46 252.07"/><polygon class="cls-37" points="10.34 216.21 66.47 248.62 66.47 237.09 10.34 204.68 10.34 216.21"/><polygon class="cls-38" points="196.7 339.61 252.83 372.02 252.83 360.49 196.7 328.09 196.7 339.61"/><polygon class="cls-39" points="134.58 303.75 190.71 336.16 190.71 324.63 134.58 292.22 134.58 303.75"/><polygon class="cls-40" points="72.46 267.88 128.59 300.29 128.59 288.76 72.46 256.36 72.46 267.88"/><polygon class="cls-41" points="10.34 232.02 66.47 264.43 66.47 252.9 10.34 220.49 10.34 232.02"/><polygon class="cls-42" points="352.66 380.04 263.17 431.71 263.17 203.61 352.66 151.94 352.66 380.04"/><polygon class="cls-43" points="352.66 151.94 89.49 0 0 51.67 263.17 203.61 352.66 151.94"/><polygon class="cls-44" points="0 279.77 263.17 431.71 263.17 410.21 0 258.27 0 279.77"/><polygon class="cls-45" points="352.66 380.04 263.17 431.71 263.17 410.21 352.66 358.5 352.66 380.04"/><polygon class="cls-46" points="187.31 148.2 220.65 167.45 220.65 161.4 187.31 142.15 187.31 148.2"/><polygon class="cls-47" points="291.68 126.44 220.65 167.45 220.65 161.4 291.68 120.39 291.68 126.44"/><polygon class="cls-48" points="187.31 142.15 258.34 101.15 291.68 120.39 220.65 161.4 187.31 142.15"/><polygon class="cls-49" points="231.44 173.64 264.78 192.89 264.78 186.84 231.44 167.59 231.44 173.64"/><polygon class="cls-50" points="335.8 151.88 264.78 192.89 264.78 186.84 335.8 145.84 335.8 151.88"/><polygon class="cls-51" points="231.44 167.59 302.46 126.58 335.8 145.84 264.78 186.84 231.44 167.59"/><polygon class="cls-52" points="542.39 360.51 805.56 512.45 805.56 284.35 542.39 132.41 542.39 360.51"/><polygon class="cls-53" points="739.09 278.07 795.22 310.47 795.22 298.95 739.09 266.54 739.09 278.07"/><polygon class="cls-54" points="676.97 242.2 733.1 274.61 733.1 263.08 676.97 230.67 676.97 242.2"/><polygon class="cls-55" points="614.85 206.34 670.98 238.74 670.98 227.22 614.85 194.81 614.85 206.34"/><polygon class="cls-56" points="552.73 170.47 608.86 202.88 608.86 191.35 552.73 158.94 552.73 170.47"/><polygon class="cls-57" points="739.09 293.88 795.22 326.28 795.22 314.75 739.09 282.35 739.09 293.88"/><polygon class="cls-58" points="676.97 258.01 733.1 290.42 733.1 278.89 676.97 246.48 676.97 258.01"/><polygon class="cls-59" points="614.85 222.15 670.98 254.55 670.98 243.03 614.85 210.62 614.85 222.15"/><polygon class="cls-60" points="552.73 186.28 608.86 218.69 608.86 207.16 552.73 174.75 552.73 186.28"/><polygon class="cls-61" points="739.09 309.69 795.22 342.09 795.22 330.56 739.09 298.16 739.09 309.69"/><polygon class="cls-62" points="676.97 273.82 733.1 306.23 733.1 294.7 676.97 262.29 676.97 273.82"/><polygon class="cls-63" points="614.85 237.96 670.98 270.36 670.98 258.83 614.85 226.43 614.85 237.96"/><polygon class="cls-64" points="552.73 202.09 608.86 234.5 608.86 222.97 552.73 190.56 552.73 202.09"/><polygon class="cls-65" points="739.09 325.5 795.22 357.9 795.22 346.38 739.09 313.97 739.09 325.5"/><polygon class="cls-66" points="676.97 289.63 733.1 322.04 733.1 310.51 676.97 278.1 676.97 289.63"/><polygon class="cls-67" points="614.85 253.77 670.98 286.17 670.98 274.64 614.85 242.24 614.85 253.77"/><polygon class="cls-68" points="552.73 217.9 608.86 250.31 608.86 238.78 552.73 206.37 552.73 217.9"/><polygon class="cls-69" points="739.09 341.31 795.22 373.71 795.22 362.19 739.09 329.78 739.09 341.31"/><polygon class="cls-70" points="676.97 305.44 733.1 337.85 733.1 326.32 676.97 293.91 676.97 305.44"/><polygon class="cls-71" points="614.85 269.58 670.98 301.98 670.98 290.45 614.85 258.05 614.85 269.58"/><polygon class="cls-72" points="552.73 233.71 608.86 266.12 608.86 254.59 552.73 222.18 552.73 233.71"/><polygon class="cls-73" points="739.09 357.12 795.22 389.52 795.22 377.99 739.09 345.59 739.09 357.12"/><polygon class="cls-74" points="676.97 321.25 733.1 353.66 733.1 342.13 676.97 309.72 676.97 321.25"/><polygon class="cls-75" points="614.85 285.39 670.98 317.79 670.98 306.26 614.85 273.86 614.85 285.39"/><polygon class="cls-76" points="552.73 249.52 608.86 281.93 608.86 270.4 552.73 237.99 552.73 249.52"/><polygon class="cls-77" points="739.09 372.93 795.22 405.33 795.22 393.81 739.09 361.4 739.09 372.93"/><polygon class="cls-78" points="676.97 337.06 733.1 369.47 733.1 357.94 676.97 325.53 676.97 337.06"/><polygon class="cls-79" points="614.85 301.2 670.98 333.6 670.98 322.07 614.85 289.67 614.85 301.2"/><polygon class="cls-80" points="552.73 265.33 608.86 297.74 608.86 286.21 552.73 253.8 552.73 265.33"/><polygon class="cls-81" points="739.09 388.74 795.22 421.14 795.22 409.62 739.09 377.21 739.09 388.74"/><polygon class="cls-82" points="676.97 352.87 733.1 385.28 733.1 373.75 676.97 341.34 676.97 352.87"/><polygon class="cls-83" points="614.85 317 670.98 349.41 670.98 337.88 614.85 305.48 614.85 317"/><polygon class="cls-84" points="552.73 281.14 608.86 313.55 608.86 302.02 552.73 269.61 552.73 281.14"/><polygon class="cls-85" points="739.09 404.55 795.22 436.95 795.22 425.42 739.09 393.02 739.09 404.55"/><polygon class="cls-86" points="676.97 368.68 733.1 401.09 733.1 389.56 676.97 357.15 676.97 368.68"/><polygon class="cls-87" points="614.85 332.81 670.98 365.22 670.98 353.69 614.85 321.29 614.85 332.81"/><polygon class="cls-88" points="552.73 296.95 608.86 329.36 608.86 317.83 552.73 285.42 552.73 296.95"/><polygon class="cls-89" points="739.09 420.36 795.22 452.76 795.22 441.23 739.09 408.83 739.09 420.36"/><polygon class="cls-90" points="676.97 384.49 733.1 416.9 733.1 405.37 676.97 372.96 676.97 384.49"/><polygon class="cls-91" points="614.85 348.63 670.98 381.03 670.98 369.5 614.85 337.1 614.85 348.63"/><polygon class="cls-92" points="552.73 312.76 608.86 345.17 608.86 333.64 552.73 301.23 552.73 312.76"/><polygon class="cls-93" points="895.05 460.78 805.56 512.45 805.56 284.35 895.05 232.68 895.05 460.78"/><polygon class="cls-94" points="895.05 232.68 631.88 80.74 542.39 132.41 805.56 284.35 895.05 232.68"/><polygon class="cls-95" points="542.39 360.51 805.56 512.45 805.56 490.95 542.39 339.01 542.39 360.51"/><polygon class="cls-96" points="895.05 460.78 805.56 512.45 805.56 490.95 895.05 439.24 895.05 460.78"/><polygon class="cls-97" points="341.12 476.71 604.29 628.65 604.29 400.55 341.12 248.61 341.12 476.71"/><polygon class="cls-98" points="537.82 394.27 593.95 426.68 593.95 415.15 537.82 382.74 537.82 394.27"/><polygon class="cls-99" points="475.7 358.41 531.83 390.81 531.83 379.29 475.7 346.88 475.7 358.41"/><polygon class="cls-100" points="413.58 322.54 469.71 354.95 469.71 343.42 413.58 311.01 413.58 322.54"/><polygon class="cls-101" points="351.46 286.68 407.59 319.08 407.59 307.56 351.46 275.15 351.46 286.68"/><polygon class="cls-102" points="537.82 410.08 593.95 442.49 593.95 430.96 537.82 398.55 537.82 410.08"/><polygon class="cls-103" points="475.7 374.21 531.83 406.62 531.83 395.09 475.7 362.69 475.7 374.21"/><polygon class="cls-104" points="413.58 338.35 469.71 370.76 469.71 359.23 413.58 326.82 413.58 338.35"/><polygon class="cls-105" points="351.46 302.49 407.59 334.89 407.59 323.36 351.46 290.96 351.46 302.49"/><polygon class="cls-106" points="537.82 425.89 593.95 458.3 593.95 446.77 537.82 414.36 537.82 425.89"/><polygon class="cls-107" points="475.7 390.02 531.83 422.43 531.83 410.9 475.7 378.5 475.7 390.02"/><polygon class="cls-108" points="413.58 354.16 469.71 386.57 469.71 375.04 413.58 342.63 413.58 354.16"/><polygon class="cls-109" points="351.46 318.3 407.59 350.7 407.59 339.17 351.46 306.77 351.46 318.3"/><polygon class="cls-110" points="537.82 441.7 593.95 474.11 593.95 462.58 537.82 430.17 537.82 441.7"/><polygon class="cls-111" points="475.7 405.83 531.83 438.24 531.83 426.71 475.7 394.31 475.7 405.83"/><polygon class="cls-112" points="413.58 369.97 469.71 402.38 469.71 390.85 413.58 358.44 413.58 369.97"/><polygon class="cls-113" points="351.46 334.11 407.59 366.51 407.59 354.98 351.46 322.58 351.46 334.11"/><polygon class="cls-114" points="537.82 457.51 593.95 489.92 593.95 478.39 537.82 445.98 537.82 457.51"/><polygon class="cls-115" points="475.7 421.64 531.83 454.05 531.83 442.52 475.7 410.12 475.7 421.64"/><polygon class="cls-116" points="413.58 385.78 469.71 418.19 469.71 406.66 413.58 374.25 413.58 385.78"/><polygon class="cls-117" points="351.46 349.92 407.59 382.32 407.59 370.79 351.46 338.39 351.46 349.92"/><polygon class="cls-118" points="537.82 473.32 593.95 505.73 593.95 494.2 537.82 461.79 537.82 473.32"/><polygon class="cls-119" points="475.7 437.45 531.83 469.86 531.83 458.33 475.7 425.93 475.7 437.45"/><polygon class="cls-120" points="413.58 401.59 469.71 434 469.71 422.47 413.58 390.06 413.58 401.59"/><polygon class="cls-121" points="351.46 365.72 407.59 398.13 407.59 386.6 351.46 354.2 351.46 365.72"/><polygon class="cls-122" points="537.82 489.13 593.95 521.54 593.95 510.01 537.82 477.6 537.82 489.13"/><polygon class="cls-123" points="475.7 453.26 531.83 485.67 531.83 474.14 475.7 441.74 475.7 453.26"/><polygon class="cls-124" points="413.58 417.4 469.71 449.81 469.71 438.28 413.58 405.87 413.58 417.4"/><polygon class="cls-125" points="351.46 381.54 407.59 413.94 407.59 402.41 351.46 370.01 351.46 381.54"/><polygon class="cls-126" points="537.82 504.94 593.95 537.35 593.95 525.82 537.82 493.41 537.82 504.94"/><polygon class="cls-127" points="475.7 469.07 531.83 501.48 531.83 489.95 475.7 457.55 475.7 469.07"/><polygon class="cls-128" points="413.58 433.21 469.71 465.62 469.71 454.09 413.58 421.68 413.58 433.21"/><polygon class="cls-129" points="351.46 397.34 407.59 429.75 407.59 418.22 351.46 385.82 351.46 397.34"/><polygon class="cls-130" points="537.82 520.75 593.95 553.16 593.95 541.63 537.82 509.22 537.82 520.75"/><polygon class="cls-131" points="475.7 484.88 531.83 517.29 531.83 505.76 475.7 473.36 475.7 484.88"/><polygon class="cls-132" points="413.58 449.02 469.71 481.43 469.71 469.9 413.58 437.49 413.58 449.02"/><polygon class="cls-133" points="351.46 413.15 407.59 445.56 407.59 434.03 351.46 401.63 351.46 413.15"/><polygon class="cls-134" points="537.82 536.56 593.95 568.97 593.95 557.44 537.82 525.03 537.82 536.56"/><polygon class="cls-135" points="475.7 500.69 531.83 533.1 531.83 521.57 475.7 489.17 475.7 500.69"/><polygon class="cls-136" points="413.58 464.83 469.71 497.24 469.71 485.71 413.58 453.3 413.58 464.83"/><polygon class="cls-137" points="351.46 428.96 407.59 461.37 407.59 449.84 351.46 417.44 351.46 428.96"/><polygon class="cls-138" points="693.78 576.98 604.29 628.65 604.29 400.55 693.78 348.88 693.78 576.98"/><polygon class="cls-139" points="693.78 348.88 430.61 196.94 341.12 248.61 604.29 400.55 693.78 348.88"/><polygon class="cls-140" points="341.12 476.71 604.29 628.65 604.29 607.16 341.12 455.22 341.12 476.71"/><polygon class="cls-141" points="693.78 576.98 604.29 628.65 604.29 607.16 693.78 555.44 693.78 576.98"/><polygon class="cls-142" points="528.43 345.14 561.77 364.39 561.77 358.35 528.43 339.1 528.43 345.14"/><polygon class="cls-143" points="632.79 323.39 561.77 364.39 561.77 358.35 632.79 317.34 632.79 323.39"/><polygon class="cls-144" points="528.43 339.1 599.45 298.09 632.79 317.34 561.77 358.35 528.43 339.1"/><polygon class="cls-145" points="572.55 370.58 605.89 389.83 605.89 383.79 572.55 364.54 572.55 370.58"/><polygon class="cls-146" points="676.92 348.83 605.89 389.83 605.89 383.79 676.92 342.78 676.92 348.83"/><polygon class="cls-147" points="572.55 364.54 643.58 323.53 676.92 342.78 605.89 383.79 572.55 364.54"/></g></g></svg>