<svg xmlns="http://www.w3.org/2000/svg" xmlns:xlink="http://www.w3.org/1999/xlink" viewBox="0 0 301.88 792.55"><defs><style>.cls-1{fill:url(#New_Gradient_Swatch_copy_25);}.cls-2{fill:url(#New_Gradient_Swatch_copy_25-2);}.cls-3{fill:url(#New_Gradient_Swatch_copy_25-3);}.cls-4{fill:url(#New_Gradient_Swatch_copy_25-4);}.cls-5{fill:url(#linear-gradient);}.cls-6{fill:url(#linear-gradient-2);}.cls-7{fill:url(#linear-gradient-3);}.cls-8{fill:url(#linear-gradient-4);}.cls-9{fill:url(#linear-gradient-5);}.cls-10{fill:url(#linear-gradient-6);}.cls-11{fill:url(#linear-gradient-7);}.cls-12{fill:url(#linear-gradient-8);}.cls-13{fill:url(#linear-gradient-9);}.cls-14{fill:url(#linear-gradient-10);}.cls-15{fill:url(#linear-gradient-11);}.cls-16{fill:url(#linear-gradient-12);}.cls-17{fill:url(#linear-gradient-13);}.cls-18{fill:url(#linear-gradient-14);}.cls-19{fill:url(#linear-gradient-15);}.cls-20{fill:url(#linear-gradient-16);}.cls-21{fill:url(#linear-gradient-17);}.cls-22{fill:url(#linear-gradient-18);}.cls-23{fill:url(#linear-gradient-19);}.cls-24{fill:url(#linear-gradient-20);}.cls-25{fill:url(#linear-gradient-21);}.cls-26{fill:url(#linear-gradient-22);}.cls-27{fill:url(#linear-gradient-23);}.cls-28{fill:url(#linear-gradient-24);}.cls-29{fill:url(#linear-gradient-25);}.cls-30{fill:url(#linear-gradient-26);}.cls-31{fill:url(#linear-gradient-27);}.cls-32{fill:url(#linear-gradient-28);}.cls-33{fill:url(#linear-gradient-29);}.cls-34{fill:url(#linear-gradient-30);}.cls-35{fill:url(#linear-gradient-31);}.cls-36{fill:url(#linear-gradient-32);}.cls-37{fill:url(#linear-gradient-33);}.cls-38{fill:url(#linear-gradient-34);}.cls-39{fill:url(#linear-gradient-35);}.cls-40{fill:url(#New_Gradient_Swatch_copy_25-5);}.cls-41{fill:url(#New_Gradient_Swatch_copy_25-6);}.cls-42{fill:url(#New_Gradient_Swatch_copy_25-7);}.cls-43{fill:url(#New_Gradient_Swatch_copy_25-8);}.cls-44{fill:url(#linear-gradient-36);}.cls-45{fill:url(#linear-gradient-37);}.cls-46{fill:url(#linear-gradient-38);}.cls-47{fill:url(#linear-gradient-39);}.cls-48{fill:url(#linear-gradient-40);}.cls-49{fill:url(#linear-gradient-41);}.cls-50{fill:url(#linear-gradient-42);}.cls-51{fill:url(#linear-gradient-43);}.cls-52{fill:url(#linear-gradient-44);}.cls-53{fill:url(#linear-gradient-45);}.cls-54{fill:url(#linear-gradient-46);}.cls-55{fill:url(#linear-gradient-47);}.cls-56{fill:url(#linear-gradient-48);}.cls-57{fill:url(#linear-gradient-49);}.cls-58{fill:url(#linear-gradient-50);}.cls-59{fill:url(#linear-gradient-51);}.cls-60{fill:url(#linear-gradient-52);}.cls-61{fill:url(#linear-gradient-53);}.cls-62{fill:url(#linear-gradient-54);}.cls-63{fill:url(#linear-gradient-55);}.cls-64{fill:url(#linear-gradient-56);}.cls-65{fill:url(#linear-gradient-57);}.cls-66{fill:url(#linear-gradient-58);}</style><linearGradient id="New_Gradient_Swatch_copy_25" x1="-3.81" y1="797.79" x2="811.64" y2="-914.65" gradientUnits="userSpaceOnUse"><stop offset="0" stop-color="#25054d"/><stop offset="1" stop-color="#45108a"/></linearGradient><linearGradient id="New_Gradient_Swatch_copy_25-2" x1="-135.19" y1="615.78" x2="424.42" y2="96.87" xlink:href="#New_Gradient_Swatch_copy_25"/><linearGradient id="New_Gradient_Swatch_copy_25-3" x1="-146.08" y1="1220.11" x2="432.18" y2="138.2" xlink:href="#New_Gradient_Swatch_copy_25"/><linearGradient id="New_Gradient_Swatch_copy_25-4" x1="-92.85" y1="889.74" x2="738.08" y2="-855.23" xlink:href="#New_Gradient_Swatch_copy_25"/><linearGradient id="linear-gradient" x1="133.91" y1="443.08" x2="206.34" y2="443.08" gradientUnits="userSpaceOnUse"><stop offset="0" stop-color="#00e5ff"/><stop offset="1" stop-color="#c0f"/></linearGradient><linearGradient id="linear-gradient-2" x1="133.91" y1="469.31" x2="206.34" y2="469.31" xlink:href="#linear-gradient"/><linearGradient id="linear-gradient-3" x1="133.91" y1="495.55" x2="206.34" y2="495.55" xlink:href="#linear-gradient"/><linearGradient id="linear-gradient-4" x1="133.91" y1="521.78" x2="206.34" y2="521.78" xlink:href="#linear-gradient"/><linearGradient id="linear-gradient-5" x1="133.91" y1="548.01" x2="206.34" y2="548.01" xlink:href="#linear-gradient"/><linearGradient id="linear-gradient-6" x1="133.91" y1="574.24" x2="206.34" y2="574.24" xlink:href="#linear-gradient"/><linearGradient id="linear-gradient-7" x1="133.91" y1="600.48" x2="206.34" y2="600.48" xlink:href="#linear-gradient"/><linearGradient id="linear-gradient-8" x1="133.91" y1="626.71" x2="206.34" y2="626.71" xlink:href="#linear-gradient"/><linearGradient id="linear-gradient-9" x1="133.91" y1="652.94" x2="206.34" y2="652.94" xlink:href="#linear-gradient"/><linearGradient id="linear-gradient-10" x1="133.91" y1="679.18" x2="206.34" y2="679.18" xlink:href="#linear-gradient"/><linearGradient id="linear-gradient-11" x1="133.91" y1="705.41" x2="206.34" y2="705.41" xlink:href="#linear-gradient"/><linearGradient id="linear-gradient-12" x1="218.24" y1="393.8" x2="290.68" y2="393.8" xlink:href="#linear-gradient"/><linearGradient id="linear-gradient-13" x1="218.24" y1="420.03" x2="290.68" y2="420.03" xlink:href="#linear-gradient"/><linearGradient id="linear-gradient-14" x1="218.24" y1="446.26" x2="290.68" y2="446.26" xlink:href="#linear-gradient"/><linearGradient id="linear-gradient-15" x1="218.24" y1="472.5" x2="290.68" y2="472.5" xlink:href="#linear-gradient"/><linearGradient id="linear-gradient-16" x1="218.24" y1="498.73" x2="290.68" y2="498.73" xlink:href="#linear-gradient"/><linearGradient id="linear-gradient-17" x1="218.24" y1="524.96" x2="290.68" y2="524.96" xlink:href="#linear-gradient"/><linearGradient id="linear-gradient-18" x1="218.24" y1="551.2" x2="290.68" y2="551.2" xlink:href="#linear-gradient"/><linearGradient id="linear-gradient-19" x1="218.24" y1="577.43" x2="290.68" y2="577.43" xlink:href="#linear-gradient"/><linearGradient id="linear-gradient-20" x1="218.24" y1="603.66" x2="290.68" y2="603.66" xlink:href="#linear-gradient"/><linearGradient id="linear-gradient-21" x1="218.24" y1="629.89" x2="290.68" y2="629.89" xlink:href="#linear-gradient"/><linearGradient id="linear-gradient-22" x1="218.24" y1="656.13" x2="290.68" y2="656.13" xlink:href="#linear-gradient"/><linearGradient id="linear-gradient-23" x1="10.9" y1="434.18" x2="111.51" y2="434.18" xlink:href="#linear-gradient"/><linearGradient id="linear-gradient-24" x1="10.9" y1="460.41" x2="111.51" y2="460.41" xlink:href="#linear-gradient"/><linearGradient id="linear-gradient-25" x1="10.9" y1="486.65" x2="111.51" y2="486.65" xlink:href="#linear-gradient"/><linearGradient id="linear-gradient-26" x1="10.9" y1="512.88" x2="111.51" y2="512.88" xlink:href="#linear-gradient"/><linearGradient id="linear-gradient-27" x1="10.9" y1="539.11" x2="111.51" y2="539.11" xlink:href="#linear-gradient"/><linearGradient id="linear-gradient-28" x1="10.9" y1="565.34" x2="111.51" y2="565.34" xlink:href="#linear-gradient"/><linearGradient id="linear-gradient-29" x1="10.9" y1="591.58" x2="111.51" y2="591.58" xlink:href="#linear-gradient"/><linearGradient id="linear-gradient-30" x1="10.9" y1="617.81" x2="111.51" y2="617.81" xlink:href="#linear-gradient"/><linearGradient id="linear-gradient-31" x1="10.9" y1="644.04" x2="111.51" y2="644.04" xlink:href="#linear-gradient"/><linearGradient id="linear-gradient-32" x1="10.9" y1="670.28" x2="111.51" y2="670.28" xlink:href="#linear-gradient"/><linearGradient id="linear-gradient-33" x1="10.9" y1="696.51" x2="111.51" y2="696.51" xlink:href="#linear-gradient"/><linearGradient id="linear-gradient-34" x1="122.71" y1="727.08" x2="301.88" y2="727.08" xlink:href="#linear-gradient"/><linearGradient id="linear-gradient-35" x1="0" y1="743.38" x2="122.71" y2="743.38" xlink:href="#linear-gradient"/><linearGradient id="New_Gradient_Swatch_copy_25-5" x1="44.07" y1="381.18" x2="601.54" y2="-789.51" xlink:href="#New_Gradient_Swatch_copy_25"/><linearGradient id="New_Gradient_Swatch_copy_25-6" x1="-135.19" y1="352.46" x2="424.42" y2="-166.45" xlink:href="#New_Gradient_Swatch_copy_25"/><linearGradient id="New_Gradient_Swatch_copy_25-7" x1="-74.28" y1="769.71" x2="388.13" y2="-95.45" xlink:href="#New_Gradient_Swatch_copy_25"/><linearGradient id="New_Gradient_Swatch_copy_25-8" x1="-44.98" y1="473.13" x2="527.98" y2="-730.09" xlink:href="#New_Gradient_Swatch_copy_25"/><linearGradient id="linear-gradient-36" x1="133.91" y1="179.76" x2="206.34" y2="179.76" xlink:href="#linear-gradient"/><linearGradient id="linear-gradient-37" x1="133.91" y1="205.99" x2="206.34" y2="205.99" xlink:href="#linear-gradient"/><linearGradient id="linear-gradient-38" x1="133.91" y1="232.23" x2="206.34" y2="232.23" xlink:href="#linear-gradient"/><linearGradient id="linear-gradient-39" x1="133.91" y1="258.46" x2="206.34" y2="258.46" xlink:href="#linear-gradient"/><linearGradient id="linear-gradient-40" x1="133.91" y1="284.69" x2="206.34" y2="284.69" xlink:href="#linear-gradient"/><linearGradient id="linear-gradient-41" x1="133.91" y1="310.93" x2="206.34" y2="310.93" xlink:href="#linear-gradient"/><linearGradient id="linear-gradient-42" x1="133.91" y1="337.16" x2="206.34" y2="337.16" xlink:href="#linear-gradient"/><linearGradient id="linear-gradient-43" x1="218.24" y1="130.48" x2="290.68" y2="130.48" xlink:href="#linear-gradient"/><linearGradient id="linear-gradient-44" x1="218.24" y1="156.71" x2="290.68" y2="156.71" xlink:href="#linear-gradient"/><linearGradient id="linear-gradient-45" x1="218.24" y1="182.95" x2="290.68" y2="182.95" xlink:href="#linear-gradient"/><linearGradient id="linear-gradient-46" x1="218.24" y1="209.18" x2="290.68" y2="209.18" xlink:href="#linear-gradient"/><linearGradient id="linear-gradient-47" x1="218.24" y1="235.41" x2="290.68" y2="235.41" xlink:href="#linear-gradient"/><linearGradient id="linear-gradient-48" x1="218.24" y1="261.65" x2="290.68" y2="261.65" xlink:href="#linear-gradient"/><linearGradient id="linear-gradient-49" x1="218.24" y1="287.88" x2="290.68" y2="287.88" xlink:href="#linear-gradient"/><linearGradient id="linear-gradient-50" x1="10.9" y1="170.86" x2="111.51" y2="170.86" xlink:href="#linear-gradient"/><linearGradient id="linear-gradient-51" x1="10.9" y1="197.1" x2="111.51" y2="197.1" xlink:href="#linear-gradient"/><linearGradient id="linear-gradient-52" x1="10.9" y1="223.33" x2="111.51" y2="223.33" xlink:href="#linear-gradient"/><linearGradient id="linear-gradient-53" x1="10.9" y1="249.56" x2="111.51" y2="249.56" xlink:href="#linear-gradient"/><linearGradient id="linear-gradient-54" x1="10.9" y1="275.79" x2="111.51" y2="275.79" xlink:href="#linear-gradient"/><linearGradient id="linear-gradient-55" x1="10.9" y1="302.03" x2="111.51" y2="302.03" xlink:href="#linear-gradient"/><linearGradient id="linear-gradient-56" x1="10.9" y1="328.26" x2="111.51" y2="328.26" xlink:href="#linear-gradient"/><linearGradient id="linear-gradient-57" x1="122.71" y1="358.25" x2="301.88" y2="358.25" xlink:href="#linear-gradient"/><linearGradient id="linear-gradient-58" x1="0" y1="374.55" x2="122.71" y2="374.55" xlink:href="#linear-gradient"/></defs><g id="Layer_2" data-name="Layer 2"><g id="_Layer_" data-name="&lt;Layer&gt;"><polygon class="cls-1" points="117.49 298.93 117.49 626.37 177.56 661.05 177.56 333.61 117.49 298.93"/><polygon class="cls-2" points="117.49 298.93 177.56 333.61 121.75 365.83 61.68 331.15 0 366.76 122.71 437.61 301.88 334.16 179.17 263.32 117.49 298.93"/><polygon class="cls-3" points="122.71 765.04 122.71 437.61 301.88 334.16 301.88 661.6 122.71 765.04"/><polygon class="cls-4" points="122.71 437.61 0 366.76 0 694.2 122.71 765.04 122.71 437.61"/><polygon class="cls-5" points="206.34 431.93 133.91 474.34 133.91 454.23 206.34 411.82 206.34 431.93"/><polygon class="cls-6" points="206.34 458.16 133.91 500.57 133.91 480.46 206.34 438.05 206.34 458.16"/><polygon class="cls-7" points="206.34 484.4 133.91 526.81 133.91 506.69 206.34 464.28 206.34 484.4"/><polygon class="cls-8" points="206.34 510.63 133.91 553.04 133.91 532.93 206.34 490.52 206.34 510.63"/><polygon class="cls-9" points="206.34 536.86 133.91 579.27 133.91 559.16 206.34 516.75 206.34 536.86"/><polygon class="cls-10" points="206.34 563.1 133.91 605.51 133.91 585.39 206.34 542.98 206.34 563.1"/><polygon class="cls-11" points="206.34 589.33 133.91 631.74 133.91 611.63 206.34 569.22 206.34 589.33"/><polygon class="cls-12" points="206.34 615.56 133.91 657.97 133.91 637.86 206.34 595.45 206.34 615.56"/><polygon class="cls-13" points="206.34 641.8 133.91 684.21 133.91 664.09 206.34 621.68 206.34 641.8"/><polygon class="cls-14" points="206.34 668.03 133.91 710.44 133.91 690.32 206.34 647.91 206.34 668.03"/><polygon class="cls-15" points="206.34 694.26 133.91 736.67 133.91 716.56 206.34 674.15 206.34 694.26"/><polygon class="cls-16" points="290.68 382.65 218.24 425.06 218.24 404.94 290.68 362.54 290.68 382.65"/><polygon class="cls-17" points="290.68 408.88 218.24 451.29 218.24 431.18 290.68 388.77 290.68 408.88"/><polygon class="cls-18" points="290.68 435.12 218.24 477.52 218.24 457.41 290.68 415 290.68 435.12"/><polygon class="cls-19" points="290.68 461.35 218.24 503.76 218.24 483.64 290.68 441.24 290.68 461.35"/><polygon class="cls-20" points="290.68 487.58 218.24 529.99 218.24 509.88 290.68 467.47 290.68 487.58"/><polygon class="cls-21" points="290.68 513.82 218.24 556.22 218.24 536.11 290.68 493.7 290.68 513.82"/><polygon class="cls-22" points="290.68 540.05 218.24 582.46 218.24 562.34 290.68 519.93 290.68 540.05"/><polygon class="cls-23" points="290.68 566.28 218.24 608.69 218.24 588.58 290.68 546.17 290.68 566.28"/><polygon class="cls-24" points="290.68 592.51 218.24 634.92 218.24 614.81 290.68 572.4 290.68 592.51"/><polygon class="cls-25" points="290.68 618.75 218.24 661.16 218.24 641.04 290.68 598.63 290.68 618.75"/><polygon class="cls-26" points="290.68 644.98 218.24 687.39 218.24 667.27 290.68 624.87 290.68 644.98"/><polygon class="cls-27" points="10.9 414.13 111.51 474.34 111.51 454.23 10.9 394.02 10.9 414.13"/><polygon class="cls-28" points="10.9 440.37 111.51 500.57 111.51 480.46 10.9 420.25 10.9 440.37"/><polygon class="cls-29" points="10.9 466.6 111.51 526.81 111.51 506.69 10.9 446.48 10.9 466.6"/><polygon class="cls-30" points="10.9 492.83 111.51 553.04 111.51 532.93 10.9 472.72 10.9 492.83"/><polygon class="cls-31" points="10.9 519.06 111.51 579.27 111.51 559.16 10.9 498.95 10.9 519.06"/><polygon class="cls-32" points="10.9 545.3 111.51 605.51 111.51 585.39 10.9 525.18 10.9 545.3"/><polygon class="cls-33" points="10.9 571.53 111.51 631.74 111.51 611.63 10.9 551.42 10.9 571.53"/><polygon class="cls-34" points="10.9 597.76 111.51 657.97 111.51 637.86 10.9 577.65 10.9 597.76"/><polygon class="cls-35" points="10.9 624 111.51 684.21 111.51 664.09 10.9 603.88 10.9 624"/><polygon class="cls-36" points="10.9 650.23 111.51 710.44 111.51 690.32 10.9 630.12 10.9 650.23"/><polygon class="cls-37" points="10.9 676.46 111.51 736.67 111.51 716.56 10.9 656.35 10.9 676.46"/><polygon class="cls-38" points="122.71 792.55 122.71 765.04 301.88 661.6 301.88 689.11 122.71 792.55"/><polygon class="cls-39" points="122.71 792.55 122.71 765.04 0 694.2 0 721.71 122.71 792.55"/><polygon class="cls-40" points="117.49 35.61 117.49 257.54 177.56 292.22 177.56 70.3 117.49 35.61"/><polygon class="cls-41" points="117.49 35.61 177.56 70.3 121.75 102.51 61.68 67.83 0 103.44 122.71 174.29 301.88 70.84 179.17 0 117.49 35.61"/><polygon class="cls-42" points="122.71 396.22 122.71 174.29 301.88 70.84 301.88 292.77 122.71 396.22"/><polygon class="cls-43" points="122.71 174.29 0 103.44 0 325.37 122.71 396.22 122.71 174.29"/><polygon class="cls-44" points="206.34 168.61 133.91 211.02 133.91 190.91 206.34 148.5 206.34 168.61"/><polygon class="cls-45" points="206.34 194.85 133.91 237.26 133.91 217.14 206.34 174.73 206.34 194.85"/><polygon class="cls-46" points="206.34 221.08 133.91 263.49 133.91 243.38 206.34 200.97 206.34 221.08"/><polygon class="cls-47" points="206.34 247.31 133.91 289.72 133.91 269.61 206.34 227.2 206.34 247.31"/><polygon class="cls-48" points="206.34 273.55 133.91 315.96 133.91 295.84 206.34 253.43 206.34 273.55"/><polygon class="cls-49" points="206.34 299.78 133.91 342.19 133.91 322.07 206.34 279.67 206.34 299.78"/><polygon class="cls-50" points="206.34 326.01 133.91 368.42 133.91 348.31 206.34 305.9 206.34 326.01"/><polygon class="cls-51" points="290.68 119.33 218.24 161.74 218.24 141.63 290.68 99.22 290.68 119.33"/><polygon class="cls-52" points="290.68 145.56 218.24 187.97 218.24 167.86 290.68 125.45 290.68 145.56"/><polygon class="cls-53" points="290.68 171.8 218.24 214.21 218.24 194.09 290.68 151.69 290.68 171.8"/><polygon class="cls-54" points="290.68 198.03 218.24 240.44 218.24 220.33 290.68 177.92 290.68 198.03"/><polygon class="cls-55" points="290.68 224.26 218.24 266.67 218.24 246.56 290.68 204.15 290.68 224.26"/><polygon class="cls-56" points="290.68 250.5 218.24 292.91 218.24 272.79 290.68 230.38 290.68 250.5"/><polygon class="cls-57" points="290.68 276.73 218.24 319.14 218.24 299.03 290.68 256.62 290.68 276.73"/><polygon class="cls-58" points="10.9 150.81 111.51 211.02 111.51 190.91 10.9 130.7 10.9 150.81"/><polygon class="cls-59" points="10.9 177.05 111.51 237.26 111.51 217.14 10.9 156.93 10.9 177.05"/><polygon class="cls-60" points="10.9 203.28 111.51 263.49 111.51 243.38 10.9 183.17 10.9 203.28"/><polygon class="cls-61" points="10.9 229.51 111.51 289.72 111.51 269.61 10.9 209.4 10.9 229.51"/><polygon class="cls-62" points="10.9 255.75 111.51 315.96 111.51 295.84 10.9 235.63 10.9 255.75"/><polygon class="cls-63" points="10.9 281.98 111.51 342.19 111.51 322.07 10.9 261.87 10.9 281.98"/><polygon class="cls-64" points="10.9 308.21 111.51 368.42 111.51 348.31 10.9 288.1 10.9 308.21"/><polygon class="cls-65" points="122.71 423.73 122.71 396.22 301.88 292.77 301.88 320.28 122.71 423.73"/><polygon class="cls-66" points="122.71 423.73 122.71 396.22 0 325.37 0 352.88 122.71 423.73"/></g></g></svg>