<svg xmlns="http://www.w3.org/2000/svg" xmlns:xlink="http://www.w3.org/1999/xlink" viewBox="0 0 380.11 1272.15"><defs><style>.cls-1{fill:url(#New_Gradient_Swatch_copy_25);}.cls-2{fill:url(#linear-gradient);}.cls-3{fill:url(#linear-gradient-2);}.cls-4{fill:url(#linear-gradient-3);}.cls-5{fill:url(#linear-gradient-4);}.cls-6{fill:url(#linear-gradient-5);}.cls-7{fill:url(#linear-gradient-6);}.cls-8{fill:url(#linear-gradient-7);}.cls-9{fill:url(#linear-gradient-8);}.cls-10{fill:url(#linear-gradient-9);}.cls-11{fill:url(#linear-gradient-10);}.cls-12{fill:url(#linear-gradient-11);}.cls-13{fill:url(#linear-gradient-12);}.cls-14{fill:url(#linear-gradient-13);}.cls-15{fill:url(#linear-gradient-14);}.cls-16{fill:url(#linear-gradient-15);}.cls-17{fill:url(#linear-gradient-16);}.cls-18{fill:url(#linear-gradient-17);}.cls-19{fill:url(#linear-gradient-18);}.cls-20{fill:url(#linear-gradient-19);}.cls-21{fill:url(#linear-gradient-20);}.cls-22{fill:url(#linear-gradient-21);}.cls-23{fill:url(#linear-gradient-22);}.cls-24{fill:url(#linear-gradient-23);}.cls-25{fill:url(#linear-gradient-24);}.cls-26{fill:url(#linear-gradient-25);}.cls-27{fill:url(#linear-gradient-26);}.cls-28{fill:url(#linear-gradient-27);}.cls-29{fill:url(#linear-gradient-28);}.cls-30{fill:url(#linear-gradient-29);}.cls-31{fill:url(#linear-gradient-30);}.cls-32{fill:url(#linear-gradient-31);}.cls-33{fill:url(#linear-gradient-32);}.cls-34{fill:url(#linear-gradient-33);}.cls-35{fill:url(#linear-gradient-34);}.cls-36{fill:url(#linear-gradient-35);}.cls-37{fill:url(#linear-gradient-36);}.cls-38{fill:url(#linear-gradient-37);}.cls-39{fill:url(#linear-gradient-38);}.cls-40{fill:url(#linear-gradient-39);}.cls-41{fill:url(#linear-gradient-40);}.cls-42{fill:url(#linear-gradient-41);}.cls-43{fill:url(#linear-gradient-42);}.cls-44{fill:url(#linear-gradient-43);}.cls-45{fill:url(#linear-gradient-44);}.cls-46{fill:url(#linear-gradient-45);}.cls-47{fill:url(#linear-gradient-46);}.cls-48{fill:url(#linear-gradient-47);}.cls-49{fill:url(#linear-gradient-48);}.cls-50{fill:url(#linear-gradient-49);}.cls-51{fill:url(#linear-gradient-50);}.cls-52{fill:url(#linear-gradient-51);}.cls-53{fill:url(#linear-gradient-52);}.cls-54{fill:url(#linear-gradient-53);}.cls-55{fill:url(#linear-gradient-54);}.cls-56{fill:url(#linear-gradient-55);}.cls-57{fill:url(#linear-gradient-56);}.cls-58{fill:url(#linear-gradient-57);}.cls-59{fill:url(#linear-gradient-58);}.cls-60{fill:url(#linear-gradient-59);}.cls-61{fill:url(#linear-gradient-60);}.cls-62{fill:url(#linear-gradient-61);}.cls-63{fill:url(#linear-gradient-62);}.cls-64{fill:url(#linear-gradient-63);}.cls-65{fill:url(#linear-gradient-64);}.cls-66{fill:url(#linear-gradient-65);}.cls-67{fill:url(#linear-gradient-66);}.cls-68{fill:url(#New_Gradient_Swatch_copy_25-2);}.cls-69{fill:url(#linear-gradient-67);}.cls-70{fill:url(#linear-gradient-68);}.cls-71{fill:url(#linear-gradient-69);}.cls-72{fill:url(#linear-gradient-70);}.cls-73{fill:url(#linear-gradient-71);}.cls-74{fill:url(#linear-gradient-72);}.cls-75{fill:url(#linear-gradient-73);}.cls-76{fill:url(#linear-gradient-74);}.cls-77{fill:url(#linear-gradient-75);}.cls-78{fill:url(#linear-gradient-76);}.cls-79{fill:url(#linear-gradient-77);}.cls-80{fill:url(#linear-gradient-78);}.cls-81{fill:url(#linear-gradient-79);}.cls-82{fill:url(#linear-gradient-80);}.cls-83{fill:url(#linear-gradient-81);}.cls-84{fill:url(#linear-gradient-82);}.cls-85{fill:url(#linear-gradient-83);}.cls-86{fill:url(#linear-gradient-84);}.cls-87{fill:url(#linear-gradient-85);}.cls-88{fill:url(#linear-gradient-86);}.cls-89{fill:url(#linear-gradient-87);}.cls-90{fill:url(#linear-gradient-88);}.cls-91{fill:url(#linear-gradient-89);}.cls-92{fill:url(#linear-gradient-90);}.cls-93{fill:url(#linear-gradient-91);}.cls-94{fill:url(#linear-gradient-92);}.cls-95{fill:url(#linear-gradient-93);}.cls-96{fill:url(#linear-gradient-94);}.cls-97{fill:url(#linear-gradient-95);}.cls-98{fill:url(#linear-gradient-96);}.cls-99{fill:url(#linear-gradient-97);}.cls-100{fill:url(#linear-gradient-98);}.cls-101{fill:url(#linear-gradient-99);}.cls-102{fill:url(#linear-gradient-100);}.cls-103{fill:url(#linear-gradient-101);}.cls-104{fill:url(#linear-gradient-102);}.cls-105{fill:url(#linear-gradient-103);}.cls-106{fill:url(#linear-gradient-104);}.cls-107{fill:url(#linear-gradient-105);}.cls-108{fill:url(#linear-gradient-106);}.cls-109{fill:url(#linear-gradient-107);}.cls-110{fill:url(#linear-gradient-108);}.cls-111{fill:url(#linear-gradient-109);}.cls-112{fill:url(#linear-gradient-110);}.cls-113{fill:url(#linear-gradient-111);}.cls-114{fill:url(#linear-gradient-112);}.cls-115{fill:url(#linear-gradient-113);}.cls-116{fill:url(#linear-gradient-114);}.cls-117{fill:url(#linear-gradient-115);}.cls-118{fill:url(#linear-gradient-116);}.cls-119{fill:url(#linear-gradient-117);}.cls-120{fill:url(#linear-gradient-118);}.cls-121{fill:url(#linear-gradient-119);}.cls-122{fill:url(#linear-gradient-120);}.cls-123{fill:url(#linear-gradient-121);}.cls-124{fill:url(#linear-gradient-122);}.cls-125{fill:url(#linear-gradient-123);}.cls-126{fill:url(#linear-gradient-124);}.cls-127{fill:url(#linear-gradient-125);}.cls-128{fill:url(#linear-gradient-126);}.cls-129{fill:url(#linear-gradient-127);}.cls-130{fill:url(#linear-gradient-128);}.cls-131{fill:url(#linear-gradient-129);}.cls-132{fill:url(#linear-gradient-130);}.cls-133{fill:url(#linear-gradient-131);}.cls-134{fill:url(#linear-gradient-132);}.cls-135{fill:url(#New_Gradient_Swatch_copy_25-3);}.cls-136{fill:url(#New_Gradient_Swatch_copy_25-4);}.cls-137{fill:url(#New_Gradient_Swatch_copy_25-5);}.cls-138{fill:url(#New_Gradient_Swatch_copy_25-6);}.cls-139{fill:url(#New_Gradient_Swatch_copy_25-7);}.cls-140{fill:url(#Gradiente_sem_nome_33);}.cls-141{fill:url(#Gradiente_sem_nome_33-2);}.cls-142{fill:url(#Gradiente_sem_nome_33-3);}.cls-143{fill:url(#Gradiente_sem_nome_33-4);}.cls-144{fill:url(#Gradiente_sem_nome_33-5);}.cls-145{fill:url(#Gradiente_sem_nome_33-6);}.cls-146{fill:url(#New_Gradient_Swatch_copy_25-8);}.cls-147{fill:url(#New_Gradient_Swatch_copy_25-9);}.cls-148{fill:url(#New_Gradient_Swatch_copy_25-10);}.cls-149{fill:url(#New_Gradient_Swatch_copy_25-11);}.cls-150{fill:url(#New_Gradient_Swatch_copy_25-12);}.cls-151{fill:url(#New_Gradient_Swatch_copy_25-13);}.cls-152{fill:url(#New_Gradient_Swatch_copy_25-14);}.cls-153{fill:url(#New_Gradient_Swatch_copy_25-15);}.cls-154{fill:url(#linear-gradient-134);}.cls-155{fill:url(#linear-gradient-135);}</style><linearGradient id="New_Gradient_Swatch_copy_25" x1="21.53" y1="1884.16" x2="491" y2="190.12" gradientUnits="userSpaceOnUse"><stop offset="0" stop-color="#25054d"/><stop offset="1" stop-color="#45108a"/></linearGradient><linearGradient id="linear-gradient" x1="209.35" y1="772.86" x2="225.18" y2="772.86" gradientUnits="userSpaceOnUse"><stop offset="0" stop-color="#00e5ff"/><stop offset="1" stop-color="#c0f"/></linearGradient><linearGradient id="linear-gradient-2" x1="243.26" y1="753.28" x2="259.09" y2="753.28" xlink:href="#linear-gradient"/><linearGradient id="linear-gradient-3" x1="277.17" y1="733.7" x2="293" y2="733.7" xlink:href="#linear-gradient"/><linearGradient id="linear-gradient-4" x1="311.08" y1="714.12" x2="326.91" y2="714.12" xlink:href="#linear-gradient"/><linearGradient id="linear-gradient-5" x1="344.99" y1="694.55" x2="360.82" y2="694.55" xlink:href="#linear-gradient"/><linearGradient id="linear-gradient-6" x1="209.35" y1="806.13" x2="225.18" y2="806.13" xlink:href="#linear-gradient"/><linearGradient id="linear-gradient-7" x1="243.26" y1="786.56" x2="259.09" y2="786.56" xlink:href="#linear-gradient"/><linearGradient id="linear-gradient-8" x1="277.17" y1="766.98" x2="293" y2="766.98" xlink:href="#linear-gradient"/><linearGradient id="linear-gradient-9" x1="311.08" y1="747.4" x2="326.91" y2="747.4" xlink:href="#linear-gradient"/><linearGradient id="linear-gradient-10" x1="344.99" y1="727.82" x2="360.82" y2="727.82" xlink:href="#linear-gradient"/><linearGradient id="linear-gradient-11" x1="209.35" y1="839.41" x2="225.18" y2="839.41" xlink:href="#linear-gradient"/><linearGradient id="linear-gradient-12" x1="243.26" y1="819.83" x2="259.09" y2="819.83" xlink:href="#linear-gradient"/><linearGradient id="linear-gradient-13" x1="277.17" y1="800.25" x2="293" y2="800.25" xlink:href="#linear-gradient"/><linearGradient id="linear-gradient-14" x1="311.08" y1="780.68" x2="326.91" y2="780.68" xlink:href="#linear-gradient"/><linearGradient id="linear-gradient-15" x1="344.99" y1="761.1" x2="360.82" y2="761.1" xlink:href="#linear-gradient"/><linearGradient id="linear-gradient-16" x1="209.35" y1="872.69" x2="225.18" y2="872.69" xlink:href="#linear-gradient"/><linearGradient id="linear-gradient-17" x1="243.26" y1="853.11" x2="259.09" y2="853.11" xlink:href="#linear-gradient"/><linearGradient id="linear-gradient-18" x1="277.17" y1="833.53" x2="293" y2="833.53" xlink:href="#linear-gradient"/><linearGradient id="linear-gradient-19" x1="311.08" y1="813.95" x2="326.91" y2="813.95" xlink:href="#linear-gradient"/><linearGradient id="linear-gradient-20" x1="344.99" y1="794.37" x2="360.82" y2="794.37" xlink:href="#linear-gradient"/><linearGradient id="linear-gradient-21" x1="209.35" y1="905.96" x2="225.18" y2="905.96" xlink:href="#linear-gradient"/><linearGradient id="linear-gradient-22" x1="243.26" y1="886.38" x2="259.09" y2="886.38" xlink:href="#linear-gradient"/><linearGradient id="linear-gradient-23" x1="277.17" y1="866.81" x2="293" y2="866.81" xlink:href="#linear-gradient"/><linearGradient id="linear-gradient-24" x1="311.08" y1="847.23" x2="326.91" y2="847.23" xlink:href="#linear-gradient"/><linearGradient id="linear-gradient-25" x1="344.99" y1="827.65" x2="360.82" y2="827.65" xlink:href="#linear-gradient"/><linearGradient id="linear-gradient-26" x1="209.35" y1="939.24" x2="225.18" y2="939.24" xlink:href="#linear-gradient"/><linearGradient id="linear-gradient-27" x1="243.26" y1="919.66" x2="259.09" y2="919.66" xlink:href="#linear-gradient"/><linearGradient id="linear-gradient-28" x1="277.17" y1="900.08" x2="293" y2="900.08" xlink:href="#linear-gradient"/><linearGradient id="linear-gradient-29" x1="311.08" y1="880.5" x2="326.91" y2="880.5" xlink:href="#linear-gradient"/><linearGradient id="linear-gradient-30" x1="344.99" y1="860.93" x2="360.82" y2="860.93" xlink:href="#linear-gradient"/><linearGradient id="linear-gradient-31" x1="209.35" y1="972.51" x2="225.18" y2="972.51" xlink:href="#linear-gradient"/><linearGradient id="linear-gradient-32" x1="243.26" y1="952.94" x2="259.09" y2="952.94" xlink:href="#linear-gradient"/><linearGradient id="linear-gradient-33" x1="277.17" y1="933.36" x2="293" y2="933.36" xlink:href="#linear-gradient"/><linearGradient id="linear-gradient-34" x1="311.08" y1="913.78" x2="326.91" y2="913.78" xlink:href="#linear-gradient"/><linearGradient id="linear-gradient-35" x1="344.99" y1="894.2" x2="360.82" y2="894.2" xlink:href="#linear-gradient"/><linearGradient id="linear-gradient-36" x1="209.35" y1="1005.79" x2="225.18" y2="1005.79" xlink:href="#linear-gradient"/><linearGradient id="linear-gradient-37" x1="243.26" y1="986.21" x2="259.09" y2="986.21" xlink:href="#linear-gradient"/><linearGradient id="linear-gradient-38" x1="277.17" y1="966.63" x2="293" y2="966.63" xlink:href="#linear-gradient"/><linearGradient id="linear-gradient-39" x1="311.08" y1="947.06" x2="326.91" y2="947.06" xlink:href="#linear-gradient"/><linearGradient id="linear-gradient-40" x1="344.99" y1="927.48" x2="360.82" y2="927.48" xlink:href="#linear-gradient"/><linearGradient id="linear-gradient-41" x1="209.35" y1="1039.07" x2="225.18" y2="1039.07" xlink:href="#linear-gradient"/><linearGradient id="linear-gradient-42" x1="243.26" y1="1019.49" x2="259.09" y2="1019.49" xlink:href="#linear-gradient"/><linearGradient id="linear-gradient-43" x1="277.17" y1="999.91" x2="293" y2="999.91" xlink:href="#linear-gradient"/><linearGradient id="linear-gradient-44" x1="311.08" y1="980.33" x2="326.91" y2="980.33" xlink:href="#linear-gradient"/><linearGradient id="linear-gradient-45" x1="344.99" y1="960.75" x2="360.82" y2="960.75" xlink:href="#linear-gradient"/><linearGradient id="linear-gradient-46" x1="209.35" y1="1072.34" x2="225.18" y2="1072.34" xlink:href="#linear-gradient"/><linearGradient id="linear-gradient-47" x1="243.26" y1="1052.76" x2="259.09" y2="1052.76" xlink:href="#linear-gradient"/><linearGradient id="linear-gradient-48" x1="277.17" y1="1033.19" x2="293" y2="1033.19" xlink:href="#linear-gradient"/><linearGradient id="linear-gradient-49" x1="311.08" y1="1013.61" x2="326.91" y2="1013.61" xlink:href="#linear-gradient"/><linearGradient id="linear-gradient-50" x1="344.99" y1="994.03" x2="360.82" y2="994.03" xlink:href="#linear-gradient"/><linearGradient id="linear-gradient-51" x1="209.35" y1="1105.62" x2="225.18" y2="1105.62" xlink:href="#linear-gradient"/><linearGradient id="linear-gradient-52" x1="243.26" y1="1086.04" x2="259.09" y2="1086.04" xlink:href="#linear-gradient"/><linearGradient id="linear-gradient-53" x1="277.17" y1="1066.46" x2="293" y2="1066.46" xlink:href="#linear-gradient"/><linearGradient id="linear-gradient-54" x1="311.08" y1="1046.88" x2="326.91" y2="1046.88" xlink:href="#linear-gradient"/><linearGradient id="linear-gradient-55" x1="344.99" y1="1027.31" x2="360.82" y2="1027.31" xlink:href="#linear-gradient"/><linearGradient id="linear-gradient-56" x1="209.35" y1="1138.89" x2="225.18" y2="1138.89" xlink:href="#linear-gradient"/><linearGradient id="linear-gradient-57" x1="243.26" y1="1119.32" x2="259.09" y2="1119.32" xlink:href="#linear-gradient"/><linearGradient id="linear-gradient-58" x1="277.17" y1="1099.74" x2="293" y2="1099.74" xlink:href="#linear-gradient"/><linearGradient id="linear-gradient-59" x1="311.08" y1="1080.16" x2="326.91" y2="1080.16" xlink:href="#linear-gradient"/><linearGradient id="linear-gradient-60" x1="344.99" y1="1060.58" x2="360.82" y2="1060.58" xlink:href="#linear-gradient"/><linearGradient id="linear-gradient-61" x1="209.35" y1="1172.17" x2="225.18" y2="1172.17" xlink:href="#linear-gradient"/><linearGradient id="linear-gradient-62" x1="243.26" y1="1152.59" x2="259.09" y2="1152.59" xlink:href="#linear-gradient"/><linearGradient id="linear-gradient-63" x1="277.17" y1="1133.01" x2="293" y2="1133.01" xlink:href="#linear-gradient"/><linearGradient id="linear-gradient-64" x1="311.08" y1="1113.44" x2="326.91" y2="1113.44" xlink:href="#linear-gradient"/><linearGradient id="linear-gradient-65" x1="344.99" y1="1093.86" x2="360.82" y2="1093.86" xlink:href="#linear-gradient"/><linearGradient id="linear-gradient-66" x1="190.06" y1="1197.19" x2="380.11" y2="1197.19" xlink:href="#linear-gradient"/><linearGradient id="New_Gradient_Swatch_copy_25-2" x1="59.59" y1="1019.83" x2="699.78" y2="-546.16" xlink:href="#New_Gradient_Swatch_copy_25"/><linearGradient id="linear-gradient-67" x1="154.94" y1="772.86" x2="170.76" y2="772.86" xlink:href="#linear-gradient"/><linearGradient id="linear-gradient-68" x1="121.03" y1="753.28" x2="136.85" y2="753.28" xlink:href="#linear-gradient"/><linearGradient id="linear-gradient-69" x1="87.12" y1="733.7" x2="102.94" y2="733.7" xlink:href="#linear-gradient"/><linearGradient id="linear-gradient-70" x1="53.21" y1="714.12" x2="69.03" y2="714.12" xlink:href="#linear-gradient"/><linearGradient id="linear-gradient-71" x1="19.3" y1="694.55" x2="35.12" y2="694.55" xlink:href="#linear-gradient"/><linearGradient id="linear-gradient-72" x1="154.94" y1="806.13" x2="170.76" y2="806.13" xlink:href="#linear-gradient"/><linearGradient id="linear-gradient-73" x1="121.03" y1="786.56" x2="136.85" y2="786.56" xlink:href="#linear-gradient"/><linearGradient id="linear-gradient-74" x1="87.12" y1="766.98" x2="102.94" y2="766.98" xlink:href="#linear-gradient"/><linearGradient id="linear-gradient-75" x1="53.21" y1="747.4" x2="69.03" y2="747.4" xlink:href="#linear-gradient"/><linearGradient id="linear-gradient-76" x1="19.3" y1="727.82" x2="35.12" y2="727.82" xlink:href="#linear-gradient"/><linearGradient id="linear-gradient-77" x1="154.94" y1="839.41" x2="170.76" y2="839.41" xlink:href="#linear-gradient"/><linearGradient id="linear-gradient-78" x1="121.03" y1="819.83" x2="136.85" y2="819.83" xlink:href="#linear-gradient"/><linearGradient id="linear-gradient-79" x1="87.12" y1="800.25" x2="102.94" y2="800.25" xlink:href="#linear-gradient"/><linearGradient id="linear-gradient-80" x1="53.21" y1="780.68" x2="69.03" y2="780.68" xlink:href="#linear-gradient"/><linearGradient id="linear-gradient-81" x1="19.3" y1="761.1" x2="35.12" y2="761.1" xlink:href="#linear-gradient"/><linearGradient id="linear-gradient-82" x1="154.94" y1="872.69" x2="170.76" y2="872.69" xlink:href="#linear-gradient"/><linearGradient id="linear-gradient-83" x1="121.03" y1="853.11" x2="136.85" y2="853.11" xlink:href="#linear-gradient"/><linearGradient id="linear-gradient-84" x1="87.12" y1="833.53" x2="102.94" y2="833.53" xlink:href="#linear-gradient"/><linearGradient id="linear-gradient-85" x1="53.21" y1="813.95" x2="69.03" y2="813.95" xlink:href="#linear-gradient"/><linearGradient id="linear-gradient-86" x1="19.3" y1="794.37" x2="35.12" y2="794.37" xlink:href="#linear-gradient"/><linearGradient id="linear-gradient-87" x1="154.94" y1="905.96" x2="170.76" y2="905.96" xlink:href="#linear-gradient"/><linearGradient id="linear-gradient-88" x1="121.03" y1="886.38" x2="136.85" y2="886.38" xlink:href="#linear-gradient"/><linearGradient id="linear-gradient-89" x1="87.12" y1="866.81" x2="102.94" y2="866.81" xlink:href="#linear-gradient"/><linearGradient id="linear-gradient-90" x1="53.21" y1="847.23" x2="69.03" y2="847.23" xlink:href="#linear-gradient"/><linearGradient id="linear-gradient-91" x1="19.3" y1="827.65" x2="35.12" y2="827.65" xlink:href="#linear-gradient"/><linearGradient id="linear-gradient-92" x1="154.94" y1="939.24" x2="170.76" y2="939.24" xlink:href="#linear-gradient"/><linearGradient id="linear-gradient-93" x1="121.03" y1="919.66" x2="136.85" y2="919.66" xlink:href="#linear-gradient"/><linearGradient id="linear-gradient-94" x1="87.12" y1="900.08" x2="102.94" y2="900.08" xlink:href="#linear-gradient"/><linearGradient id="linear-gradient-95" x1="53.21" y1="880.5" x2="69.03" y2="880.5" xlink:href="#linear-gradient"/><linearGradient id="linear-gradient-96" x1="19.3" y1="860.93" x2="35.12" y2="860.93" xlink:href="#linear-gradient"/><linearGradient id="linear-gradient-97" x1="154.94" y1="972.51" x2="170.76" y2="972.51" xlink:href="#linear-gradient"/><linearGradient id="linear-gradient-98" x1="121.03" y1="952.94" x2="136.85" y2="952.94" xlink:href="#linear-gradient"/><linearGradient id="linear-gradient-99" x1="87.12" y1="933.36" x2="102.94" y2="933.36" xlink:href="#linear-gradient"/><linearGradient id="linear-gradient-100" x1="53.21" y1="913.78" x2="69.03" y2="913.78" xlink:href="#linear-gradient"/><linearGradient id="linear-gradient-101" x1="19.3" y1="894.2" x2="35.12" y2="894.2" xlink:href="#linear-gradient"/><linearGradient id="linear-gradient-102" x1="154.94" y1="1005.79" x2="170.76" y2="1005.79" xlink:href="#linear-gradient"/><linearGradient id="linear-gradient-103" x1="121.03" y1="986.21" x2="136.85" y2="986.21" xlink:href="#linear-gradient"/><linearGradient id="linear-gradient-104" x1="87.12" y1="966.63" x2="102.94" y2="966.63" xlink:href="#linear-gradient"/><linearGradient id="linear-gradient-105" x1="53.21" y1="947.06" x2="69.03" y2="947.06" xlink:href="#linear-gradient"/><linearGradient id="linear-gradient-106" x1="19.3" y1="927.48" x2="35.12" y2="927.48" xlink:href="#linear-gradient"/><linearGradient id="linear-gradient-107" x1="154.94" y1="1039.07" x2="170.76" y2="1039.07" xlink:href="#linear-gradient"/><linearGradient id="linear-gradient-108" x1="121.03" y1="1019.49" x2="136.85" y2="1019.49" xlink:href="#linear-gradient"/><linearGradient id="linear-gradient-109" x1="87.12" y1="999.91" x2="102.94" y2="999.91" xlink:href="#linear-gradient"/><linearGradient id="linear-gradient-110" x1="53.21" y1="980.33" x2="69.03" y2="980.33" xlink:href="#linear-gradient"/><linearGradient id="linear-gradient-111" x1="19.3" y1="960.75" x2="35.12" y2="960.75" xlink:href="#linear-gradient"/><linearGradient id="linear-gradient-112" x1="154.94" y1="1072.34" x2="170.76" y2="1072.34" xlink:href="#linear-gradient"/><linearGradient id="linear-gradient-113" x1="121.03" y1="1052.76" x2="136.85" y2="1052.76" xlink:href="#linear-gradient"/><linearGradient id="linear-gradient-114" x1="87.12" y1="1033.19" x2="102.94" y2="1033.19" xlink:href="#linear-gradient"/><linearGradient id="linear-gradient-115" x1="53.21" y1="1013.61" x2="69.03" y2="1013.61" xlink:href="#linear-gradient"/><linearGradient id="linear-gradient-116" x1="19.3" y1="994.03" x2="35.12" y2="994.03" xlink:href="#linear-gradient"/><linearGradient id="linear-gradient-117" x1="154.94" y1="1105.62" x2="170.76" y2="1105.62" xlink:href="#linear-gradient"/><linearGradient id="linear-gradient-118" x1="121.03" y1="1086.04" x2="136.85" y2="1086.04" xlink:href="#linear-gradient"/><linearGradient id="linear-gradient-119" x1="87.12" y1="1066.46" x2="102.94" y2="1066.46" xlink:href="#linear-gradient"/><linearGradient id="linear-gradient-120" x1="53.21" y1="1046.88" x2="69.03" y2="1046.88" xlink:href="#linear-gradient"/><linearGradient id="linear-gradient-121" x1="19.3" y1="1027.31" x2="35.12" y2="1027.31" xlink:href="#linear-gradient"/><linearGradient id="linear-gradient-122" x1="154.94" y1="1138.89" x2="170.76" y2="1138.89" xlink:href="#linear-gradient"/><linearGradient id="linear-gradient-123" x1="121.03" y1="1119.32" x2="136.85" y2="1119.32" xlink:href="#linear-gradient"/><linearGradient id="linear-gradient-124" x1="87.12" y1="1099.74" x2="102.94" y2="1099.74" xlink:href="#linear-gradient"/><linearGradient id="linear-gradient-125" x1="53.21" y1="1080.16" x2="69.03" y2="1080.16" xlink:href="#linear-gradient"/><linearGradient id="linear-gradient-126" x1="19.3" y1="1060.58" x2="35.12" y2="1060.58" xlink:href="#linear-gradient"/><linearGradient id="linear-gradient-127" x1="154.94" y1="1172.17" x2="170.76" y2="1172.17" xlink:href="#linear-gradient"/><linearGradient id="linear-gradient-128" x1="121.03" y1="1152.59" x2="136.85" y2="1152.59" xlink:href="#linear-gradient"/><linearGradient id="linear-gradient-129" x1="87.12" y1="1133.01" x2="102.94" y2="1133.01" xlink:href="#linear-gradient"/><linearGradient id="linear-gradient-130" x1="53.21" y1="1113.44" x2="69.03" y2="1113.44" xlink:href="#linear-gradient"/><linearGradient id="linear-gradient-131" x1="19.3" y1="1093.86" x2="35.12" y2="1093.86" xlink:href="#linear-gradient"/><linearGradient id="linear-gradient-132" x1="0" y1="1197.19" x2="190.06" y2="1197.19" xlink:href="#linear-gradient"/><linearGradient id="New_Gradient_Swatch_copy_25-3" x1="-94.36" y1="883.02" x2="367.74" y2="478.99" xlink:href="#New_Gradient_Swatch_copy_25"/><linearGradient id="New_Gradient_Swatch_copy_25-4" x1="-59.17" y1="1861.8" x2="410.3" y2="167.76" xlink:href="#New_Gradient_Swatch_copy_25"/><linearGradient id="New_Gradient_Swatch_copy_25-5" x1="-29.78" y1="983.3" x2="610.41" y2="-582.7" xlink:href="#New_Gradient_Swatch_copy_25"/><linearGradient id="New_Gradient_Swatch_copy_25-6" x1="-161.34" y1="975.57" x2="355.57" y2="388.49" xlink:href="#New_Gradient_Swatch_copy_25"/><linearGradient id="New_Gradient_Swatch_copy_25-7" x1="-74.01" y1="1639.25" x2="314.46" y2="237.48" xlink:href="#New_Gradient_Swatch_copy_25"/><linearGradient id="Gradiente_sem_nome_33" x1="451.93" y1="1256.06" x2="451.93" y2="901.5" gradientTransform="matrix(0.87, -0.5, 0, 1.15, -160.37, -603.52)" gradientUnits="userSpaceOnUse"><stop offset="0" stop-color="#006581"/><stop offset="0.19" stop-color="#096d89"/><stop offset="0.49" stop-color="#21839f"/><stop offset="0.88" stop-color="#47a7c2"/><stop offset="1" stop-color="#55b4ce"/></linearGradient><linearGradient id="Gradiente_sem_nome_33-2" x1="451.93" y1="1355.31" x2="451.93" y2="884.62" xlink:href="#Gradiente_sem_nome_33"/><linearGradient id="Gradiente_sem_nome_33-3" x1="494.18" y1="1355.41" x2="494.18" y2="884.73" xlink:href="#Gradiente_sem_nome_33"/><linearGradient id="Gradiente_sem_nome_33-4" x1="494.18" y1="1256.17" x2="494.18" y2="901.61" xlink:href="#Gradiente_sem_nome_33"/><linearGradient id="Gradiente_sem_nome_33-5" x1="536.43" y1="1256.28" x2="536.43" y2="901.71" xlink:href="#Gradiente_sem_nome_33"/><linearGradient id="Gradiente_sem_nome_33-6" x1="536.43" y1="1355.52" x2="536.43" y2="884.83" xlink:href="#Gradiente_sem_nome_33"/><linearGradient id="New_Gradient_Swatch_copy_25-8" x1="-80.56" y1="878.92" x2="428.55" y2="-366.45" xlink:href="#New_Gradient_Swatch_copy_25"/><linearGradient id="New_Gradient_Swatch_copy_25-9" x1="-129.05" y1="510.89" x2="340.36" y2="-22.24" xlink:href="#New_Gradient_Swatch_copy_25"/><linearGradient id="New_Gradient_Swatch_copy_25-10" x1="455.13" y1="953.6" x2="504.56" y2="786.36" gradientTransform="matrix(0.87, -0.5, 0, 1.15, -160.37, -603.52)" xlink:href="#New_Gradient_Swatch_copy_25"/><linearGradient id="New_Gradient_Swatch_copy_25-11" x1="107.55" y1="201.88" x2="210.6" y2="-18.33" xlink:href="#New_Gradient_Swatch_copy_25"/><linearGradient id="New_Gradient_Swatch_copy_25-12" x1="-75.91" y1="406.73" x2="315.33" y2="-37.62" xlink:href="#New_Gradient_Swatch_copy_25"/><linearGradient id="New_Gradient_Swatch_copy_25-13" x1="378.91" y1="871.82" x2="479" y2="682.31" gradientTransform="matrix(0.87, -0.5, 0, 1.15, -143.37, -518.45)" xlink:href="#New_Gradient_Swatch_copy_25"/><linearGradient id="New_Gradient_Swatch_copy_25-14" x1="109.14" y1="151.49" x2="237.52" y2="-24.09" xlink:href="#New_Gradient_Swatch_copy_25"/><linearGradient id="New_Gradient_Swatch_copy_25-15" x1="25.66" y1="197.06" x2="316.81" y2="-41.41" xlink:href="#New_Gradient_Swatch_copy_25"/><linearGradient id="linear-gradient-134" x1="139.1" y1="62.41" x2="242" y2="62.41" xlink:href="#linear-gradient"/><linearGradient id="linear-gradient-135" x1="161.83" y1="62.41" x2="219.27" y2="62.41" xlink:href="#linear-gradient"/></defs><g id="Layer_2" data-name="Layer 2"><g id="_Layer_" data-name="&lt;Layer&gt;"><polygon class="cls-1" points="380.11 1122.23 190.06 1231.96 190.06 744.08 380.11 634.35 380.11 1122.23"/><polygon class="cls-2" points="225.18 782.56 209.35 791.69 209.35 763.16 225.18 754.02 225.18 782.56"/><polygon class="cls-3" points="259.09 762.98 243.26 772.12 243.26 743.58 259.09 734.45 259.09 762.98"/><polygon class="cls-4" points="293 743.4 277.17 752.54 277.17 724 293 714.87 293 743.4"/><polygon class="cls-5" points="326.91 723.82 311.08 732.96 311.08 704.42 326.91 695.29 326.91 723.82"/><polygon class="cls-6" points="360.82 704.25 344.99 713.38 344.99 684.85 360.82 675.71 360.82 704.25"/><polygon class="cls-7" points="225.18 815.83 209.35 824.97 209.35 796.43 225.18 787.3 225.18 815.83"/><polygon class="cls-8" points="259.09 796.25 243.26 805.39 243.26 776.86 259.09 767.72 259.09 796.25"/><polygon class="cls-9" points="293 776.68 277.17 785.81 277.17 757.28 293 748.14 293 776.68"/><polygon class="cls-10" points="326.91 757.1 311.08 766.24 311.08 737.7 326.91 728.57 326.91 757.1"/><polygon class="cls-11" points="360.82 737.52 344.99 746.66 344.99 718.12 360.82 708.99 360.82 737.52"/><polygon class="cls-12" points="225.18 849.11 209.35 858.25 209.35 829.71 225.18 820.57 225.18 849.11"/><polygon class="cls-13" points="259.09 829.53 243.26 838.67 243.26 810.13 259.09 801 259.09 829.53"/><polygon class="cls-14" points="293 809.95 277.17 819.09 277.17 790.55 293 781.42 293 809.95"/><polygon class="cls-15" points="326.91 790.38 311.08 799.51 311.08 770.98 326.91 761.84 326.91 790.38"/><polygon class="cls-16" points="360.82 770.8 344.99 779.93 344.99 751.4 360.82 742.26 360.82 770.8"/><polygon class="cls-17" points="225.18 882.38 209.35 891.52 209.35 862.99 225.18 853.85 225.18 882.38"/><polygon class="cls-18" points="259.09 862.81 243.26 871.94 243.26 843.41 259.09 834.27 259.09 862.81"/><polygon class="cls-19" points="293 843.23 277.17 852.37 277.17 823.83 293 814.7 293 843.23"/><polygon class="cls-20" points="326.91 823.65 311.08 832.79 311.08 804.25 326.91 795.12 326.91 823.65"/><polygon class="cls-21" points="360.82 804.07 344.99 813.21 344.99 784.67 360.82 775.54 360.82 804.07"/><polygon class="cls-22" points="225.18 915.66 209.35 924.8 209.35 896.26 225.18 887.13 225.18 915.66"/><polygon class="cls-23" points="259.09 896.08 243.26 905.22 243.26 876.68 259.09 867.55 259.09 896.08"/><polygon class="cls-24" points="293 876.5 277.17 885.64 277.17 857.11 293 847.97 293 876.5"/><polygon class="cls-25" points="326.91 856.93 311.08 866.06 311.08 837.53 326.91 828.39 326.91 856.93"/><polygon class="cls-26" points="360.82 837.35 344.99 846.49 344.99 817.95 360.82 808.82 360.82 837.35"/><polygon class="cls-27" points="225.18 948.94 209.35 958.07 209.35 929.54 225.18 920.4 225.18 948.94"/><polygon class="cls-28" points="259.09 929.36 243.26 938.5 243.26 909.96 259.09 900.82 259.09 929.36"/><polygon class="cls-29" points="293 909.78 277.17 918.92 277.17 890.38 293 881.25 293 909.78"/><polygon class="cls-30" points="326.91 890.2 311.08 899.34 311.08 870.8 326.91 861.67 326.91 890.2"/><polygon class="cls-31" points="360.82 870.63 344.99 879.76 344.99 851.23 360.82 842.09 360.82 870.63"/><polygon class="cls-32" points="225.18 982.21 209.35 991.35 209.35 962.81 225.18 953.68 225.18 982.21"/><polygon class="cls-33" points="259.09 962.63 243.26 971.77 243.26 943.24 259.09 934.1 259.09 962.63"/><polygon class="cls-34" points="293 943.06 277.17 952.19 277.17 923.66 293 914.52 293 943.06"/><polygon class="cls-35" points="326.91 923.48 311.08 932.62 311.08 904.08 326.91 894.94 326.91 923.48"/><polygon class="cls-36" points="360.82 903.9 344.99 913.04 344.99 884.5 360.82 875.37 360.82 903.9"/><polygon class="cls-37" points="225.18 1015.49 209.35 1024.63 209.35 996.09 225.18 986.95 225.18 1015.49"/><polygon class="cls-38" points="259.09 995.91 243.26 1005.05 243.26 976.51 259.09 967.38 259.09 995.91"/><polygon class="cls-39" points="293 976.33 277.17 985.47 277.17 956.93 293 947.8 293 976.33"/><polygon class="cls-40" points="326.91 956.75 311.08 965.89 311.08 937.36 326.91 928.22 326.91 956.75"/><polygon class="cls-41" points="360.82 937.18 344.99 946.31 344.99 917.78 360.82 908.64 360.82 937.18"/><polygon class="cls-42" points="225.18 1048.77 209.35 1057.9 209.35 1029.37 225.18 1020.23 225.18 1048.77"/><polygon class="cls-43" points="259.09 1029.19 243.26 1038.32 243.26 1009.79 259.09 1000.65 259.09 1029.19"/><polygon class="cls-44" points="293 1009.61 277.17 1018.75 277.17 990.21 293 981.07 293 1009.61"/><polygon class="cls-45" points="326.91 990.03 311.08 999.17 311.08 970.63 326.91 961.5 326.91 990.03"/><polygon class="cls-46" points="360.82 970.45 344.99 979.59 344.99 951.05 360.82 941.92 360.82 970.45"/><polygon class="cls-47" points="225.18 1082.04 209.35 1091.18 209.35 1062.64 225.18 1053.51 225.18 1082.04"/><polygon class="cls-48" points="259.09 1062.46 243.26 1071.6 243.26 1043.06 259.09 1033.93 259.09 1062.46"/><polygon class="cls-49" points="293 1042.88 277.17 1052.02 277.17 1023.49 293 1014.35 293 1042.88"/><polygon class="cls-50" points="326.91 1023.31 311.08 1032.44 311.08 1003.91 326.91 994.77 326.91 1023.31"/><polygon class="cls-51" points="360.82 1003.73 344.99 1012.87 344.99 984.33 360.82 975.2 360.82 1003.73"/><polygon class="cls-52" points="225.18 1115.32 209.35 1124.45 209.35 1095.92 225.18 1086.78 225.18 1115.32"/><polygon class="cls-53" points="259.09 1095.74 243.26 1104.88 243.26 1076.34 259.09 1067.2 259.09 1095.74"/><polygon class="cls-54" points="293 1076.16 277.17 1085.3 277.17 1056.76 293 1047.63 293 1076.16"/><polygon class="cls-55" points="326.91 1056.58 311.08 1065.72 311.08 1037.18 326.91 1028.05 326.91 1056.58"/><polygon class="cls-56" points="360.82 1037.01 344.99 1046.14 344.99 1017.61 360.82 1008.47 360.82 1037.01"/><polygon class="cls-57" points="225.18 1148.59 209.35 1157.73 209.35 1129.19 225.18 1120.06 225.18 1148.59"/><polygon class="cls-58" points="259.09 1129.02 243.26 1138.15 243.26 1109.62 259.09 1100.48 259.09 1129.02"/><polygon class="cls-59" points="293 1109.44 277.17 1118.57 277.17 1090.04 293 1080.9 293 1109.44"/><polygon class="cls-60" points="326.91 1089.86 311.08 1098.99 311.08 1070.46 326.91 1061.33 326.91 1089.86"/><polygon class="cls-61" points="360.82 1070.28 344.99 1079.42 344.99 1050.88 360.82 1041.75 360.82 1070.28"/><polygon class="cls-62" points="225.18 1181.87 209.35 1191 209.35 1162.47 225.18 1153.33 225.18 1181.87"/><polygon class="cls-63" points="259.09 1162.29 243.26 1171.43 243.26 1142.89 259.09 1133.76 259.09 1162.29"/><polygon class="cls-64" points="293 1142.71 277.17 1151.85 277.17 1123.31 293 1114.18 293 1142.71"/><polygon class="cls-65" points="326.91 1123.13 311.08 1132.27 311.08 1103.74 326.91 1094.6 326.91 1123.13"/><polygon class="cls-66" points="360.82 1103.56 344.99 1112.69 344.99 1084.16 360.82 1075.02 360.82 1103.56"/><polygon class="cls-67" points="380.11 1162.42 190.06 1272.15 190.06 1231.96 380.11 1122.23 380.11 1162.42"/><polygon class="cls-68" points="0 1122.23 190.06 1231.96 190.06 744.08 0 634.35 0 1122.23"/><polygon class="cls-69" points="154.94 782.56 170.76 791.69 170.76 763.16 154.94 754.02 154.94 782.56"/><polygon class="cls-70" points="121.03 762.98 136.85 772.12 136.85 743.58 121.03 734.45 121.03 762.98"/><polygon class="cls-71" points="87.12 743.4 102.94 752.54 102.94 724 87.12 714.87 87.12 743.4"/><polygon class="cls-72" points="53.21 723.82 69.03 732.96 69.03 704.42 53.21 695.29 53.21 723.82"/><polygon class="cls-73" points="19.3 704.25 35.12 713.38 35.12 684.85 19.3 675.71 19.3 704.25"/><polygon class="cls-74" points="154.94 815.83 170.76 824.97 170.76 796.43 154.94 787.3 154.94 815.83"/><polygon class="cls-75" points="121.03 796.25 136.85 805.39 136.85 776.86 121.03 767.72 121.03 796.25"/><polygon class="cls-76" points="87.12 776.68 102.94 785.81 102.94 757.28 87.12 748.14 87.12 776.68"/><polygon class="cls-77" points="53.21 757.1 69.03 766.24 69.03 737.7 53.21 728.57 53.21 757.1"/><polygon class="cls-78" points="19.3 737.52 35.12 746.66 35.12 718.12 19.3 708.99 19.3 737.52"/><polygon class="cls-79" points="154.94 849.11 170.76 858.25 170.76 829.71 154.94 820.57 154.94 849.11"/><polygon class="cls-80" points="121.03 829.53 136.85 838.67 136.85 810.13 121.03 801 121.03 829.53"/><polygon class="cls-81" points="87.12 809.95 102.94 819.09 102.94 790.55 87.12 781.42 87.12 809.95"/><polygon class="cls-82" points="53.21 790.38 69.03 799.51 69.03 770.98 53.21 761.84 53.21 790.38"/><polygon class="cls-83" points="19.3 770.8 35.12 779.93 35.12 751.4 19.3 742.26 19.3 770.8"/><polygon class="cls-84" points="154.94 882.38 170.76 891.52 170.76 862.99 154.94 853.85 154.94 882.38"/><polygon class="cls-85" points="121.03 862.81 136.85 871.94 136.85 843.41 121.03 834.27 121.03 862.81"/><polygon class="cls-86" points="87.12 843.23 102.94 852.37 102.94 823.83 87.12 814.7 87.12 843.23"/><polygon class="cls-87" points="53.21 823.65 69.03 832.79 69.03 804.25 53.21 795.12 53.21 823.65"/><polygon class="cls-88" points="19.3 804.07 35.12 813.21 35.12 784.67 19.3 775.54 19.3 804.07"/><polygon class="cls-89" points="154.94 915.66 170.76 924.8 170.76 896.26 154.94 887.13 154.94 915.66"/><polygon class="cls-90" points="121.03 896.08 136.85 905.22 136.85 876.68 121.03 867.55 121.03 896.08"/><polygon class="cls-91" points="87.12 876.5 102.94 885.64 102.94 857.11 87.12 847.97 87.12 876.5"/><polygon class="cls-92" points="53.21 856.93 69.03 866.06 69.03 837.53 53.21 828.39 53.21 856.93"/><polygon class="cls-93" points="19.3 837.35 35.12 846.49 35.12 817.95 19.3 808.82 19.3 837.35"/><polygon class="cls-94" points="154.94 948.94 170.76 958.07 170.76 929.54 154.94 920.4 154.94 948.94"/><polygon class="cls-95" points="121.03 929.36 136.85 938.5 136.85 909.96 121.03 900.82 121.03 929.36"/><polygon class="cls-96" points="87.12 909.78 102.94 918.92 102.94 890.38 87.12 881.25 87.12 909.78"/><polygon class="cls-97" points="53.21 890.2 69.03 899.34 69.03 870.8 53.21 861.67 53.21 890.2"/><polygon class="cls-98" points="19.3 870.63 35.12 879.76 35.12 851.23 19.3 842.09 19.3 870.63"/><polygon class="cls-99" points="154.94 982.21 170.76 991.35 170.76 962.81 154.94 953.68 154.94 982.21"/><polygon class="cls-100" points="121.03 962.63 136.85 971.77 136.85 943.24 121.03 934.1 121.03 962.63"/><polygon class="cls-101" points="87.12 943.06 102.94 952.19 102.94 923.66 87.12 914.52 87.12 943.06"/><polygon class="cls-102" points="53.21 923.48 69.03 932.62 69.03 904.08 53.21 894.94 53.21 923.48"/><polygon class="cls-103" points="19.3 903.9 35.12 913.04 35.12 884.5 19.3 875.37 19.3 903.9"/><polygon class="cls-104" points="154.94 1015.49 170.76 1024.63 170.76 996.09 154.94 986.95 154.94 1015.49"/><polygon class="cls-105" points="121.03 995.91 136.85 1005.05 136.85 976.51 121.03 967.38 121.03 995.91"/><polygon class="cls-106" points="87.12 976.33 102.94 985.47 102.94 956.93 87.12 947.8 87.12 976.33"/><polygon class="cls-107" points="53.21 956.75 69.03 965.89 69.03 937.36 53.21 928.22 53.21 956.75"/><polygon class="cls-108" points="19.3 937.18 35.12 946.31 35.12 917.78 19.3 908.64 19.3 937.18"/><polygon class="cls-109" points="154.94 1048.77 170.76 1057.9 170.76 1029.37 154.94 1020.23 154.94 1048.77"/><polygon class="cls-110" points="121.03 1029.19 136.85 1038.32 136.85 1009.79 121.03 1000.65 121.03 1029.19"/><polygon class="cls-111" points="87.12 1009.61 102.94 1018.75 102.94 990.21 87.12 981.07 87.12 1009.61"/><polygon class="cls-112" points="53.21 990.03 69.03 999.17 69.03 970.63 53.21 961.5 53.21 990.03"/><polygon class="cls-113" points="19.3 970.45 35.12 979.59 35.12 951.05 19.3 941.92 19.3 970.45"/><polygon class="cls-114" points="154.94 1082.04 170.76 1091.18 170.76 1062.64 154.94 1053.51 154.94 1082.04"/><polygon class="cls-115" points="121.03 1062.46 136.85 1071.6 136.85 1043.06 121.03 1033.93 121.03 1062.46"/><polygon class="cls-116" points="87.12 1042.88 102.94 1052.02 102.94 1023.49 87.12 1014.35 87.12 1042.88"/><polygon class="cls-117" points="53.21 1023.31 69.03 1032.44 69.03 1003.91 53.21 994.77 53.21 1023.31"/><polygon class="cls-118" points="19.3 1003.73 35.12 1012.87 35.12 984.33 19.3 975.2 19.3 1003.73"/><polygon class="cls-119" points="154.94 1115.32 170.76 1124.45 170.76 1095.92 154.94 1086.78 154.94 1115.32"/><polygon class="cls-120" points="121.03 1095.74 136.85 1104.88 136.85 1076.34 121.03 1067.2 121.03 1095.74"/><polygon class="cls-121" points="87.12 1076.16 102.94 1085.3 102.94 1056.76 87.12 1047.63 87.12 1076.16"/><polygon class="cls-122" points="53.21 1056.58 69.03 1065.72 69.03 1037.18 53.21 1028.05 53.21 1056.58"/><polygon class="cls-123" points="19.3 1037.01 35.12 1046.14 35.12 1017.61 19.3 1008.47 19.3 1037.01"/><polygon class="cls-124" points="154.94 1148.59 170.76 1157.73 170.76 1129.19 154.94 1120.06 154.94 1148.59"/><polygon class="cls-125" points="121.03 1129.02 136.85 1138.15 136.85 1109.62 121.03 1100.48 121.03 1129.02"/><polygon class="cls-126" points="87.12 1109.44 102.94 1118.57 102.94 1090.04 87.12 1080.9 87.12 1109.44"/><polygon class="cls-127" points="53.21 1089.86 69.03 1098.99 69.03 1070.46 53.21 1061.33 53.21 1089.86"/><polygon class="cls-128" points="19.3 1070.28 35.12 1079.42 35.12 1050.88 19.3 1041.75 19.3 1070.28"/><polygon class="cls-129" points="154.94 1181.87 170.76 1191 170.76 1162.47 154.94 1153.33 154.94 1181.87"/><polygon class="cls-130" points="121.03 1162.29 136.85 1171.43 136.85 1142.89 121.03 1133.76 121.03 1162.29"/><polygon class="cls-131" points="87.12 1142.71 102.94 1151.85 102.94 1123.31 87.12 1114.18 87.12 1142.71"/><polygon class="cls-132" points="53.21 1123.13 69.03 1132.27 69.03 1103.74 53.21 1094.6 53.21 1123.13"/><polygon class="cls-133" points="19.3 1103.56 35.12 1112.69 35.12 1084.16 19.3 1075.02 19.3 1103.56"/><polygon class="cls-134" points="0 1162.42 190.06 1272.15 190.06 1231.96 0 1122.23 0 1162.42"/><polygon class="cls-135" points="380.11 634.35 190.06 524.62 0 634.35 190.06 744.08 380.11 634.35"/><polygon class="cls-2" points="225.18 782.56 209.35 791.69 209.35 763.16 225.18 754.02 225.18 782.56"/><polygon class="cls-136" points="360.82 634.35 190.06 732.35 190.06 674.48 360.82 576.47 360.82 634.35"/><polygon class="cls-137" points="19.3 634.35 190.06 732.35 190.06 674.48 19.3 576.47 19.3 634.35"/><polygon class="cls-138" points="190.06 478.46 360.82 576.47 190.06 674.48 19.3 576.47 190.06 478.46"/><polygon class="cls-139" points="345.13 575.75 190.06 664.75 190.06 237.47 345.13 148.47 345.13 575.75"/><polygon class="cls-140" points="223.19 634.35 238.82 625.37 238.82 266.78 223.19 275.75 223.19 634.35"/><polygon class="cls-141" points="238.82 223.13 223.19 232.11 223.19 260.11 238.82 251.14 238.82 223.13"/><polygon class="cls-142" points="275.41 202.13 259.78 211.11 259.78 239.11 275.41 230.14 275.41 202.13"/><polygon class="cls-143" points="259.78 613.35 275.41 604.38 275.41 245.78 259.78 254.75 259.78 613.35"/><polygon class="cls-144" points="296.36 592.35 311.99 583.38 311.99 224.78 296.36 233.76 296.36 592.35"/><polygon class="cls-145" points="311.99 181.14 296.36 190.11 296.36 218.11 311.99 209.14 311.99 181.14"/><polygon class="cls-146" points="34.99 575.75 190.06 664.75 190.06 237.47 34.99 148.47 34.99 575.75"/><polygon class="cls-147" points="190.06 59.47 345.13 148.47 190.06 237.47 34.99 148.47 190.06 59.47"/><polygon class="cls-148" points="319.3 148.47 190.06 222.65 190.06 178.84 319.3 104.66 319.3 148.47"/><polygon class="cls-149" points="60.81 148.47 190.06 222.65 190.06 178.84 60.81 104.66 60.81 148.47"/><polygon class="cls-150" points="190.06 30.48 319.3 104.66 190.06 178.84 60.81 104.66 190.06 30.48"/><polygon class="cls-151" points="298.15 104.66 190.06 167.07 190.06 124.81 298.15 62.41 298.15 104.66"/><polygon class="cls-152" points="81.97 104.66 190.06 167.07 190.06 124.81 81.97 62.41 81.97 104.66"/><polygon class="cls-153" points="190.06 0 81.97 62.41 190.06 124.81 298.15 62.41 190.06 0"/><path class="cls-154" d="M190.24,93c-13,0-25.88-2.84-35.72-8.52S139.1,71,139.1,62.58s5.55-16.32,15.64-22.14c19.87-11.47,52.1-11.53,71.84-.13C236.52,46.05,242,53.84,242,62.23s-5.56,16.32-15.64,22.15S203.3,93,190.24,93Zm.62-56.81c-12.25,0-24.53,2.71-33.88,8.11-8.64,5-13.4,11.47-13.41,18.26s4.69,13.13,13.19,18c18.51,10.69,48.72,10.63,67.36-.13,8.64-5,13.4-11.47,13.4-18.26s-4.68-13.13-13.18-18C215.12,38.87,203,36.21,190.86,36.21Z"/><path class="cls-155" d="M188.42,45.82l30.85,17.81-6.46,3.74-13.29-7.68-13.67,7.9,13.29,7.67L192.68,79,161.83,61.18l6.46-3.73L181.38,65l13.68-7.89L182,49.55Z"/></g></g></svg>