<svg xmlns="http://www.w3.org/2000/svg" xmlns:xlink="http://www.w3.org/1999/xlink" viewBox="0 0 419.09 653.94"><defs><style>.cls-1{fill:url(#New_Gradient_Swatch_copy_25);}.cls-2{fill:url(#New_Gradient_Swatch_copy_25-2);}.cls-3{fill:url(#New_Gradient_Swatch_copy_25-3);}.cls-4{fill:url(#New_Gradient_Swatch_copy_25-4);}.cls-5{fill:url(#New_Gradient_Swatch_copy_25-5);}.cls-6{fill:url(#linear-gradient);}.cls-7{fill:url(#New_Gradient_Swatch_copy_25-6);}.cls-8{fill:url(#New_Gradient_Swatch_copy_25-7);}.cls-9{fill:url(#New_Gradient_Swatch_copy_25-8);}.cls-10{fill:url(#New_Gradient_Swatch_copy_25-9);}.cls-11{fill:url(#New_Gradient_Swatch_copy_25-10);}.cls-12{fill:url(#New_Gradient_Swatch_copy_25-11);}.cls-13{fill:url(#New_Gradient_Swatch_copy_25-12);}.cls-14{fill:url(#New_Gradient_Swatch_copy_25-13);}.cls-15{fill:url(#New_Gradient_Swatch_copy_25-14);}.cls-16{fill:url(#New_Gradient_Swatch_copy_25-15);}.cls-17{fill:#000d16;}.cls-18{fill:url(#linear-gradient-2);}.cls-19{fill:url(#linear-gradient-3);}.cls-20{fill:#000305;}.cls-21{fill:#006581;}.cls-22{fill:url(#linear-gradient-4);}.cls-23{fill:url(#linear-gradient-5);}.cls-24{fill:url(#linear-gradient-6);}.cls-25{fill:url(#linear-gradient-7);}.cls-26{fill:url(#New_Gradient_Swatch_copy_25-16);}.cls-27{fill:url(#New_Gradient_Swatch_copy_25-17);}.cls-28{fill:url(#New_Gradient_Swatch_copy_25-18);}.cls-29{fill:url(#New_Gradient_Swatch_copy_25-19);}.cls-30{fill:url(#New_Gradient_Swatch_copy_25-20);}.cls-31{fill:url(#New_Gradient_Swatch_copy_25-21);}.cls-32{fill:url(#New_Gradient_Swatch_copy_25-22);}.cls-33{fill:url(#New_Gradient_Swatch_copy_25-23);}.cls-34{fill:none;stroke:#ff8384;stroke-linecap:round;stroke-miterlimit:10;stroke-width:0.47px;}.cls-35{fill:#ff8384;}.cls-36{fill:url(#linear-gradient-8);}.cls-37{fill:url(#linear-gradient-9);}.cls-38{fill:url(#New_Gradient_Swatch_copy_25-24);}.cls-39{fill:url(#New_Gradient_Swatch_copy_25-25);}.cls-40{fill:url(#New_Gradient_Swatch_copy_25-26);}.cls-41{fill:url(#New_Gradient_Swatch_copy_25-27);}.cls-42{fill:url(#New_Gradient_Swatch_copy_25-28);}.cls-43{fill:url(#New_Gradient_Swatch_copy_25-29);}</style><linearGradient id="New_Gradient_Swatch_copy_25" x1="-48.01" y1="826.31" x2="633.95" y2="227.87" gradientTransform="translate(-153.22)" gradientUnits="userSpaceOnUse"><stop offset="0" stop-color="#25054d"/><stop offset="1" stop-color="#45108a"/></linearGradient><linearGradient id="New_Gradient_Swatch_copy_25-2" x1="156.95" y1="815.53" x2="597.33" y2="368.09" xlink:href="#New_Gradient_Swatch_copy_25"/><linearGradient id="New_Gradient_Swatch_copy_25-3" x1="157.53" y1="672.03" x2="709.74" y2="25.29" xlink:href="#New_Gradient_Swatch_copy_25"/><linearGradient id="New_Gradient_Swatch_copy_25-4" x1="110.25" y1="519.36" x2="818.21" y2="-303.72" xlink:href="#New_Gradient_Swatch_copy_25"/><linearGradient id="New_Gradient_Swatch_copy_25-5" x1="-237.96" y1="-493.41" x2="297.62" y2="-1037.58" gradientTransform="matrix(0.87, -0.5, 0, 1.15, 186.96, 1343.94)" xlink:href="#New_Gradient_Swatch_copy_25"/><linearGradient id="linear-gradient" x1="176.29" y1="248.23" x2="391.67" y2="248.23" gradientUnits="userSpaceOnUse"><stop offset="0" stop-color="#00e5ff"/><stop offset="1" stop-color="#c0f"/></linearGradient><linearGradient id="New_Gradient_Swatch_copy_25-6" x1="-19.14" y1="452.86" x2="616.91" y2="-105.31" xlink:href="#New_Gradient_Swatch_copy_25"/><linearGradient id="New_Gradient_Swatch_copy_25-7" x1="390.78" y1="124.79" x2="438.22" y2="97.73" xlink:href="#New_Gradient_Swatch_copy_25"/><linearGradient id="New_Gradient_Swatch_copy_25-8" x1="407.25" y1="112" x2="482.18" y2="112" xlink:href="#New_Gradient_Swatch_copy_25"/><linearGradient id="New_Gradient_Swatch_copy_25-9" x1="374.79" y1="147.58" x2="431.38" y2="90.56" xlink:href="#New_Gradient_Swatch_copy_25"/><linearGradient id="New_Gradient_Swatch_copy_25-10" x1="426.94" y1="103.91" x2="474.38" y2="76.85" xlink:href="#New_Gradient_Swatch_copy_25"/><linearGradient id="New_Gradient_Swatch_copy_25-11" x1="443.41" y1="91.13" x2="518.34" y2="91.13" xlink:href="#New_Gradient_Swatch_copy_25"/><linearGradient id="New_Gradient_Swatch_copy_25-12" x1="410.95" y1="126.7" x2="467.54" y2="69.69" xlink:href="#New_Gradient_Swatch_copy_25"/><linearGradient id="New_Gradient_Swatch_copy_25-13" x1="463.1" y1="83.04" x2="510.54" y2="55.98" xlink:href="#New_Gradient_Swatch_copy_25"/><linearGradient id="New_Gradient_Swatch_copy_25-14" x1="479.57" y1="70.25" x2="554.5" y2="70.25" xlink:href="#New_Gradient_Swatch_copy_25"/><linearGradient id="New_Gradient_Swatch_copy_25-15" x1="447.11" y1="105.82" x2="503.7" y2="48.81" xlink:href="#New_Gradient_Swatch_copy_25"/><linearGradient id="linear-gradient-2" x1="62.34" y1="104.54" x2="163.93" y2="104.54" xlink:href="#linear-gradient"/><linearGradient id="linear-gradient-3" x1="57.6" y1="163.88" x2="163.93" y2="163.88" xlink:href="#linear-gradient"/><linearGradient id="linear-gradient-4" x1="163.93" y1="158.71" x2="270.25" y2="158.71" xlink:href="#linear-gradient"/><linearGradient id="linear-gradient-5" x1="57.6" y1="159.39" x2="163.93" y2="159.39" xlink:href="#linear-gradient"/><linearGradient id="linear-gradient-6" x1="57.6" y1="98.69" x2="163.93" y2="98.69" xlink:href="#linear-gradient"/><linearGradient id="linear-gradient-7" x1="163.93" y1="98.01" x2="270.25" y2="98.01" xlink:href="#linear-gradient"/><linearGradient id="New_Gradient_Swatch_copy_25-16" x1="-148.88" y1="-973.03" x2="-130.2" y2="-1018.56" gradientTransform="matrix(0.87, -0.5, 0, 1.15, 299.75, 1234.85)" xlink:href="#New_Gradient_Swatch_copy_25"/><linearGradient id="New_Gradient_Swatch_copy_25-17" x1="174.81" y1="172.19" x2="88.27" y2="76.85" gradientTransform="matrix(1, 0, 0, 1, 0, 0)" xlink:href="#New_Gradient_Swatch_copy_25"/><linearGradient id="New_Gradient_Swatch_copy_25-18" x1="144.28" y1="126.51" x2="264.01" y2="19.06" gradientTransform="matrix(1, 0, 0, 1, 0, 0)" xlink:href="#New_Gradient_Swatch_copy_25"/><linearGradient id="New_Gradient_Swatch_copy_25-19" x1="-151.94" y1="-1005.75" x2="-140.46" y2="-1033.75" gradientTransform="matrix(0.87, -0.5, 0, 1.15, 299.75, 1234.85)" xlink:href="#New_Gradient_Swatch_copy_25"/><linearGradient id="New_Gradient_Swatch_copy_25-20" x1="170.62" y1="141.16" x2="117.4" y2="82.53" gradientTransform="matrix(1, 0, 0, 1, 0, 0)" xlink:href="#New_Gradient_Swatch_copy_25"/><linearGradient id="New_Gradient_Swatch_copy_25-21" x1="108.75" y1="162.79" x2="197.1" y2="68.98" gradientTransform="matrix(1, 0, 0, 1, 0, 0)" xlink:href="#New_Gradient_Swatch_copy_25"/><linearGradient id="New_Gradient_Swatch_copy_25-22" x1="-154.73" y1="-1031.06" x2="-149.8" y2="-1043.09" gradientTransform="matrix(0.87, -0.5, 0, 1.15, 299.75, 1234.85)" xlink:href="#New_Gradient_Swatch_copy_25"/><linearGradient id="New_Gradient_Swatch_copy_25-23" x1="166.8" y1="118.07" x2="143.94" y2="92.88" gradientTransform="matrix(1, 0, 0, 1, 0, 0)" xlink:href="#New_Gradient_Swatch_copy_25"/><linearGradient id="linear-gradient-8" x1="242.13" y1="551.72" x2="291.48" y2="551.72" xlink:href="#linear-gradient"/><linearGradient id="linear-gradient-9" x1="298.41" y1="519.32" x2="347.76" y2="519.32" xlink:href="#linear-gradient"/><linearGradient id="New_Gradient_Swatch_copy_25-24" x1="43.63" y1="744.72" x2="284.13" y2="556.71" xlink:href="#New_Gradient_Swatch_copy_25"/><linearGradient id="New_Gradient_Swatch_copy_25-25" x1="209.68" y1="750.17" x2="351.72" y2="578.98" xlink:href="#New_Gradient_Swatch_copy_25"/><linearGradient id="New_Gradient_Swatch_copy_25-26" x1="191.86" y1="650.62" x2="441.77" y2="357.93" xlink:href="#New_Gradient_Swatch_copy_25"/><linearGradient id="New_Gradient_Swatch_copy_25-27" x1="12.46" y1="769.42" x2="268.65" y2="569.14" xlink:href="#New_Gradient_Swatch_copy_25"/><linearGradient id="New_Gradient_Swatch_copy_25-28" x1="204.1" y1="745.54" x2="346.14" y2="574.35" xlink:href="#New_Gradient_Swatch_copy_25"/><linearGradient id="New_Gradient_Swatch_copy_25-29" x1="175.76" y1="662.75" x2="425.68" y2="370.06" xlink:href="#New_Gradient_Swatch_copy_25"/></defs><g id="Layer_2" data-name="Layer 2"><g id="_Layer_" data-name="&lt;Layer&gt;"><polygon class="cls-1" points="36.16 486.75 291.32 339.43 419.09 413.2 163.93 560.52 36.16 486.75"/><polygon class="cls-2" points="163.93 560.52 163.93 633.06 419.09 485.74 419.09 413.2 163.93 560.52"/><polygon class="cls-3" points="163.93 633.06 163.93 560.52 36.16 486.75 36.16 559.29 163.93 633.06"/><polygon class="cls-4" points="51.22 484.98 163.93 550.05 163.93 203.7 51.22 138.62 51.22 484.98"/><polygon class="cls-5" points="404.03 411.43 163.93 550.05 163.93 203.7 404.03 65.07 404.03 411.43"/><path class="cls-6" d="M194.07,228l-17.78,10.27V217.84l17.78-10.27Zm22-33.08-17.79,10.26v20.41L216,215.3ZM238,182.22,220.2,192.49V212.9L238,202.63Zm22-12.68-17.79,10.27v20.41L259.94,190Zm22-12.67-17.79,10.27v20.4l17.79-10.26Zm22-12.68-17.79,10.27v20.41l17.79-10.27Zm22-12.67L308,141.78v20.41l17.79-10.27Zm21.95-12.68L330,129.11v20.41l17.78-10.27Zm22-12.68-17.79,10.27v20.41l17.79-10.27Zm21.95-12.67-17.78,10.27v20.41l17.78-10.27Zm-197.6,147-17.78,10.27v20.4l17.78-10.26Zm22-12.68-17.79,10.27v20.41L216,248.25ZM238,215.17,220.2,225.43v20.41L238,235.57Zm22-12.68-17.79,10.27v20.41l17.79-10.27Zm22-12.68-17.79,10.27v20.41l17.79-10.27Zm22-12.67-17.79,10.27v20.4l17.79-10.26Zm22-12.68L308,174.73v20.41l17.79-10.27Zm21.95-12.67L330,162.05v20.41l17.78-10.27Zm22-12.68-17.79,10.27v20.41l17.79-10.27Zm21.95-12.68L373.89,136.7v20.41l17.78-10.27Zm-197.6,147-17.78,10.27v20.41l17.78-10.27Zm22-12.67-17.79,10.26v20.41L216,281.19ZM238,248.11,220.2,258.38v20.41L238,268.52Zm22-12.68L242.15,245.7v20.41l17.79-10.27Zm22-12.67L264.11,233v20.41l17.79-10.27Zm22-12.68-17.79,10.27v20.41l17.79-10.27Zm22-12.67L308,207.68v20.4l17.79-10.26Zm21.95-12.68L330,195v20.41l17.78-10.27Zm22-12.68-17.79,10.27v20.41l17.79-10.27Zm21.95-12.67-17.78,10.27v20.41l17.78-10.27Zm-197.6,147-17.78,10.27v20.4l17.78-10.26Zm22-12.68L198.24,304v20.41L216,314.14ZM238,281.06,220.2,291.32v20.41L238,301.46Zm22-12.68-17.79,10.27v20.41l17.79-10.27Zm22-12.68L264.11,266v20.41l17.79-10.27Zm22-12.67L286.06,253.3v20.4l17.79-10.26Zm22-12.68L308,240.62V261l17.79-10.27Zm21.95-12.67L330,227.94v20.41l17.78-10.27Zm22-12.68-17.79,10.27v20.41l17.79-10.27Zm21.95-12.68-17.78,10.27V223l17.78-10.27Zm-197.6,147-17.78,10.27V370l17.78-10.27Zm22-12.67L198.24,337v20.4L216,347.09ZM238,314,220.2,324.27v20.41L238,334.41Zm22-12.67-17.79,10.26V332l17.79-10.27Zm22-12.68-17.79,10.27v20.41l17.79-10.27Zm22-12.68-17.79,10.27v20.41l17.79-10.27Zm22-12.67L308,273.57V294l17.79-10.26Zm21.95-12.68L330,260.89V281.3L347.76,271Zm22-12.67-17.79,10.26v20.41l17.79-10.27Zm21.95-12.68-17.78,10.27V256l17.78-10.27Zm-197.6,147-17.78,10.27V403l17.78-10.26Zm22-12.68-17.79,10.27V390.3L216,380ZM238,347,220.2,357.21v20.41L238,367.35Zm22-12.68-17.79,10.27V365l17.79-10.27Zm22-12.68-17.79,10.27v20.41L281.9,342Zm22-12.67-17.79,10.27V339.6l17.79-10.27Zm22-12.68L308,306.51v20.41l17.79-10.27Zm21.95-12.67L330,293.84v20.4L347.76,304Zm22-12.68-17.79,10.27v20.41l17.79-10.27Zm21.95-12.67-17.78,10.26v20.41l17.78-10.27Z"/><polygon class="cls-7" points="51.22 138.62 291.32 0 404.03 65.07 163.93 203.7 51.22 138.62"/><path class="cls-8" d="M275.1,103.35c2.65,1.53,2.64,4,0,5.57a10.68,10.68,0,0,1-9.66,0c-2.66-1.54-2.65-4,0-5.58A10.68,10.68,0,0,1,275.1,103.35Z"/><path class="cls-9" d="M277.08,106.14a3.42,3.42,0,0,1-2,2.78,10.68,10.68,0,0,1-9.66,0,3.35,3.35,0,0,1-2-2.8h0v7.78a3.36,3.36,0,0,0,2,2.8,10.68,10.68,0,0,0,9.66,0,3.42,3.42,0,0,0,2-2.78v-7.78Z"/><path class="cls-10" d="M283.72,98.53a13.47,13.47,0,1,1-13.47-13.47A13.47,13.47,0,0,1,283.72,98.53Z"/><path class="cls-11" d="M311.26,82.47c2.65,1.53,2.64,4,0,5.57a10.65,10.65,0,0,1-9.66,0c-2.66-1.53-2.65-4,0-5.57A10.65,10.65,0,0,1,311.26,82.47Z"/><path class="cls-12" d="M313.24,85.26a3.41,3.41,0,0,1-2,2.78,10.65,10.65,0,0,1-9.66,0,3.35,3.35,0,0,1-2-2.8h0V93a3.35,3.35,0,0,0,2,2.8,10.65,10.65,0,0,0,9.66,0,3.42,3.42,0,0,0,2-2.78V85.26Z"/><path class="cls-13" d="M319.88,77.65a13.47,13.47,0,1,1-13.47-13.47A13.48,13.48,0,0,1,319.88,77.65Z"/><path class="cls-14" d="M347.42,61.59c2.65,1.54,2.64,4,0,5.58a10.68,10.68,0,0,1-9.66,0c-2.66-1.53-2.65-4,0-5.57A10.68,10.68,0,0,1,347.42,61.59Z"/><path class="cls-15" d="M349.4,64.39a3.44,3.44,0,0,1-2,2.78,10.68,10.68,0,0,1-9.66,0,3.35,3.35,0,0,1-2-2.79h0v7.78a3.35,3.35,0,0,0,2,2.79,10.68,10.68,0,0,0,9.66,0,3.44,3.44,0,0,0,2-2.78V64.39Z"/><path class="cls-16" d="M356,56.78a13.47,13.47,0,1,1-13.47-13.47A13.47,13.47,0,0,1,356,56.78Z"/><polygon class="cls-17" points="163.93 79.7 265.52 137 164.19 195.4 62.34 138.35 163.93 79.7"/><polygon class="cls-18" points="62.34 129.38 62.34 138.35 163.93 79.7 163.93 70.72 62.34 129.38"/><polygon class="cls-19" points="57.6 129.38 57.6 138.36 163.93 198.38 163.93 189.41 57.6 129.38"/><polygon class="cls-20" points="163.93 70.72 163.93 79.7 265.52 137 265.52 128.02 163.93 70.72"/><polygon class="cls-21" points="163.93 189.41 163.93 198.38 270.25 137 270.25 128.02 163.93 189.41"/><polygon class="cls-22" points="163.93 189.41 163.93 186.67 265.52 128.02 270.25 128.02 163.93 189.41"/><polygon class="cls-23" points="163.93 189.41 163.93 186.67 62.34 129.38 57.6 129.38 163.93 189.41"/><polygon class="cls-24" points="57.6 129.38 62.34 129.38 163.93 70.72 163.93 67.99 57.6 129.38"/><polygon class="cls-25" points="163.93 67.99 163.93 70.72 265.52 128.02 270.25 128.02 163.93 67.99"/><polygon class="cls-20" points="201.99 119.52 163.93 141.49 126.11 119.65 164.17 97.68 201.99 119.52"/><polygon class="cls-26" points="201.99 137 163.93 158.97 163.93 141.49 201.99 119.52 201.99 137"/><polygon class="cls-27" points="125.87 137 163.93 158.97 163.93 141.49 125.87 119.52 125.87 137"/><polygon class="cls-28" points="187.33 108.77 163.93 122.28 140.67 108.85 164.07 95.34 187.33 108.77"/><polygon class="cls-29" points="187.33 119.52 163.93 133.03 163.93 122.28 187.33 108.77 187.33 119.52"/><polygon class="cls-30" points="140.53 119.52 163.93 133.03 163.93 122.28 140.53 108.77 140.53 119.52"/><polygon class="cls-31" points="173.98 104.15 163.93 109.95 153.94 104.19 163.99 98.38 173.98 104.15"/><polygon class="cls-32" points="173.98 108.77 163.93 114.57 163.93 109.95 173.98 104.15 173.98 108.77"/><polygon class="cls-33" points="153.87 108.77 163.93 114.57 163.93 109.95 153.87 104.15 153.87 108.77"/><line class="cls-34" x1="163.96" y1="104.17" x2="163.96" y2="17.99"/><circle class="cls-35" cx="163.96" cy="17.99" r="4.67"/><path class="cls-35" d="M164,34.43a3,3,0,1,1,3-3A3,3,0,0,1,164,34.43Z"/><path class="cls-35" d="M164,42.72a3,3,0,1,1,3-3A3,3,0,0,1,164,42.72Z"/><path class="cls-35" d="M164,51a3,3,0,1,1,3-3A3,3,0,0,1,164,51Z"/><polygon class="cls-36" points="242.13 544.03 242.13 587.91 291.48 559.41 291.48 515.53 242.13 544.03"/><polygon class="cls-37" points="298.4 511.75 298.4 555.38 347.76 526.88 347.76 483.26 298.4 511.75"/><polygon class="cls-38" points="163.93 619.57 36.16 545.8 18.08 556.24 145.85 630.01 163.93 619.57"/><polygon class="cls-39" points="163.93 619.57 163.93 633.06 145.85 643.5 145.85 630.01 163.93 619.57"/><polygon class="cls-40" points="18.08 556.24 145.85 630.01 145.85 643.5 18.08 569.73 18.08 556.24"/><polygon class="cls-41" points="145.85 630.01 18.08 564.28 0 574.72 127.77 640.45 145.85 630.01"/><polygon class="cls-42" points="145.85 630.01 145.85 643.5 127.77 653.94 127.77 640.45 145.85 630.01"/><polygon class="cls-43" points="0 574.72 127.77 640.45 127.77 653.94 0 580.17 0 574.72"/></g></g></svg>