<svg xmlns="http://www.w3.org/2000/svg" xmlns:xlink="http://www.w3.org/1999/xlink" viewBox="0 0 505.53 497.73"><defs><style>.cls-1{isolation:isolate;}.cls-2{fill:url(#New_Gradient_Swatch_copy_25);}.cls-3{fill:url(#New_Gradient_Swatch_copy_25-2);}.cls-4{fill:url(#New_Gradient_Swatch_copy_25-3);}.cls-5{fill:url(#New_Gradient_Swatch_copy_25-4);}.cls-6{fill:url(#New_Gradient_Swatch_copy_25-5);}.cls-7{fill:url(#linear-gradient);}.cls-8{fill:url(#linear-gradient-2);}.cls-9{fill:url(#linear-gradient-3);}.cls-10{fill:url(#New_Gradient_Swatch_copy_25-6);}.cls-11{fill:url(#New_Gradient_Swatch_copy_25-7);}.cls-12{fill:url(#New_Gradient_Swatch_copy_25-8);}.cls-13{fill:url(#New_Gradient_Swatch_copy_25-9);}.cls-14{fill:url(#New_Gradient_Swatch_copy_25-10);}.cls-15{fill:url(#linear-gradient-4);}.cls-16{fill:url(#linear-gradient-5);}.cls-17{fill:url(#linear-gradient-6);}.cls-18{fill:url(#New_Gradient_Swatch_copy_25-11);}.cls-19{fill:url(#New_Gradient_Swatch_copy_25-12);}.cls-20{fill:url(#New_Gradient_Swatch_copy_25-13);}.cls-21{fill:url(#New_Gradient_Swatch_copy_25-14);}.cls-22{fill:url(#New_Gradient_Swatch_copy_25-15);}.cls-23{fill:url(#linear-gradient-7);}.cls-24{fill:url(#linear-gradient-8);}.cls-25{fill:url(#linear-gradient-9);}.cls-26{fill:url(#New_Gradient_Swatch_copy_25-16);}.cls-27{fill:url(#New_Gradient_Swatch_copy_25-17);}.cls-28{fill:url(#New_Gradient_Swatch_copy_25-18);}.cls-29{fill:url(#New_Gradient_Swatch_copy_25-19);}.cls-30{fill:url(#New_Gradient_Swatch_copy_25-20);}.cls-31{fill:url(#linear-gradient-10);}.cls-32{fill:url(#linear-gradient-11);}.cls-33{fill:url(#linear-gradient-12);}.cls-34{fill:url(#New_Gradient_Swatch_copy_25-21);}.cls-35{fill:url(#New_Gradient_Swatch_copy_25-22);}.cls-36{fill:url(#New_Gradient_Swatch_copy_25-23);}.cls-37{fill:url(#New_Gradient_Swatch_copy_25-24);}.cls-38{fill:url(#New_Gradient_Swatch_copy_25-25);}.cls-39{fill:url(#New_Gradient_Swatch_copy_25-26);}</style><linearGradient id="New_Gradient_Swatch_copy_25" x1="15.05" y1="326.21" x2="491.57" y2="326.21" gradientUnits="userSpaceOnUse"><stop offset="0" stop-color="#25054d"/><stop offset="1" stop-color="#45108a"/></linearGradient><linearGradient id="New_Gradient_Swatch_copy_25-2" x1="360.3" y1="442.52" x2="491.57" y2="442.52" xlink:href="#New_Gradient_Swatch_copy_25"/><linearGradient id="New_Gradient_Swatch_copy_25-3" x1="13.96" y1="381.42" x2="361.39" y2="381.42" xlink:href="#New_Gradient_Swatch_copy_25"/><linearGradient id="New_Gradient_Swatch_copy_25-4" x1="144.66" y1="286.69" x2="493.03" y2="286.69" xlink:href="#New_Gradient_Swatch_copy_25"/><linearGradient id="New_Gradient_Swatch_copy_25-5" x1="12.5" y1="225.58" x2="144.69" y2="225.58" xlink:href="#New_Gradient_Swatch_copy_25"/><linearGradient id="linear-gradient" x1="0.03" y1="320.04" x2="505.53" y2="320.04" gradientUnits="userSpaceOnUse"><stop offset="0" stop-color="#00e5ff"/><stop offset="1" stop-color="#c0f"/></linearGradient><linearGradient id="linear-gradient-2" x1="360.87" y1="428.21" x2="505.53" y2="428.21" xlink:href="#linear-gradient"/><linearGradient id="linear-gradient-3" x1="0" y1="367.11" x2="360.9" y2="367.11" xlink:href="#linear-gradient"/><linearGradient id="New_Gradient_Swatch_copy_25-6" x1="15.05" y1="267.91" x2="491.57" y2="267.91" xlink:href="#New_Gradient_Swatch_copy_25"/><linearGradient id="New_Gradient_Swatch_copy_25-7" x1="360.3" y1="384.22" x2="491.57" y2="384.22" xlink:href="#New_Gradient_Swatch_copy_25"/><linearGradient id="New_Gradient_Swatch_copy_25-8" x1="13.96" y1="323.12" x2="361.39" y2="323.12" xlink:href="#New_Gradient_Swatch_copy_25"/><linearGradient id="New_Gradient_Swatch_copy_25-9" x1="144.66" y1="228.39" x2="493.03" y2="228.39" xlink:href="#New_Gradient_Swatch_copy_25"/><linearGradient id="New_Gradient_Swatch_copy_25-10" x1="12.5" y1="167.28" x2="144.69" y2="167.28" xlink:href="#New_Gradient_Swatch_copy_25"/><linearGradient id="linear-gradient-4" x1="0.03" y1="261.74" x2="505.53" y2="261.74" xlink:href="#linear-gradient"/><linearGradient id="linear-gradient-5" x1="360.87" y1="369.92" x2="505.53" y2="369.92" xlink:href="#linear-gradient"/><linearGradient id="linear-gradient-6" x1="0" y1="308.82" x2="360.9" y2="308.82" xlink:href="#linear-gradient"/><linearGradient id="New_Gradient_Swatch_copy_25-11" x1="15.05" y1="209.62" x2="491.57" y2="209.62" xlink:href="#New_Gradient_Swatch_copy_25"/><linearGradient id="New_Gradient_Swatch_copy_25-12" x1="360.3" y1="325.93" x2="491.57" y2="325.93" xlink:href="#New_Gradient_Swatch_copy_25"/><linearGradient id="New_Gradient_Swatch_copy_25-13" x1="13.96" y1="264.82" x2="361.39" y2="264.82" xlink:href="#New_Gradient_Swatch_copy_25"/><linearGradient id="New_Gradient_Swatch_copy_25-14" x1="144.66" y1="170.09" x2="493.03" y2="170.09" xlink:href="#New_Gradient_Swatch_copy_25"/><linearGradient id="New_Gradient_Swatch_copy_25-15" x1="12.5" y1="108.99" x2="144.69" y2="108.99" xlink:href="#New_Gradient_Swatch_copy_25"/><linearGradient id="linear-gradient-7" x1="0.03" y1="203.45" x2="505.53" y2="203.45" xlink:href="#linear-gradient"/><linearGradient id="linear-gradient-8" x1="360.87" y1="311.62" x2="505.53" y2="311.62" xlink:href="#linear-gradient"/><linearGradient id="linear-gradient-9" x1="0" y1="250.52" x2="360.9" y2="250.52" xlink:href="#linear-gradient"/><linearGradient id="New_Gradient_Swatch_copy_25-16" x1="15.05" y1="151.32" x2="491.57" y2="151.32" xlink:href="#New_Gradient_Swatch_copy_25"/><linearGradient id="New_Gradient_Swatch_copy_25-17" x1="360.3" y1="267.63" x2="491.57" y2="267.63" xlink:href="#New_Gradient_Swatch_copy_25"/><linearGradient id="New_Gradient_Swatch_copy_25-18" x1="13.96" y1="206.53" x2="361.39" y2="206.53" xlink:href="#New_Gradient_Swatch_copy_25"/><linearGradient id="New_Gradient_Swatch_copy_25-19" x1="144.66" y1="111.8" x2="493.03" y2="111.8" xlink:href="#New_Gradient_Swatch_copy_25"/><linearGradient id="New_Gradient_Swatch_copy_25-20" x1="12.5" y1="50.69" x2="144.69" y2="50.69" xlink:href="#New_Gradient_Swatch_copy_25"/><linearGradient id="linear-gradient-10" x1="0.03" y1="145.15" x2="505.53" y2="145.15" xlink:href="#linear-gradient"/><linearGradient id="linear-gradient-11" x1="360.87" y1="253.32" x2="505.53" y2="253.32" xlink:href="#linear-gradient"/><linearGradient id="linear-gradient-12" x1="0" y1="192.22" x2="360.9" y2="192.22" xlink:href="#linear-gradient"/><linearGradient id="New_Gradient_Swatch_copy_25-21" x1="280.97" y1="175.71" x2="356.4" y2="175.71" xlink:href="#New_Gradient_Swatch_copy_25"/><linearGradient id="New_Gradient_Swatch_copy_25-22" x1="318.49" y1="192.72" x2="356.4" y2="192.72" xlink:href="#New_Gradient_Swatch_copy_25"/><linearGradient id="New_Gradient_Swatch_copy_25-23" x1="280.65" y1="192.72" x2="318.8" y2="192.72" xlink:href="#New_Gradient_Swatch_copy_25"/><linearGradient id="New_Gradient_Swatch_copy_25-24" x1="332.06" y1="206.07" x2="407.49" y2="206.07" xlink:href="#New_Gradient_Swatch_copy_25"/><linearGradient id="New_Gradient_Swatch_copy_25-25" x1="369.58" y1="223.08" x2="407.49" y2="223.08" xlink:href="#New_Gradient_Swatch_copy_25"/><linearGradient id="New_Gradient_Swatch_copy_25-26" x1="331.74" y1="223.08" x2="369.9" y2="223.08" xlink:href="#New_Gradient_Swatch_copy_25"/></defs><g id="Layer_2" data-name="Layer 2"><g id="_Layer_" data-name="&lt;Layer&gt;"><g class="cls-1"><polygon class="cls-2" points="491.57 387.31 361.39 462.97 15.05 265.11 145.23 189.45 491.57 387.31"/><polygon class="cls-3" points="491.57 387.31 490.48 422.07 360.3 497.73 361.39 462.97 491.57 387.31"/><polygon class="cls-4" points="361.39 462.97 360.3 497.73 13.96 299.87 15.05 265.11 361.39 462.97"/></g><g class="cls-1"><polygon class="cls-5" points="493.03 381.15 493 391.24 144.66 192.22 144.69 182.13 493.03 381.15"/><polygon class="cls-6" points="144.69 182.13 144.66 192.22 12.5 269.02 12.53 258.94 144.69 182.13"/><path class="cls-7" d="M144.66,174.89,505.53,381.14,360.9,465.19,0,258.94ZM360.87,458,493,381.15l-348.34-199L12.53,258.93,360.87,458"/><polygon class="cls-8" points="505.53 381.14 505.5 391.23 360.87 475.28 360.9 465.19 505.53 381.14"/><polygon class="cls-9" points="360.9 465.19 360.87 475.28 0 269.03 0.03 258.94 360.9 465.19"/></g><g class="cls-1"><polygon class="cls-10" points="491.57 329.02 361.39 404.67 15.05 206.81 145.23 131.16 491.57 329.02"/><polygon class="cls-11" points="491.57 329.02 490.48 363.78 360.3 439.43 361.39 404.67 491.57 329.02"/><polygon class="cls-12" points="361.39 404.67 360.3 439.43 13.96 241.57 15.05 206.81 361.39 404.67"/></g><g class="cls-1"><polygon class="cls-13" points="493.03 322.85 493 332.94 144.66 133.93 144.69 123.84 493.03 322.85"/><polygon class="cls-14" points="144.69 123.84 144.66 133.93 12.5 210.73 12.53 200.64 144.69 123.84"/><path class="cls-15" d="M144.66,116.59,505.53,322.84,360.9,406.9,0,200.64ZM360.87,399.65,493,322.85l-348.34-199L12.53,200.64l348.34,199"/><polygon class="cls-16" points="505.53 322.85 505.5 332.94 360.87 416.99 360.9 406.89 505.53 322.85"/><polygon class="cls-17" points="360.9 406.89 360.87 416.99 0 210.74 0.03 200.64 360.9 406.89"/></g><g class="cls-1"><polygon class="cls-18" points="491.57 270.72 361.39 346.37 15.05 148.51 145.23 72.86 491.57 270.72"/><polygon class="cls-19" points="491.57 270.72 490.48 305.48 360.3 381.13 361.39 346.37 491.57 270.72"/><polygon class="cls-20" points="361.39 346.37 360.3 381.13 13.96 183.27 15.05 148.51 361.39 346.37"/></g><g class="cls-1"><polygon class="cls-21" points="493.03 264.56 493 274.65 144.66 75.63 144.69 65.54 493.03 264.56"/><polygon class="cls-22" points="144.69 65.54 144.66 75.63 12.5 152.43 12.53 142.34 144.69 65.54"/><path class="cls-23" d="M144.66,58.3,505.53,264.55,360.9,348.6,0,142.35ZM360.87,341.36,493,264.55l-348.34-199L12.53,142.34l348.34,199"/><polygon class="cls-24" points="505.53 264.55 505.5 274.64 360.87 358.69 360.9 348.6 505.53 264.55"/><polygon class="cls-25" points="360.9 348.6 360.87 358.69 0 152.44 0.03 142.35 360.9 348.6"/></g><g class="cls-1"><polygon class="cls-26" points="491.57 212.42 361.39 288.08 15.05 90.22 145.23 14.56 491.57 212.42"/><polygon class="cls-27" points="491.57 212.42 490.48 247.18 360.3 322.84 361.39 288.08 491.57 212.42"/><polygon class="cls-28" points="361.39 288.08 360.3 322.84 13.96 124.98 15.05 90.22 361.39 288.08"/></g><g class="cls-1"><polygon class="cls-29" points="493.03 206.26 493 216.35 144.66 17.33 144.69 7.24 493.03 206.26"/><polygon class="cls-30" points="144.69 7.24 144.66 17.33 12.5 94.14 12.53 84.04 144.69 7.24"/><path class="cls-31" d="M144.66,0,505.53,206.25,360.9,290.3,0,84.05ZM360.87,283.06,493,206.26,144.69,7.24,12.53,84l348.34,199"/><polygon class="cls-32" points="505.53 206.25 505.5 216.34 360.87 300.39 360.9 290.3 505.53 206.25"/><polygon class="cls-33" points="360.9 290.3 360.87 300.39 0 94.14 0.03 84.05 360.9 290.3"/></g><g class="cls-1"><polygon class="cls-34" points="356.39 175.71 318.8 197.55 280.97 175.71 318.56 153.86 356.39 175.71"/><polygon class="cls-35" points="356.39 175.71 356.08 187.89 318.49 209.74 318.8 197.55 356.39 175.71"/><polygon class="cls-36" points="318.8 197.55 318.49 209.74 280.65 187.89 280.97 175.71 318.8 197.55"/></g><g class="cls-1"><polygon class="cls-37" points="407.49 206.06 369.89 227.91 332.06 206.07 369.65 184.22 407.49 206.06"/><polygon class="cls-38" points="407.49 206.06 407.17 218.25 369.58 240.09 369.89 227.91 407.49 206.06"/><polygon class="cls-39" points="369.89 227.91 369.58 240.09 331.74 218.25 332.06 206.07 369.89 227.91"/></g></g></g></svg>